<svg width="88" height="98" viewBox="0 0 88 98" fill="none" xmlns="http://www.w3.org/2000/svg">
<g filter="url(#filter0_d)">
<circle cx="34" cy="44" r="24" fill="url(#paint0_linear)"/>
<path d="M46.0001 41.85C46.0001 37.2509 41.5383 33.5093 36.0543 33.5093C30.5701 33.5093 26.1084 37.2509 26.1084 41.85C26.1084 46.4491 30.5701 50.1908 36.0543 50.1908C36.5154 50.1908 36.9781 50.1641 37.433 50.1114C39.5453 51.4532 41.1046 52.1877 42.0711 52.2951C42.1047 52.2987 42.1386 52.3006 42.1717 52.3006C42.4821 52.3006 42.7695 52.1459 42.9406 51.8865C43.1318 51.5963 43.1443 51.2281 42.9739 50.9276C42.966 50.9132 42.2202 49.5525 42.4353 48.2526C44.7044 46.6647 46.0001 44.3441 46.0001 41.85ZM33.3532 43.1097C32.5394 43.1097 31.8799 42.4501 31.8799 41.6364C31.8799 40.8227 32.5394 40.1631 33.3532 40.1631C34.1668 40.1631 34.8266 40.8228 34.8266 41.6364C34.8266 42.4501 34.1668 43.1097 33.3532 43.1097ZM38.7556 43.1097C37.9417 43.1097 37.282 42.4501 37.282 41.6364C37.282 40.8227 37.9417 40.1631 38.7556 40.1631C39.5692 40.1631 40.2288 40.8228 40.2288 41.6364C40.2288 42.4501 39.5691 43.1097 38.7556 43.1097Z" fill="white"/>
<path d="M28.2095 48.5231C27.2227 47.706 26.4447 46.7495 25.8977 45.6803C25.3209 44.553 25.0284 43.3539 25.0284 42.1163C25.0284 40.8786 25.3209 39.6795 25.8977 38.5522C25.9418 38.4659 25.9881 38.3807 26.0352 38.2959C23.5992 39.6915 22 42.0208 22 44.6538C22 47.0194 23.2743 49.2128 25.5005 50.6882C25.9117 52.3046 24.9576 54.0148 24.9475 54.0322C24.8906 54.1325 24.8948 54.2563 24.9583 54.3525C25.0155 54.4393 25.112 54.4906 25.2145 54.4906C25.2258 54.4906 25.2371 54.4899 25.2485 54.4887C26.3624 54.365 28.3237 53.2329 29.8096 52.2784C30.31 52.3464 30.8216 52.3807 31.332 52.3807C33.284 52.3807 35.0976 51.8815 36.5973 51.0298C36.2622 51.0566 35.9247 51.0709 35.5883 51.0709C32.8144 51.0709 30.1939 50.1661 28.2095 48.5231Z" fill="white"/>
</g>
<defs>
<filter id="filter0_d" x="-20" y="0" width="108" height="108" filterUnits="userSpaceOnUse" color-interpolation-filters="sRGB">
<feFlood flood-opacity="0" result="BackgroundImageFix"/>
<feColorMatrix in="SourceAlpha" type="matrix" values="0 0 0 0 0 0 0 0 0 0 0 0 0 0 0 0 0 0 127 0"/>
<feOffset dy="10"/>
<feGaussianBlur stdDeviation="15"/>
<feColorMatrix type="matrix" values="0 0 0 0 0 0 0 0 0 0 0 0 0 0 0 0 0 0 0.25 0"/>
<feBlend mode="normal" in2="BackgroundImageFix" result="effect1_dropShadow"/>
<feBlend mode="normal" in="SourceGraphic" in2="effect1_dropShadow" result="shape"/>
</filter>
<linearGradient id="paint0_linear" x1="0.0377367" y1="-18.9434" x2="64.6119" y2="65.6711" gradientUnits="userSpaceOnUse">
<stop stop-color="#E63C45"/>
<stop offset="1" stop-color="#FDBB35"/>
</linearGradient>
</defs>
</svg>
