<svg width="20" height="20" viewBox="0 0 20 20" fill="none" xmlns="http://www.w3.org/2000/svg">
<path d="M9.99983 18.3334C6.62781 18.3354 3.58692 16.3049 2.29623 13.1897C1.00554 10.0744 1.71947 6.4884 4.10484 4.105C6.21092 1.99892 9.28058 1.1764 12.1576 1.94729C15.0345 2.71816 17.2817 4.96532 18.0526 7.84229C18.8234 10.7193 18.0009 13.7889 15.8948 15.895C14.3344 17.4625 12.2117 18.3405 9.99983 18.3334ZM3.33317 10.1434C3.37261 13.811 6.36743 16.7579 10.0353 16.7384C13.7032 16.7185 16.6662 13.7396 16.6662 10.0717C16.6662 6.40376 13.7032 3.42481 10.0353 3.405C6.36743 3.38539 3.37261 6.3323 3.33317 10V10.1434ZM7.84067 13.3334L6.66651 12.1584L8.82483 10L6.66651 7.84167L7.84151 6.66667L9.99983 8.82502L12.1582 6.66667L13.3332 7.84167L11.1748 10L13.3332 12.1584L12.159 13.3334L9.99983 11.175L7.84151 13.3334H7.84067Z" fill="#F65151"/>
</svg>
