<svg width="168" height="200" viewBox="0 0 168 200" fill="none" xmlns="http://www.w3.org/2000/svg">
<g clip-path="url(#clip0)">
<path fill-rule="evenodd" clip-rule="evenodd" d="M56.1113 21.6441C56.1152 21.715 56.1117 21.7868 56.101 21.8547C56.0903 21.9227 56.0727 21.9853 56.0492 22.0385C56.0258 22.0917 55.9971 22.1342 55.965 22.1633C55.933 22.1924 55.8982 22.2075 55.8631 22.2075C55.828 22.2075 55.7932 22.1924 55.7611 22.1633C55.7291 22.1342 55.7004 22.0917 55.6769 22.0385C55.6535 21.9853 55.6359 21.9227 55.6252 21.8547C55.6145 21.7868 55.611 21.715 55.6149 21.6441C55.611 21.5732 55.6145 21.5014 55.6252 21.4334C55.6359 21.3655 55.6535 21.3029 55.6769 21.2497C55.7004 21.1965 55.7291 21.154 55.7611 21.1248C55.7932 21.0957 55.828 21.0807 55.8631 21.0807C55.8982 21.0807 55.933 21.0957 55.965 21.1248C55.9971 21.154 56.0258 21.1965 56.0492 21.2497C56.0727 21.3029 56.0903 21.3655 56.101 21.4334C56.1117 21.5014 56.1152 21.5732 56.1113 21.6441Z" fill="#FCFCFC" fill-opacity="0.8"/>
<path d="M45.9563 37.4544C46.0942 37.4544 46.2061 37.2021 46.2061 36.891C46.2061 36.5798 46.0942 36.3276 45.9563 36.3276C45.8184 36.3276 45.7065 36.5798 45.7065 36.891C45.7065 37.2021 45.8184 37.4544 45.9563 37.4544Z" fill="#FCFCFC" fill-opacity="0.8"/>
<path fill-rule="evenodd" clip-rule="evenodd" d="M114.695 47.9867C114.695 48.0988 114.681 48.2086 114.654 48.3024C114.627 48.3961 114.588 48.4694 114.542 48.5129C114.496 48.5564 114.446 48.5681 114.397 48.5466C114.348 48.5251 114.303 48.4713 114.268 48.3921C114.233 48.3128 114.209 48.2118 114.2 48.1019C114.19 47.9919 114.195 47.8781 114.215 47.7749C114.234 47.6716 114.266 47.5837 114.308 47.5223C114.35 47.4609 114.398 47.4289 114.448 47.4303C114.513 47.4303 114.576 47.4889 114.622 47.5933C114.669 47.6976 114.695 47.8392 114.695 47.9867Z" fill="#FCFCFC" fill-opacity="0.8"/>
<path d="M77.0754 94C77.2133 94 77.3251 93.7477 77.3251 93.4366C77.3251 93.1254 77.2133 92.8732 77.0754 92.8732C76.9374 92.8732 76.8256 93.1254 76.8256 93.4366C76.8256 93.7477 76.9374 94 77.0754 94Z" fill="#FCFCFC" fill-opacity="0.8"/>
<path fill-rule="evenodd" clip-rule="evenodd" d="M165 61.8501C165 61.9615 164.985 62.0704 164.958 62.1631C164.93 62.2557 164.891 62.328 164.846 62.3706C164.8 62.4132 164.75 62.4244 164.702 62.4027C164.653 62.3809 164.609 62.3273 164.574 62.2485C164.539 62.1697 164.515 62.0693 164.505 61.96C164.496 61.8507 164.501 61.7374 164.519 61.6344C164.538 61.5315 164.57 61.4435 164.611 61.3816C164.653 61.3197 164.701 61.2866 164.75 61.2866C164.816 61.2866 164.88 61.346 164.927 61.4517C164.974 61.5573 165 61.7006 165 61.8501Z" fill="#FCFCFC" fill-opacity="0.8"/>
<path fill-rule="evenodd" clip-rule="evenodd" d="M66.5477 75.2194C66.5483 75.3311 66.5342 75.4407 66.5071 75.5343C66.4801 75.6278 66.4413 75.7011 66.3957 75.7448C66.3501 75.7885 66.2998 75.8007 66.2511 75.7797C66.2025 75.7588 66.1577 75.7057 66.1225 75.6272C66.0872 75.5487 66.0631 75.4483 66.0532 75.3388C66.0434 75.2293 66.0481 75.1157 66.0669 75.0123C66.0857 74.909 66.1177 74.8206 66.1589 74.7584C66.2 74.6961 66.2484 74.6629 66.298 74.6629C66.3637 74.6629 66.4267 74.7213 66.4735 74.8254C66.5202 74.9296 66.5469 75.0711 66.5477 75.2194Z" fill="#FCFCFC" fill-opacity="0.8"/>
<path d="M58.2051 65.5975C58.3431 65.5975 58.4549 65.3453 58.4549 65.0341C58.4549 64.7229 58.3431 64.4707 58.2051 64.4707C58.0672 64.4707 57.9553 64.7229 57.9553 65.0341C57.9553 65.3453 58.0672 65.5975 58.2051 65.5975Z" fill="#FCFCFC" fill-opacity="0.8"/>
<path fill-rule="evenodd" clip-rule="evenodd" d="M103.839 27.0464C103.839 27.1958 103.813 27.3391 103.766 27.4448C103.719 27.5504 103.655 27.6098 103.589 27.6098C103.523 27.6098 103.459 27.5504 103.413 27.4448C103.366 27.3391 103.339 27.1958 103.339 27.0464C103.339 26.897 103.366 26.7537 103.413 26.648C103.459 26.5423 103.523 26.483 103.589 26.483C103.655 26.483 103.719 26.5423 103.766 26.648C103.813 26.7537 103.839 26.897 103.839 27.0464Z" fill="#FCFCFC" fill-opacity="0.8"/>
<path d="M80.9172 -16.9336C81.0551 -16.9336 81.1669 -17.1858 81.1669 -17.497C81.1669 -17.8082 81.0551 -18.0604 80.9172 -18.0604C80.7792 -18.0604 80.6674 -17.8082 80.6674 -17.497C80.6674 -17.1858 80.7792 -16.9336 80.9172 -16.9336Z" fill="#FCFCFC" fill-opacity="0.8"/>
<path d="M58.0333 -3.31451C58.1712 -3.31451 58.2831 -3.56676 58.2831 -3.87794C58.2831 -4.1891 58.1712 -4.44135 58.0333 -4.44135C57.8954 -4.44135 57.7835 -4.1891 57.7835 -3.87794C57.7835 -3.56676 57.8954 -3.31451 58.0333 -3.31451Z" fill="#FCFCFC" fill-opacity="0.8"/>
<path fill-rule="evenodd" clip-rule="evenodd" d="M69.1536 74.7517C69.1536 74.8631 69.139 74.9721 69.1115 75.0647C69.0841 75.1574 69.0451 75.2296 68.9995 75.2722C68.9538 75.3149 68.9036 75.326 68.8551 75.3043C68.8067 75.2826 68.7622 75.2289 68.7273 75.1501C68.6923 75.0713 68.6686 74.9709 68.6589 74.8616C68.6493 74.7524 68.6542 74.6391 68.6731 74.5361C68.692 74.4332 68.7241 74.3452 68.7651 74.2833C68.8062 74.2214 68.8545 74.1883 68.9039 74.1883C68.9368 74.1874 68.9695 74.2013 68.9999 74.2293C69.0304 74.2573 69.0581 74.2988 69.0814 74.3513C69.1047 74.4038 69.1231 74.4662 69.1355 74.535C69.1479 74.6038 69.154 74.6775 69.1536 74.7517Z" fill="#FCFCFC" fill-opacity="0.8"/>
<path fill-rule="evenodd" clip-rule="evenodd" d="M70.5784 -7.59172C70.5784 -7.47999 70.5637 -7.37078 70.5361 -7.27798C70.5085 -7.18518 70.4694 -7.11298 70.4235 -7.07055C70.3777 -7.02812 70.3273 -7.01738 70.2788 -7.03968C70.2303 -7.06199 70.1858 -7.11635 70.151 -7.19584C70.1162 -7.27533 70.0926 -7.37638 70.0833 -7.48612C70.0741 -7.59587 70.0794 -7.70937 70.0988 -7.81219C70.1182 -7.91501 70.1507 -8.00252 70.1922 -8.06359C70.2336 -8.12465 70.2822 -8.15652 70.3318 -8.15514C70.3975 -8.15331 70.4602 -8.09314 70.5064 -7.98767C70.5526 -7.88221 70.5785 -7.73995 70.5784 -7.59172Z" fill="#FCFCFC" fill-opacity="0.8"/>
<path d="M105.771 67.9097C105.909 67.9097 106.021 67.6574 106.021 67.3462C106.021 67.0351 105.909 66.7828 105.771 66.7828C105.633 66.7828 105.521 67.0351 105.521 67.3462C105.521 67.6574 105.633 67.9097 105.771 67.9097Z" fill="#FCFCFC" fill-opacity="0.8"/>
<path d="M46.1175 27.8029C46.2554 27.8029 46.3672 27.5507 46.3672 27.2395C46.3672 26.9284 46.2554 26.6761 46.1175 26.6761C45.9795 26.6761 45.8677 26.9284 45.8677 27.2395C45.8677 27.5507 45.9795 27.8029 46.1175 27.8029Z" fill="#FCFCFC" fill-opacity="0.8"/>
<path d="M74.9869 61.7954C75.1248 61.7954 75.2367 61.5432 75.2367 61.232C75.2367 60.9208 75.1248 60.6686 74.9869 60.6686C74.849 60.6686 74.7371 60.9208 74.7371 61.232C74.7371 61.5432 74.849 61.7954 74.9869 61.7954Z" fill="#FCFCFC" fill-opacity="0.8"/>
<path fill-rule="evenodd" clip-rule="evenodd" d="M50.0946 31.4555C50.0946 31.5669 50.08 31.6759 50.0525 31.7685C50.0251 31.8612 49.9861 31.9334 49.9404 31.976C49.8948 32.0187 49.8446 32.0298 49.7961 32.0081C49.7477 31.9863 49.7032 31.9327 49.6682 31.8539C49.6333 31.7751 49.6095 31.6747 49.5999 31.5654C49.5902 31.4561 49.5952 31.3428 49.6141 31.2399C49.633 31.1369 49.665 31.0489 49.7061 30.987C49.7472 30.9251 49.7954 30.8921 49.8448 30.8921C49.8776 30.8921 49.9101 30.9067 49.9404 30.935C49.9707 30.9633 49.9983 31.0048 50.0215 31.0571C50.0446 31.1094 50.063 31.1715 50.0756 31.2399C50.0881 31.3082 50.0946 31.3815 50.0946 31.4555Z" fill="#FCFCFC" fill-opacity="0.8"/>
<path fill-rule="evenodd" clip-rule="evenodd" d="M144.403 -18.1425C144.407 -18.0716 144.404 -17.9998 144.393 -17.9319C144.382 -17.8639 144.365 -17.8013 144.341 -17.7481C144.318 -17.695 144.289 -17.6524 144.257 -17.6233C144.225 -17.5942 144.19 -17.5791 144.155 -17.5791C144.12 -17.5791 144.085 -17.5942 144.053 -17.6233C144.021 -17.6524 143.992 -17.695 143.969 -17.7481C143.946 -17.8013 143.928 -17.8639 143.917 -17.9319C143.906 -17.9998 143.903 -18.0716 143.907 -18.1425C143.903 -18.2134 143.906 -18.2852 143.917 -18.3532C143.928 -18.4211 143.946 -18.4838 143.969 -18.5369C143.992 -18.5901 144.021 -18.6327 144.053 -18.6618C144.085 -18.6909 144.12 -18.706 144.155 -18.706C144.19 -18.706 144.225 -18.6909 144.257 -18.6618C144.289 -18.6327 144.318 -18.5901 144.341 -18.5369C144.365 -18.4838 144.382 -18.4211 144.393 -18.3532C144.404 -18.2852 144.407 -18.2134 144.403 -18.1425Z" fill="#FCFCFC" fill-opacity="0.8"/>
<path d="M95.7484 46.1125C95.8864 46.1125 95.9982 45.8603 95.9982 45.5491C95.9982 45.238 95.8864 44.9857 95.7484 44.9857C95.6105 44.9857 95.4987 45.238 95.4987 45.5491C95.4987 45.8603 95.6105 46.1125 95.7484 46.1125Z" fill="#FCFCFC" fill-opacity="0.8"/>
<path fill-rule="evenodd" clip-rule="evenodd" d="M154.539 68.8638C154.539 68.9755 154.524 69.0847 154.496 69.1775C154.469 69.2703 154.43 69.3425 154.384 69.3849C154.338 69.4274 154.288 69.4381 154.239 69.4158C154.19 69.3935 154.146 69.3391 154.111 69.2596C154.076 69.1802 154.053 69.0791 154.044 68.9694C154.034 68.8596 154.04 68.7461 154.059 68.6433C154.078 68.5405 154.111 68.453 154.152 68.3919C154.194 68.3308 154.242 68.299 154.292 68.3003C154.325 68.3003 154.357 68.315 154.387 68.3434C154.417 68.3718 154.445 68.4134 154.467 68.4658C154.49 68.5182 154.509 68.5804 154.521 68.6487C154.533 68.717 154.539 68.7901 154.539 68.8638Z" fill="#FCFCFC" fill-opacity="0.8"/>
<path d="M155.996 -23.274C156.134 -23.274 156.246 -23.5263 156.246 -23.8375C156.246 -24.1486 156.134 -24.4009 155.996 -24.4009C155.858 -24.4009 155.746 -24.1486 155.746 -23.8375C155.746 -23.5263 155.858 -23.274 155.996 -23.274Z" fill="#FCFCFC" fill-opacity="0.8"/>
<path fill-rule="evenodd" clip-rule="evenodd" d="M42.8008 8.22915C42.8008 8.34087 42.7861 8.45008 42.7585 8.54288C42.7309 8.63568 42.6917 8.70788 42.6459 8.75031C42.6001 8.79274 42.5497 8.80349 42.5012 8.78117C42.4527 8.75887 42.4082 8.70451 42.3734 8.62502C42.3386 8.54553 42.315 8.44448 42.3057 8.33474C42.2964 8.22499 42.3018 8.11149 42.3212 8.00867C42.3406 7.90585 42.3731 7.81834 42.4146 7.75728C42.456 7.69621 42.5046 7.66434 42.5541 7.66573C42.5868 7.66572 42.6191 7.68034 42.6493 7.70873C42.6794 7.73713 42.7067 7.77875 42.7297 7.83116C42.7526 7.88357 42.7707 7.94574 42.7829 8.01405C42.7951 8.08237 42.8012 8.15548 42.8008 8.22915Z" fill="#FCFCFC" fill-opacity="0.8"/>
<path d="M158.648 36.1742C158.786 36.1742 158.898 35.9219 158.898 35.6107C158.898 35.2996 158.786 35.0473 158.648 35.0473C158.51 35.0473 158.398 35.2996 158.398 35.6107C158.398 35.9219 158.51 36.1742 158.648 36.1742Z" fill="#FCFCFC" fill-opacity="0.8"/>
<path d="M21.3379 60.9346C21.4758 60.9346 21.5877 60.6823 21.5877 60.3712C21.5877 60.06 21.4758 59.8077 21.3379 59.8077C21.2 59.8077 21.0881 60.06 21.0881 60.3712C21.0881 60.6823 21.2 60.9346 21.3379 60.9346Z" fill="#FCFCFC" fill-opacity="0.8"/>
<path d="M25.2223 -2.42607C25.3602 -2.42607 25.472 -2.67832 25.472 -2.98949C25.472 -3.30066 25.3602 -3.55291 25.2223 -3.55291C25.0843 -3.55291 24.9725 -3.30066 24.9725 -2.98949C24.9725 -2.67832 25.0843 -2.42607 25.2223 -2.42607Z" fill="#FCFCFC" fill-opacity="0.8"/>
<path fill-rule="evenodd" clip-rule="evenodd" d="M154.454 42.772C154.455 42.8837 154.44 42.9933 154.413 43.0869C154.386 43.1804 154.348 43.2537 154.302 43.2974C154.256 43.3412 154.206 43.3533 154.157 43.3324C154.109 43.3114 154.064 43.2583 154.029 43.1798C153.993 43.1013 153.969 43.0009 153.959 42.8914C153.95 42.782 153.954 42.6683 153.973 42.565C153.992 42.4616 154.024 42.3732 154.065 42.311C154.106 42.2488 154.155 42.2155 154.204 42.2155C154.27 42.2155 154.333 42.2739 154.38 42.3781C154.426 42.4822 154.453 42.6238 154.454 42.772Z" fill="#FCFCFC" fill-opacity="0.8"/>
<path fill-rule="evenodd" clip-rule="evenodd" d="M104.011 10.8006C104.011 10.9501 103.984 11.0934 103.938 11.199C103.891 11.3047 103.827 11.3641 103.761 11.3641C103.695 11.3641 103.631 11.3047 103.584 11.199C103.538 11.0934 103.511 10.9501 103.511 10.8006C103.511 10.6512 103.538 10.5079 103.584 10.4022C103.631 10.2966 103.695 10.2372 103.761 10.2372C103.827 10.2372 103.891 10.2966 103.938 10.4022C103.984 10.5079 104.011 10.6512 104.011 10.8006Z" fill="#FCFCFC" fill-opacity="0.8"/>
<path d="M152.991 63.313C153.129 63.313 153.241 63.0607 153.241 62.7495C153.241 62.4384 153.129 62.1861 152.991 62.1861C152.854 62.1861 152.742 62.4384 152.742 62.7495C152.742 63.0607 152.854 63.313 152.991 63.313Z" fill="#FCFCFC" fill-opacity="0.8"/>
<path d="M121.711 14.526C121.849 14.526 121.961 14.2738 121.961 13.9626C121.961 13.6514 121.849 13.3992 121.711 13.3992C121.573 13.3992 121.461 13.6514 121.461 13.9626C121.461 14.2738 121.573 14.526 121.711 14.526Z" fill="#FCFCFC" fill-opacity="0.8"/>
<path fill-rule="evenodd" clip-rule="evenodd" d="M130.353 17.6654C130.353 17.7771 130.338 17.8863 130.311 17.9791C130.283 18.0719 130.244 18.1441 130.198 18.1865C130.152 18.229 130.102 18.2397 130.053 18.2174C130.005 18.1951 129.96 18.1407 129.925 18.0612C129.891 17.9818 129.867 17.8807 129.858 17.771C129.848 17.6612 129.854 17.5477 129.873 17.4449C129.893 17.3421 129.925 17.2546 129.967 17.1935C130.008 17.1324 130.057 17.1006 130.106 17.102C130.139 17.1019 130.171 17.1166 130.201 17.145C130.231 17.1734 130.259 17.215 130.282 17.2674C130.305 17.3198 130.323 17.382 130.335 17.4503C130.347 17.5186 130.353 17.5917 130.353 17.6654Z" fill="#FCFCFC" fill-opacity="0.8"/>
<path fill-rule="evenodd" clip-rule="evenodd" d="M159.901 90.0539C159.901 90.1656 159.886 90.2748 159.859 90.3676C159.831 90.4604 159.792 90.5326 159.746 90.5751C159.7 90.6175 159.65 90.6282 159.601 90.6059C159.553 90.5836 159.508 90.5293 159.473 90.4498C159.439 90.3703 159.415 90.2692 159.406 90.1595C159.396 90.0497 159.402 89.9362 159.421 89.8334C159.441 89.7306 159.473 89.6431 159.515 89.582C159.556 89.521 159.605 89.4891 159.654 89.4905C159.72 89.4923 159.783 89.5525 159.829 89.6579C159.875 89.7634 159.901 89.9057 159.901 90.0539Z" fill="#FCFCFC" fill-opacity="0.8"/>
<path fill-rule="evenodd" clip-rule="evenodd" d="M96.1679 -5.34722C96.1685 -5.2352 96.1543 -5.12532 96.1271 -5.03161C96.0999 -4.93789 96.0609 -4.8646 96.0151 -4.8211C95.9694 -4.7776 95.9189 -4.76586 95.8702 -4.78737C95.8214 -4.80889 95.7766 -4.86269 95.7415 -4.94191C95.7064 -5.02112 95.6826 -5.12214 95.673 -5.23208C95.6635 -5.34202 95.6687 -5.45588 95.688 -5.5591C95.7073 -5.66234 95.7398 -5.75026 95.7813 -5.81163C95.8228 -5.87301 95.8715 -5.90506 95.9212 -5.90368C95.9866 -5.90368 96.0494 -5.84506 96.0956 -5.7407C96.1419 -5.63634 96.1679 -5.4948 96.1679 -5.34722Z" fill="#FCFCFC" fill-opacity="0.8"/>
<path d="M112.963 31.5443C113.101 31.5443 113.213 31.2921 113.213 30.9809C113.213 30.6697 113.101 30.4175 112.963 30.4175C112.825 30.4175 112.713 30.6697 112.713 30.9809C112.713 31.2921 112.825 31.5443 112.963 31.5443Z" fill="#FCFCFC" fill-opacity="0.8"/>
<path d="M49.3402 -2.86753C49.4781 -2.86753 49.5899 -3.11978 49.5899 -3.43095C49.5899 -3.74212 49.4781 -3.99437 49.3402 -3.99437C49.2022 -3.99437 49.0904 -3.74212 49.0904 -3.43095C49.0904 -3.11978 49.2022 -2.86753 49.3402 -2.86753Z" fill="#FCFCFC" fill-opacity="0.8"/>
<path d="M20.4558 30.7718C20.5937 30.7718 20.7056 30.5195 20.7056 30.2083C20.7056 29.8972 20.5937 29.6449 20.4558 29.6449C20.3179 29.6449 20.206 29.8972 20.206 30.2083C20.206 30.5195 20.3179 30.7718 20.4558 30.7718Z" fill="#FCFCFC" fill-opacity="0.8"/>
<path d="M162.611 -17.5295C162.749 -17.5295 162.861 -17.7818 162.861 -18.093C162.861 -18.4041 162.749 -18.6564 162.611 -18.6564C162.473 -18.6564 162.361 -18.4041 162.361 -18.093C162.361 -17.7818 162.473 -17.5295 162.611 -17.5295Z" fill="#FCFCFC" fill-opacity="0.8"/>
<path d="M54.2358 13.312C54.3737 13.312 54.4856 13.0598 54.4856 12.7486C54.4856 12.4374 54.3737 12.1852 54.2358 12.1852C54.0979 12.1852 53.986 12.4374 53.986 12.7486C53.986 13.0598 54.0979 13.312 54.2358 13.312Z" fill="#FCFCFC" fill-opacity="0.8"/>
<path fill-rule="evenodd" clip-rule="evenodd" d="M128.027 47.0115C128.027 47.1229 128.012 47.2318 127.985 47.3245C127.957 47.4171 127.918 47.4894 127.873 47.532C127.827 47.5746 127.777 47.5858 127.728 47.5641C127.68 47.5423 127.636 47.4887 127.601 47.4099C127.566 47.3311 127.542 47.2307 127.532 47.1214C127.523 47.0121 127.528 46.8988 127.546 46.7958C127.565 46.6929 127.597 46.6049 127.638 46.543C127.68 46.4811 127.728 46.448 127.777 46.448C127.843 46.448 127.907 46.5074 127.954 46.6131C128.001 46.7187 128.027 46.862 128.027 47.0115Z" fill="#FCFCFC" fill-opacity="0.8"/>
<path fill-rule="evenodd" clip-rule="evenodd" d="M144.69 59.4316C144.691 59.5433 144.676 59.6529 144.649 59.7465C144.622 59.8401 144.584 59.9134 144.538 59.9571C144.492 60.0008 144.442 60.013 144.393 59.992C144.345 59.9711 144.3 59.918 144.265 59.8394C144.23 59.7609 144.205 59.6606 144.196 59.5511C144.186 59.4416 144.19 59.328 144.209 59.2246C144.228 59.1212 144.26 59.0328 144.301 58.9706C144.342 58.9084 144.391 58.8752 144.44 58.8752C144.506 58.8751 144.569 58.9336 144.616 59.0377C144.663 59.1419 144.689 59.2834 144.69 59.4316Z" fill="#FCFCFC" fill-opacity="0.8"/>
<path d="M129.762 -25.8732C129.9 -25.8732 130.011 -26.1254 130.011 -26.4366C130.011 -26.7477 129.9 -27 129.762 -27C129.624 -27 129.512 -26.7477 129.512 -26.4366C129.512 -26.1254 129.624 -25.8732 129.762 -25.8732Z" fill="#FCFCFC" fill-opacity="0.8"/>
<path fill-rule="evenodd" clip-rule="evenodd" d="M35.8995 27.4934C35.8995 27.6048 35.8848 27.7137 35.8574 27.8064C35.83 27.899 35.791 27.9713 35.7453 28.0139C35.6997 28.0565 35.6495 28.0677 35.601 28.046C35.5526 28.0242 35.5081 27.9706 35.4731 27.8918C35.4382 27.813 35.4144 27.7126 35.4048 27.6033C35.3951 27.494 35.4001 27.3807 35.419 27.2778C35.4379 27.1748 35.4699 27.0868 35.511 27.0249C35.5521 26.963 35.6003 26.93 35.6497 26.93C35.716 26.93 35.7795 26.9893 35.8263 27.095C35.8732 27.2006 35.8995 27.3439 35.8995 27.4934Z" fill="#FCFCFC" fill-opacity="0.8"/>
<path fill-rule="evenodd" clip-rule="evenodd" d="M69.3338 47.2487C69.3338 47.3982 69.3074 47.5415 69.2606 47.6471C69.2138 47.7528 69.1502 47.8122 69.084 47.8122C69.0178 47.8122 68.9542 47.7528 68.9074 47.6471C68.8605 47.5415 68.8342 47.3982 68.8342 47.2487C68.8342 47.0993 68.8605 46.956 68.9074 46.8503C68.9542 46.7447 69.0178 46.6853 69.084 46.6853C69.1502 46.6853 69.2138 46.7447 69.2606 46.8503C69.3074 46.956 69.3338 47.0993 69.3338 47.2487Z" fill="#FCFCFC" fill-opacity="0.8"/>
<path fill-rule="evenodd" clip-rule="evenodd" d="M113.552 25.7482C113.553 25.8599 113.538 25.9695 113.511 26.0631C113.484 26.1566 113.445 26.2299 113.4 26.2736C113.354 26.3173 113.304 26.3295 113.255 26.3086C113.207 26.2876 113.162 26.2345 113.127 26.156C113.091 26.0775 113.067 25.9771 113.057 25.8676C113.048 25.7581 113.052 25.6445 113.071 25.5411C113.09 25.4378 113.122 25.3494 113.163 25.2872C113.204 25.2249 113.253 25.1917 113.302 25.1917C113.368 25.1917 113.431 25.2501 113.478 25.3543C113.524 25.4584 113.551 25.5999 113.552 25.7482Z" fill="#FCFCFC" fill-opacity="0.8"/>
<path d="M90.5115 63.7268C90.6494 63.7268 90.7613 63.4746 90.7613 63.1634C90.7613 62.8522 90.6494 62.6 90.5115 62.6C90.3736 62.6 90.2617 62.8522 90.2617 63.1634C90.2617 63.4746 90.3736 63.7268 90.5115 63.7268Z" fill="#FCFCFC" fill-opacity="0.8"/>
<path fill-rule="evenodd" clip-rule="evenodd" d="M114.26 64.9955C114.26 65.1069 114.245 65.2158 114.218 65.3085C114.191 65.4011 114.152 65.4733 114.106 65.516C114.06 65.5586 114.01 65.5698 113.962 65.548C113.913 65.5263 113.869 65.4726 113.834 65.3939C113.799 65.3151 113.775 65.2147 113.765 65.1054C113.756 64.9961 113.761 64.8828 113.78 64.7798C113.799 64.6769 113.831 64.5889 113.872 64.527C113.913 64.4651 113.961 64.432 114.01 64.432C114.077 64.432 114.14 64.4914 114.187 64.5971C114.234 64.7027 114.26 64.846 114.26 64.9955Z" fill="#FCFCFC" fill-opacity="0.8"/>
<path d="M96.7641 51.3218C96.902 51.3218 97.0138 51.0695 97.0138 50.7583C97.0138 50.4472 96.902 50.1949 96.7641 50.1949C96.6261 50.1949 96.5143 50.4472 96.5143 50.7583C96.5143 51.0695 96.6261 51.3218 96.7641 51.3218Z" fill="#FCFCFC" fill-opacity="0.8"/>
<path d="M85.6646 56.1723C85.8025 56.1723 85.9143 55.9201 85.9143 55.6089C85.9143 55.2977 85.8025 55.0455 85.6646 55.0455C85.5266 55.0455 85.4148 55.2977 85.4148 55.6089C85.4148 55.9201 85.5266 56.1723 85.6646 56.1723Z" fill="#FCFCFC" fill-opacity="0.8"/>
<path d="M23.1804 38.4421C23.3183 38.4421 23.4301 38.1899 23.4301 37.8787C23.4301 37.5676 23.3183 37.3153 23.1804 37.3153C23.0424 37.3153 22.9306 37.5676 22.9306 37.8787C22.9306 38.1899 23.0424 38.4421 23.1804 38.4421Z" fill="#FCFCFC" fill-opacity="0.8"/>
<path d="M12.8292 5.12291C12.9672 5.12291 13.079 4.87066 13.079 4.55949C13.079 4.24832 12.9672 3.99607 12.8292 3.99607C12.6913 3.99607 12.5795 4.24832 12.5795 4.55949C12.5795 4.87066 12.6913 5.12291 12.8292 5.12291Z" fill="#FCFCFC" fill-opacity="0.8"/>
<path fill-rule="evenodd" clip-rule="evenodd" d="M33.3211 -10.6764C33.3211 -10.5647 33.3063 -10.4555 33.2788 -10.3627C33.2512 -10.2699 33.212 -10.1977 33.1662 -10.1552C33.1204 -10.1128 33.07 -10.1021 33.0215 -10.1244C32.9729 -10.1467 32.9284 -10.201 32.8936 -10.2805C32.8588 -10.36 32.8353 -10.4611 32.826 -10.5708C32.8167 -10.6806 32.8221 -10.7941 32.8415 -10.8969C32.8609 -10.9997 32.8933 -11.0872 32.9348 -11.1483C32.9763 -11.2093 33.0249 -11.2412 33.0744 -11.2398C33.1071 -11.2398 33.1394 -11.2252 33.1695 -11.1968C33.1996 -11.1684 33.227 -11.1268 33.2499 -11.0744C33.2729 -11.022 33.291 -10.9598 33.3032 -10.8915C33.3154 -10.8232 33.3215 -10.7501 33.3211 -10.6764Z" fill="#FCFCFC" fill-opacity="0.8"/>
<path d="M141.803 3.15841C141.941 3.15841 142.052 2.90615 142.052 2.59498C142.052 2.28382 141.941 2.03156 141.803 2.03156C141.665 2.03156 141.553 2.28382 141.553 2.59498C141.553 2.90615 141.665 3.15841 141.803 3.15841Z" fill="#FCFCFC" fill-opacity="0.8"/>
<path d="M99.3804 50.8803C99.5184 50.8803 99.6302 50.6281 99.6302 50.3169C99.6302 50.0057 99.5184 49.7535 99.3804 49.7535C99.2425 49.7535 99.1307 50.0057 99.1307 50.3169C99.1307 50.6281 99.2425 50.8803 99.3804 50.8803Z" fill="#FCFCFC" fill-opacity="0.8"/>
<path fill-rule="evenodd" clip-rule="evenodd" d="M45.6187 -14.3902C45.6187 -14.2788 45.604 -14.1699 45.5766 -14.0772C45.5491 -13.9846 45.5101 -13.9124 45.4645 -13.8697C45.4188 -13.8271 45.3686 -13.8159 45.3202 -13.8377C45.2717 -13.8594 45.2272 -13.913 45.1923 -13.9918C45.1574 -14.0706 45.1336 -14.171 45.124 -14.2803C45.1143 -14.3896 45.1193 -14.5029 45.1382 -14.6058C45.1571 -14.7088 45.1891 -14.7968 45.2302 -14.8587C45.2712 -14.9206 45.3195 -14.9536 45.3689 -14.9536C45.4018 -14.9546 45.4345 -14.9406 45.465 -14.9126C45.4955 -14.8847 45.5232 -14.8432 45.5464 -14.7907C45.5697 -14.7382 45.5881 -14.6757 45.6005 -14.6069C45.6129 -14.5382 45.6191 -14.4645 45.6187 -14.3902Z" fill="#FCFCFC" fill-opacity="0.8"/>
<path d="M6.2988 33.6358C6.43674 33.6358 6.54856 33.3835 6.54856 33.0723C6.54856 32.7612 6.43674 32.5089 6.2988 32.5089C6.16086 32.5089 6.04903 32.7612 6.04903 33.0723C6.04903 33.3835 6.16086 33.6358 6.2988 33.6358Z" fill="#FCFCFC" fill-opacity="0.8"/>
<path d="M15.3397 56.9504C15.4777 56.9504 15.5895 56.6981 15.5895 56.387C15.5895 56.0758 15.4777 55.8236 15.3397 55.8236C15.2018 55.8236 15.09 56.0758 15.09 56.387C15.09 56.6981 15.2018 56.9504 15.3397 56.9504Z" fill="#FCFCFC" fill-opacity="0.8"/>
<path d="M17.5809 1.98854C17.7188 1.98854 17.8306 1.73629 17.8306 1.42512C17.8306 1.11395 17.7188 0.8617 17.5809 0.8617C17.4429 0.8617 17.3311 1.11395 17.3311 1.42512C17.3311 1.73629 17.4429 1.98854 17.5809 1.98854Z" fill="#FCFCFC" fill-opacity="0.8"/>
<path d="M142.731 16.8658C142.869 16.8658 142.981 16.6135 142.981 16.3023C142.981 15.9912 142.869 15.7389 142.731 15.7389C142.593 15.7389 142.482 15.9912 142.482 16.3023C142.482 16.6135 142.593 16.8658 142.731 16.8658Z" fill="#FCFCFC" fill-opacity="0.8"/>
<path d="M0.369193 62.9487C0.507133 62.9487 0.618957 62.6965 0.618957 62.3853C0.618957 62.0742 0.507133 61.8219 0.369193 61.8219C0.231252 61.8219 0.11943 62.0742 0.11943 62.3853C0.11943 62.6965 0.231252 62.9487 0.369193 62.9487Z" fill="#FCFCFC" fill-opacity="0.8"/>
<path fill-rule="evenodd" clip-rule="evenodd" d="M0.499508 -9.7604C0.499508 -9.64897 0.48486 -9.54004 0.457417 -9.44739C0.429973 -9.35474 0.390967 -9.28253 0.34533 -9.23989C0.299694 -9.19725 0.249476 -9.18609 0.201029 -9.20783C0.152581 -9.22957 0.108079 -9.28322 0.0731503 -9.36202C0.0382215 -9.44081 0.0144359 -9.5412 0.00479912 -9.65049C-0.00483769 -9.75978 0.000108061 -9.87306 0.0190113 -9.976C0.0379146 -10.079 0.0699256 -10.1669 0.110997 -10.2288C0.152069 -10.2908 0.200357 -10.3238 0.249753 -10.3238C0.282666 -10.3247 0.31533 -10.3108 0.345819 -10.2828C0.376307 -10.2548 0.404004 -10.2134 0.427279 -10.1609C0.450553 -10.1084 0.468935 -10.0459 0.48134 -9.9771C0.493745 -9.90833 0.499922 -9.83465 0.499508 -9.7604Z" fill="#FCFCFC" fill-opacity="0.8"/>
<path d="M23.3522 22.1964C23.4902 22.1964 23.602 21.9441 23.602 21.633C23.602 21.3218 23.4902 21.0696 23.3522 21.0696C23.2143 21.0696 23.1024 21.3218 23.1024 21.633C23.1024 21.9441 23.2143 22.1964 23.3522 22.1964Z" fill="#FCFCFC" fill-opacity="0.8"/>
<path d="M10.1026 41.0137C10.2405 41.0137 10.3523 40.7614 10.3523 40.4502C10.3523 40.1391 10.2405 39.8868 10.1026 39.8868C9.96462 39.8868 9.8528 40.1391 9.8528 40.4502C9.8528 40.7614 9.96462 41.0137 10.1026 41.0137Z" fill="#FCFCFC" fill-opacity="0.8"/>
<path d="M24.3698 -9.67155C24.5077 -9.67155 24.6196 -9.9238 24.6196 -10.235C24.6196 -10.5461 24.5077 -10.7984 24.3698 -10.7984C24.2319 -10.7984 24.12 -10.5461 24.12 -10.235C24.12 -9.9238 24.2319 -9.67155 24.3698 -9.67155Z" fill="#FCFCFC" fill-opacity="0.8"/>
<path fill-rule="evenodd" clip-rule="evenodd" d="M162.689 8.08567C162.689 8.1974 162.674 8.3066 162.647 8.3994C162.619 8.4922 162.58 8.5644 162.534 8.60683C162.488 8.64927 162.438 8.66002 162.389 8.6377C162.341 8.61539 162.296 8.56104 162.262 8.48154C162.227 8.40205 162.203 8.30101 162.194 8.19127C162.185 8.08152 162.19 7.96802 162.209 7.8652C162.229 7.76237 162.261 7.67487 162.303 7.6138C162.344 7.55274 162.393 7.52087 162.442 7.52225C162.508 7.52408 162.571 7.58425 162.617 7.68971C162.663 7.79518 162.689 7.93744 162.689 8.08567Z" fill="#FCFCFC" fill-opacity="0.8"/>
<path d="M153.051 10.1059C153.189 10.1059 153.301 9.85364 153.301 9.54247C153.301 9.2313 153.189 8.97905 153.051 8.97905C152.913 8.97905 152.801 9.2313 152.801 9.54247C152.801 9.85364 152.913 10.1059 153.051 10.1059Z" fill="#FCFCFC" fill-opacity="0.8"/>
<path d="M129.425 13.9963C129.563 13.9963 129.674 13.744 129.674 13.4328C129.674 13.1217 129.563 12.8694 129.425 12.8694C129.287 12.8694 129.175 13.1217 129.175 13.4328C129.175 13.744 129.287 13.9963 129.425 13.9963Z" fill="#FCFCFC" fill-opacity="0.8"/>
<path d="M105.36 -2.18327C105.498 -2.18327 105.609 -2.43552 105.609 -2.74669C105.609 -3.05786 105.498 -3.31011 105.36 -3.31011C105.222 -3.31011 105.11 -3.05786 105.11 -2.74669C105.11 -2.43552 105.222 -2.18327 105.36 -2.18327Z" fill="#FCFCFC" fill-opacity="0.8"/>
<path d="M99.5522 23.3773C99.6901 23.3773 99.8019 23.1251 99.8019 22.8139C99.8019 22.5027 99.6901 22.2505 99.5522 22.2505C99.4142 22.2505 99.3024 22.5027 99.3024 22.8139C99.3024 23.1251 99.4142 23.3773 99.5522 23.3773Z" fill="#FCFCFC" fill-opacity="0.8"/>
<path fill-rule="evenodd" clip-rule="evenodd" d="M27.2276 43.7336C27.2276 43.8453 27.2129 43.9546 27.1853 44.0473C27.1577 44.1401 27.1185 44.2124 27.0727 44.2548C27.0269 44.2972 26.9765 44.308 26.928 44.2856C26.8794 44.2633 26.835 44.209 26.8001 44.1295C26.7653 44.05 26.7418 43.949 26.7325 43.8392C26.7232 43.7295 26.7286 43.616 26.748 43.5131C26.7674 43.4103 26.7999 43.3228 26.8413 43.2617C26.8828 43.2007 26.9314 43.1688 26.9809 43.1702C27.0136 43.1702 27.0459 43.1848 27.076 43.2132C27.1062 43.2416 27.1335 43.2832 27.1564 43.3356C27.1794 43.388 27.1975 43.4502 27.2097 43.5185C27.2219 43.5869 27.228 43.66 27.2276 43.7336Z" fill="#FCFCFC" fill-opacity="0.8"/>
<path d="M158.023 16.4243C158.161 16.4243 158.272 16.172 158.272 15.8609C158.272 15.5497 158.161 15.2975 158.023 15.2975C157.885 15.2975 157.773 15.5497 157.773 15.8609C157.773 16.172 157.885 16.4243 158.023 16.4243Z" fill="#FCFCFC" fill-opacity="0.8"/>
<path d="M157.688 30.5455C157.826 30.5455 157.938 30.2933 157.938 29.9821C157.938 29.6709 157.826 29.4187 157.688 29.4187C157.55 29.4187 157.438 29.6709 157.438 29.9821C157.438 30.2933 157.55 30.5455 157.688 30.5455Z" fill="#FCFCFC" fill-opacity="0.8"/>
<path d="M142.038 44.2308C142.176 44.2308 142.288 43.9786 142.288 43.6674C142.288 43.3562 142.176 43.104 142.038 43.104C141.9 43.104 141.788 43.3562 141.788 43.6674C141.788 43.9786 141.9 44.2308 142.038 44.2308Z" fill="#FCFCFC" fill-opacity="0.8"/>
<path fill-rule="evenodd" clip-rule="evenodd" d="M128.165 24.0003C128.165 24.112 128.15 24.2212 128.122 24.314C128.095 24.4068 128.056 24.479 128.01 24.5215C127.964 24.5639 127.914 24.5747 127.865 24.5523C127.817 24.53 127.772 24.4757 127.737 24.3962C127.702 24.3167 127.679 24.2157 127.67 24.1059C127.66 23.9962 127.666 23.8827 127.685 23.7798C127.704 23.677 127.737 23.5895 127.778 23.5285C127.82 23.4674 127.869 23.4355 127.918 23.4369C127.951 23.4369 127.983 23.4515 128.013 23.4799C128.043 23.5083 128.071 23.5499 128.094 23.6023C128.117 23.6547 128.135 23.7169 128.147 23.7852C128.159 23.8535 128.165 23.9267 128.165 24.0003Z" fill="#FCFCFC" fill-opacity="0.8"/>
<path d="M9.70829 -4.35194C9.84623 -4.35194 9.95805 -4.60419 9.95805 -4.91536C9.95805 -5.22653 9.84623 -5.47878 9.70829 -5.47878C9.57035 -5.47878 9.45852 -5.22653 9.45852 -4.91536C9.45852 -4.60419 9.57035 -4.35194 9.70829 -4.35194Z" fill="#FCFCFC" fill-opacity="0.8"/>
<path fill-rule="evenodd" clip-rule="evenodd" d="M17.6965 87.8632C17.7004 87.9341 17.6969 88.0059 17.6862 88.0738C17.6755 88.1418 17.6579 88.2044 17.6344 88.2576C17.611 88.3108 17.5823 88.3533 17.5502 88.3824C17.5182 88.4116 17.4834 88.4266 17.4483 88.4266C17.4131 88.4266 17.3784 88.4116 17.3463 88.3824C17.3142 88.3533 17.2856 88.3108 17.2621 88.2576C17.2387 88.2044 17.2211 88.1418 17.2104 88.0738C17.1997 88.0059 17.1962 87.9341 17.2001 87.8632C17.1962 87.7923 17.1997 87.7205 17.2104 87.6525C17.2211 87.5846 17.2387 87.522 17.2621 87.4688C17.2856 87.4156 17.3142 87.3731 17.3463 87.3439C17.3784 87.3148 17.4131 87.2998 17.4483 87.2998C17.4834 87.2998 17.5182 87.3148 17.5502 87.3439C17.5823 87.3731 17.611 87.4156 17.6344 87.4688C17.6579 87.522 17.6755 87.5846 17.6862 87.6525C17.6969 87.7205 17.7004 87.7923 17.6965 87.8632Z" fill="#FCFCFC" fill-opacity="0.8"/>
<path d="M22.2009 85.3529C22.3388 85.3529 22.4506 85.1006 22.4506 84.7895C22.4506 84.4783 22.3388 84.226 22.2009 84.226C22.0629 84.226 21.9511 84.4783 21.9511 84.7895C21.9511 85.1006 22.0629 85.3529 22.2009 85.3529Z" fill="#FCFCFC" fill-opacity="0.8"/>
<path fill-rule="evenodd" clip-rule="evenodd" d="M14.5781 78.449C14.5781 78.5604 14.5635 78.6693 14.536 78.762C14.5086 78.8547 14.4696 78.9269 14.4239 78.9695C14.3783 79.0122 14.3281 79.0233 14.2796 79.0016C14.2312 78.9798 14.1867 78.9262 14.1518 78.8474C14.1168 78.7686 14.093 78.6682 14.0834 78.5589C14.0738 78.4496 14.0787 78.3363 14.0976 78.2334C14.1165 78.1304 14.1485 78.0424 14.1896 77.9805C14.2307 77.9186 14.279 77.8856 14.3284 77.8856C14.3946 77.8856 14.4581 77.9449 14.505 78.0506C14.5518 78.1562 14.5781 78.2995 14.5781 78.449Z" fill="#FCFCFC" fill-opacity="0.8"/>
<path d="M72.5889 72.9644C72.7268 72.9644 72.8387 72.7121 72.8387 72.401C72.8387 72.0898 72.7268 71.8375 72.5889 71.8375C72.451 71.8375 72.3391 72.0898 72.3391 72.401C72.3391 72.7121 72.451 72.9644 72.5889 72.9644Z" fill="#FCFCFC" fill-opacity="0.8"/>
<path d="M90.098 88.0955C90.2359 88.0955 90.3477 87.8432 90.3477 87.532C90.3477 87.2208 90.2359 86.9686 90.098 86.9686C89.96 86.9686 89.8482 87.2208 89.8482 87.532C89.8482 87.8432 89.96 88.0955 90.098 88.0955Z" fill="#FCFCFC" fill-opacity="0.8"/>
<path d="M141.078 38.6022C141.215 38.6022 141.327 38.3499 141.327 38.0388C141.327 37.7276 141.215 37.4753 141.078 37.4753C140.94 37.4753 140.828 37.7276 140.828 38.0388C140.828 38.3499 140.94 38.6022 141.078 38.6022Z" fill="#FCFCFC" fill-opacity="0.8"/>
<path d="M168 169.257C168 169.257 153.051 158.081 121.968 164C90.8846 169.919 47.712 208.82 0 183.409V211H168V169.257Z" fill="#0F0B1F"/>
<path d="M155.201 147.925L154.958 148.793H154.906V147.925L154.699 148.793H153.324V147.717L152.73 148.793H152.626V148.067L152.357 148.793H150.879V147.27L150.362 148.793H148.093C148.545 148.078 149.174 147.489 149.923 147.08C150.671 146.671 151.514 146.456 152.37 146.456C153.227 146.456 154.069 146.671 154.818 147.08C155.566 147.489 156.196 148.078 156.648 148.793H155.185L155.201 147.925Z" fill="#0F0B1F"/>
<path d="M141.435 150.966L142.034 151.652H142.081L141.703 150.865L142.272 151.56L143.507 150.981L143.037 150.012L144.045 150.733L144.138 150.692L143.818 150.032L144.381 150.575L145.715 149.956L145.053 148.585L146.17 149.738L148.237 148.783C147.516 148.329 146.69 148.063 145.835 148.01C144.98 147.957 144.126 148.119 143.353 148.48C142.579 148.841 141.912 149.39 141.415 150.075C140.917 150.759 140.606 151.557 140.509 152.393L141.833 151.773L141.435 150.966Z" fill="#0F0B1F"/>
<path d="M142.468 144.701L142.329 145.397H142.375L142.721 144.823L142.551 145.503L143.73 146.194L144.159 145.483L144.236 146.498L144.324 146.549L144.613 146.072L144.557 146.681L145.823 147.427L146.428 146.412L146.257 147.666L148.206 148.813C148.028 148.048 147.694 147.326 147.225 146.691C146.755 146.055 146.16 145.52 145.474 145.116C144.788 144.712 144.027 144.449 143.235 144.342C142.443 144.235 141.637 144.286 140.866 144.493L142.122 145.234L142.468 144.701Z" fill="#0F0B1F"/>
<path d="M151.06 144.823L151.297 145.255L150.941 144.945L151.199 145.361L150.569 146.062L150.129 145.681L150.295 146.366L150.248 146.417L149.953 146.158L150.124 146.554L149.447 147.311L148.832 146.773L149.209 147.57L148.154 148.763C148.112 148.22 148.18 147.674 148.357 147.158C148.533 146.641 148.813 146.165 149.181 145.757C149.548 145.349 149.995 145.018 150.496 144.784C150.996 144.549 151.54 144.416 152.093 144.391L151.421 145.138L151.06 144.823Z" fill="#0F0B1F"/>
<path d="M146.113 142.076L145.57 142.548V142.594L146.201 142.345L145.647 142.782L146.164 144.031L146.945 143.726L146.387 144.574L146.423 144.666L146.94 144.457L146.511 144.909L147.059 146.26L148.155 145.828L147.271 146.732L148.113 148.803C148.442 148.088 148.621 147.315 148.639 146.53C148.656 145.746 148.512 144.965 148.216 144.237C147.919 143.508 147.475 142.846 146.911 142.289C146.347 141.733 145.675 141.295 144.934 141L145.477 142.335L146.113 142.076Z" fill="#0F0B1F"/>
<path d="M148.113 148.793C148.113 148.793 152.083 156.297 152.083 170.924L149.287 171.391C149.287 171.391 151.205 159.531 148.113 148.793Z" fill="#0F0B1F"/>
<path d="M154.668 155.622L154.838 156.226H154.875V155.622L155.019 156.226H155.976V155.474L156.389 156.226H156.462V155.718L156.648 156.226H157.681V155.17L158.038 156.226H159.62C159.304 155.727 158.865 155.316 158.342 155.031C157.82 154.746 157.232 154.596 156.635 154.596C156.037 154.596 155.449 154.746 154.927 155.031C154.405 155.316 153.965 155.727 153.649 156.226H154.683L154.668 155.622Z" fill="#0F0B1F"/>
<path d="M164.277 157.744L163.859 158.221H163.828L164.091 157.673L163.693 158.18L162.83 157.774L163.161 157.099L162.458 157.607L162.391 157.576L162.613 157.119L162.225 157.5L161.29 157.064L161.755 156.109L160.969 156.886L159.527 156.206C160.032 155.888 160.61 155.703 161.208 155.667C161.807 155.631 162.404 155.745 162.945 156C163.485 156.254 163.95 156.639 164.297 157.12C164.643 157.6 164.859 158.159 164.924 158.744L164.003 158.312L164.277 157.744Z" fill="#0F0B1F"/>
<path d="M163.543 153.368L163.642 153.875H163.611L163.368 153.474L163.487 153.946L162.665 154.454L162.365 153.946L162.308 154.647L162.251 154.682L162.044 154.347L162.091 154.779L161.202 155.287L160.778 154.596L160.902 155.469L159.527 156.266C159.651 155.732 159.885 155.228 160.213 154.784C160.541 154.341 160.957 153.967 161.436 153.686C161.915 153.405 162.448 153.221 163.001 153.147C163.554 153.074 164.117 153.11 164.655 153.256L163.776 153.764L163.543 153.368Z" fill="#0F0B1F"/>
<path d="M157.563 153.454L157.392 153.758L157.64 153.545L157.459 153.84L157.904 154.347L158.209 154.083L158.09 154.561L158.126 154.596L158.333 154.418L158.209 154.693L158.684 155.2L159.113 154.825L158.85 155.378L159.579 156.19C159.61 155.811 159.562 155.43 159.44 155.07C159.317 154.709 159.121 154.376 158.864 154.092C158.607 153.807 158.295 153.577 157.945 153.414C157.595 153.251 157.215 153.159 156.829 153.144L157.299 153.652L157.563 153.454Z" fill="#0F0B1F"/>
<path d="M161.016 151.54L161.393 151.865V151.9L160.954 151.728L161.341 152.032L160.985 152.905L160.442 152.687L160.83 153.281L160.804 153.347L160.437 153.2L160.737 153.52L160.354 154.459L159.589 154.159L160.22 154.779L159.63 156.226C159.402 155.729 159.277 155.191 159.264 154.645C159.252 154.1 159.351 153.557 159.556 153.05C159.762 152.543 160.07 152.082 160.461 151.694C160.852 151.306 161.318 151 161.833 150.793L161.455 151.728L161.016 151.54Z" fill="#0F0B1F"/>
<path d="M159.615 156.226C159.615 156.226 156.844 161.465 156.844 171.675L158.798 172C158.798 172 157.459 163.719 159.615 156.226Z" fill="#0F0B1F"/>
<path d="M6.81516 162.254L7.10419 163H7.1666V162.254L7.41293 163H9.05516V162.073L9.76132 163H9.88284V162.379L10.2113 163H11.9685V161.707L12.5728 163H15.2726C14.7358 162.388 13.9864 161.884 13.0955 161.534C12.2045 161.184 11.2016 161 10.1817 161C9.16189 161 8.15895 161.184 7.26801 161.534C6.37706 161.884 5.62765 162.388 5.09082 163H6.8283L6.81516 162.254Z" fill="#0F0B1F"/>
<path d="M22.2955 165.405L21.5853 166.176L21.5297 166.151L21.9813 165.25L21.3071 166.047L19.8409 165.389L20.3973 164.281L19.206 165.115L19.1013 165.068L19.4744 164.325L18.8198 164.942L17.2424 164.229L18.0278 162.686L16.6828 163.985L14.2544 162.896C15.1085 162.378 16.0887 162.073 17.1024 162.012C18.116 161.95 19.1296 162.133 20.0471 162.544C20.9646 162.955 21.7558 163.58 22.3457 164.36C22.9355 165.14 23.3046 166.048 23.418 167L21.8438 166.3L22.2955 165.405Z" fill="#0F0B1F"/>
<path d="M21.4177 158.451L21.5936 159.223L21.5384 159.25L21.1004 158.629L21.3142 159.372L19.845 160.115L19.307 159.336L19.2104 160.442L19.1035 160.498L18.7379 159.975L18.8138 160.647L17.2308 161.464L16.472 160.373L16.6858 161.743L14.2544 163C14.5027 161.496 15.7305 159.948 17.6653 158.953C19.6001 157.957 21.766 157.764 23.418 158.269L21.8522 159.078L21.4177 158.451Z" fill="#0F0B1F"/>
<path d="M11.2446 158.507L10.9986 159.001L11.0212 159.032L11.3831 158.681L11.1202 159.153L11.7647 159.955L12.2029 159.52L12.0333 160.303L12.0813 160.362L12.3838 160.07L12.2086 160.52L12.904 161.384L13.5344 160.763L13.1443 161.673L14.2157 163C14.3797 161.912 14.0206 160.61 13.1697 159.554C12.8046 159.071 12.348 158.682 11.8319 158.414C11.3158 158.145 10.7526 158.004 10.1816 158L10.8827 158.864L11.2446 158.507Z" fill="#0F0B1F"/>
<path d="M17.0458 155.242L17.6474 155.786L17.6263 155.839L16.9375 155.552L17.5391 156.058L16.9857 157.497L16.1345 157.144L16.736 158.123L16.6939 158.229L16.1225 157.992L16.5887 158.511L15.9871 160.075L14.784 159.581L15.7705 160.61L14.8682 163C14.1223 161.605 14.0231 159.631 14.7539 157.732C15.4848 155.833 16.8593 154.475 18.3271 154L17.7256 155.539L17.0458 155.242Z" fill="#0F0B1F"/>
<path d="M14.2544 163C14.2544 163 10.1816 171.944 10.1816 189.383L13.2263 191C13.2263 191 11.0851 175.793 14.2544 163Z" fill="#0F0B1F"/>
<path d="M24.4267 178.252L24.2533 178.996H24.2155V178.252L24.0673 178.996H23.0901V178.07L22.6646 178.996H22.592V178.375L22.3998 178.996H21.328V177.698L20.9592 179H19.3452C19.6686 178.388 20.1187 177.883 20.6531 177.534C21.1875 177.184 21.7886 177 22.3998 177C23.0109 177 23.612 177.184 24.1464 177.534C24.6808 177.883 25.1309 178.388 25.4543 179H24.4267V178.252Z" fill="#0F0B1F"/>
<path d="M14.8723 180.037L15.2668 180.502L15.2987 180.488L15.0463 179.952L15.4205 180.426L16.2356 180.034L15.9253 179.374L16.5866 179.863L16.6476 179.837L16.4387 179.389L16.8071 179.757L17.6773 179.336L17.2596 178.409L17.9964 179.189L19.3453 178.538C18.8706 178.227 18.3253 178.044 17.7613 178.007C17.1973 177.97 16.6334 178.08 16.1231 178.327C15.6129 178.574 15.1733 178.949 14.8462 179.417C14.5191 179.885 14.3154 180.43 14.2544 181L15.1246 180.579L14.8723 180.037Z" fill="#0F0B1F"/>
<path d="M15.3595 175.356L15.2616 175.965L15.2922 175.988L15.534 175.485L15.4177 176.079L16.232 176.689L16.5381 176.064L16.5902 176.951L16.6514 176.997L16.8534 176.574L16.8106 177.115L17.6922 177.77L18.1116 176.894L17.9922 177.995L19.3453 179C19.2377 178.32 19.0121 177.677 18.6843 177.117C18.3565 176.557 17.9344 176.092 17.4473 175.756C16.9791 175.381 16.4508 175.138 15.8993 175.044C15.3477 174.95 14.7864 175.007 14.2544 175.211L15.1238 175.858L15.3595 175.356Z" fill="#0F0B1F"/>
<path d="M21.5919 175.401L21.7794 175.798V175.821L21.5067 175.54L21.7044 175.937L21.2169 176.579L20.876 176.23L21.0022 176.857L20.9681 176.901L20.7192 176.647L20.8522 177.008L20.3238 177.698L19.85 177.21L20.1431 177.937L19.3557 179C19.3209 178.502 19.3729 178.002 19.5085 177.528C19.6442 177.055 19.8607 176.618 20.145 176.244C20.4294 175.871 20.7757 175.568 21.1632 175.354C21.5507 175.14 21.9713 175.02 22.3998 175L21.8816 175.683L21.5919 175.401Z" fill="#0F0B1F"/>
<path d="M18.2705 173.837L17.8226 174.197V174.233L18.3433 174.043L17.8845 174.377L18.3033 175.337L18.9515 175.1L18.5036 175.76L18.5364 175.83L18.9697 175.67L18.6055 176.003L19.0608 177.04L19.9639 176.707L19.2319 177.407L19.9275 179C20.1995 178.45 20.3474 177.856 20.3624 177.253C20.3773 176.65 20.259 176.05 20.0144 175.49C19.7699 174.929 19.4042 174.42 18.9393 173.992C18.4744 173.564 17.9199 173.227 17.3091 173L17.757 174.027L18.2705 173.837Z" fill="#0F0B1F"/>
<path d="M19.3452 179C19.3452 179 22.3998 184.319 22.3998 194.671L20.248 195C20.248 195 21.7244 186.605 19.3452 179Z" fill="#0F0B1F"/>
<path d="M2.71729 173.624L2.83365 173.995H2.85919V173.624L2.95853 173.995H3.60846V173.533L3.89227 173.995H3.94052V173.689L4.06824 174H4.7721V173.353L5.01334 174H6.10886C5.89356 173.694 5.59359 173.442 5.23729 173.267C4.88099 173.092 4.4801 173 4.0725 173C3.66489 173 3.26401 173.092 2.9077 173.267C2.5514 173.442 2.25144 173.694 2.03613 174H2.73148L2.71729 173.624Z" fill="#0F0B1F"/>
<path d="M10.5536 176.355L10.162 176.665H10.1307L10.3813 176.309L10.0093 176.625L9.19476 176.36L9.50413 175.916L8.84231 176.246L8.78357 176.227L8.99112 175.927L8.62301 176.174L7.75756 175.887L8.19224 175.266L7.45602 175.797L6.10889 175.364C6.58225 175.155 7.12683 175.031 7.69061 175.005C8.2544 174.979 8.81855 175.052 9.32919 175.216C9.83984 175.38 10.2799 175.63 10.6074 175.943C10.9349 176.255 11.1389 176.619 11.1998 177L10.3343 176.734L10.5536 176.355Z" fill="#0F0B1F"/>
<path d="M9.2938 172.171L9.36971 172.479H9.34661L9.15188 172.22L9.24759 172.52L8.58751 172.826L8.34658 172.513L8.30367 172.958L8.25746 172.981L8.09574 172.769L8.12875 173.04L7.42576 173.371L7.09571 172.932L7.18813 173.483L6.10889 174C6.19603 173.658 6.37731 173.335 6.64009 173.054C6.90287 172.772 7.24082 172.539 7.63038 172.37C8.00582 172.184 8.42873 172.064 8.86945 172.02C9.31017 171.975 9.75803 172.006 10.1816 172.112L9.49843 172.425L9.2938 172.171Z" fill="#0F0B1F"/>
<path d="M4.60391 172.204L4.48027 172.403L4.66264 172.263L4.52973 172.451L4.85428 172.773L5.08301 172.599L4.99646 172.913L5.02119 172.934L5.17574 172.819L5.0861 172.999L5.43847 173.345L5.74756 173.101L5.54974 173.463L6.09375 174C6.12894 173.752 6.10154 173.5 6.01347 173.263C5.9254 173.025 5.77876 172.806 5.58374 172.623C5.39921 172.43 5.16834 172.274 4.90727 172.166C4.64619 172.059 4.36122 172.002 4.07227 172L4.42154 172.354L4.60391 172.204Z" fill="#0F0B1F"/>
<path d="M7.50537 170.554L7.80095 170.793V170.817L7.45664 170.692L7.73274 170.928L7.45664 171.566L7.03114 171.41L7.33646 171.844L7.31697 171.889L7.02789 171.784L7.26176 172.015L6.96293 172.704L6.36527 172.485L6.86223 172.94L6.401 174C6.21907 173.633 6.11998 173.236 6.10977 172.833C6.09955 172.43 6.17843 172.029 6.34159 171.655C6.50475 171.281 6.7488 170.941 7.05887 170.657C7.36894 170.372 7.73857 170.149 8.14525 170L7.84967 170.68L7.50537 170.554Z" fill="#0F0B1F"/>
<path d="M6.10863 175C6.10863 175 4.07227 178.975 4.07227 186.751L5.50628 187C5.50628 187 4.52173 180.701 6.10863 175Z" fill="#0F0B1F"/>
</g>
<defs>
<clipPath id="clip0">
<rect width="168" height="200" fill="white"/>
</clipPath>
</defs>
</svg>
