<svg width="149" height="124" viewBox="0 0 149 124" fill="none" xmlns="http://www.w3.org/2000/svg">
<g clip-path="url(#clip0)">
<path opacity="0.2" d="M17.2335 94.6973L21.2814 95.4962C21.2814 95.4962 41.7689 107.311 48.9817 108.579C53.8451 109.586 58.5285 111.33 62.8715 113.753L73.7849 123.46C73.7849 123.46 80.7298 123.32 82.1188 123.46C83.5078 123.6 98.2211 120.843 98.2211 120.843L104.839 116L121.248 97.7134C121.248 97.7134 128.63 95.3864 135.674 92.7198C142.718 90.0533 148.75 83.0424 148.75 79.8965C148.75 76.7505 146.171 73.9841 145.149 73.295C144.127 72.6059 137.073 71.2976 131.259 71.2976C125.445 71.2976 105.464 68.3015 105.464 68.3015L21.8271 84.6503L16.4795 91.1818L17.2335 94.6973Z" fill="black"/>
<path d="M106.892 65.2354L105.552 95.6061L101.306 98.3625L102.705 67.0631L106.892 65.2354Z" fill="#8E4D13"/>
<path d="M100.612 67.2928L99.084 100.09L100.929 100.729L102.705 67.0631L100.612 67.2928Z" fill="#A8621D"/>
<path d="M108.499 88.6451L105.9 87.7063L101.445 90.9022L104.432 91.801L108.499 88.6451Z" fill="#CC7B2B"/>
<path d="M109.829 97.7533L108.499 88.6451L104.531 91.801L103.38 103.406L109.829 97.7533Z" fill="#A8621B"/>
<path d="M99.8779 102.257L101.445 90.9022L104.531 91.801L103.38 103.406L99.8779 102.257Z" fill="#BC731F"/>
<path d="M101.118 91.801C101.304 90.9829 101.367 90.1413 101.306 89.3043C101.306 87.8162 101.832 83.5817 101.892 82.573C101.951 81.5643 101.991 80.5756 102.08 78.8378C102.067 77.3272 101.955 75.8192 101.743 74.3237C101.9 73.5336 102.143 72.7633 102.467 72.0267C102.385 72.6595 102.335 73.2962 102.318 73.9342C102.318 74.7331 102.318 74.3137 102.318 75.7319C102.436 76.6825 102.485 77.6404 102.467 78.5981C102.328 79.7766 102.278 82.3433 102.249 83.1123C102.259 83.6126 102.236 84.1132 102.179 84.6103C101.935 86.529 101.789 88.4591 101.743 90.3929C101.842 90.7159 101.866 91.0577 101.812 91.3916C101.569 91.5071 101.337 91.6441 101.118 91.801Z" fill="#D68732"/>
<path d="M101.653 90.6026C102.173 90.6229 102.688 90.7171 103.181 90.8822C103.727 91.1219 103.935 91.3117 104.511 91.1219C105.086 90.9321 105.622 90.0533 106.019 89.8036C106.416 89.5539 108.479 88.6251 108.479 88.6251L108.807 90.8822C108.896 91.4814 109.134 93.1493 109.134 93.1493C109.082 92.1726 108.861 91.2126 108.479 90.313C107.983 89.6638 107.557 89.8236 107.229 90.243C106.731 90.7329 106.193 91.1805 105.622 91.5813C105.295 91.841 104.799 92.1506 104.799 92.1506C104.799 92.1506 104.689 94.6773 104.511 95.8158C104.328 96.5672 104.245 97.3395 104.263 98.1128C104.211 99.4638 104.005 100.804 103.648 102.108C103.449 102.477 103.568 103.436 103.37 103.366C103.171 103.296 103.042 103.556 103.042 102.867C103.101 101.893 103.21 100.923 103.37 99.9604C103.509 98.8619 103.588 98.013 103.677 96.7746C103.767 95.5362 103.757 93.8883 103.757 93.389C103.757 92.9274 103.622 92.4759 103.37 92.0906C103.152 91.821 102.546 91.811 102.378 91.7611C102.209 91.7111 101.703 91.1419 101.634 91.4814C101.453 92.0998 101.389 92.7469 101.445 93.389C101.49 94.6395 101.38 95.8908 101.118 97.1141C100.949 97.6335 100.473 98.2027 100.463 98.742C100.453 99.2813 99.8776 102.218 99.8776 102.218C99.7962 101.302 99.8228 100.38 99.9569 99.4711C100.173 98.6964 100.342 97.9093 100.463 97.1141C100.552 96.5249 100.463 95.4962 100.582 94.9969C100.757 94.4776 100.861 93.9366 100.89 93.389C100.878 92.7191 100.934 92.0498 101.058 91.3916C101.219 91.102 101.42 90.8364 101.653 90.6026Z" fill="#E89449"/>
<path d="M41.4014 64.027C41.4014 64.027 50.9854 58.4243 56.4322 57.0361C61.879 55.6479 69.8855 53.9301 73.4175 55.6778C76.9494 57.4256 103.062 66.6636 103.062 66.6636C103.062 66.6636 74.9652 80.7653 71.086 80.3559C67.2067 79.9464 62.5536 80.266 58.9324 78.3584C55.3111 76.4509 45.4592 73.7544 43.1873 72.6658C40.9153 71.5772 36.6392 68.4313 36.5301 68.5811C36.4209 68.7309 40.32 64.0969 40.32 64.0969L41.4014 64.027Z" fill="#1D0079"/>
<path d="M100.552 98.2926C95.1751 103.196 86.7222 108.4 76.6025 113.813L74.7075 97.1042V88.0559L104.075 73.325L100.552 98.2926Z" fill="#8C500A"/>
<path d="M81.0965 111.695C88.2398 107.89 94.5299 103.216 101.137 98.3425V97.9331C94.7518 102.88 88.0284 107.368 81.0171 111.366L81.0965 111.695Z" fill="#4C2613"/>
<path d="M101.009 88.4354L101.088 86.9873C101.088 86.9873 98.5185 88.745 97.9728 88.9847C97.4271 89.2244 96.6037 89.9834 96.058 90.1432C95.2918 90.2055 94.5574 90.4784 93.9348 90.9322C93.1709 91.5713 93.28 92.0807 91.8613 92.7099C90.8595 93.1282 89.8938 93.6292 88.9742 94.2079C87.9821 94.8071 87.8928 94.8371 86.6328 95.5362C85.932 95.9963 85.1835 96.3781 84.4005 96.6747C82.7275 97.2923 81.0911 98.0059 79.4993 98.8119C78.5417 99.4074 77.5476 99.9411 76.5229 100.41V102.277C76.5229 102.277 78.7652 101.668 79.916 101.229C81.0669 100.789 81.9003 100.32 82.8924 100.01C83.8846 99.7008 86.7121 98.5922 87.3669 98.2726C88.0217 97.9531 88.9147 96.6448 89.6885 96.2752C90.5734 95.8577 91.4346 95.3909 92.2681 94.877C93.032 94.3877 94.7186 93.5687 95.423 93.1293C96.1274 92.6899 96.2961 92.2305 97.0104 91.7211C97.7248 91.2118 98.5879 90.6026 98.9947 90.3329C99.4015 90.0633 101.009 88.4354 101.009 88.4354Z" fill="#B77023"/>
<path d="M76.5031 101.219C76.5031 101.219 76.1757 101.219 78.8445 100.34C81.5134 99.4611 83.4778 98.4225 85.6505 97.6035C87.706 96.8406 89.6643 95.8349 91.4842 94.6074C92.4069 93.8484 94.4606 91.7111 95.681 91.4914C96.9013 91.2717 101.048 87.6564 101.048 87.6564L101.544 77.6693L76.2749 91.3316L76.5031 101.219Z" fill="#8C500A"/>
<path d="M76.5032 101.059C76.486 101.151 76.486 101.246 76.5032 101.339C76.5529 101.568 76.5032 101.429 77.2573 101.199C78.0113 100.969 78.4974 100.879 79.4003 100.57C80.3031 100.26 80.5511 100.23 81.3845 99.8806C81.9652 99.6636 82.529 99.4032 83.0711 99.1016C83.6489 98.7625 84.2567 98.4783 84.8867 98.2527C85.5812 98.013 86.5634 97.6435 86.7916 97.5336C87.0198 97.4238 88.3989 96.5349 88.7759 96.445C89.1529 96.3551 89.3116 95.7759 90.2343 95.4463C91.2173 94.9983 92.1406 94.4279 92.9825 93.7485C93.4893 93.3757 94.0232 93.0418 94.5798 92.7498C94.9859 92.5367 95.3627 92.2715 95.701 91.9608C96.2146 91.4888 96.7844 91.0829 97.3975 90.7524C97.9341 90.3968 98.4447 90.003 98.9254 89.5739C99.2726 89.3143 100.781 88.2357 100.781 88.1558C100.781 88.0759 101.019 87.8362 101.019 87.8362V86.8375C100.829 87.0646 100.659 87.3086 100.513 87.5665C100.476 87.6722 100.417 87.7687 100.34 87.8496C100.263 87.9306 100.17 87.9941 100.066 88.0359C99.7786 88.1757 99.6397 88.5652 99.3718 88.775C99.0643 88.9498 98.7284 89.0682 98.3797 89.1245C98.3202 89.1245 98.0721 88.8549 98.0721 88.8549C98.0721 88.8549 97.9729 89.2443 97.8836 89.5539C97.7944 89.8635 98.1118 89.7237 97.6455 90.1132C97.1792 90.5027 96.5641 90.6525 96.3756 90.9022C96.1871 91.1519 95.7803 91.2617 94.9866 91.5913C94.4844 91.7371 94.027 92.0085 93.6572 92.3803C93.3099 92.7298 93.2702 92.7298 92.9825 93.0095C92.7545 93.2898 92.4615 93.5093 92.1293 93.6486C91.8095 93.7845 91.4772 93.8883 91.1372 93.9582C90.7583 94.0534 90.4268 94.2842 90.2046 94.6074C90.0377 94.8362 89.8408 95.0411 89.6192 95.2166C89.5001 95.2765 88.7461 95.6461 88.4783 95.7459C88.1225 95.7865 87.7624 95.7594 87.4167 95.666C87.4167 95.666 87.5456 95.5761 87.4167 95.9257C87.3073 96.1667 87.1317 96.3711 86.9107 96.5149C86.4801 96.9141 85.9958 97.2503 85.4721 97.5136C84.9661 97.7034 84.2121 97.8432 83.6962 98.0529C83.1689 98.2506 82.6739 98.5266 82.2278 98.8719C81.77 99.128 81.2838 99.3292 80.7793 99.4711C80.2903 99.6676 79.7901 99.8343 79.2812 99.9704C79.053 100.05 77.2176 100.44 77.158 100.5C76.9396 100.6 76.7141 100.683 76.4834 100.749L76.5032 101.059Z" fill="#4C2613"/>
<path d="M76.5728 103.316C77.942 102.867 79.6187 102.317 80.8886 101.918C81.9106 101.602 82.9059 101.205 83.865 100.729C85.502 100.03 86.6032 99.531 87.7541 99.0816C88.905 98.6322 88.4089 98.5822 89.6689 97.5536C90.9289 96.5249 90.4527 96.5549 91.9607 95.9956C93.0213 95.7085 94.0271 95.2461 94.9371 94.6274C95.788 93.9001 96.7048 93.2548 97.6754 92.6999C98.489 92.2904 101.128 89.0945 101.158 89.484C101.123 89.9717 101.05 90.4559 100.94 90.9322C100.94 91.2717 99.9474 91.5513 99.6696 92.2105C99.5239 92.8871 99.178 93.5034 98.6775 93.9782C98.0227 94.5574 97.6853 94.3877 97.1992 94.9769C96.713 95.5661 97.1992 96.1654 95.7308 96.8245C94.2625 97.4837 95.1157 96.8245 93.3596 97.5636C91.6036 98.3026 91.931 98.023 90.9488 99.0916C90.2763 99.9246 89.342 100.502 88.2998 100.729C87.2213 100.814 86.1614 101.06 85.1547 101.459C84.0932 102.038 83.7261 102.617 82.9125 103.066C82.099 103.516 81.1068 103.396 80.4124 103.686C79.5185 103.999 78.6883 104.473 77.9618 105.084C77.307 105.743 76.0867 105.953 75.9775 105.783C76.116 104.947 76.3149 104.123 76.5728 103.316Z" fill="#96520F"/>
<path d="M76.2251 108.29C76.8872 107.71 77.4889 107.064 78.0209 106.362C78.2112 105.983 78.504 105.666 78.8656 105.447C79.2271 105.228 79.6427 105.116 80.0646 105.124C81.4031 105.069 82.7327 104.878 84.0332 104.555C85.2634 104.095 84.807 103.686 86.444 103.196C87.7589 102.888 89.0268 102.405 90.2141 101.758C91.3135 101.145 92.3619 100.444 93.3493 99.6608C94.1725 99.132 94.9643 98.5551 95.7204 97.9331C96.4943 97.2739 97.8833 95.9357 97.6055 96.6947C97.3277 97.4537 96.1669 98.1228 95.6212 98.802C95.1733 99.4771 94.5884 100.049 93.9049 100.48C92.7143 101.299 91.7321 101.748 90.8392 102.267C89.9462 102.787 88.716 103.486 87.9322 104.015C87.1484 104.545 85.8091 104.924 85.1146 105.373C84.4201 105.823 84.1225 106.322 83.3486 106.442C82.5747 106.562 81.027 105.953 80.3722 106.572C79.7174 107.191 79.1122 108.789 77.8026 109.408C76.493 110.027 76.2251 108.29 76.2251 108.29Z" fill="#96520F"/>
<path d="M78.5967 110.786C79.1721 110.307 79.7376 108.619 80.5809 108.29C81.6874 107.997 82.7771 107.644 83.845 107.231C84.9144 106.763 85.946 106.212 86.9306 105.583C88.5477 104.584 89.1232 104.584 90.5717 103.686C91.5398 103.117 92.462 102.472 93.3298 101.758C94.064 101.099 93.6969 100.929 95.0859 100.11C95.9334 99.6749 96.6962 99.0897 97.338 98.3825C97.86 97.8635 98.3504 97.3132 98.8064 96.7346C99.2528 96.1154 99.5901 94.7372 100.156 94.3577C100.721 93.9782 101.148 93.7984 101.148 94.1979C101.148 94.5974 101.277 95.8658 100.85 96.1953C100.053 96.8847 99.2913 97.6147 98.5683 98.3825C97.9512 99.0585 97.2511 99.6525 96.4848 100.15C94.9371 101.389 94.441 101.858 93.7862 102.337C93.1314 102.817 92.5262 102.947 91.2166 103.855C89.907 104.764 89.7978 104.854 88.5676 105.853C87.6537 106.635 86.6819 107.346 85.6606 107.98C84.5991 108.549 82.5553 108.979 81.9798 109.288C81.4044 109.598 80.7496 109.848 80.5909 110.187C80.4321 110.527 78.5967 110.786 78.5967 110.786Z" fill="#96520F"/>
<path d="M75.4019 93.9782C76.136 93.359 77.2571 92.2504 78.4477 91.3017C79.6044 90.3708 80.9281 89.6723 82.3468 89.2443C84.1822 88.5852 85.1545 88.5053 87.5654 87.6065C89.9762 86.7076 89.9961 86.8175 91.4644 85.7888C92.7853 84.8466 93.9996 83.7615 95.0857 82.553C96.1771 81.3945 98.7368 80.5556 99.1138 80.3159C99.9022 80.0033 100.748 79.8637 101.594 79.9064C101.625 80.4596 101.578 81.0144 101.455 81.5543C100.744 82.214 99.9958 82.8309 99.213 83.4019C97.9877 84.3211 96.6008 84.9988 95.1254 85.3993C94.1369 85.6399 93.1784 85.9916 92.2681 86.448C91.4446 86.9074 92.0597 86.6577 90.6112 87.5665C89.1627 88.4753 88.9742 88.8848 87.5455 89.2443C86.1169 89.6039 85.0553 89.7037 83.954 89.9934C82.9669 90.1634 82.0307 90.556 81.2157 91.1419C80.3526 91.801 80.1244 91.7811 78.8941 92.6999C77.8023 93.3952 76.6293 93.952 75.4019 94.3577V93.9782Z" fill="#96520F"/>
<path d="M76.2253 97.9331C77.4115 97.6964 78.5644 97.3141 79.658 96.7945C80.5212 96.2053 82.6939 95.1567 83.3686 94.1979C84.0432 93.2392 83.9936 92.7897 85.5017 91.9209C87.0097 91.052 87.4165 91.1419 88.9146 90.3629C90.1693 89.7643 91.332 88.9874 92.3672 88.0559C93.2042 87.2593 94.2574 86.7309 95.3932 86.5378C96.8868 86.1678 98.3296 85.6144 99.6891 84.89C100.215 84.4306 101.574 82.8326 101.574 82.8326C101.688 83.4163 101.688 84.0167 101.574 84.6003C101.356 85.0897 100.711 85.0897 98.9946 86.1184C97.3218 87.0567 95.6032 87.91 93.8455 88.6751C93.022 89.0446 92.774 88.8349 91.7124 89.6738C90.7929 90.5996 89.7351 91.3746 88.5773 91.9708C87.3867 92.4302 87.1387 92.1006 86.3251 92.9695C85.3979 93.9569 84.4034 94.878 83.3488 95.7259C82.6748 96.3877 81.9055 96.9432 81.0669 97.3738C80.157 97.8108 79.2021 98.1458 78.2194 98.3725C77.3464 98.6222 75.9971 99.0716 75.9971 99.0716L76.2253 97.9331Z" fill="#96520F"/>
<path d="M86.9502 93.9782C87.2578 93.7785 88.7162 92.9795 90.254 92.2504C91.2034 91.9063 92.0549 91.3337 92.7343 90.5826C93.3494 89.9035 92.8236 89.8635 95.3138 88.8748C96.8526 88.2783 98.3421 87.5604 99.7685 86.7276C100.384 86.3681 101.544 85.5591 101.544 85.5591C101.544 85.5591 101.763 86.0784 101.544 86.2083C101.326 86.3381 100.622 86.7476 100.215 86.9873C99.8082 87.227 98.826 88.0559 98.1712 88.4654C97.5164 88.8748 96.2564 89.0146 94.9864 89.7737C94.1811 90.1421 93.4353 90.6302 92.774 91.2218C92.204 91.9948 91.4546 92.6154 90.5913 93.0294C89.4202 93.493 88.1976 93.8115 86.9502 93.9782Z" fill="#96520F"/>
<path d="M56.7699 58.654L57.2659 85.2196L21.2913 75.3723L15.7949 63.7074L30.3693 57.4555L56.7699 58.654Z" fill="#412815"/>
<path d="M57.2659 53.1711L56.7698 58.654L24.1486 66.8434L18.6323 64.2467L19.3963 60.961L56.0257 52.7117L57.2659 53.1711Z" fill="#8E4D13"/>
<path d="M18.9893 90.8822C30.3591 99.0516 47.5031 106.212 65.7186 113.193L69.6871 99.3612L68.4569 86.7476L14.5049 65.8546V77.899L18.9893 90.8822Z" fill="#9E600F"/>
<path d="M67.2367 99.571C48.8575 94.4428 31.1369 87.1695 14.4355 77.899L18.9497 90.8822C30.8553 99.0117 47.0568 106.322 65.6989 113.193L67.2367 99.571Z" fill="#9E600F"/>
<path d="M14.5049 76.7306L68.2486 99.2414L66.3536 101.219L47.0269 94.2279L23.0868 83.7215L14.5049 79.6068V76.7306Z" fill="#CC9113"/>
<path d="M14.2666 66.384V77.0801C14.2666 77.0801 15.6754 77.7992 16.0524 78.0788C16.4294 78.3584 17.5009 78.9277 18.0367 79.2373C18.6184 79.6392 19.2211 80.0093 19.8424 80.3459C20.3536 80.5909 20.8806 80.8011 21.4199 80.9751C21.9814 81.191 22.4869 81.5325 22.8981 81.9738C23.3049 82.2734 27.333 83.9712 27.6107 84.081L34.0695 86.7675C34.0695 86.7675 38.1769 88.2856 38.2662 88.3954C38.3555 88.5053 40.6771 89.7637 40.6771 89.7637C40.6771 89.7637 42.8995 90.4727 43.0086 90.5227L46.4116 92.3104L49.517 93.3091L52.6521 94.128L57.454 95.666L64.7759 98.6621L67.6432 99.8706C67.611 98.36 67.674 96.849 67.8317 95.3464C68.0797 93.9482 68.1392 86.6976 68.1392 86.6976L14.2666 66.384Z" fill="#9E600F"/>
<path d="M14.4357 76.7306C14.4357 76.7306 17.0549 78.5083 18.1165 79.0875C19.1217 79.7226 20.1768 80.2738 21.2715 80.7354C21.956 80.8952 23.0375 80.3259 23.1863 80.3958C23.3351 80.4657 22.5315 81.1448 23.1863 81.7241C24.39 82.4196 25.6436 83.0238 26.9365 83.5317C28.0874 84.101 28.8216 84.1909 30.6173 84.9299C32.4131 85.669 32.175 85.4193 34.7843 86.5778C37.3936 87.7363 37.84 87.5166 38.9314 88.3655C40.0227 89.2144 41.243 90.0932 41.9772 89.524C42.7114 88.9547 42.3344 88.3855 42.9693 89.0446C43.6043 89.7037 43.6539 90.5227 44.646 91.1818C46.5129 92.2077 48.5182 92.9546 50.5988 93.399C52.6995 93.8578 54.7729 94.4346 56.8095 95.1267C59.1807 95.9556 61.6313 97.2739 63.5957 97.9331C65.5601 98.5922 67.7825 99.5909 67.7825 99.5909L69.1516 99.0816L68.5266 100C67.9046 99.9875 67.2844 99.9274 66.6713 99.8206C66.2745 99.7008 62.425 98.0429 61.5519 97.6534C60.6789 97.2639 58.2481 96.445 57.0973 95.8757C55.5807 95.3396 54.0375 94.8829 52.4739 94.5075C51.1048 94.0681 48.8725 93.5088 47.8903 93.1892C46.5317 92.712 45.206 92.1448 43.9218 91.4914C43.4356 91.1619 41.9375 90.3429 41.9375 90.3429C41.9375 90.3429 39.0405 89.0246 37.969 88.5652C36.8975 88.1058 33.4747 86.8874 32.175 86.3281C30.8753 85.7688 28.9406 85.1297 27.9981 84.6004C27.0556 84.071 24.3669 83.1223 23.5434 82.6029C22.72 82.0836 22.6505 81.8639 21.708 81.3246C20.7655 80.7853 19.0491 80.3858 18.7316 80.1761C18.4141 79.9664 15.7552 78.3285 15.4675 78.1787C15.1798 78.0289 14.1777 77.5295 14.1777 77.5295L14.4357 76.7306Z" fill="#6B2613"/>
<path opacity="0.3" d="M16.0723 82.573C16.0723 82.573 16.9652 82.573 22.2036 84.7602C27.4421 86.9473 29.7637 87.7063 32.6607 89.524C35.27 91.0056 38.006 92.249 40.8358 93.2392C41.57 93.4888 46.0643 95.5262 46.0643 95.5262C46.0643 95.5262 45.6576 95.6261 47.9494 96.9444C50.2412 98.2627 53.0985 98.4224 54.3189 99.0017C55.5392 99.5809 64.8255 103.066 65.8474 102.997C66.8693 102.927 68.3277 103.905 68.1392 104.564C67.9507 105.224 67.5539 106.232 66.4923 106.182C64.6144 105.832 62.7987 105.203 61.105 104.315C58.8132 103.246 56.5313 102.507 53.7534 101.269C50.9754 100.03 45.7369 99.4611 44.348 98.1428C42.959 96.8245 40.0223 94.148 37.8892 93.2891C35.7561 92.4302 31.9364 91.2118 28.3251 89.5739C26.3363 88.6113 24.399 87.5446 22.5211 86.378C21.4384 85.8755 20.2766 85.5679 19.0883 85.4692C18.0314 85.2182 17.0966 84.5992 16.4493 83.7215L16.0723 82.573Z" fill="#8E4A00"/>
<path opacity="0.3" d="M17.3423 86.2582C18.6817 86.1583 19.2571 85.9985 21.7077 87.1471C24.1582 88.2956 25.6762 89.1445 25.8746 89.524C26.073 89.9035 25.4678 89.524 23.8903 88.9747C22.3637 88.522 20.8048 88.1881 19.2273 87.976C18.7516 87.9455 18.2744 87.9455 17.7987 87.976L17.3423 86.2582Z" fill="#8E4A00"/>
<path opacity="0.3" d="M63.4964 106.482C62.0281 105.663 60.143 105.823 58.3473 105.333C56.5515 104.844 56.0555 104.335 54.0117 103.196C52.5325 102.197 50.8638 101.517 49.1106 101.199C46.7394 100.709 45.4298 100.789 43.7134 100.38C41.997 99.9704 42.2252 98.8719 41.6696 98.0929C40.6623 97.0353 39.4765 96.1663 38.1674 95.5262C37.0264 95.0168 34.4072 93.5288 32.284 92.5301C30.1609 91.5314 29.9128 91.9508 27.2143 91.5314C24.5157 91.1119 24.595 90.6225 22.9679 89.7237C21.5105 89.1634 19.9106 89.1003 18.4141 89.5439L18.9498 90.8822C18.9498 90.8822 22.6108 91.5813 23.0969 92.1605C23.9461 92.9115 24.8902 93.5462 25.9046 94.0481C27.2396 94.8274 28.5282 95.6844 29.764 96.6148C31.1056 97.4375 32.6152 97.9429 34.179 98.0929C35.9742 98.2329 37.6937 98.8803 39.1397 99.9604C39.9792 100.839 41.0381 101.474 42.2053 101.798C43.7332 102.287 45.1023 102.367 47.6323 103.116C49.9177 103.783 52.1364 104.662 54.2597 105.743C55.7526 106.475 57.1829 107.33 58.5358 108.3C59.6867 109.119 66.0264 110.687 66.0264 110.687L66.9491 108.839C65.8459 107.985 64.693 107.198 63.4964 106.482ZM35.439 96.2053C34.6255 96.5249 32.7404 97.0242 31.7582 96.2053C30.776 95.3864 28.7818 93.2092 28.7818 93.2092C29.0299 93.2092 30.8256 93.9482 31.8872 94.3178C32.9488 94.6873 36.2625 95.8757 35.439 96.2053Z" fill="#8E4A00"/>
<path opacity="0.3" d="M14.3064 75.1426C14.3064 75.1426 18.4336 77.5195 19.9516 78.2686C21.4696 79.0176 24.4856 79.3372 24.9122 79.6668C25.3389 79.9963 24.2376 80.3958 25.9044 81.5943C27.5712 82.7927 31.6786 83.2022 33.4743 83.9412C35.2701 84.6803 35.6074 84.9399 37.6512 85.669C39.695 86.398 42.1455 85.9986 44.3481 87.1471C46.5506 88.2956 47.9495 90.4428 48.3166 90.6026C48.6837 90.7624 48.3166 88.2157 46.9276 87.2369C45.5386 86.2582 43.6536 85.9986 41.2427 85.1796C38.9786 84.5059 36.7776 83.6337 34.6649 82.573C32.6806 81.4744 31.3115 81.1448 29.4364 80.1561C27.5612 79.1674 27.1445 78.678 25.4678 77.8491C23.7911 77.0202 21.1322 77.3598 19.9516 76.371C18.0981 75.1715 16.1656 74.1004 14.1675 73.1652L14.3064 75.1426Z" fill="#8E4A00"/>
<path opacity="0.3" d="M69.1115 97.6035C67.6928 96.7946 68.7048 95.7459 63.3076 94.947C57.9104 94.148 54.4876 92.9495 53.0986 91.9508C51.7096 90.9521 49.9932 90.3429 49.4971 89.2543C49.0011 88.1657 48.763 86.7676 46.3124 85.8687C43.8618 84.9699 39.5262 84.131 38.0579 83.1522C36.5895 82.1735 34.2183 80.9751 32.9087 79.8965C31.5991 78.8179 25.9043 76.5308 25.9043 76.5308C25.9043 76.5308 30.9939 77.6793 32.1944 78.4184C33.3949 79.1574 33.9703 79.4171 37.155 80.4158C40.3398 81.4145 43.1078 82.9625 45.4889 83.8713C47.87 84.7801 49.6658 84.0311 51.2929 86.5878C52.92 89.1445 53.9121 90.7025 55.7972 91.5214C57.6822 92.3403 60.1228 92.5201 63.1488 93.2492C66.1748 93.9782 68.7841 94.3577 68.7841 94.3577L69.1115 97.6035Z" fill="#8E4A00"/>
<path opacity="0.3" d="M14.4355 70.3688C15.0904 70.5286 21.9559 73.1652 23.9997 74.064C26.9023 75.273 29.8861 76.2742 32.9288 77.0601C38.1574 78.6281 39.2983 78.708 43.0585 80.5157C46.8187 82.3233 48.7831 82.2434 50.9955 83.5118C53.208 84.7801 52.067 84.7402 55.4105 87.0472C58.754 89.3542 59.9048 91.4914 63.0995 91.9009C64.9157 92.1427 66.7443 92.2794 68.5761 92.3104C68.5761 92.3104 66.4727 89.8835 66.3338 89.524C66.195 89.1645 60.4505 87.946 58.0793 86.1883C55.7081 84.4306 53.1187 83.2821 49.0906 81.3546C45.0626 79.4271 38.8717 77.4396 36.8279 76.5408C34.7841 75.642 33.4745 75.2225 27.5118 73.5447C21.5491 71.8669 19.9518 70.4687 19.9518 70.4687L15.5269 69.47L14.4355 70.3688Z" fill="#8E4A00"/>
<path opacity="0.2" d="M18.1758 75.0527L28.3749 79.7267L31.5993 82.7228L33.8316 84.7801L41.6099 87.966L44.745 86.9673C44.745 86.9673 52.0273 89.1944 53.0095 89.7637C53.9917 90.3329 64.2106 94.118 66.2544 94.4076C68.2982 94.6973 71.215 89.2843 71.215 89.2843C71.215 89.2843 27.0157 71.5573 25.6763 71.3375C24.3369 71.1178 18.1758 70.219 18.1758 70.219V75.0527Z" fill="black"/>
<path d="M20.2892 91.8809C19.6741 92.0906 34.3874 100.42 38.2963 101.868C41.5803 103.086 47.1561 106.053 49.7158 107.151C52.2755 108.25 65.699 113.233 65.699 113.233C65.699 113.233 66.2347 112.424 65.7982 112.354C65.3616 112.284 51.5413 107.7 49.6662 106.362C47.791 105.024 41.0743 102.867 38.465 101.219C36.1111 99.7919 33.6339 98.5819 31.0637 97.6035C28.103 96.1952 25.2244 94.618 22.4421 92.8796C21.7079 92.2504 20.2495 91.2218 20.2495 91.2218L20.2892 91.8809Z" fill="#6B2613"/>
<path opacity="0.2" d="M20.6957 75.7119L21.6283 92.0008L20.2889 91.8809C20.2889 91.8809 18.6321 87.6065 18.6321 87.1071C18.6321 86.6078 18.5229 75.1227 18.5229 75.1227L20.6957 75.7119Z" fill="black"/>
<path d="M76.8305 113.832L73.229 116.799L72.356 90.5826L76.2749 91.3217L76.8305 113.832Z" fill="#A8621D"/>
<path d="M76.6915 108.29L79.658 109.668L73.11 113.283L73.0107 110.157L76.6915 108.29Z" fill="#F0B71D"/>
<path d="M83.3685 116.359L79.6579 109.668L73.1099 113.283L73.2488 123.051L83.3685 116.359Z" fill="#BC731F"/>
<path d="M12.9673 68.4713L14.9218 89.5939L18.6323 92.3303L17.6501 70.6185L12.9673 68.4713Z" fill="#F0A41D"/>
<path d="M19.2869 72.0966L20.289 91.831L18.523 92.5001L17.6499 70.6185L19.2869 72.0966Z" fill="#A8621B"/>
<path d="M12.4214 84.5904L14.4255 84.2109L18.3543 86.2382L15.7946 86.9074L12.4214 84.5904Z" fill="#FAC413"/>
<path d="M19.6146 94.1979L18.3546 86.2382L15.7949 86.9074L17.6502 94.6374L19.6146 94.1979Z" fill="#BC731F"/>
<path d="M12.4214 84.5904L11.9849 91.1818L17.6499 94.6374L15.7946 86.9074L12.4214 84.5904Z" fill="#F0B71D"/>
<path d="M55.0336 52.3422L10.5068 61.5602C25.3193 69.9793 46.5211 77.5395 71.4831 84.6004L109.571 67.153L103.033 66.6636C94.1037 71.2277 83.5772 75.3523 72.1379 79.9963C70.1869 80.4668 68.1417 80.3522 66.2546 79.6667C50.8038 75.3665 35.6728 69.9768 20.9738 63.5377C19.9817 63.1382 20.1305 62.6488 21.7873 62.0596C28.514 59.9623 43.1876 56.5168 57.2659 53.1711L55.0336 52.3422Z" fill="url(#paint0_linear)"/>
<path d="M108.867 73.7944L109.571 67.153L71.4832 84.6004L70.9375 94.1979L108.867 73.7944Z" fill="#BC731F"/>
<path d="M10.1001 61.73V69.6298C24.8035 78.1287 46.412 86.2183 70.7391 94.1979L71.1756 84.6004C46.9875 77.899 26.9861 70.2789 10.1001 61.73Z" fill="url(#paint1_linear)"/>
<path d="M46.0544 73.315L43.842 71.2477L37.9487 73.8643L38.296 84.5904L41.4013 86.2382L44.1694 84.9199L40.935 83.7115V74.8929L46.0544 73.315Z" fill="#5B4C38"/>
<path d="M32.3038 67.3727L43.8423 71.2477L37.9491 73.8643L27.4722 69.7496L32.3038 67.3727Z" fill="#CBBEAC"/>
<path d="M38.2961 84.5904L28.603 80.8153L31.7084 82.7028L41.4015 86.2382L38.2961 84.5904Z" fill="#470800"/>
<path d="M27.4722 69.7496L28.6032 80.8153L38.2963 84.5904L37.9491 73.8643L27.4722 69.7496Z" fill="#B4A98F"/>
<path d="M31.4505 80.5955L33.5935 81.4145V79.1674C35.0619 78.9177 35.3198 76.9103 34.9428 76.1713C34.3178 74.3836 32.6907 73.1752 31.1826 73.8543C29.7639 74.7731 30.2798 76.7206 31.5001 77.949L31.4505 80.5955Z" fill="#5B4C38"/>
<path d="M33.5838 76.8404L31.54 77.959L31.4507 80.5955L33.5937 79.467V79.1674C35.062 79.0076 35.5085 77.5395 34.943 76.1713L33.5838 76.8404Z" fill="#44382A"/>
<path d="M27.1743 66.1043L57.087 58.654V59.7526L27.8986 66.384L27.1743 66.1043Z" fill="black"/>
<path opacity="0.2" d="M66.314 92.6999L70.9671 94.2079L72.5049 93.4389V95.9556L67.8518 94.1979L66.314 92.6999Z" fill="black"/>
<path opacity="0.3" d="M72.3857 95.9956L76.2947 93.5887L77.3563 92.4801L101.128 79.3671H102.874L106.247 77.2898L106.386 75.1826L72.4651 93.4589L72.3857 95.9956Z" fill="black"/>
<path d="M28.385 57.865L10.5267 61.5602L10.3679 61.73C10.3679 61.73 10.1199 61.8199 10.6259 62.1395C11.2432 62.4609 11.8793 62.7444 12.5308 62.9884C13.3641 63.3479 13.761 63.6875 14.396 63.9371C15.0309 64.1868 19.684 67.093 21.3409 67.6124C22.9977 68.1317 24.3669 69.2103 25.1804 69.3401C25.9748 69.5104 26.7544 69.7442 27.5119 70.0392L27.9385 69.5399C27.4378 69.2493 26.9133 69.002 26.371 68.8008C25.5574 68.5112 22.9779 67.0631 22.2437 66.8034C21.5095 66.5438 18.8903 64.806 18.1561 64.5264C17.422 64.2467 16.3901 63.8572 15.5766 63.5277C14.763 63.1981 12.6697 62.7786 12.5109 62.529C12.2145 62.225 11.8811 61.9599 11.5188 61.74C11.5188 61.74 13.1955 61.6102 13.4038 61.5303C13.6122 61.4504 15.1599 61.0808 16.5886 60.7513C18.0172 60.4217 28.385 57.865 28.385 57.865Z" fill="#FFF4AB"/>
<path d="M42.126 74.4335L44.8841 75.5221C44.8841 75.5221 44.3583 75.1027 48.0291 76.7206C49.9902 77.5482 52.014 78.2162 54.0811 78.718C55.4376 79.2826 56.8296 79.7564 58.2481 80.1361C59.389 80.3758 62.0876 80.4657 62.6631 80.9151C63.2385 81.3645 67.4848 82.523 68.5464 83.1023C69.5817 83.4891 70.6469 83.7897 71.7311 84.0011C72.247 84.2308 79.2515 80.7154 80.1543 80.216C83.2343 78.5816 86.4119 77.1407 89.6688 75.9016C92.4743 74.9199 95.2263 73.7898 97.9134 72.516L103.281 70.0592L96.6038 73.7045C94.2367 74.6249 91.9187 75.6683 89.6589 76.8304C87.5632 77.9302 85.4029 78.9007 83.1902 79.7367C81.5532 80.5057 78.7256 82.0836 77.793 82.3133C76.8604 82.543 72.3066 84.8201 72.0883 84.89C71.87 84.9599 71.9196 86.0984 71.8105 86.9773C71.5989 88.0394 71.4498 89.1132 71.364 90.1931C71.4335 90.6925 71.2251 94.1879 71.2251 94.1879H70.5009C70.7752 92.4166 70.9211 90.6275 70.9374 88.8349C70.8042 87.661 70.7313 86.4809 70.7191 85.2995C70.7191 84.9 71.2152 84.85 69.727 84.2109C67.9311 83.5833 66.1029 83.0532 64.2505 82.6229C62.167 82.0037 58.7739 81.2147 57.9504 80.985C57.127 80.7553 53.3172 79.8265 51.8092 79.1674C50.3011 78.5082 45.7572 77.5295 45.1917 77.17C44.3983 76.8162 43.638 76.3917 42.9197 75.9016C42.2392 75.4864 41.5134 75.1512 40.7568 74.9029L42.126 74.4335Z" fill="#FFF4AB"/>
<path d="M72.4254 94.3577C72.3244 94.8861 72.2516 95.4195 72.2071 95.9557C72.1575 96.7446 72.346 96.9544 72.3162 98.2627C72.2865 99.571 72.3162 100.2 72.3162 101.878C72.2688 103.068 72.3153 104.26 72.4551 105.443C72.6497 106.742 72.7326 108.055 72.7032 109.368C72.594 109.858 72.6536 110.137 72.7032 110.047C72.7528 109.958 72.7032 110.157 72.8123 110.177C72.9214 110.197 73.6754 109.918 73.6556 109.668C73.6556 109.238 73.735 107.531 73.5465 105.553C73.358 103.576 73.358 102.727 73.1893 100.809C73.0206 98.8918 72.7528 97.214 72.8123 96.5848C72.8292 95.945 72.8093 95.3048 72.7528 94.6673L72.4254 94.3577Z" fill="#FCBC56"/>
<path d="M72.7329 112.904C72.8917 112.594 73.1099 112.454 72.9512 112.065C72.8833 111.429 72.9033 110.787 73.0107 110.157C73.0107 110.157 73.1496 111.605 73.2488 112.155C73.294 112.54 73.2463 112.93 73.1099 113.293L72.7329 112.904Z" fill="#FFF4AB"/>
<path d="M72.4951 113.283C72.6167 113.873 72.6962 114.47 72.7332 115.071C72.7332 115.87 72.6439 116.07 72.7332 117.318C72.8225 118.566 72.8622 119.106 72.9515 119.815C73.0408 120.524 73.2491 122.911 73.2491 122.911C73.2491 122.911 73.5071 119.595 73.4476 118.916C73.388 118.237 73.2293 117.438 73.2293 116.779C73.2293 116.12 73.5468 114.582 73.4575 114.282C73.4138 113.909 73.3509 113.539 73.269 113.173C73.1797 113.053 72.7332 113.024 72.7332 113.024L72.4951 113.283Z" fill="#FFF4AB"/>
<path d="M64.0719 110.047C63.9263 110.269 63.8346 110.522 63.804 110.786C63.7246 111.286 63.804 111.785 63.675 112.275C63.546 112.764 63.04 114.362 62.9607 114.791C62.8813 115.221 62.7126 115.65 62.663 116.169C62.6134 116.689 62.2761 118.007 62.663 117.897C63.05 117.787 63.1789 117.378 63.1789 116.549C63.1892 115.782 63.3267 115.023 63.5857 114.302C63.7827 113.619 63.9254 112.921 64.0123 112.215C64.1016 111.665 64.4588 110.467 64.4885 110.377C64.5183 110.287 64.0719 110.047 64.0719 110.047Z" fill="#FFF4AB"/>
<path d="M32.3038 67.3727C32.3038 67.3727 27.7698 69.3701 27.621 69.5399C27.5283 69.6901 27.477 69.8624 27.4722 70.0392C27.4722 70.0392 28.2163 77.0801 28.2163 77.0302C28.2163 76.9802 28.0575 72.8656 28.0575 72.0966C28.0575 71.3276 27.5912 70.6384 28.1369 70.6484C28.6826 70.6584 28.4941 71.1778 29.7144 71.2776C30.5349 71.348 31.3372 71.5609 32.0856 71.9068C32.9849 72.1846 33.8662 72.5182 34.7246 72.9055C35.429 73.265 37.3637 73.9042 37.5026 74.0041C37.6415 74.104 38.2269 82.6429 38.2169 82.563C38.207 82.4831 37.9292 74.4935 38.2169 74.1639C38.8494 73.7756 39.5132 73.4416 40.2012 73.1652C40.9056 72.7557 43.8621 71.2477 43.8621 71.2477C43.8621 71.2477 39.219 73.0553 38.7031 73.1652C38.1872 73.275 38.2368 73.4948 37.3439 73.1652C36.4509 72.8356 32.0856 71.1678 31.5895 70.968C31.0934 70.7683 29.4961 70.2589 29.2183 70.0392C28.9405 69.8195 28.5635 69.7296 28.623 69.5399C28.6826 69.3501 32.3038 67.3727 32.3038 67.3727Z" fill="white"/>
<path d="M33.5638 81.4145C33.5638 81.4145 33.3753 79.1474 33.5638 79.1674C33.9824 79.1412 34.3849 78.9957 34.7246 78.7479C34.8693 78.5292 34.9892 78.2947 35.0817 78.0488C35.1535 77.7615 35.1902 77.4663 35.1909 77.17C35.1486 76.755 35.038 76.3499 34.8634 75.9715C34.672 75.6015 34.4566 75.2445 34.2186 74.9029C34.0697 74.7232 33.6431 74.3736 33.7126 74.3636C33.9577 74.4079 34.1772 74.5434 34.3277 74.7431C34.6118 74.9887 34.8417 75.2915 35.0023 75.632C35.1672 75.9884 35.2872 76.3642 35.3595 76.7505C35.3993 77.199 35.3993 77.6502 35.3595 78.0988C35.3595 78.4683 35.3595 78.9377 35.0023 79.0975C34.6442 79.3278 34.2572 79.5092 33.8515 79.6368C33.782 79.6368 33.8515 80.206 33.7622 80.4957C33.6729 80.7853 33.5638 81.4145 33.5638 81.4145Z" fill="white"/>
<path d="M49.3187 55.0587C49.3187 55.0587 46.9674 55.3683 45.4395 55.528C43.691 55.8487 41.9619 56.2688 40.2606 56.7864C38.9014 57.116 36.7385 57.3956 35.3992 57.865C34.0598 58.3344 32.4228 58.8637 31.2719 59.0934C30.121 59.3231 27.5613 60.2419 25.9045 60.6314C24.2476 61.0209 22.7693 61.6301 22.1145 61.73C21.4647 61.8831 20.8468 62.1502 20.289 62.519C20.2276 62.6122 20.1948 62.7217 20.1948 62.8336C20.1948 62.9455 20.2276 63.0549 20.289 63.1482C20.3982 63.3679 21.2018 63.6375 21.2018 63.6375C21.2018 63.6375 20.7256 63.0982 20.8645 62.8486C21.0034 62.5989 21.2712 62.4391 22.2534 61.9997C23.2986 61.6495 24.3617 61.3561 25.4382 61.1208C26.4799 60.7912 29.0098 60.1221 29.5555 60.0022C30.5293 59.841 31.4932 59.6243 32.4426 59.3531C33.0974 59.0934 34.913 58.5242 35.6571 58.3544C36.4012 58.1846 40.211 57.6453 40.7567 57.4555C41.3023 57.2658 42.8004 56.8164 43.5049 56.6266C44.2093 56.4369 45.9058 55.9375 46.1737 55.8277C46.4416 55.7178 49.3187 55.0587 49.3187 55.0587Z" fill="#F0A41D"/>
<path d="M17.3423 73.5047C17.3423 73.5047 17.9772 75.3024 17.6995 75.9615C17.4896 76.5849 17.4418 77.2519 17.5606 77.899C17.5565 78.4829 17.5863 79.0664 17.6498 79.6468C17.7292 80.0662 17.6498 80.4957 17.6995 81.2847C17.7491 82.0736 17.8681 83.1422 17.9177 83.5817C17.9673 84.0211 17.9177 86.0685 17.9177 86.0685L18.3543 86.2882C18.3543 86.2882 18.5725 86.3781 18.5229 85.7988C18.4119 85.2233 18.3653 84.637 18.384 84.0511C18.492 83.4886 18.5386 82.9159 18.5229 82.3433C18.5229 81.6841 18.1658 80.206 18.1161 79.6068C17.9977 78.6694 17.938 77.7254 17.9376 76.7805C18.007 76.3411 17.6201 75.4622 17.8582 75.1027C17.9985 74.7164 18.0395 74.3007 17.9773 73.8942L17.3423 73.5047Z" fill="#FAC413"/>
<path opacity="0.2" d="M13.1455 71.2577L18.0566 73.8443L19.644 74.5534V75.2525L17.9276 75.0527L13.4035 72.6658L13.1455 71.2577Z" fill="black"/>
<path d="M11.9849 91.1818C11.9849 91.1818 11.9849 89.4141 11.9849 89.0646C11.9849 88.715 12.2527 87.0672 12.2825 86.6777C12.3123 86.2882 12.0047 85.679 12.1238 85.2196C12.2428 84.7602 12.3321 84.5404 12.5504 84.4306C12.7686 84.3207 14.4156 84.101 14.4156 84.101L14.2271 82.1036C14.2271 82.1036 14.5743 83.8713 14.6338 83.9911C15.0006 84.3757 15.4579 84.6608 15.9633 84.8201C16.7225 85.1847 17.4466 85.6193 18.1261 86.1184C18.1261 86.1184 16.5189 85.3294 16.0724 85.2096C15.6058 85.027 15.1488 84.8203 14.7033 84.5904C14.5148 84.5304 14.1675 84.5904 13.8203 84.5904C13.5709 84.5802 13.3218 84.6174 13.0861 84.7002C13.0861 84.7002 14.1874 85.5491 14.5148 85.7688C14.8422 85.9886 15.7946 86.8874 15.7946 86.8874C15.7946 86.8874 16.3998 89.0346 16.5784 89.6838C16.757 90.3329 16.7272 90.6825 16.9058 91.1618C17.074 91.7671 17.1934 92.3849 17.263 93.0095C17.263 92.9395 16.6181 91.072 16.4197 90.4228C16.2213 89.7737 16.1717 88.3056 16.0724 88.2157C15.8772 87.9259 15.7236 87.6098 15.6161 87.2769C15.6161 87.1471 16.2709 87.5465 15.249 86.8874C14.2271 86.2282 13.989 85.9786 13.5127 85.649C13.2605 85.4441 12.9706 85.2913 12.6595 85.1996C12.5305 85.1996 12.471 85.5891 12.6 85.8987C12.6869 86.3782 12.6562 86.8719 12.5107 87.3368C12.3822 88.0831 12.3027 88.8371 12.2726 89.5939C12.2124 90.1291 12.1163 90.6597 11.9849 91.1818Z" fill="#FFF4AB"/>
<path d="M75.7393 95.9556C76.3048 95.5861 78.1898 95.0368 78.8049 94.1979C79.3241 93.2237 80.137 92.4404 81.1265 91.9608C83.0182 91.3103 84.9689 90.8487 86.9503 90.5826C86.9503 90.5826 83.0513 91.7811 82.4758 92.6999C81.5742 93.8096 80.5299 94.7937 79.3705 95.6261C78.924 95.9157 76.5826 96.7346 76.5032 96.7746C76.3418 96.7946 76.1785 96.7946 76.0171 96.7746L75.7393 95.9556Z" fill="#96520F"/>
<path d="M73.735 11.555L122.488 18.4461L105.87 64.6862L59.0614 52.0426C58.9522 52.0426 57.2656 49.3061 57.2656 49.3061C57.2656 49.3061 65.0836 29.2421 65.4805 26.9651C65.8773 24.688 73.735 11.555 73.735 11.555Z" fill="#452A15"/>
<path d="M75.7294 25.3671L114.72 32.7875L114.214 34.2356L74.9854 26.8352L75.7294 25.3671Z" fill="#2D1A0E"/>
<path d="M73.6955 36.8223L109.918 44.3026L109.244 45.4111L72.6538 38.2604L73.6955 36.8223Z" fill="#2D1A0E"/>
<path d="M68.1393 47.5384L105.87 55.3383L104.908 56.5467L67.9409 48.5271L68.1393 47.5384Z" fill="#2D1A0E"/>
<path d="M121.546 54C125.862 43.0143 127.33 30.5604 125.167 16.239C120.047 33.681 113.905 50.8022 106.773 67.5125C111.535 71.9068 116.436 69.2403 121.546 54Z" fill="#BC731F"/>
<path d="M123.361 29.5317C123.777 37.2513 122.559 44.9718 119.789 52.1824C116.664 59.9223 113.956 63.9172 111.733 63.0483C116.725 52.3006 120.621 41.0709 123.361 29.5317Z" fill="#2D1A0E"/>
<path d="M123.361 29.5317C122.865 31.649 122.319 33.7762 121.724 35.9135C121.276 40.9579 120.123 45.9135 118.301 50.6344C116.317 55.6279 114.482 58.9936 112.845 60.6214L111.733 63.0882C113.956 63.9371 116.694 59.9723 119.789 52.2223C122.565 44.9993 123.782 37.2646 123.361 29.5317Z" fill="#8E4D13"/>
<path d="M70.9968 8.20938C63.8833 21.9016 58.5357 36.9521 54.2695 52.7816L107.428 67.4926C114.564 50.7871 120.706 33.669 125.822 16.229C107.587 11.3853 89.2917 8.1095 70.9968 8.20938ZM104.263 60.5116L59.0615 49.3061C62.7721 37.3216 68.8241 21.6919 73.4871 12.6936C88.0813 12.6936 104.997 16.179 119.224 19.6845C116.228 31.5391 109.412 49.0564 104.263 60.5116Z" fill="url(#paint2_linear)"/>
<path d="M73.2986 41.5362C76.4536 31.8188 75.8484 17.727 73.4871 12.6935L68.834 28.0337L60.897 49.7655L67.1573 51.3235C69.1614 49.8554 71.7608 45.3113 73.2986 41.5362Z" fill="#603F29"/>
<path d="M74.0424 17.6172L73.4868 12.6935C85.9281 12.7834 104.005 15.45 119.224 19.6845L117.914 24.4383C103.37 20.3636 85.8289 17.6471 74.0424 17.6172Z" fill="url(#paint3_linear)"/>
<path d="M62.5042 50.165C65.8775 38.8696 69.9452 25.3372 74.0427 17.6172L73.4871 12.6935C67.7751 24.5171 62.953 36.7557 59.0615 49.3061L62.5042 50.165Z" fill="#BC731F"/>
<path opacity="0.3" d="M62.5044 50.165C66.5424 36.4827 70.491 24.0488 74.0032 17.6172C87.3176 17.7769 101.445 20.2737 115.96 23.8691C100.622 21.1925 86.3254 19.2151 75.0449 19.305C71.4435 25.2373 67.9611 37.3516 64.4986 50.6643L62.5044 50.165Z" fill="black"/>
<path d="M59.0614 49.3061C59.0614 49.3061 58.5157 49.4759 59.0614 47.5384C59.607 45.6009 61.2937 40.4476 61.8393 38.7997C62.385 37.1519 64.8157 32.0485 65.2225 30.9C65.6293 29.7514 66.8496 26.7354 67.2068 25.8565C67.5639 24.9776 68.7346 21.4123 69.191 20.5334C69.6474 19.6545 70.8776 17.1278 71.2546 16.1491C71.6317 15.1703 72.8421 12.7435 73.0008 12.4738C73.1595 12.2042 74.5287 11.9745 74.5287 11.9745C75.4353 12.4875 76.4659 12.7365 77.5051 12.6936C79.4297 12.5866 81.3594 12.62 83.2793 12.7934C84.4202 12.9632 87.6446 13.4925 89.113 13.7322C90.5813 13.9719 92.3275 13.9519 94.5598 14.2815C96.7921 14.6111 99.5204 15.1004 100.116 15.1604C100.711 15.2203 104.848 15.43 105.592 16.0093C106.336 16.5885 108.4 16.5286 109.561 16.8282C110.634 17.2389 111.735 17.5726 112.855 17.8269C114.164 18.0167 116.069 18.3163 116.317 18.3962C116.565 18.4761 119.234 19.3349 119.234 19.3349L119.095 19.6346C118.273 19.2409 117.384 19.0104 116.476 18.9554C114.887 18.9889 113.299 18.8415 111.743 18.516C110.534 18.0095 109.282 17.6118 108.003 17.3276C107.055 17.1767 106.117 16.9665 105.195 16.6984C104.084 16.3286 102.947 16.0448 101.792 15.8495C100.433 15.6897 99.064 15.7995 96.9409 15.41C95.0711 15.1092 93.1867 14.9092 91.2957 14.8108C90.4027 14.7509 86.8112 13.9819 85.3429 13.7122C84.0384 13.4026 82.7113 13.1989 81.3744 13.103C80.3822 13.103 77.9416 12.9932 77.0685 12.9932C76.1954 12.9932 74.5584 12.7235 74.3402 12.7235C74.1219 12.7235 74.0921 12.5437 73.606 12.8533C73.1199 13.1629 73.1099 13.5924 72.9313 13.9819C72.7528 14.3714 72.5841 14.9806 72.4948 15.1204C72.2725 15.4077 72.0891 15.7234 71.9491 16.0592C71.7606 16.5585 71.582 17.0579 71.582 17.0579C71.582 17.0579 70.7189 18.546 70.3121 19.3649C69.9053 20.1838 70.3121 20.1838 69.6573 21.2125C69.0591 22.2105 68.5574 23.2639 68.1592 24.3584C67.7179 25.3723 67.3304 26.4091 66.9984 27.4644C66.6978 28.3889 66.3159 29.2846 65.8575 30.1409C65.411 31.1397 64.8653 32.6077 64.6272 33.2669C64.3891 33.926 64.2204 33.966 63.893 35.0745C63.5656 36.1831 63.893 35.8635 63.4466 37.3017C63.2171 38.3209 62.8464 39.3026 62.3453 40.2179C61.9152 41.3207 61.5994 42.4653 61.4028 43.6335C61.3036 44.3447 61.0532 45.026 60.6686 45.6309C60.1606 46.3156 59.8484 47.1272 59.7658 47.9778C59.7124 48.4509 59.5956 48.9145 59.4185 49.356L59.0614 49.3061Z" fill="#FFF4AB"/>
<path d="M89.2915 56.7964L93.6668 57.9249C94.8491 58.3181 96.0598 58.6186 97.2881 58.8238C98.3798 58.8627 99.4642 59.0201 100.522 59.2932C101.413 59.6406 102.337 59.8917 103.281 60.0422C103.896 60.1221 103.856 60.7013 104.342 59.7526C104.828 58.8038 106.634 55.1385 107.051 54.1398C107.467 53.1411 109.134 48.9366 109.134 48.9366C108.86 50.1533 108.488 51.3457 108.023 52.502C107.408 53.8602 107.12 55.1885 106.426 56.4968C105.731 57.8051 104.997 60.0322 104.709 60.4916C104.421 60.951 104.223 60.6015 103.241 60.4916C102.259 60.3818 100.135 59.7326 98.0917 59.3631C96.0479 58.9936 92.5755 58.1646 92.1389 58.0048C91.7024 57.845 89.2915 56.7964 89.2915 56.7964Z" fill="#FFF4AB"/>
<path d="M125.822 16.229C125.934 16.4429 125.993 16.6812 125.993 16.9231C125.993 17.165 125.934 17.4032 125.822 17.6172C125.485 18.546 124.83 19.4448 124.691 20.0141C124.533 21.3603 124.288 22.6948 123.957 24.0089C123.391 25.8265 121.972 29.6915 121.586 31.3394C121.199 32.9873 119.264 37.6312 118.976 38.58C118.689 39.5288 117.3 43.1441 116.992 44.003C116.684 44.8619 113.678 52.8915 113.44 53.6705C113.202 54.4494 113.073 56.0574 112.379 57.0061C111.684 57.9549 110.861 61.1607 110.166 62.3991C109.472 63.6375 107.884 67.143 107.795 67.4626C107.706 67.7822 107.438 68.0818 107.091 67.7822C106.743 67.4826 107.091 67.2129 107.229 66.5138C107.695 64.9416 108.276 63.4061 108.966 61.9198C109.66 60.3618 111.188 57.6453 111.734 56.0773C112.279 54.5094 112.726 53.3209 113.212 51.7629C113.741 50.1705 114.405 48.6268 115.196 47.1489C115.643 46.29 117.806 41.3964 118.054 39.5388C118.434 37.8944 119.024 36.3065 119.81 34.8149C120.097 34.0659 122.786 25.9664 123.004 25.1474C123.338 24.173 123.584 23.1702 123.738 22.1513C124.083 20.8381 124.507 19.5473 125.008 18.2863C125.214 17.5759 125.486 16.887 125.822 16.229Z" fill="#F0A41D"/>
<path d="M18.6323 87.0672C29.1687 94.3477 46.0746 101.938 65.8974 109.668L66.8201 108.29C47.8902 101.379 31.6094 94.178 20.0709 86.4779L18.6323 87.0672Z" fill="#FAC413"/>
<path d="M19.6142 94.1979L18.6221 87.0672C31.9861 95.4163 48.4753 102.327 65.5597 109.538L64.0616 115.7C46.5009 109.039 30.6368 102.068 19.6142 94.1979Z" fill="url(#paint4_linear)"/>
<path d="M66.2544 91.022L67.0183 114.162L73.2291 116.799L72.356 90.5826L66.2544 91.022Z" fill="#F0A41D"/>
<path d="M66.82 108.29L64.0718 110.047L73.1101 113.283L73.0109 110.157L66.82 108.29Z" fill="#FAC413"/>
<path d="M64.0719 110.047L62.6631 117.897L73.2491 123.051L73.1102 113.283L64.0719 110.047Z" fill="#F0B71D"/>
<path d="M64.4886 109.778L65.9569 110.267C66.4055 110.369 66.8344 110.545 67.2269 110.786C67.637 111.053 68.1015 111.224 68.5861 111.286C69.3203 111.476 69.1615 111.446 70.1735 111.775C71.1322 112.018 72.0657 112.353 72.9614 112.774C73.0441 112.913 73.0918 113.071 73.1003 113.233C73.1003 113.233 73.1003 113.423 72.4851 113.233C71.87 113.043 71.2549 112.774 70.3322 112.494C69.4095 112.215 69.3401 112.165 68.1396 111.865C67.1685 111.637 66.2165 111.333 65.2922 110.956C64.8387 110.804 64.4056 110.596 64.0024 110.337L64.062 109.997L64.4886 109.778Z" fill="#FFF4AB"/>
<path d="M101.128 99.8706L102.328 91.7211L78.2393 109.009L80.6005 113.852C88.0501 110.166 94.9579 105.461 101.128 99.8706Z" fill="#BC731F"/>
<path d="M76.2251 108.29C87.1385 102.417 95.7204 96.8445 100.85 91.7511L102.487 91.5414C96.9904 97.5336 89.093 103.396 78.2391 109.009L76.2251 108.29Z" fill="#C48802"/>
<path d="M43.6536 40.3177C43.7826 40.4276 52.7613 40.3177 52.7613 40.3177L57.6129 43.184L61.5119 47.7182L63.4168 56.7065L58.4562 60.7013L42.7507 62.2993L40.8359 47.3187L43.6536 40.3177Z" fill="#03003B"/>
<path d="M48.6938 44.6721L49.18 40.4076L52.6028 40.3577L57.3055 43.244L61.1153 47.5584L61.8197 50.8341L58.2084 52.4021L54.5673 51.1537L50.6186 47.818L48.6938 44.6721Z" fill="url(#paint5_linear)"/>
<path d="M43.6733 45.9804L43.713 40.3078L49.1797 40.4076L48.6935 44.6721L43.6733 45.9804Z" fill="#47B6FE"/>
<path d="M50.5093 47.808L46.1836 50.7742L52.3943 56.0174L54.5671 51.1537L50.5093 47.808Z" fill="#3A63CC"/>
<path d="M58.2083 52.4021L57.9404 57.3557L62.9904 56.287L61.8197 50.8341L58.2083 52.4021Z" fill="#191981"/>
<path d="M46.1834 50.7742L43.6733 45.9804L48.6935 44.6721L50.5091 47.8081L46.1834 50.7742Z" fill="#5B9DFE"/>
<path d="M52.3945 56.0174L57.9405 57.3557L58.2084 52.4021L54.5673 51.1537L52.3945 56.0174Z" fill="#2064A8"/>
<path d="M46.1835 50.7742L42.8599 61.74L52.3942 56.0174L46.1835 50.7742Z" fill="#1919C2"/>
<path d="M43.6734 45.9804L42.8599 61.74L46.1835 50.7742L43.6734 45.9804Z" fill="#004FEA"/>
<path d="M57.9402 57.3557L42.8599 61.74L52.3942 56.0174L57.9402 57.3557Z" fill="#1919A4"/>
<path d="M58.1785 60.152L57.9404 57.3557L62.9904 56.287L58.1785 60.152Z" fill="#1614A4"/>
<path d="M40.9648 47.1389L43.6734 45.9804L43.713 40.3078L40.9648 47.1389Z" fill="#3DA8E2"/>
<path d="M57.9402 57.3557L58.1783 60.152L42.8599 61.74L57.9402 57.3557Z" fill="#191981"/>
<path d="M43.6734 45.9804L42.8598 61.74L40.9648 47.1389L43.6734 45.9804Z" fill="#006DFF"/>
<path d="M49.1797 40.4076L48.9515 44.3925L50.7472 47.5584L54.5868 50.884L58.1882 52.1624L61.8194 50.8341L58.337 52.5319L54.4975 51.2935L50.3603 47.9678L46.1834 50.7742L50.4 47.6183L48.5348 44.8419L43.6733 45.9804L48.3463 44.3425L49.1797 40.4076Z" fill="white"/>
<path d="M48.7039 40.3977L43.7135 40.3078L41.5605 45.6608L43.5349 41.1467L43.6837 44.6621L44.0905 40.6673L48.7039 40.3977Z" fill="white"/>
<path d="M54.3292 51.683L52.1962 55.6679L48.9122 53.0812L51.9481 55.9275L44.0508 61.0309L52.464 56.287L56.4326 56.9961L52.97 55.8376L54.3292 51.683Z" fill="#191981"/>
<path d="M58.0992 52.7816L57.7618 57.0161L48.8228 60.0122L57.7023 57.6153L58.1785 60.152L58.2083 57.6153L62.8019 56.327L58.2678 57.0061L58.0992 52.7816Z" fill="#191963"/>
<path d="M41.4711 48.4372C41.3421 48.5271 33.9011 47.6083 33.9011 47.6083L29.5953 49.5358L25.9641 52.9314L23.5532 60.192L27.2836 63.9172L40.1813 66.7835L43.1577 54.5194L41.4711 48.4372Z" fill="#03003B"/>
<path d="M36.8774 51.5831V47.9978L34.0399 47.6283L29.8531 49.5757L26.2814 52.8115L25.3984 55.4581L28.2558 57.116L31.4008 56.4169L34.9923 54.02L36.8774 51.5831Z" fill="url(#paint6_linear)"/>
<path d="M40.9353 53.1511L41.4214 48.4272L36.8774 47.9978V51.5832L40.9353 53.1511Z" fill="#47B6FE"/>
<path d="M35.0718 54.02L38.3954 56.8963L32.7502 60.6614L31.4009 56.4169L35.0718 54.02Z" fill="#3A63CC"/>
<path d="M28.256 57.116L28.0179 61.2506L23.9204 59.8924L25.3987 55.4581L28.256 57.116Z" fill="#191981"/>
<path d="M38.3954 56.8963L40.9353 53.1511L36.8775 51.5831L35.0718 54.02L38.3954 56.8963Z" fill="#5B9DFE"/>
<path d="M32.75 60.6614L28.0176 61.2506L28.2557 57.116L31.4007 56.4169L32.75 60.6614Z" fill="#2064A8"/>
<path d="M38.3952 56.8963L40.1315 66.3241L32.75 60.6614L38.3952 56.8963Z" fill="#1919C2"/>
<path d="M40.9354 53.1511L40.1317 66.3241L38.3955 56.8963L40.9354 53.1511Z" fill="#004FEA"/>
<path d="M28.0176 61.2506L40.1315 66.324L32.75 60.6614L28.0176 61.2506Z" fill="#1919A4"/>
<path d="M27.5516 63.5476L28.0179 61.2506L23.9204 59.8924L27.5516 63.5476Z" fill="#1614A4"/>
<path d="M43.0681 54.3695L40.9351 53.1511L41.4212 48.4272L43.0681 54.3695Z" fill="#3DA8E2"/>
<path d="M28.0176 61.2506L27.5513 63.5476L40.1315 66.3241L28.0176 61.2506Z" fill="#191981"/>
<path d="M40.9355 53.1511L40.1318 66.3241L43.0685 54.3695L40.9355 53.1511Z" fill="#006DFF"/>
<path d="M36.8774 47.9978L36.6889 51.3235L34.913 53.7903L31.4008 56.1872L28.2855 56.9162L25.3984 55.4581L28.1268 57.2059L31.4405 56.5467L35.1908 54.1698L38.3953 56.8963L35.1908 53.8702L36.9964 51.7429L40.9352 53.1511L37.2048 51.3435L36.8774 47.9978Z" fill="white"/>
<path d="M37.2744 48.0378L41.4215 48.4272L42.7113 53.0812L41.5009 49.1463L41.0445 52.0525L41.0743 48.6869L37.2744 48.0378Z" fill="white"/>
<path d="M31.5396 56.8763L32.9484 60.3917L35.9149 58.5441L33.127 60.6314L39.2087 65.615L32.6706 60.8811L29.2974 61.0908L32.2936 60.4516L31.5396 56.8763Z" fill="#191981"/>
<path d="M28.3052 57.4356L28.1961 60.981L35.3394 64.3167L28.1862 61.4803L27.5512 63.5476L27.7596 61.4404L24.0688 59.9423L27.7794 60.931L28.3052 57.4356Z" fill="#191963"/>
<path d="M36.8276 57.6753C37.0062 57.6753 42.6812 50.6843 42.6812 50.6843L47.9891 48.7568L53.9419 48.657L61.9384 52.9314L61.8095 59.2832L53.0192 72.4461L40.3695 64.3466L36.8276 57.6753Z" fill="#03003B"/>
<path d="M43.3757 56.5767L40.439 53.4707L42.582 50.7842L47.8006 48.9965L53.5351 48.8067L56.4817 50.3647L55.3705 54.1598L52.0866 56.1772L47.0069 57.096L43.3757 56.5767Z" fill="url(#paint7_linear)"/>
<path d="M41.1633 61.2906L36.8574 57.6253L40.439 53.4707L43.3757 56.5767L41.1633 61.2906Z" fill="#47B6FE"/>
<path d="M46.9277 57.1659L46.4316 62.4191L54.4084 60.971L52.0868 56.1772L46.9277 57.1659Z" fill="#3A63CC"/>
<path d="M55.3706 54.1598L58.972 57.5454L61.3928 52.9514L56.4818 50.3647L55.3706 54.1598Z" fill="#191981"/>
<path d="M46.4318 62.4191L41.1636 61.2906L43.376 56.5767L46.9278 57.1659L46.4318 62.4191Z" fill="#5B9DFE"/>
<path d="M54.4085 60.971L58.9723 57.5454L55.3709 54.1598L52.0869 56.1772L54.4085 60.971Z" fill="#2064A8"/>
<path d="M46.4316 62.4191L52.6721 72.0067L54.4084 60.971L46.4316 62.4191Z" fill="#1919C2"/>
<path d="M41.1636 61.2906L52.6723 72.0067L46.4318 62.4191L41.1636 61.2906Z" fill="#004FEA"/>
<path d="M58.9724 57.5454L52.6724 72.0067L54.4086 60.971L58.9724 57.5454Z" fill="#1919A4"/>
<path d="M61.264 59.1433L58.9722 57.5454L61.393 52.9514L61.264 59.1433Z" fill="#1614A4"/>
<path d="M40.32 64.1269L41.1633 61.2906L36.8574 57.6253L40.32 64.1269Z" fill="#3DA8E2"/>
<path d="M58.9724 57.5454L61.2642 59.1434L52.6724 72.0067L58.9724 57.5454Z" fill="#191981"/>
<path d="M41.1636 61.2906L52.6723 72.0067L40.3203 64.1269L41.1636 61.2906Z" fill="#006DFF"/>
<path d="M40.439 53.4707L43.3261 56.1872L46.8878 56.8363L51.8881 55.9874L55.182 54.02L56.4817 50.3647L55.5491 54.1398L52.1461 56.317L46.9573 57.3956L46.4314 62.4191L46.7191 57.1359L43.4054 56.8064L41.1632 61.2906L42.8994 56.6266L40.439 53.4707Z" fill="white"/>
<path d="M40.1215 53.8302L36.8574 57.6253L39.5659 62.7187L37.3832 58.3044L40.1612 60.4417L37.3733 57.5654L40.1215 53.8302Z" fill="white"/>
<path d="M52.335 56.7065L54.0117 60.9011L49.9341 61.7799L54.0514 61.2606L52.8906 70.6285L54.6566 61.0908L57.7322 58.4742L54.6269 60.4117L52.335 56.7065Z" fill="#191981"/>
<path d="M55.5892 54.4894L58.6053 57.4555L55.1626 66.2841L59.022 57.885L61.2642 59.1434L59.3494 57.4955L61.3039 53.1311L58.9129 57.066L55.5892 54.4894Z" fill="#191963"/>
<path d="M58.6646 43.943C58.8431 43.943 65.8376 38.3003 65.8376 38.3003L71.4333 37.5613L77.2273 38.6898L84.2317 44.5423L82.7931 50.7342L71.4333 61.8199L60.748 51.2536L58.6646 43.943Z" fill="#03003B"/>
<path d="M65.292 44.2726L63.0498 40.6174L65.7087 38.4502L71.1753 37.781L76.8305 38.7997L79.3902 40.9369L77.525 44.4224L73.8938 45.7108L68.7347 45.541L65.292 44.2726Z" fill="url(#paint8_linear)"/>
<path d="M62.1567 48.4273L58.7041 43.9431L63.0496 40.6174L65.2918 44.2726L62.1567 48.4273Z" fill="#47B6FE"/>
<path d="M68.6454 45.6009L67.0679 50.6244L75.1835 50.884L73.8937 45.7107L68.6454 45.6009Z" fill="#3A63CC"/>
<path d="M77.5249 44.4224L80.3525 48.4772L83.6662 44.4923L79.3901 40.937L77.5249 44.4224Z" fill="#191981"/>
<path d="M67.0678 50.6244L62.1567 48.4272L65.2919 44.2726L68.6453 45.6009L67.0678 50.6244Z" fill="#5B9DFE"/>
<path d="M75.1838 50.8841L80.3528 48.4772L77.5252 44.4224L73.894 45.7108L75.1838 50.8841Z" fill="#2064A8"/>
<path d="M67.0679 50.6244L71.205 61.3205L75.1835 50.8841L67.0679 50.6244Z" fill="#1919C2"/>
<path d="M62.1567 48.4272L71.205 61.3205L67.0678 50.6244L62.1567 48.4272Z" fill="#004FEA"/>
<path d="M80.3525 48.4772L71.2051 61.3205L75.1835 50.8841L80.3525 48.4772Z" fill="#1919A4"/>
<path d="M82.2574 50.5245L80.3525 48.4772L83.6663 44.4923L82.2574 50.5245Z" fill="#1614A4"/>
<path d="M60.738 51.0239L62.1567 48.4272L58.7041 43.9431L60.738 51.0239Z" fill="#3DA8E2"/>
<path d="M80.3525 48.4772L82.2574 50.5245L71.2051 61.3205L80.3525 48.4772Z" fill="#191981"/>
<path d="M62.157 48.4272L71.2052 61.3205L60.7383 51.0239L62.157 48.4272Z" fill="#006DFF"/>
<path d="M63.0497 40.6174L65.3216 43.8931L68.675 45.2614L73.7448 45.4811L77.3562 44.2427L79.39 40.937L77.7034 44.4324L73.9234 45.8606L68.6254 45.8306L67.0678 50.6244L68.4468 45.521L65.272 44.5023L62.1567 48.4273L64.8156 44.2327L63.0497 40.6174Z" fill="white"/>
<path d="M62.6726 40.907L58.7041 43.943L60.3014 49.4859L59.0712 44.722L61.3531 47.3886L59.22 43.993L62.6726 40.907Z" fill="white"/>
<path d="M74.0329 46.27L74.7968 50.7242L70.6299 50.7342L74.7671 51.0938L71.7014 60.0122L75.3921 51.0538L78.9439 49.1263L75.5112 50.3747L74.0329 46.27Z" fill="#191981"/>
<path d="M77.6736 44.782L80.0051 48.3174L74.8262 56.2371L80.3226 48.8267L82.2572 50.5245L80.7293 48.5071L83.5371 44.6422L80.392 47.9978L77.6736 44.782Z" fill="#191963"/>
<path d="M73.5067 47.4485C73.3877 47.5384 65.9368 46.6196 65.9368 46.6196L61.6309 48.5471L58.0096 51.9327L55.5591 59.1833L59.3193 62.9184L72.2169 65.7847L75.1933 53.5306L73.5067 47.4485Z" fill="#03003B"/>
<path d="M68.9234 50.5944L68.9135 47.0091L66.076 46.6396L61.8992 48.597L58.3275 51.8228L57.4346 54.4794L60.2919 56.1273L63.437 55.4282L67.0285 53.0313L68.9234 50.5944Z" fill="url(#paint9_linear)"/>
<path d="M72.9709 52.1624L73.467 47.4485L68.9131 47.0091L68.923 50.5944L72.9709 52.1624Z" fill="#47B6FE"/>
<path d="M67.1178 53.0313L70.4415 55.9075L64.7863 59.6826L63.437 55.4282L67.1178 53.0313Z" fill="#3A63CC"/>
<path d="M60.2917 56.1273L60.0535 60.2619L55.9561 58.9037L57.4343 54.4794L60.2917 56.1273Z" fill="#191981"/>
<path d="M70.4413 55.9075L72.9712 52.1624L68.9234 50.5944L67.1177 53.0313L70.4413 55.9075Z" fill="#5B9DFE"/>
<path d="M64.7862 59.6826L60.0537 60.2619L60.2918 56.1273L63.4369 55.4282L64.7862 59.6826Z" fill="#2064A8"/>
<path d="M70.4413 55.9075L72.1775 65.3353L64.7861 59.6827L70.4413 55.9075Z" fill="#1919C2"/>
<path d="M72.9713 52.1624L72.1776 65.3353L70.4414 55.9075L72.9713 52.1624Z" fill="#004FEA"/>
<path d="M60.0537 60.2619L72.1775 65.3353L64.7862 59.6826L60.0537 60.2619Z" fill="#1919A4"/>
<path d="M59.5872 62.5589L60.0535 60.2619L55.9561 58.9037L59.5872 62.5589Z" fill="#1614A4"/>
<path d="M75.1142 53.3808L72.9712 52.1624L73.4673 47.4485L75.1142 53.3808Z" fill="#3DA8E2"/>
<path d="M60.0537 60.2619L59.5874 62.5589L72.1775 65.3353L60.0537 60.2619Z" fill="#191981"/>
<path d="M72.971 52.1624L72.1772 65.3353L75.1139 53.3808L72.971 52.1624Z" fill="#006DFF"/>
<path d="M68.9135 47.0091L68.7349 50.3447L66.9491 52.8016L63.4469 55.1985L60.3316 55.9275L57.4346 54.4794L60.1729 56.2171L63.4766 55.558L67.2368 53.1811L70.4414 55.9075L67.2269 52.8815L69.0425 50.7542L72.9713 52.1624L69.2409 50.3547L68.9135 47.0091Z" fill="white"/>
<path d="M69.3101 47.049L73.4671 47.4485L74.7569 52.0925L73.5365 48.1576L73.0901 51.0638L73.1198 47.7082L69.3101 47.049Z" fill="white"/>
<path d="M63.5855 55.8976L64.9844 59.403L67.9508 57.5654L65.1729 59.6427L71.2546 64.6262L64.7066 59.8924L61.3433 60.1021L64.3296 59.4729L63.5855 55.8976Z" fill="#191981"/>
<path d="M60.3511 56.4468L60.2321 60.0022L67.3853 63.3279L60.2222 60.5016L59.5872 62.5589L59.8055 60.4516L56.1147 58.9536L59.8154 59.9423L60.3511 56.4468Z" fill="#191963"/>
<path d="M66.1948 56.9262C66.3933 56.9262 73.1397 48.607 73.1397 48.607L79.3703 46.32L86.3152 46.1901L95.8496 51.2436L95.6908 58.7738L85.3727 74.4235L70.3816 64.826L66.1948 56.9262Z" fill="#03003B"/>
<path d="M73.9433 55.6079L70.4609 51.9327L73.0107 48.7568L79.1818 46.6296L85.9778 46.4099L89.4701 48.2475L88.1605 52.7516L84.2615 55.1485L78.2492 56.2271L73.9433 55.6079Z" fill="url(#paint10_linear)"/>
<path d="M71.3242 61.2007L66.2246 56.8563L70.461 51.9327L73.9434 55.6079L71.3242 61.2007Z" fill="#47B6FE"/>
<path d="M78.1599 56.317L77.5547 62.5389L87.0196 60.8212L84.2615 55.1485L78.1599 56.317Z" fill="#3A63CC"/>
<path d="M88.1606 52.7516L92.4268 56.7564L95.2941 51.3235L89.4703 48.2475L88.1606 52.7516Z" fill="#191981"/>
<path d="M77.5548 62.539L71.3242 61.2007L73.9434 55.6079L78.16 56.317L77.5548 62.539Z" fill="#5B9DFE"/>
<path d="M87.0198 60.8212L92.427 56.7564L88.1608 52.7516L84.2617 55.1485L87.0198 60.8212Z" fill="#2064A8"/>
<path d="M77.5547 62.539L84.956 73.9042L87.0196 60.8212L77.5547 62.539Z" fill="#1919C2"/>
<path d="M71.3242 61.2007L84.9561 73.9042L77.5548 62.5389L71.3242 61.2007Z" fill="#004FEA"/>
<path d="M92.4268 56.7564L84.9561 73.9042L87.0197 60.8212L92.4268 56.7564Z" fill="#1919A4"/>
<path d="M95.1353 58.654L92.4268 56.7564L95.294 51.3235L95.1353 58.654Z" fill="#1614A4"/>
<path d="M70.3221 64.5663L71.3242 61.2007L66.2246 56.8563L70.3221 64.5663Z" fill="#3DA8E2"/>
<path d="M92.4268 56.7564L95.1353 58.654L84.9561 73.9042L92.4268 56.7564Z" fill="#191981"/>
<path d="M71.3243 61.2007L84.9562 73.9042L70.3223 64.5663L71.3243 61.2007Z" fill="#006DFF"/>
<path d="M70.4609 51.9327L73.8937 55.1585L78.1103 55.9175L84.0333 54.9188L87.9323 52.5918L89.4701 48.2475L88.3689 52.7317L84.3408 55.3083L78.1896 56.5867L77.5547 62.5389L77.9019 56.2771L73.983 55.8876L71.3241 61.2007L73.3877 55.6778L70.4609 51.9327Z" fill="white"/>
<path d="M70.0939 52.3621L66.2246 56.8563L69.4292 62.8885L66.8496 57.6653L70.1336 60.192L66.8298 56.7864L70.0939 52.3621Z" fill="white"/>
<path d="M84.5593 55.7677L86.5436 60.7413L81.7119 61.7799L86.5932 61.1707L85.2141 72.2663L87.3075 60.971L90.9586 57.865L87.2778 60.162L84.5593 55.7677Z" fill="#191981"/>
<path d="M88.4186 53.1411L91.9903 56.6666L87.9126 67.123L92.4863 57.1659L95.1353 58.654L92.8732 56.7065L95.1948 51.5232L92.3573 56.1872L88.4186 53.1411Z" fill="#191963"/>
<path d="M103.023 64.4065C102.914 64.4065 100.225 58.8338 100.225 58.8338L96.9806 56.7664L93.0121 55.8277L86.9204 57.4955L85.9878 61.7799L89.7777 71.9068L99.5701 68.3314L103.023 64.4065Z" fill="#03003B"/>
<path d="M98.8063 62.6987L101.287 61.0509L100.275 58.9336L97.0601 56.9662L93.2404 55.9974L91.0181 56.6066L91.147 59.3231L93.0321 61.1607L96.2863 62.519L98.8063 62.6987Z" fill="url(#paint11_linear)"/>
<path d="M99.5304 66.1942L103.013 64.3666L101.286 61.0509L98.8062 62.6987L99.5304 66.1942Z" fill="#47B6FE"/>
<path d="M96.3257 62.5789L95.8197 66.1742L90.6904 64.027L93.0319 61.1607L96.3257 62.5789Z" fill="#3A63CC"/>
<path d="M91.1468 59.3231L88.1804 61.0509L87.2974 57.6253L91.0178 56.6066L91.1468 59.3231Z" fill="#191981"/>
<path d="M95.8198 66.1742L99.5304 66.1942L98.8061 62.6987L96.3258 62.5789L95.8198 66.1742Z" fill="#5B9DFE"/>
<path d="M90.6908 64.027L88.1807 61.0509L91.1471 59.3231L93.0322 61.1607L90.6908 64.027Z" fill="#2064A8"/>
<path d="M95.8201 66.1742L90.0757 71.6971L90.6908 64.027L95.8201 66.1742Z" fill="#1919C2"/>
<path d="M99.5307 66.1942L90.0757 71.6971L95.8201 66.1742L99.5307 66.1942Z" fill="#004FEA"/>
<path d="M88.1807 61.0509L90.0756 71.6971L90.6908 64.027L88.1807 61.0509Z" fill="#1919A4"/>
<path d="M86.3848 61.7899L88.1805 61.0509L87.2975 57.6253L86.3848 61.7899Z" fill="#1614A4"/>
<path d="M99.6394 68.2216L99.5303 66.1942L103.013 64.3666L99.6394 68.2216Z" fill="#3DA8E2"/>
<path d="M88.1805 61.0509L86.3848 61.7899L90.0755 71.6971L88.1805 61.0509Z" fill="#191981"/>
<path d="M99.5307 66.1942L90.0757 71.6971L99.6398 68.2216L99.5307 66.1942Z" fill="#006DFF"/>
<path d="M101.287 61.0509L98.9055 62.4491L96.4053 62.3592L93.1908 61.0609L91.2959 59.2532L91.0181 56.6066L91.028 59.2832L92.9626 61.2406L96.2664 62.7287L95.82 66.1742L96.4748 62.5889L98.7468 62.8585L99.5305 66.1942L99.1139 62.8086L101.287 61.0509Z" fill="white"/>
<path d="M101.436 61.3405L103.013 64.3666L100.374 67.3827L102.547 64.7461L100.344 65.7748L102.676 64.2467L101.436 61.3405Z" fill="white"/>
<path d="M92.7742 61.4703L90.9785 64.047L93.5679 65.2255L90.8892 64.2767L90.155 70.7383L90.5122 64.077L88.8652 61.8698L90.6411 63.6176L92.7742 61.4703Z" fill="#191981"/>
<path d="M90.9486 59.5029L88.4484 61.0609L89.3314 67.4825L88.1012 61.2806L86.3848 61.7899L87.9424 60.971L87.3273 57.7552L88.2996 60.7413L90.9486 59.5029Z" fill="#191963"/>
<path d="M38.4053 54.5892C38.3458 54.6991 32.6212 56.8463 32.6212 56.8463L30.26 59.9223L28.9404 63.7773L30.0119 70.0492L34.1491 71.3975L44.5566 68.6211L41.977 58.4542L38.4053 54.5892Z" fill="#03003B"/>
<path d="M36.3118 58.654L34.9228 56.0074L32.7302 56.8164L30.4681 59.8325L29.1387 63.5676L29.5256 65.8646L32.2143 65.9945L34.2184 64.2867L35.8852 61.1607L36.3118 58.654Z" fill="url(#paint12_linear)"/>
<path d="M39.8339 58.2645L38.3655 54.5992L34.9229 56.0074L36.3118 58.654L39.8339 58.2645Z" fill="#47B6FE"/>
<path d="M35.9451 61.1208L39.4473 61.9797L36.828 66.9133L34.2188 64.2867L35.9451 61.1208Z" fill="#3A63CC"/>
<path d="M32.2146 65.9945L33.6432 69.1304L30.1608 69.6897L29.5259 65.8646L32.2146 65.9945Z" fill="#191981"/>
<path d="M39.447 61.9797L39.834 58.2645L36.3119 58.654L35.9448 61.1208L39.447 61.9797Z" fill="#5B9DFE"/>
<path d="M36.8278 66.9133L33.643 69.1304L32.2144 65.9945L34.2185 64.2867L36.8278 66.9133Z" fill="#2064A8"/>
<path d="M39.4469 61.9797L44.348 68.2715L36.8276 66.9133L39.4469 61.9797Z" fill="#1919C2"/>
<path d="M39.8342 58.2645L44.3484 68.2715L39.4473 61.9797L39.8342 58.2645Z" fill="#004FEA"/>
<path d="M33.6431 69.1304L44.3481 68.2715L36.8278 66.9133L33.6431 69.1304Z" fill="#1919A4"/>
<path d="M34.1986 70.998L33.643 69.1304L30.1606 69.6897L34.1986 70.998Z" fill="#1614A4"/>
<path d="M41.8481 58.3544L39.8341 58.2645L38.3657 54.5992L41.8481 58.3544Z" fill="#3DA8E2"/>
<path d="M33.6431 69.1304L34.1987 70.998L44.3481 68.2715L33.6431 69.1304Z" fill="#191981"/>
<path d="M39.834 58.2645L44.3482 68.2715L41.848 58.3544L39.834 58.2645Z" fill="#006DFF"/>
<path d="M34.9231 56.0074L36.0739 58.5341L35.7366 61.0209L34.1294 64.1169L32.1649 65.8347L29.5259 65.8646L32.1649 66.1043L34.298 64.3666L36.0839 61.1907L39.4472 61.9797L35.9648 60.971L36.4509 58.7239L39.8341 58.2645L36.4509 58.3544L34.9231 56.0074Z" fill="white"/>
<path d="M35.2207 55.8876L38.3658 54.5992L41.0941 57.5354L38.6932 55.0986L39.4869 57.4156L38.2169 54.9188L35.2207 55.8876Z" fill="white"/>
<path d="M34.5063 64.5763L36.8676 66.6237L38.2963 64.1469L37.0958 66.7435L43.4058 68.1017L36.8577 67.103L34.5063 68.5312L36.4212 66.9233L34.5063 64.5763Z" fill="#191981"/>
<path d="M32.3829 66.2142L33.6727 68.8707L40.1116 68.6111L33.8612 69.2403L34.1985 70.998L33.5338 69.3701L30.2896 69.6597L33.3453 68.9906L32.3829 66.2142Z" fill="#191963"/>
<path d="M66.6317 61.9197C66.7706 61.9797 74.1818 59.7625 74.1818 59.7625L78.8845 60.971L83.1407 63.7674L86.8314 70.7583L83.6963 75.2025L71.0863 80.3559L65.957 68.4213L66.6317 61.9197Z" fill="#03003B"/>
<path d="M71.8303 64.3366L71.2251 60.6913L74.0427 59.8325L78.6165 61.0808L82.8032 63.7374L84.1525 66.2841L81.5432 68.4513L78.2295 68.2915L74.1717 66.4738L71.8303 64.3366Z" fill="url(#paint13_linear)"/>
<path d="M67.9908 66.6336L66.6812 61.9198L71.2251 60.6913L71.8303 64.3366L67.9908 66.6336Z" fill="#47B6FE"/>
<path d="M74.0823 66.4938L71.2051 69.9893L77.5845 72.8456L78.2294 68.2915L74.0823 66.4938Z" fill="#3A63CC"/>
<path d="M81.543 68.4513L82.4954 72.6159L86.4143 70.5186L84.1523 66.2841L81.543 68.4513Z" fill="#191981"/>
<path d="M71.2052 69.9893L67.9907 66.6336L71.8303 64.3366L74.0824 66.4938L71.2052 69.9893Z" fill="#5B9DFE"/>
<path d="M77.5845 72.8456L82.4955 72.6159L81.5431 68.4513L78.2294 68.2915L77.5845 72.8456Z" fill="#2064A8"/>
<path d="M71.2051 69.9893L71.0464 79.8665L77.5845 72.8456L71.2051 69.9893Z" fill="#1919C2"/>
<path d="M67.9907 66.6336L71.0465 79.8665L71.2052 69.9893L67.9907 66.6336Z" fill="#004FEA"/>
<path d="M82.4956 72.6159L71.0464 79.8665L77.5845 72.8456L82.4956 72.6159Z" fill="#1919A4"/>
<path d="M83.3588 74.863L82.4956 72.6159L86.4145 70.5186L83.3588 74.863Z" fill="#1614A4"/>
<path d="M66.0264 68.2416L67.9908 66.6336L66.6812 61.9198L66.0264 68.2416Z" fill="#3DA8E2"/>
<path d="M82.4956 72.6159L83.3587 74.863L71.0464 79.8665L82.4956 72.6159Z" fill="#191981"/>
<path d="M67.9908 66.6336L71.0465 79.8665L66.0264 68.2416L67.9908 66.6336Z" fill="#006DFF"/>
<path d="M71.2251 60.6913L71.9791 64.047L74.2114 66.2342L78.1898 68.0618L81.4738 68.2615L84.1525 66.2841L81.6821 68.5212L78.2097 68.4213L73.9931 66.6736L71.2052 69.9893L73.9435 66.364L71.741 64.5164L67.9907 66.6336L71.4632 64.1469L71.2251 60.6913Z" fill="white"/>
<path d="M70.828 60.8012L66.6809 61.9198L66.165 66.8733L66.7206 62.6588L67.683 65.5351L67.0778 62.1295L70.828 60.8012Z" fill="white"/>
<path d="M78.1602 68.7908L77.3367 72.5959L74.0131 71.2377L77.1979 72.8756L71.8701 78.9876L77.7038 73.0453L81.1565 72.6758L78.0114 72.546L78.1602 68.7908Z" fill="#191981"/>
<path d="M81.5429 68.7908L82.2573 72.3762L75.5703 77.0002L82.3565 72.8855L83.3585 74.863L82.7831 72.7657L86.2655 70.5985L82.674 72.2464L81.5429 68.7908Z" fill="#191963"/>
<path d="M58.7937 58.644C58.6746 58.7239 51.2237 57.8051 51.2237 57.8051L46.9179 59.7326L43.2966 63.1082L40.8857 70.3688L44.6459 74.1239L57.5436 76.9902L60.52 64.7361L58.7937 58.644Z" fill="#03003B"/>
<path d="M54.21 61.7899L54.2001 58.1946L51.3626 57.8351L47.1858 59.7825L43.6141 63.0083L42.7212 65.6649L45.5785 67.3128L48.7236 66.6137L52.3151 64.2168L54.21 61.7899Z" fill="url(#paint14_linear)"/>
<path d="M58.258 63.3579L58.7541 58.634L54.2002 58.1946L54.2101 61.7899L58.258 63.3579Z" fill="#47B6FE"/>
<path d="M52.4044 64.2168L55.7281 67.093L50.0729 70.8681L48.7236 66.6137L52.4044 64.2168Z" fill="#3A63CC"/>
<path d="M45.5783 67.3128L45.3402 71.4574L41.2427 70.0892L42.721 65.6649L45.5783 67.3128Z" fill="#191981"/>
<path d="M55.7279 67.093L58.2579 63.3579L54.21 61.7899L52.4043 64.2168L55.7279 67.093Z" fill="#5B9DFE"/>
<path d="M50.0728 70.8682L45.3403 71.4574L45.5784 67.3128L48.7235 66.6137L50.0728 70.8682Z" fill="#2064A8"/>
<path d="M55.7279 67.093L57.4641 76.5308L50.0728 70.8682L55.7279 67.093Z" fill="#1919C2"/>
<path d="M58.258 63.3579L57.4643 76.5308L55.728 67.093L58.258 63.3579Z" fill="#004FEA"/>
<path d="M45.3403 71.4574L57.4642 76.5308L50.0728 70.8681L45.3403 71.4574Z" fill="#1919A4"/>
<path d="M44.8838 73.7544L45.3402 71.4574L41.2427 70.0892L44.8838 73.7544Z" fill="#1614A4"/>
<path d="M60.4008 64.5763L58.2578 63.3579L58.7539 58.634L60.4008 64.5763Z" fill="#3DA8E2"/>
<path d="M45.3402 71.4574L44.8838 73.7544L57.464 76.5308L45.3402 71.4574Z" fill="#191981"/>
<path d="M58.2581 63.3579L57.4644 76.5308L60.4011 64.5763L58.2581 63.3579Z" fill="#006DFF"/>
<path d="M54.2001 58.1946L54.0215 61.5303L52.2357 63.9871L48.7335 66.394L45.6182 67.113L42.7212 65.6649L45.4595 67.4026L48.7633 66.7435L52.5234 64.3766L55.728 67.0931L52.5135 64.077L54.3291 61.9497L58.2579 63.3579L54.5275 61.5502L54.2001 58.1946Z" fill="white"/>
<path d="M54.5967 58.2345L58.7537 58.634L60.0435 63.288L58.8232 59.3431L58.3767 62.2493L58.4065 58.8937L54.5967 58.2345Z" fill="white"/>
<path d="M48.8721 67.0831L50.271 70.5885L53.2375 68.7509L50.4496 70.8382L56.5413 75.8217L49.9932 71.0879L46.6299 71.2976L49.6162 70.6584L48.8721 67.0831Z" fill="#191981"/>
<path d="M45.6278 67.6423L45.5187 71.1877L52.672 74.5234L45.5187 71.6871L44.8837 73.7544L45.0921 71.6372L41.4014 70.1391L45.102 71.1278L45.6278 67.6423Z" fill="#191963"/>
<path d="M68.6654 63.2281C68.586 63.3179 62.5241 64.1369 62.5241 64.1369L59.5477 66.5837L57.4146 70.0492L57.0674 76.391L60.8077 78.6481L71.5723 78.2586L71.3045 67.7822L68.6654 63.2281Z" fill="#03003B"/>
<path d="M65.7285 66.7135L64.9546 63.8273L62.643 64.1269L59.7658 66.5637L57.6426 69.9094L57.5137 72.2264L60.1131 72.9654L62.4446 71.747L64.7562 69.0605L65.7285 66.7135Z" fill="url(#paint15_linear)"/>
<path d="M69.2406 67.133L68.6255 63.2281L64.9546 63.8273L65.7285 66.7135L69.2406 67.133Z" fill="#47B6FE"/>
<path d="M64.8259 69.0505L68.0504 70.6684L64.4092 74.8829L62.4448 71.747L64.8259 69.0505Z" fill="#3A63CC"/>
<path d="M60.1131 72.9654L60.8076 76.3411L57.2954 76.1014L57.5137 72.2264L60.1131 72.9654Z" fill="#191981"/>
<path d="M68.0501 70.6684L69.2407 67.133L65.7285 66.7135L64.8257 69.0505L68.0501 70.6684Z" fill="#5B9DFE"/>
<path d="M64.4092 74.883L60.8078 76.3411L60.1133 72.9654L62.4448 71.747L64.4092 74.883Z" fill="#2064A8"/>
<path d="M68.0503 70.6684L71.4335 77.899L64.4092 74.883L68.0503 70.6684Z" fill="#1919C2"/>
<path d="M69.2409 67.133L71.4335 77.899L68.0503 70.6684L69.2409 67.133Z" fill="#004FEA"/>
<path d="M60.8076 76.3411L71.4333 77.899L64.409 74.8829L60.8076 76.3411Z" fill="#1919A4"/>
<path d="M60.9365 78.2886L60.8075 76.3411L57.2954 76.1014L60.9365 78.2886Z" fill="#1614A4"/>
<path d="M71.1852 67.6623L69.2406 67.133L68.6255 63.2281L71.1852 67.6623Z" fill="#3DA8E2"/>
<path d="M60.8076 76.3411L60.9366 78.2885L71.4333 77.899L60.8076 76.3411Z" fill="#191981"/>
<path d="M69.2407 67.133L71.4333 77.899L71.1853 67.6623L69.2407 67.133Z" fill="#006DFF"/>
<path d="M64.9546 63.8273L65.5202 66.5438L64.6372 68.9007L62.395 71.5573L60.1031 72.7957L57.5137 72.2264L60.0337 73.0553L62.4942 71.8369L64.9447 69.1504L68.0501 70.6684L64.8753 68.9007L65.8476 66.8134L69.2407 67.133L65.9269 66.4539L64.9546 63.8273Z" fill="white"/>
<path d="M65.272 63.7773L68.6254 63.2281L70.6295 66.7036L68.8337 63.7873L69.1016 66.2242L68.4071 63.5077L65.272 63.7773Z" fill="white"/>
<path d="M62.6532 72.0866L64.5085 74.6233L66.4431 72.516L64.7069 74.7731L70.5605 77.5195L64.3993 75.0727L61.79 75.9416L64.0025 74.813L62.6532 72.0866Z" fill="#191981"/>
<path d="M60.2221 73.2151L60.8968 76.0914L67.2365 77.2799L60.996 76.4909L60.9365 78.2886L60.6487 76.5408L57.4243 76.1014L60.5495 76.1313L60.2221 73.2151Z" fill="#191963"/>
<path opacity="0.15" d="M23.8411 64.2967L4.65332 41.4263L12.0248 27.3446L30.8654 65.9146L23.8411 64.2967Z" fill="url(#paint16_linear)"/>
<path opacity="0.15" d="M32.413 62.3692C32.1748 62.4291 18.791 20.1439 18.791 20.1439L37.8697 12.5138L41.9176 68.1816L32.413 62.3692Z" fill="url(#paint17_linear)"/>
<path opacity="0.15" d="M46.2231 70.209V12.8833H67.792L55.569 73.8443L46.2231 70.209Z" fill="url(#paint18_linear)"/>
<path opacity="0.3" d="M61.3135 74.2537L78.5567 18.516L94.4705 23.6793L66.8496 76.4709L61.3135 74.2537Z" fill="url(#paint19_linear)"/>
<path opacity="0.15" d="M79.5093 72.3063L109.412 29.6416L124.393 38.3802L89.629 71.2477L79.5093 72.3063Z" fill="url(#paint20_linear)"/>
<path opacity="0.15" d="M33.663 67.4526L0 11.3653L19.4755 3.44553L37.7505 69.0205L33.663 67.4526Z" fill="url(#paint21_linear)"/>
<path opacity="0.15" d="M42.1357 69.8794L31.5894 0L51.8883 0.988719L46.759 74.4036L42.1357 69.8794Z" fill="url(#paint22_linear)"/>
<path opacity="0.15" d="M54.0908 75.582L67.7921 0L88.3788 9.85723L59.7757 77.909L54.0908 75.582Z" fill="url(#paint23_linear)"/>
<path opacity="0.15" d="M66.8892 78.6581L81.6421 12.9632L107.656 22.351L76.8402 76.2312L66.8892 78.6581Z" fill="url(#paint24_linear)"/>
<path opacity="0.15" d="M74.1221 80.1761L101.098 11.3653L110.652 26.3558L81.4142 75.632L74.1221 80.1761Z" fill="url(#paint25_linear)"/>
</g>
<defs>
<linearGradient id="paint0_linear" x1="10.5068" y1="68.4713" x2="109.571" y2="68.4713" gradientUnits="userSpaceOnUse">
<stop offset="0.08" stop-color="#FFE52C"/>
<stop offset="0.14" stop-color="#FFE530"/>
<stop offset="0.2" stop-color="#FFE73C"/>
<stop offset="0.26" stop-color="#FFE950"/>
<stop offset="0.32" stop-color="#FFED6C"/>
<stop offset="0.34" stop-color="#FFEE79"/>
<stop offset="0.37" stop-color="#FFED71"/>
<stop offset="0.43" stop-color="#FFE95B"/>
<stop offset="0.49" stop-color="#FFE338"/>
<stop offset="0.57" stop-color="#FFDA07"/>
<stop offset="0.58" stop-color="#FFD900"/>
<stop offset="0.83" stop-color="#FFD422"/>
<stop offset="1" stop-color="#FFD03B"/>
</linearGradient>
<linearGradient id="paint1_linear" x1="40.2708" y1="71.2377" x2="42.4824" y2="105.691" gradientUnits="userSpaceOnUse">
<stop stop-color="#DBAD00"/>
<stop offset="1" stop-color="#DBAD00"/>
</linearGradient>
<linearGradient id="paint2_linear" x1="-368.836" y1="20227.3" x2="4723.61" y2="20319.2" gradientUnits="userSpaceOnUse">
<stop offset="0.08" stop-color="#FFE52C"/>
<stop offset="0.14" stop-color="#FFE530"/>
<stop offset="0.2" stop-color="#FFE73C"/>
<stop offset="0.26" stop-color="#FFE950"/>
<stop offset="0.32" stop-color="#FFED6C"/>
<stop offset="0.34" stop-color="#FFEE79"/>
<stop offset="0.37" stop-color="#FFED71"/>
<stop offset="0.43" stop-color="#FFE95B"/>
<stop offset="0.49" stop-color="#FFE338"/>
<stop offset="0.57" stop-color="#FFDA07"/>
<stop offset="0.58" stop-color="#FFD900"/>
<stop offset="0.83" stop-color="#FFD422"/>
<stop offset="1" stop-color="#FFD03B"/>
</linearGradient>
<linearGradient id="paint3_linear" x1="843.194" y1="3530.11" x2="2947.94" y2="3568.13" gradientUnits="userSpaceOnUse">
<stop stop-color="#DBAD00"/>
<stop offset="1" stop-color="#DBAD00"/>
</linearGradient>
<linearGradient id="paint4_linear" x1="900.111" y1="2993.88" x2="3120.73" y2="2993.88" gradientUnits="userSpaceOnUse">
<stop stop-color="#DBAD00"/>
<stop offset="1" stop-color="#DBAD00"/>
</linearGradient>
<linearGradient id="paint5_linear" x1="48.8645" y1="40.7024" x2="60.8512" y2="51.8377" gradientUnits="userSpaceOnUse">
<stop stop-color="#A0F5FF"/>
<stop offset="0.48" stop-color="#7FD3FF"/>
<stop offset="1" stop-color="#5EB1FF"/>
</linearGradient>
<linearGradient id="paint6_linear" x1="25789.2" y1="-11482.5" x2="25662.3" y2="-11388" gradientUnits="userSpaceOnUse">
<stop stop-color="#A0F5FF"/>
<stop offset="0.48" stop-color="#7FD3FF"/>
<stop offset="1" stop-color="#5EB1FF"/>
</linearGradient>
<linearGradient id="paint7_linear" x1="10593.4" y1="853.564" x2="10855" y2="821.148" gradientUnits="userSpaceOnUse">
<stop stop-color="#A0F5FF"/>
<stop offset="0.48" stop-color="#7FD3FF"/>
<stop offset="1" stop-color="#5EB1FF"/>
</linearGradient>
<linearGradient id="paint8_linear" x1="4223.86" y1="118.83" x2="4491.56" y2="141.441" gradientUnits="userSpaceOnUse">
<stop stop-color="#A0F5FF"/>
<stop offset="0.48" stop-color="#7FD3FF"/>
<stop offset="1" stop-color="#5EB1FF"/>
</linearGradient>
<linearGradient id="paint9_linear" x1="26132" y1="-11523.3" x2="26005" y2="-11428.7" gradientUnits="userSpaceOnUse">
<stop stop-color="#A0F5FF"/>
<stop offset="0.48" stop-color="#7FD3FF"/>
<stop offset="1" stop-color="#5EB1FF"/>
</linearGradient>
<linearGradient id="paint10_linear" x1="13269.8" y1="972.854" x2="13637.1" y2="927.336" gradientUnits="userSpaceOnUse">
<stop stop-color="#A0F5FF"/>
<stop offset="0.48" stop-color="#7FD3FF"/>
<stop offset="1" stop-color="#5EB1FF"/>
</linearGradient>
<linearGradient id="paint11_linear" x1="3117.41" y1="-126.255" x2="3008.75" y2="-165.298" gradientUnits="userSpaceOnUse">
<stop stop-color="#A0F5FF"/>
<stop offset="0.48" stop-color="#7FD3FF"/>
<stop offset="1" stop-color="#5EB1FF"/>
</linearGradient>
<linearGradient id="paint12_linear" x1="28239.6" y1="-8530.9" x2="28204.6" y2="-8457.97" gradientUnits="userSpaceOnUse">
<stop stop-color="#A0F5FF"/>
<stop offset="0.48" stop-color="#7FD3FF"/>
<stop offset="1" stop-color="#5EB1FF"/>
</linearGradient>
<linearGradient id="paint13_linear" x1="-10685.1" y1="-5559.44" x2="-10521.6" y2="-5476.71" gradientUnits="userSpaceOnUse">
<stop stop-color="#A0F5FF"/>
<stop offset="0.48" stop-color="#7FD3FF"/>
<stop offset="1" stop-color="#5EB1FF"/>
</linearGradient>
<linearGradient id="paint14_linear" x1="25975.8" y1="-11399.3" x2="25848.8" y2="-11304.7" gradientUnits="userSpaceOnUse">
<stop stop-color="#A0F5FF"/>
<stop offset="0.48" stop-color="#7FD3FF"/>
<stop offset="1" stop-color="#5EB1FF"/>
</linearGradient>
<linearGradient id="paint15_linear" x1="25340.1" y1="-8547.21" x2="25282.3" y2="-8475.02" gradientUnits="userSpaceOnUse">
<stop stop-color="#A0F5FF"/>
<stop offset="0.48" stop-color="#7FD3FF"/>
<stop offset="1" stop-color="#5EB1FF"/>
</linearGradient>
<linearGradient id="paint16_linear" x1="29.8832" y1="68.4713" x2="11.7262" y2="40.1268" gradientUnits="userSpaceOnUse">
<stop stop-color="#00FFFF"/>
<stop offset="1" stop-color="white"/>
</linearGradient>
<linearGradient id="paint17_linear" x1="891.587" y1="3764.53" x2="-77.6236" y2="1526.26" gradientUnits="userSpaceOnUse">
<stop stop-color="#00FFFF"/>
<stop offset="1" stop-color="white"/>
</linearGradient>
<linearGradient id="paint18_linear" x1="1173.85" y1="4538.63" x2="1961.89" y2="1236.34" gradientUnits="userSpaceOnUse">
<stop stop-color="#00FFFF"/>
<stop offset="1" stop-color="white"/>
</linearGradient>
<linearGradient id="paint19_linear" x1="2167.11" y1="4364.55" x2="3713.18" y2="2354.25" gradientUnits="userSpaceOnUse">
<stop stop-color="#00FFFF"/>
<stop offset="1" stop-color="white"/>
</linearGradient>
<linearGradient id="paint20_linear" x1="4097.52" y1="3185.98" x2="4903.82" y2="1989.88" gradientUnits="userSpaceOnUse">
<stop stop-color="#00FFFF"/>
<stop offset="1" stop-color="white"/>
</linearGradient>
<linearGradient id="paint21_linear" x1="1499.83" y1="4595.66" x2="-645.908" y2="2010.19" gradientUnits="userSpaceOnUse">
<stop stop-color="#00FFFF"/>
<stop offset="1" stop-color="white"/>
</linearGradient>
<linearGradient id="paint22_linear" x1="964.327" y1="5668.06" x2="34.6906" y2="723.082" gradientUnits="userSpaceOnUse">
<stop stop-color="#00FFFF"/>
<stop offset="1" stop-color="white"/>
</linearGradient>
<linearGradient id="paint23_linear" x1="2048.62" y1="6127.55" x2="4568.23" y2="2146.94" gradientUnits="userSpaceOnUse">
<stop stop-color="#00FFFF"/>
<stop offset="1" stop-color="white"/>
</linearGradient>
<linearGradient id="paint24_linear" x1="2938.9" y1="5309.28" x2="5063.51" y2="1983.01" gradientUnits="userSpaceOnUse">
<stop stop-color="#00FFFF"/>
<stop offset="1" stop-color="white"/>
</linearGradient>
<linearGradient id="paint25_linear" x1="2886.22" y1="5258.88" x2="5332.19" y2="2753.03" gradientUnits="userSpaceOnUse">
<stop stop-color="#00FFFF"/>
<stop offset="1" stop-color="white"/>
</linearGradient>
<clipPath id="clip0">
<rect width="148.75" height="123.46" fill="white"/>
</clipPath>
</defs>
</svg>
