<svg width="149" height="124" viewBox="0 0 149 124" fill="none" xmlns="http://www.w3.org/2000/svg">
<g clip-path="url(#clip0)">
<path opacity="0.2" d="M15.2566 94.8684L19.3653 95.6626C19.3653 95.6626 40.1607 107.407 47.4819 108.668C52.4184 109.668 57.1722 111.402 61.5804 113.81L72.6579 123.46C72.6579 123.46 79.7072 123.321 81.117 123.46C82.5269 123.599 97.4814 120.849 97.4814 120.849L104.198 116.034L120.845 97.8566C120.845 97.8566 128.337 95.5435 135.487 92.8928C142.637 90.2422 148.73 83.273 148.73 80.1458C148.73 77.0186 146.111 74.2686 145.074 73.5836C144.037 72.8986 136.877 71.5981 130.976 71.5981C125.074 71.5981 104.793 68.6198 104.793 68.6198L19.9594 84.8812L14.4912 91.3342L15.2566 94.8684Z" fill="black"/>
<path d="M106.262 65.5819L104.903 95.7718L100.593 98.5119L102.013 67.3987L106.262 65.5819Z" fill="#8E4D13"/>
<path d="M99.888 67.627L98.3374 100.219L100.21 100.865L102.013 67.3987L99.888 67.627Z" fill="#A8621D"/>
<path d="M107.893 88.8523L105.255 87.9191L100.734 91.086L103.765 91.9894L107.893 88.8523Z" fill="#CC7B2B"/>
<path d="M109.243 97.9063L107.894 88.8523L103.866 91.9894L102.698 103.525L109.243 97.9063Z" fill="#A8621B"/>
<path d="M99.1431 102.384L100.734 91.086L103.865 91.9894L102.697 103.525L99.1431 102.384Z" fill="#BC731F"/>
<path d="M100.402 91.9894C100.591 91.1761 100.655 90.3396 100.593 89.5075C100.593 88.0283 101.127 83.819 101.187 82.8163C101.248 81.8136 101.288 80.8308 101.379 79.1033C101.366 77.6017 101.251 76.1027 101.036 74.6161C101.196 73.8307 101.442 73.0649 101.771 72.3327C101.688 72.9618 101.637 73.5947 101.62 74.2289C101.62 75.0231 101.62 74.6061 101.62 76.0159C101.74 76.9608 101.79 77.913 101.771 78.8651C101.63 80.0365 101.58 82.5879 101.55 83.3524C101.561 83.8498 101.537 84.3473 101.479 84.8415C101.231 86.7488 101.084 88.6674 101.036 90.5896C101.137 90.9108 101.161 91.2505 101.107 91.5824C100.86 91.6972 100.624 91.8334 100.402 91.9894Z" fill="#D68732"/>
<path d="M100.946 90.7981C101.48 90.8233 102.009 90.9201 102.517 91.086C103.071 91.3342 103.282 91.5228 103.866 91.3342C104.451 91.1456 104.994 90.2719 105.397 90.0237C105.8 89.7755 107.895 88.8523 107.895 88.8523C107.895 88.8523 108.136 90.4903 108.227 91.086C108.318 91.6817 108.559 93.3495 108.559 93.3495C108.507 92.3785 108.282 91.4241 107.895 90.5301C107.391 89.8848 106.958 90.0436 106.626 90.4606C106.12 90.9475 105.574 91.3925 104.994 91.7909C104.662 92.049 104.158 92.3567 104.158 92.3567C104.158 92.3567 104.048 94.8684 103.866 96.0002C103.681 96.747 103.596 97.5148 103.615 98.2835C103.562 99.6265 103.353 100.959 102.99 102.255C102.789 102.622 102.91 103.575 102.708 103.505C102.507 103.436 102.376 103.694 102.376 103.009C102.435 102.041 102.546 101.077 102.708 100.12C102.849 99.0182 102.93 98.1346 103.021 96.9532C103.111 95.7718 103.101 94.0841 103.101 93.5878C103.098 93.1401 102.966 92.7025 102.718 92.327C102.497 92.0589 101.883 92.049 101.711 91.9993C101.54 91.9497 101.027 91.3838 100.956 91.7214C100.773 92.3361 100.708 92.9793 100.765 93.6175C100.792 94.8518 100.671 96.0849 100.402 97.2908C100.231 97.807 99.7476 98.3729 99.7376 98.909C99.7275 99.4451 99.1434 102.364 99.1434 102.364C99.0608 101.454 99.0878 100.537 99.224 99.6337C99.4293 98.8628 99.5873 98.0804 99.6973 97.2908C99.7879 96.705 99.6973 95.6825 99.8181 95.1861C99.9959 94.6699 100.101 94.1321 100.13 93.5878C100.118 92.9219 100.176 92.2566 100.301 91.6022C100.476 91.3048 100.693 91.0339 100.946 90.7981Z" fill="#E89449"/>
<path d="M39.7882 64.3807C39.7882 64.3807 49.5162 58.8113 55.0448 57.4313C60.5735 56.0514 68.7003 54.3637 72.2552 56.1209C75.81 57.8781 102.346 67.0413 102.346 67.0413C102.346 67.0413 73.8564 81.0194 69.9188 80.6124C65.9813 80.2053 61.2583 80.523 57.5826 78.6268C53.9069 76.7307 43.907 74.0502 41.6008 72.9681C39.2947 71.886 34.9544 68.7588 34.8436 68.9077C34.7328 69.0566 38.6905 64.5296 38.6905 64.5296L39.7882 64.3807Z" fill="#2E683C"/>
<path d="M99.8281 98.4424C94.37 103.317 85.79 108.489 75.5282 113.87L73.5947 97.2908V88.2666L103.403 73.6233L99.8281 98.4424Z" fill="#8C500A"/>
<path d="M80.0801 111.765C87.3308 107.983 93.7154 103.337 100.422 98.492V98.085C93.9406 103.002 87.1162 107.464 79.9995 111.438L80.0801 111.765Z" fill="#4C2613"/>
<path d="M100.291 88.6438L100.372 87.2043C100.372 87.2043 97.7535 88.9515 97.2097 89.1898C96.6659 89.4281 95.82 90.1826 95.2661 90.3414C94.4885 90.4034 93.743 90.6747 93.1111 91.1257C92.3356 91.7611 92.4464 92.2674 91.0063 92.8928C89.9895 93.3086 89.0093 93.8067 88.0759 94.382C87.0688 94.9776 86.9681 95.0074 85.6992 95.7023C84.988 96.1597 84.2282 96.5392 83.4334 96.8341C81.7353 97.448 80.0743 98.1573 78.4586 98.9586C77.4866 99.5505 76.4776 100.081 75.4375 100.547V102.403C75.4375 102.403 77.7134 101.798 78.8816 101.411C80.0497 101.024 80.8957 100.507 81.9027 100.2C82.9097 99.8918 85.7798 98.7898 86.4444 98.4722C87.1091 98.1545 88.0154 96.8539 88.8009 96.4866C89.6976 96.0941 90.5717 95.6533 91.4192 95.1663C92.1946 94.6798 93.9066 93.8657 94.6216 93.4289C95.3366 92.9921 95.5078 92.5354 96.2329 92.0291C96.9579 91.5228 97.8341 90.9172 98.247 90.6492C98.6598 90.3811 100.291 88.6438 100.291 88.6438Z" fill="#B77023"/>
<path d="M75.4172 101.351C75.4172 101.351 75.0848 101.351 77.7938 100.478C80.5027 99.6039 82.4967 98.5714 84.7021 97.7574C86.7884 96.999 88.7761 95.9993 90.6235 94.7791C91.56 94.0246 93.6446 91.9001 94.8833 91.6817C96.1219 91.4632 100.331 87.8694 100.331 87.8694L100.835 77.9418L75.1855 91.5228L75.4172 101.351Z" fill="#8C500A"/>
<path d="M75.4174 101.192C75.3999 101.284 75.3999 101.378 75.4174 101.47C75.4174 101.699 75.4174 101.56 76.1827 101.331C76.9481 101.103 77.4415 101.014 78.358 100.706C79.2744 100.398 79.5261 100.368 80.372 100.021C80.9615 99.8052 81.5337 99.5463 82.084 99.2465C82.6704 98.9095 83.2874 98.627 83.9269 98.4027C84.6318 98.1644 85.6288 97.7971 85.8604 97.6879C86.092 97.5787 87.4918 96.6951 87.8745 96.6058C88.2572 96.5164 88.4183 95.9406 89.3548 95.613C90.3526 95.1677 91.2898 94.6007 92.1443 93.9253C92.6587 93.5547 93.2007 93.2228 93.7657 92.9325C94.1778 92.7207 94.5603 92.4571 94.9036 92.1483C95.4406 91.6756 96.0361 91.272 96.676 90.947C97.2207 90.5935 97.739 90.202 98.2269 89.7756C98.5793 89.5174 100.11 88.4453 100.11 88.3658C100.11 88.2864 100.352 88.0482 100.352 88.0482V87.0554C100.159 87.2811 99.9867 87.5237 99.8381 87.7801C99.8005 87.8851 99.7407 87.9811 99.6625 88.0615C99.5844 88.142 99.4898 88.2051 99.385 88.2467C99.0929 88.3857 98.9519 88.7729 98.68 88.9813C98.3724 89.161 98.0348 89.2854 97.6831 89.3487C97.6226 89.3487 97.3709 89.0806 97.3709 89.0806C97.3709 89.0806 97.2702 89.4678 97.1796 89.7756C97.0889 90.0833 97.4112 89.9443 96.9379 90.3315C96.4646 90.7187 95.8402 90.8676 95.6489 91.1158C95.4575 91.364 95.0446 91.4732 94.239 91.8008C93.7321 91.9471 93.2689 92.2129 92.8896 92.5752C92.5371 92.9325 92.4968 92.9325 92.2048 93.2105C91.9734 93.4892 91.6759 93.7074 91.3387 93.8459C91.0142 93.981 90.6768 94.0841 90.3317 94.1536C89.9471 94.2482 89.6106 94.4776 89.3851 94.7989C89.2157 95.0264 89.0158 95.2301 88.7909 95.4045C88.6701 95.4641 87.9047 95.8314 87.6328 95.9307C87.2717 95.971 86.9062 95.9441 86.5553 95.8513C86.5553 95.8513 86.6862 95.7619 86.5553 96.1094C86.4443 96.3489 86.2661 96.5522 86.0417 96.6951C85.6046 97.0919 85.113 97.4261 84.5815 97.6879C84.0679 97.8765 83.3025 98.0155 82.7789 98.224C82.2436 98.4205 81.7412 98.6949 81.2884 99.038C80.8211 99.2946 80.3241 99.4946 79.8081 99.6337C79.3157 99.8304 78.8112 99.9962 78.2975 100.13C78.0659 100.21 76.2029 100.597 76.1425 100.656C75.9207 100.756 75.6919 100.839 75.4577 100.904L75.4174 101.192Z" fill="#4C2613"/>
<path d="M75.5281 103.436C76.9178 102.989 78.6197 102.443 79.9087 102.046C80.9462 101.732 81.9564 101.337 82.9299 100.865C84.5915 100.17 85.7093 99.6734 86.8775 99.2267C88.0456 98.7799 87.5421 98.7303 88.821 97.7077C90.1 96.6852 89.6166 96.715 91.1473 96.159C92.2238 95.8736 93.2447 95.414 94.1684 94.7989C95.0321 94.076 95.9627 93.4345 96.9479 92.8829C97.7736 92.4759 100.452 89.299 100.483 89.6862C100.447 90.171 100.373 90.6523 100.261 91.1257C100.261 91.4633 99.254 91.7412 98.972 92.3965C98.8242 93.069 98.4731 93.6817 97.965 94.1536C97.3003 94.7294 96.9579 94.5607 96.4645 95.1464C95.971 95.7321 96.4645 96.3278 94.9741 96.983C93.4836 97.6382 94.3497 96.983 92.5672 97.7177C90.7848 98.4523 91.1171 98.1743 90.1201 99.2366C89.4468 100.063 88.5099 100.64 87.4615 100.875C86.3669 100.959 85.291 101.203 84.2692 101.599C83.1917 102.175 82.8191 102.751 81.9933 103.198C81.1675 103.644 80.1605 103.525 79.4556 103.813C78.5483 104.125 77.7056 104.596 76.9682 105.203C76.3035 105.858 75.0649 106.067 74.9541 105.898C75.0842 105.065 75.2761 104.242 75.5281 103.436Z" fill="#96520F"/>
<path d="M75.1353 108.38C75.8074 107.804 76.4181 107.162 76.958 106.464C77.1512 106.087 77.4484 105.772 77.8154 105.554C78.1824 105.336 78.6043 105.225 79.0325 105.233C80.3911 105.178 81.7407 104.989 83.0607 104.667C84.3094 104.21 83.8462 103.803 85.5078 103.317C86.8424 103.011 88.1294 102.53 89.3345 101.887C90.4504 101.278 91.5146 100.581 92.5168 99.8025C93.3662 99.2781 94.1833 98.7046 94.9639 98.085C95.7494 97.4298 97.1592 96.0995 96.8773 96.854C96.5953 97.6084 95.4171 98.2736 94.8632 98.9487C94.4086 99.6198 93.8148 100.188 93.121 100.617C91.9126 101.431 90.9156 101.877 90.0092 102.394C89.1029 102.91 87.8542 103.605 87.0586 104.131C86.2631 104.657 84.9035 105.034 84.1986 105.481C83.4937 105.928 83.1916 106.474 82.4061 106.543C81.6206 106.613 80.0496 106.057 79.385 106.672C78.7203 107.288 78.106 108.876 76.7767 109.492C75.4474 110.107 75.1353 108.38 75.1353 108.38Z" fill="#96520F"/>
<path d="M77.542 110.862C78.1261 110.385 78.7001 108.708 79.5561 108.38C80.6805 108.09 81.7868 107.735 82.8692 107.318C83.9565 106.86 85.004 106.316 86.0011 105.69C87.6426 104.746 88.2267 104.746 89.697 103.803C90.6797 103.238 91.6157 102.597 92.4966 101.887C93.2418 101.232 92.8692 101.063 94.279 100.249C95.1393 99.8164 95.9136 99.2347 96.565 98.5317C97.0949 98.0158 97.5926 97.4688 98.0554 96.8937C98.5086 96.2781 98.851 94.9081 99.425 94.5309C99.999 94.1536 100.432 93.9749 100.432 94.372C100.432 94.7691 100.563 96.03 100.13 96.3576C99.3207 97.0428 98.5476 97.7685 97.8137 98.5317C97.1875 99.2037 96.4768 99.7942 95.6989 100.289C94.128 101.52 93.6244 101.987 92.9598 102.463C92.2951 102.94 91.6809 103.069 90.3516 103.972C89.0223 104.875 88.9115 104.965 87.6628 105.958C86.7351 106.735 85.7487 107.442 84.7121 108.072C83.6346 108.638 81.5601 109.065 80.976 109.373C80.3919 109.68 79.7273 109.929 79.5661 110.266C79.405 110.604 77.542 110.862 77.542 110.862Z" fill="#96520F"/>
<path d="M74.3398 94.1536C75.0851 93.5381 76.223 92.4362 77.4315 91.493C78.5785 90.5776 79.8905 89.8838 81.2985 89.4479C83.1615 88.7927 84.1484 88.7133 86.5955 87.8198C89.0426 86.9263 89.0628 87.0355 90.5532 86.013C91.8939 85.0763 93.1265 83.9977 94.2289 82.7964C95.3367 81.6448 97.9348 80.8109 98.3175 80.5726C99.1177 80.2619 99.9761 80.1231 100.835 80.1656C100.875 80.715 100.831 81.2672 100.704 81.8037C100.012 82.4608 99.2791 83.0742 98.5088 83.6403C97.2651 84.554 95.8574 85.2276 94.3598 85.6258C93.3418 85.8684 92.3552 86.2248 91.4193 86.6881C90.5834 87.1447 91.2078 86.8965 89.7375 87.8C88.2672 88.7034 88.0759 89.0806 86.6056 89.4479C85.1353 89.8153 84.0779 89.9046 82.9601 90.1925C81.9652 90.3643 81.0221 90.7545 80.2008 91.3342C79.3247 91.9894 79.0931 91.9696 77.8444 92.8829C76.7488 93.5711 75.5718 94.1246 74.3398 94.5309V94.1536Z" fill="#96520F"/>
<path d="M75.1354 98.085C76.3395 97.8498 77.5097 97.4697 78.6198 96.9532C79.4959 96.3675 81.7013 95.3251 82.3861 94.372C83.0709 93.419 83.0206 92.9723 84.5513 92.1085C86.082 91.2448 86.4949 91.3342 88.0155 90.5598C89.289 89.9648 90.4693 89.1925 91.52 88.2666C92.3696 87.4747 93.4386 86.9495 94.5915 86.7576C96.1075 86.3897 97.572 85.8396 98.952 85.1195C99.4857 84.6628 100.865 83.0744 100.865 83.0744C100.981 83.6546 100.981 84.2514 100.865 84.8316C100.644 85.318 99.9892 85.318 98.247 86.3406C96.549 87.2733 94.8046 88.1215 93.0205 88.8821C92.1846 89.2494 91.9329 89.0409 90.8553 89.8748C89.9201 90.7929 88.8467 91.5631 87.6731 92.1582C86.4646 92.6149 86.2129 92.2872 85.3871 93.151C84.446 94.1325 83.4365 95.0481 82.366 95.891C81.6819 96.5488 80.9011 97.101 80.0498 97.529C79.1262 97.9635 78.157 98.2964 77.1596 98.5218C76.2734 98.77 74.9038 99.2167 74.9038 99.2167L75.1354 98.085Z" fill="#96520F"/>
<path d="M86.0215 94.1536C86.3337 93.9551 87.814 93.1609 89.3749 92.4361C90.3387 92.094 91.2029 91.5249 91.8925 90.7782C92.5169 90.1032 91.9832 90.0634 94.5108 89.0806C96.0727 88.4877 97.5846 87.774 99.0324 86.9462C99.6568 86.5888 100.835 85.7846 100.835 85.7846C100.835 85.7846 101.057 86.3009 100.835 86.4299C100.614 86.559 99.8985 86.9561 99.4856 87.2043C99.0727 87.4525 98.0758 88.2665 97.4111 88.6736C96.7465 89.0806 95.4675 89.2196 94.1785 89.9741C93.361 90.3403 92.604 90.8256 91.9328 91.4136C91.3543 92.182 90.5936 92.7989 89.7173 93.2105C88.5287 93.6713 87.2876 93.988 86.0215 94.1536Z" fill="#96520F"/>
<path d="M55.3872 59.0396L55.8907 85.4471L19.3855 75.6585L13.7964 64.063L28.5898 57.8483L55.3872 59.0396Z" fill="#412815"/>
<path d="M55.8909 53.5894L55.3874 59.0396L22.2759 67.1803L16.6768 64.5991L17.4522 61.3329L54.6321 53.1327L55.8909 53.5894Z" fill="#8E4D13"/>
<path d="M17.0391 91.086C28.5798 99.2068 45.9815 106.325 64.4506 113.264L68.4788 99.5146L67.2401 86.966L12.4873 66.1974V78.1106L17.0391 91.086Z" fill="#9E600F"/>
<path d="M66.0117 99.7131C47.3541 94.5997 29.367 87.353 12.417 78.1205L16.999 91.086C29.0835 99.1671 45.5285 106.434 64.4508 113.264L66.0117 99.7131Z" fill="#9E600F"/>
<path d="M12.4873 77.0086L67.0387 99.3855L65.1153 101.351L45.4981 94.4018L21.1982 83.958L12.4873 79.8678V77.0086Z" fill="#CC9113"/>
<path d="M12.2456 66.7236V77.3561C12.2456 77.3561 13.6756 78.0709 14.0583 78.3489C14.441 78.6268 15.5286 79.1927 16.0724 79.5005C16.6691 79.904 17.2877 80.2751 17.9253 80.6124C18.4442 80.856 18.9792 81.0649 19.5265 81.2378C20.0965 81.4524 20.6096 81.7919 21.027 82.2306C21.4399 82.5284 25.5285 84.2161 25.8104 84.3253L32.3663 86.9958C32.3663 86.9958 36.5354 88.5048 36.6261 88.614C36.7167 88.7232 38.9825 90.0039 38.9825 90.0039C38.9825 90.0039 41.2383 90.7088 41.3491 90.7584L44.8032 92.5354L47.9553 93.5282L51.1577 94.3125L56.0317 95.8413L63.4637 98.8196L66.4647 99.9911C66.4321 98.4895 66.496 96.9875 66.656 95.4939C66.9078 94.104 66.9682 86.8965 66.9682 86.8965L12.2456 66.7236Z" fill="#9E600F"/>
<path d="M12.4166 77.0086C12.4166 77.0086 15.1054 78.7757 16.1125 79.3515C17.1327 79.9829 18.2038 80.5308 19.3148 80.9896C20.0097 81.1484 21.1074 80.5826 21.2584 80.6521C21.4095 80.7216 20.5938 81.3966 21.2584 81.9724C22.4803 82.6638 23.7526 83.2644 25.065 83.7693C26.2332 84.3352 26.9784 84.4246 28.8012 85.1592C30.6239 85.8938 30.3822 85.6457 33.0307 86.7973C35.6793 87.9489 36.1324 87.7305 37.2402 88.5743C38.3479 89.4182 39.5866 90.2918 40.3318 89.7259C41.077 89.16 40.6943 88.5942 41.3388 89.2494C41.9833 89.9046 41.9833 90.7187 43.0609 91.3739C44.9338 92.3874 46.945 93.1297 49.0326 93.5778C51.182 94.0354 53.3035 94.6121 55.387 95.3052C57.7939 96.1292 60.2813 97.4397 62.2752 98.0949C64.2691 98.7501 66.5249 99.7429 66.5249 99.7429L67.9146 99.2366L67.2802 100.15C66.6488 100.137 66.0193 100.077 65.397 99.9712C64.9942 99.8521 61.0869 98.2041 60.2007 97.8169C59.3145 97.4298 56.8875 96.6157 55.7194 96.0697C54.18 95.5367 52.6136 95.0828 51.0266 94.7096C49.6368 94.2728 47.371 93.7168 46.374 93.3991C44.995 92.9247 43.6494 92.3609 42.3459 91.7114C41.8524 91.3838 40.3318 90.5698 40.3318 90.5698C40.3318 90.5698 37.3912 89.2593 36.3036 88.8026C35.216 88.346 31.7317 87.0852 30.4124 86.559C29.0932 86.0328 27.1899 85.3776 26.1829 84.8316C25.1758 84.2856 22.4971 83.3623 21.6613 82.8461C20.8254 82.3298 20.7549 82.1114 19.7982 81.5753C18.8415 81.0392 17.0994 80.6421 16.7771 80.4337C16.4548 80.2252 13.756 78.597 13.4639 78.4481C13.1719 78.2992 12.1548 77.8028 12.1548 77.8028L12.4166 77.0086Z" fill="#6B2613"/>
<path opacity="0.3" d="M14.0986 82.8163C14.0986 82.8163 15.005 82.8163 20.3221 84.9904C25.6393 87.1646 27.9454 87.9687 30.9364 89.7259C33.5849 91.1988 36.362 92.4347 39.2344 93.419C39.9796 93.6672 44.5415 95.6924 44.5415 95.6924C44.5415 95.6924 44.1286 95.7917 46.4549 97.1021C48.7811 98.4126 51.6814 98.5714 52.9201 99.1472C54.1587 99.723 63.5846 103.188 64.6219 103.069C65.6591 102.95 67.1395 103.972 66.9481 104.627C66.7568 105.283 66.354 106.285 65.2764 106.236C63.3703 105.888 61.5274 105.262 59.8082 104.379C57.482 103.317 55.1658 102.582 52.346 101.401C49.5263 100.219 44.2092 99.6039 42.7993 98.2935C41.3894 96.983 38.4086 94.3224 36.2435 93.4686C34.0783 92.6149 30.2113 91.3342 26.5154 89.7259C24.4968 88.7691 22.5304 87.7087 20.6243 86.5491C19.5207 86.0426 18.3335 85.7366 17.1198 85.6457C16.0469 85.3961 15.0981 84.7808 14.441 83.9083L14.0986 82.8163Z" fill="#8E4A00"/>
<path opacity="0.3" d="M15.3677 86.4796C16.7272 86.3803 17.3113 86.2214 19.7987 87.3631C22.286 88.5048 23.8268 89.3486 24.0282 89.7259C24.2296 90.1031 23.6153 89.7259 22.0141 89.1799C20.4646 88.7299 18.8822 88.398 17.2811 88.1871C16.7982 88.1568 16.3138 88.1568 15.8309 88.1871L15.3677 86.4796Z" fill="#8E4A00"/>
<path opacity="0.3" d="M62.1948 106.583C60.7044 105.769 58.791 105.928 56.9683 105.441C55.1455 104.955 54.642 104.449 52.5675 103.317C51.0661 102.323 49.3723 101.647 47.5927 101.331C45.1859 100.845 43.8566 100.924 42.1144 100.517C40.3722 100.11 40.624 98.9785 40.0298 98.2835C39.0074 97.2323 37.8038 96.3684 36.475 95.7321C35.3169 95.2258 32.6583 93.7466 30.5032 92.7538C28.3482 91.7611 28.0964 92.178 25.3573 91.7611C22.6181 91.3441 22.6987 90.8577 21.0471 89.9642C19.5678 89.4072 17.9439 89.3445 16.4248 89.7855L16.9988 91.1456C16.9988 91.1456 20.7148 91.8405 21.2082 92.4163C22.0702 93.1628 23.0285 93.7937 24.0582 94.2926C25.3957 95.0657 26.6869 95.9143 27.9252 96.8341C29.2887 97.6449 30.8208 98.1405 32.4065 98.2835C34.2288 98.4228 35.9741 99.0663 37.4417 100.14C38.2939 101.013 39.3688 101.644 40.5535 101.967C42.1043 102.453 43.4941 102.533 46.062 103.277C48.3818 103.94 50.6339 104.814 52.7891 105.888C54.3217 106.613 55.7904 107.464 57.1797 108.43C58.3479 109.244 64.7829 110.802 64.7829 110.802L65.7195 108.966C64.5943 108.102 63.4173 107.307 62.1948 106.583ZM33.7358 96.3675C32.9101 96.6951 30.9967 97.1816 29.9997 96.3675C29.0027 95.5534 26.9786 93.3892 26.9786 93.3892C27.2304 93.3892 29.0531 94.1239 30.1306 94.4912C31.2082 94.8585 34.5717 96.0399 33.7358 96.3675Z" fill="#8E4A00"/>
<path opacity="0.3" d="M12.286 75.45C12.286 75.45 16.4753 77.8127 18.0161 78.5573C19.5568 79.3019 22.6182 79.6196 23.0513 79.9472C23.4843 80.2748 22.3665 80.6719 24.0583 81.8632C25.7501 83.0545 29.9193 83.4616 31.742 84.1962C33.5648 84.9309 33.9072 85.189 35.9817 85.9137C38.0562 86.6384 40.5436 86.2413 42.7792 87.383C45.0148 88.5247 46.4348 90.6591 46.8074 90.8179C47.18 90.9768 46.8074 88.4452 45.3975 87.4723C43.9876 86.4994 42.0743 86.2413 39.6272 85.4272C37.3284 84.7593 35.0942 83.8922 32.9505 82.8361C30.9364 81.7441 29.5467 81.4165 27.6434 80.4336C25.7401 79.4508 25.3171 78.9644 23.6152 78.1404C21.9133 77.3164 19.2144 77.6539 18.0161 76.6711C16.1353 75.4719 14.1737 74.4005 12.145 73.4644L12.286 75.45Z" fill="#8E4A00"/>
<path opacity="0.3" d="M67.9147 97.7574C66.4746 96.9532 67.5018 95.9108 62.0235 95.1166C56.5452 94.3224 53.0709 93.1311 51.661 92.1383C50.2512 91.1456 48.509 90.54 48.0055 89.4579C47.502 88.3758 47.2603 86.9859 44.7729 86.0825C42.2855 85.1791 37.8847 84.3848 36.3943 83.3921C34.9039 82.3993 32.497 81.2279 31.2181 80.1656C29.9392 79.1033 24.1084 76.82 24.1084 76.82C24.1084 76.82 29.2745 77.9617 30.493 78.6963C31.7116 79.431 32.2956 79.6891 35.5282 80.6818C38.7608 81.6746 41.5705 83.2134 43.9874 84.1168C46.4043 85.0202 48.227 84.2756 49.8786 86.8171C51.5301 89.3586 52.5372 90.9073 54.4505 91.7214C56.3639 92.5354 58.8412 92.7141 61.9127 93.4389C64.9842 94.1636 67.6327 94.5408 67.6327 94.5408L67.9147 97.7574Z" fill="#8E4A00"/>
<path opacity="0.3" d="M12.417 70.6847C13.0816 70.8436 20.0504 73.4645 22.1249 74.3579C25.0711 75.5598 28.0998 76.555 31.1882 77.3362C36.4953 78.8949 37.6534 78.9743 41.4701 80.7712C45.2868 82.5681 47.2807 82.4887 49.5264 83.7495C51.7721 85.0103 50.614 84.9706 54.0078 87.2639C57.4015 89.5571 58.5697 91.6817 61.8123 92.0887C63.6559 92.329 65.5119 92.4649 67.3712 92.4957C67.3712 92.4957 65.2967 90.0337 65.1255 89.7061C64.9543 89.3784 59.1235 88.1573 56.7167 86.3704C54.3099 84.5834 51.6815 83.4814 47.5929 81.5654C43.5043 79.6494 37.2607 77.7135 35.1459 76.82C33.0311 75.9265 31.7421 75.5095 25.6898 73.8417C19.6375 72.1739 18.0161 70.784 18.0161 70.784L13.5247 69.7912L12.417 70.6847Z" fill="#8E4A00"/>
<path opacity="0.2" d="M16.2134 75.3408L26.5658 79.9869L29.8386 82.9652L32.1045 85.0103L39.9997 88.1772L43.1819 87.1844C43.1819 87.1844 50.5736 89.3983 51.5706 89.9642C52.5676 90.5301 62.9401 94.2926 65.0146 94.5805C67.0891 94.8684 70.0498 89.4876 70.0498 89.4876C70.0498 89.4876 25.176 71.8661 23.8266 71.6477C22.4772 71.4293 16.2134 70.5358 16.2134 70.5358V75.3408Z" fill="black"/>
<path d="M18.3582 92.0291C17.7338 92.2376 32.6682 100.517 36.6359 101.957C39.9692 103.168 45.6288 106.116 48.227 107.208C50.8251 108.301 64.4504 113.264 64.4504 113.264C64.4504 113.264 64.9942 112.46 64.5511 112.391C64.108 112.321 50.0799 107.764 48.1766 106.434C46.2733 105.104 39.4557 102.95 36.8071 101.311C34.4178 99.893 31.9034 98.6902 29.2946 97.7177C26.2882 96.3016 23.3663 94.7172 20.5434 92.9723C19.7982 92.3468 18.3179 91.3243 18.3179 91.3243L18.3582 92.0291Z" fill="#6B2613"/>
<path opacity="0.2" d="M18.771 75.996L19.7175 92.188L18.3582 92.0291C18.3582 92.0291 16.6767 87.7801 16.6767 87.2837C16.6767 86.7873 16.5659 75.3706 16.5659 75.3706L18.771 75.996Z" fill="black"/>
<path d="M75.7491 113.89L72.0941 116.838L71.208 90.7782L75.1853 91.5228L75.7491 113.89Z" fill="#A8621D"/>
<path d="M75.6082 108.38L78.6188 109.75L71.9732 113.344L71.8726 110.236L75.6082 108.38Z" fill="#F0B71D"/>
<path d="M82.3859 116.401L78.6196 109.75L71.9731 113.344L72.1141 123.053L82.3859 116.401Z" fill="#BC731F"/>
<path d="M10.9263 68.7985L12.9099 89.7954L16.6757 92.5156L15.6789 70.9329L10.9263 68.7985Z" fill="#F0A41D"/>
<path d="M17.3411 72.4022L18.3581 92.0192L16.5658 92.6843L15.6797 70.9329L17.3411 72.4022Z" fill="#A8621B"/>
<path d="M10.3726 84.8217L12.4065 84.4444L16.3939 86.4597L13.796 87.1249L10.3726 84.8217Z" fill="#FAC413"/>
<path d="M17.673 94.372L16.3942 86.4597L13.7964 87.1249L15.6793 94.8089L17.673 94.372Z" fill="#BC731F"/>
<path d="M10.3722 84.8217L9.9292 91.3739L15.6786 94.8089L13.7957 87.1249L10.3722 84.8217Z" fill="#F0B71D"/>
<path d="M53.6247 52.7654L8.42871 61.9286C23.4638 70.2975 44.9843 77.8128 70.3214 84.8316L108.982 67.5079L102.345 67.0214C93.282 71.5584 82.5973 75.6585 70.9861 80.2748C69.0057 80.7425 66.9298 80.6286 65.0143 79.9472C49.3307 75.6661 33.9723 70.3018 19.053 63.8942C18.0459 63.4971 18.197 63.0107 19.8788 62.4249C26.7065 60.3401 41.6006 56.9151 55.8905 53.5893L53.6247 52.7654Z" fill="url(#paint0_linear)"/>
<path d="M108.267 74.0899L108.982 67.488L70.3215 84.8316L69.7676 94.3721L108.267 74.0899Z" fill="#BC731F"/>
<path d="M8.05615 62.0973V69.9501C22.9604 78.3985 44.9138 86.4399 69.6065 94.372L70.0496 84.8316C45.4576 78.1404 25.1758 70.5954 8.05615 62.0973Z" fill="url(#paint1_linear)"/>
<path d="M44.5112 73.6233L42.2655 71.5583L36.2837 74.1594L36.6362 84.8217L39.7882 86.4597L42.5978 85.1493L39.3149 83.948V75.1819L44.5112 73.6233Z" fill="#5B4C38"/>
<path d="M30.5537 67.7064L42.2656 71.5583L36.2838 74.1594L25.6494 70.0692L30.5537 67.7064Z" fill="#CBBEAC"/>
<path d="M36.6362 84.8217L26.7974 81.069L29.9494 82.9454L39.7882 86.4597L36.6362 84.8217Z" fill="#470800"/>
<path d="M25.6494 70.0692L26.7974 81.069L36.6362 84.8217L36.2838 74.1594L25.6494 70.0692Z" fill="#B4A98F"/>
<path d="M29.6875 80.8506L31.8624 81.6647V79.421C33.3526 79.1728 33.6144 77.1774 33.2318 76.4427C32.5974 74.6657 30.9461 73.4645 29.4156 74.1395C27.9757 75.0529 28.4993 76.9888 29.7378 78.2099L29.6875 80.8506Z" fill="#5B4C38"/>
<path d="M31.8523 77.1178L29.7781 78.2297L29.6875 80.8506L31.8624 79.7288V79.421C33.3526 79.2622 33.8057 77.8028 33.2318 76.4427L31.8523 77.1178Z" fill="#44382A"/>
<path d="M25.3472 66.4556L55.7094 59.0396V60.1317L26.0823 66.7335L25.3472 66.4556Z" fill="black"/>
<path opacity="0.2" d="M65.0752 92.8829L69.7976 94.3919L71.3583 93.6176V96.1193L66.6359 94.372L65.0752 92.8829Z" fill="black"/>
<path opacity="0.3" d="M71.2383 96.159L75.206 93.7665L76.2836 92.6645L100.412 79.6295H102.185L105.609 77.5646L105.75 75.4698L71.3188 93.6374L71.2383 96.159Z" fill="black"/>
<path d="M26.5756 58.2553L8.4489 61.9285L8.28777 62.0973C8.28777 62.0973 8.03601 62.1867 8.5496 62.5043C9.17622 62.8239 9.82191 63.1057 10.4831 63.3482C11.329 63.7056 11.7319 64.0431 12.3764 64.341C13.0209 64.6388 17.7439 67.4781 19.4256 67.9943C21.1074 68.5106 22.4971 69.5828 23.3229 69.7118C24.1288 69.8827 24.92 70.115 25.6894 70.4067L26.1225 69.9104C25.6142 69.6215 25.0819 69.3757 24.5313 69.1757C23.7056 68.8878 21.0873 67.4483 20.3421 67.1902C19.5968 66.9321 16.9383 65.2047 16.193 64.9267C15.4478 64.6487 14.4005 64.2615 13.5747 63.9339C12.749 63.6063 10.6241 63.1894 10.463 62.9412C10.1777 62.6423 9.85643 62.3789 9.50629 62.1569C9.50629 62.1569 11.2082 62.0278 11.4197 61.9484C11.6311 61.869 13.2021 61.5017 14.6523 61.174C16.1024 60.8464 26.5756 58.2553 26.5756 58.2553Z" fill="#FFF4AB"/>
<path d="M40.5233 74.7253L43.3027 75.8074C43.3027 75.8074 42.769 75.3904 46.495 76.9987C48.4855 77.8214 50.5397 78.4854 52.638 78.9842C54.0208 79.5531 55.4405 80.0307 56.8877 80.4138C58.0458 80.6521 60.7849 80.7414 61.369 81.1882C61.9531 81.6349 66.2632 82.7865 67.3408 83.3921C68.3917 83.7766 69.4728 84.0755 70.5734 84.2856C71.097 84.5139 78.2067 81.0194 79.1231 80.523C82.2484 78.8847 85.4738 77.4391 88.7807 76.1946C91.6283 75.2187 94.4217 74.0953 97.1492 72.8291L102.597 70.3869L95.8199 74.0105C93.4172 74.9255 91.0643 75.9627 88.7706 77.1178C86.6433 78.211 84.4506 79.1758 82.2047 80.0068C80.5431 80.7712 77.673 82.3398 76.7264 82.5681C75.7798 82.7964 71.1474 85.0798 70.9258 85.1294C70.7043 85.1791 70.7546 86.3307 70.6439 87.2043C70.4348 88.2407 70.2868 89.2882 70.2008 90.3414C70.2712 90.8378 70.0598 94.3125 70.0598 94.3125H69.3246C69.6031 92.5517 69.7512 90.7733 69.7677 88.9913C69.6325 87.8244 69.5585 86.6513 69.5462 85.4769C69.5462 85.0798 70.0497 85.0302 68.5391 84.3948C66.7147 83.7755 64.8593 83.2486 62.9803 82.8163C60.8655 82.2008 57.4214 81.4165 56.5856 81.1882C55.7497 80.9598 51.9028 80.0465 50.352 79.421C48.8011 78.7956 44.209 77.7929 43.635 77.4355C42.817 77.0955 42.0317 76.6835 41.2886 76.2045C40.5979 75.7917 39.8612 75.4586 39.0933 75.2117L40.5233 74.7253Z" fill="#FFF4AB"/>
<path d="M71.2884 94.5309C71.186 95.0561 71.112 95.5863 71.0669 96.1193C71.0669 96.9036 71.2079 97.1121 71.1777 98.4126C71.1474 99.7131 71.1777 100.339 71.1777 102.006C71.1295 103.19 71.1767 104.375 71.3186 105.551C71.516 106.842 71.6003 108.147 71.5703 109.452C71.4596 109.939 71.5703 110.217 71.5703 110.127C71.5703 110.038 71.5703 110.236 71.6811 110.256C71.7919 110.276 72.5571 109.998 72.537 109.75C72.537 109.323 72.6175 107.625 72.4262 105.66C72.2349 103.694 72.2349 102.85 72.0637 100.944C71.8926 99.038 71.6207 97.3702 71.6811 96.7447C71.6983 96.1088 71.6781 95.4723 71.6207 94.8386L71.2884 94.5309Z" fill="#FCBC56"/>
<path d="M71.5903 112.966C71.7514 112.659 71.973 112.52 71.8119 112.123C71.7432 111.494 71.7636 110.859 71.8723 110.236C71.8723 110.236 72.0132 111.676 72.1139 112.222C72.1597 112.605 72.1114 112.993 71.973 113.354L71.5903 112.966Z" fill="#FFF4AB"/>
<path d="M71.3486 113.344C71.472 113.93 71.5527 114.524 71.5903 115.121C71.5903 115.915 71.4997 116.114 71.5903 117.355C71.6809 118.595 71.7212 119.132 71.8118 119.836C71.9024 120.541 72.1139 122.914 72.1139 122.914C72.1139 122.914 72.3757 119.618 72.3153 118.943C72.2549 118.268 72.0937 117.474 72.0937 116.818C72.0937 116.163 72.416 114.634 72.3253 114.337C72.281 113.966 72.2171 113.598 72.134 113.235C72.0434 113.115 71.5903 113.086 71.5903 113.086L71.3486 113.344Z" fill="#FFF4AB"/>
<path d="M62.7987 110.127C62.651 110.348 62.5579 110.599 62.5268 110.862C62.4463 111.358 62.4765 111.855 62.3959 112.341C62.3154 112.828 61.7515 114.416 61.671 114.843C61.5904 115.27 61.4192 115.697 61.3689 116.213C61.3185 116.729 60.9762 118.04 61.3689 117.93C61.7616 117.821 61.8925 117.414 61.8925 116.59C61.9029 115.828 62.0424 115.073 62.3053 114.356C62.5053 113.677 62.65 112.983 62.7383 112.281C62.8289 111.735 63.1914 110.544 63.2216 110.455C63.2518 110.365 62.7987 110.127 62.7987 110.127Z" fill="#FFF4AB"/>
<path d="M30.5537 67.7064C30.5537 67.7064 25.9515 69.692 25.8005 69.8607C25.7064 70.0101 25.6543 70.1814 25.6494 70.3571L26.4047 77.3064C26.4047 77.3064 26.2436 73.1666 26.2436 72.4022C26.2436 71.6378 25.7703 70.9528 26.3241 70.9627C26.878 70.9726 26.6867 71.4889 27.9253 71.5881C28.7582 71.6581 29.5725 71.8697 30.3322 72.2136C31.2478 72.4911 32.1457 72.8226 33.021 73.2063C33.736 73.5637 35.6997 74.1991 35.8407 74.2984C35.9817 74.3976 36.5758 82.8858 36.5657 82.8064C36.5557 82.7269 36.2737 74.7848 36.5657 74.4572C37.2077 74.0713 37.8814 73.7392 38.5798 73.4644C39.2747 73.0574 42.2958 71.5583 42.2958 71.5583C42.2958 71.5583 37.5828 73.3552 37.0592 73.4644C36.5355 73.5737 36.5859 73.7921 35.6795 73.4644C34.7732 73.1368 30.3422 71.4789 29.8387 71.2804C29.3352 71.0818 27.7138 70.5755 27.4319 70.3571C27.1499 70.1387 26.7672 70.0593 26.8277 69.8607C26.8881 69.6622 30.5537 67.7064 30.5537 67.7064Z" fill="white"/>
<path d="M31.8326 81.6647C31.8326 81.6647 31.6413 79.4111 31.8326 79.431C32.2505 79.4012 32.6516 79.2568 32.9905 79.014C33.1375 78.7965 33.2591 78.5634 33.353 78.3191C33.4259 78.0334 33.4631 77.74 33.4638 77.4454C33.4209 77.0329 33.3086 76.6303 33.1315 76.2541C32.9445 75.88 32.7326 75.5185 32.4971 75.172C32.3461 74.9933 31.9131 74.6459 31.9836 74.6359C32.2324 74.68 32.4552 74.8146 32.6079 75.0132C32.8963 75.2573 33.1295 75.5583 33.2926 75.8967C33.4599 76.251 33.5817 76.6246 33.6551 77.0086C33.6955 77.4545 33.6955 77.903 33.6551 78.3489C33.6551 78.7162 33.6551 79.1828 33.2926 79.3416C32.9291 79.5706 32.5363 79.7509 32.1246 79.8777C32.0541 79.8777 32.1246 80.4436 32.034 80.7315C31.9433 81.0194 31.8326 81.6647 31.8326 81.6647Z" fill="white"/>
<path d="M47.8243 55.4657C47.8243 55.4657 45.4376 55.7734 43.8868 55.9323C42.112 56.251 40.3569 56.6686 38.63 57.1831C37.2504 57.5108 35.055 57.7887 33.6955 58.2553C32.336 58.7219 30.6744 59.2481 29.5063 59.4764C28.3381 59.7048 25.7399 60.6181 24.0582 61.0053C22.3764 61.3925 20.8759 61.998 20.2113 62.0973C19.5517 62.2495 18.9245 62.515 18.3583 62.8816C18.296 62.9743 18.2627 63.0831 18.2627 63.1943C18.2627 63.3056 18.296 63.4143 18.3583 63.507C18.4691 63.7255 19.2848 63.9935 19.2848 63.9935C19.2848 63.9935 18.8014 63.4574 18.9424 63.2092C19.0834 62.961 19.3553 62.8022 20.3523 62.3654C21.4131 62.0173 22.4922 61.7257 23.5849 61.4917C24.5919 61.1641 27.2102 60.499 27.7641 60.3798C28.7525 60.2196 29.7309 60.0041 30.6946 59.7345C31.3592 59.4764 33.2021 58.9106 33.9574 58.7418C34.7127 58.573 38.5797 58.0369 39.1336 57.8483C39.6874 57.6597 41.2081 57.2129 41.9231 57.0243C42.6381 56.8357 44.3601 56.3393 44.632 56.2301C44.9039 56.1209 47.8243 55.4657 47.8243 55.4657Z" fill="#F0A41D"/>
<path d="M15.3677 73.802C15.3677 73.802 16.0121 75.589 15.7302 76.2442C15.5258 76.8484 15.4773 77.4933 15.5892 78.1205C15.585 78.7009 15.6153 79.281 15.6798 79.8579C15.7604 80.2748 15.6798 80.7017 15.6798 81.486C15.6798 82.2703 15.851 83.3325 15.9013 83.7693C15.9517 84.2062 15.9013 86.2413 15.9013 86.2413L16.3444 86.4597C16.3444 86.4597 16.5659 86.5491 16.5155 85.9733C16.4029 85.4012 16.3556 84.8184 16.3746 84.2359C16.4842 83.6768 16.5314 83.1076 16.5155 82.5383C16.5155 81.8831 16.1531 80.4138 16.1027 79.8182C15.9825 78.8863 15.9219 77.948 15.9215 77.0086C15.992 76.5718 15.5993 75.6982 15.8409 75.3408C15.9834 74.9568 16.0249 74.5436 15.9618 74.1395L15.3677 73.802Z" fill="#FAC413"/>
<path opacity="0.2" d="M11.1074 71.5683L16.0815 74.1395L17.7027 74.8444V75.5393L15.9607 75.3408L11.3692 72.9681L11.1074 71.5683Z" fill="black"/>
<path d="M9.9292 91.3342C9.9292 91.3342 9.9292 89.577 9.9292 89.2295C9.9292 88.8821 10.2011 87.244 10.2313 86.8568C10.2615 86.4696 9.94934 85.8641 10.0702 85.4074C10.191 84.9507 10.2816 84.7323 10.5031 84.6231C10.7247 84.5139 12.3961 84.3848 12.3961 84.3848L12.2048 82.3993C12.2048 82.3993 12.5572 84.1565 12.6176 84.2756C12.9899 84.6579 13.4539 84.9414 13.9669 85.0996C14.7367 85.4558 15.4714 85.8811 16.1619 86.3704C16.1619 86.3704 14.5308 85.5861 14.0776 85.467C13.6041 85.2854 13.1403 85.08 12.6881 84.8514C12.4968 84.7919 12.1444 84.8514 11.792 84.8514C11.5388 84.8413 11.2861 84.8784 11.0469 84.9607C11.0469 84.9607 12.1645 85.8045 12.4968 86.0229C12.8291 86.2413 13.7957 87.1547 13.7957 87.1547C13.7957 87.1547 14.4099 89.2891 14.5912 89.9344C14.7724 90.5797 14.7422 90.9272 14.9234 91.4037C15.0941 92.0053 15.2154 92.6195 15.2859 93.2403C15.2859 93.1708 14.6314 91.3143 14.4301 90.669C14.2287 90.0237 14.1783 88.5644 14.0776 88.475C13.8795 88.187 13.7236 87.8728 13.6145 87.5418C13.6145 87.4128 14.279 87.8099 13.2419 87.1547C12.2048 86.4994 11.9631 86.2512 11.4798 85.9236C11.2238 85.7199 10.9296 85.5681 10.6139 85.4769C10.483 85.4769 10.4226 85.8641 10.5535 86.1718C10.6417 86.6485 10.6106 87.1392 10.4629 87.6014C10.3325 88.3432 10.2518 89.0927 10.2212 89.845C10.1562 90.3471 10.0587 90.8445 9.9292 91.3342Z" fill="#FFF4AB"/>
<path d="M74.6421 96.1193C75.2161 95.752 77.1295 95.206 77.7538 94.372C78.2808 93.4036 79.1059 92.625 80.1103 92.1483C82.0304 91.5016 84.0104 91.0428 86.0217 90.7782C86.0217 90.7782 82.064 91.9696 81.4799 92.8829C80.5648 93.986 79.5048 94.9642 78.3279 95.7917C77.8747 96.0796 75.4981 96.8937 75.4175 96.9334C75.2536 96.9533 75.0879 96.9533 74.9241 96.9334L74.6421 96.1193Z" fill="#96520F"/>
<path d="M72.6075 12.2209L122.093 19.071L105.226 65.0359L57.7134 52.4675C57.6026 52.4675 55.8906 49.7473 55.8906 49.7473C55.8906 49.7473 63.8261 29.7829 64.1886 27.5492C64.5512 25.3155 72.6075 12.2209 72.6075 12.2209Z" fill="#452A15"/>
<path d="M74.6317 25.9508L114.208 33.3271L113.695 34.7666L73.8765 27.4102L74.6317 25.9508Z" fill="#2D1A0E"/>
<path d="M72.5672 37.3378L109.334 44.7736L108.649 45.8756L71.5098 38.7674L72.5672 37.3378Z" fill="#2D1A0E"/>
<path d="M66.928 47.9902L105.226 55.7437L104.249 56.9449L66.7266 48.9829L66.928 47.9902Z" fill="#2D1A0E"/>
<path d="M121.137 54.4133C125.518 43.493 126.998 31.1132 124.813 16.877C119.616 34.2152 113.382 51.2345 106.142 67.8454C110.976 72.2235 115.951 69.5629 121.137 54.4133Z" fill="#BC731F"/>
<path d="M122.98 30.0906C123.403 37.7676 122.167 45.4456 119.354 52.6164C116.182 60.3203 113.433 64.2615 111.177 63.4177C116.245 52.7307 120.199 41.5645 122.98 30.0906Z" fill="#2D1A0E"/>
<path d="M122.98 30.0906C122.476 32.1953 121.922 34.3099 121.318 36.4344C120.856 41.4498 119.68 46.376 117.824 51.0677C115.81 56.0315 113.947 59.3771 112.285 60.9953L111.157 63.4475C113.413 64.2913 116.192 60.35 119.334 52.6462C122.158 45.4676 123.401 37.7789 122.98 30.0906Z" fill="#8E4D13"/>
<path d="M69.8283 8.93486C62.6078 22.5059 57.1497 37.4271 52.8496 53.2022L106.807 67.8256C114.05 51.2227 120.284 34.2098 125.477 16.877C106.968 12.0521 88.4183 8.79587 69.8283 8.93486ZM103.594 60.9258L57.7136 49.7473C61.4799 37.8342 67.6229 22.2974 72.356 13.3526C87.1696 13.3526 104.34 16.8174 118.781 20.302C115.739 32.0861 108.821 49.4991 103.594 60.8861V60.9258Z" fill="url(#paint2_linear)"/>
<path d="M72.1647 42.0237C75.3671 32.3641 74.7528 18.3562 72.356 13.3527L67.633 28.6015L59.5767 50.204L65.9311 51.7527C67.9653 50.2934 70.6038 45.7763 72.1647 42.0237Z" fill="#603F29"/>
<path d="M72.9199 18.247L72.356 13.3527C84.9842 13.442 103.333 16.0927 118.781 20.302L117.451 25.0276C102.718 20.9771 84.8836 18.2768 72.9199 18.247Z" fill="url(#paint3_linear)"/>
<path d="M61.2481 50.6309C64.6317 39.4028 68.7606 25.9508 72.9197 18.2768L72.3558 13.3824C66.5593 25.126 61.6647 37.2818 57.7134 49.7474L61.2481 50.6309Z" fill="#BC731F"/>
<path opacity="0.3" d="M61.248 50.6309C65.3467 37.0301 69.3547 24.6702 72.9197 18.2768C86.4341 18.4356 100.774 20.9175 115.507 24.4915C99.9386 21.8408 85.4271 19.8553 73.977 19.9247C70.3215 25.8118 66.7868 37.864 63.2722 51.0975L61.248 50.6309Z" fill="black"/>
<path d="M57.7135 49.7474C57.7135 49.7474 57.1596 49.9161 57.7135 47.9902C58.2673 46.0642 59.9793 40.9416 60.5332 39.3035C61.087 37.6654 63.5543 32.5924 63.9672 31.4507C64.3801 30.3091 65.6187 27.3109 65.9813 26.4373C66.3438 25.5637 67.5321 22.0195 67.9953 21.1459C68.4586 20.2722 69.7073 17.7605 70.09 16.7876C70.4727 15.8147 71.7012 13.4023 71.8624 13.1343C72.0235 12.8662 73.4132 12.6379 73.4132 12.6379C74.3315 13.1528 75.379 13.4007 76.4343 13.3527C78.388 13.2442 80.3472 13.2807 82.2953 13.4619C83.4534 13.6207 86.7263 14.1469 88.2167 14.3851C89.7071 14.6234 91.4795 14.6035 93.7454 14.9312C96.0112 15.2588 98.7806 15.7452 99.3848 15.8048C99.989 15.8644 104.188 16.0728 104.944 16.6486C105.699 17.2244 107.794 17.1649 108.972 17.4627C110.061 17.8709 111.178 18.2027 112.315 18.4555C113.644 18.6441 115.578 18.9419 115.83 19.0213C116.082 19.1008 118.79 19.9545 118.79 19.9545L118.649 20.2524C117.815 19.8611 116.913 19.6319 115.991 19.5773C114.378 19.6105 112.767 19.464 111.187 19.1405C109.96 18.6369 108.689 18.2416 107.391 17.9591C106.429 17.8091 105.477 17.6002 104.541 17.3336C103.413 16.9661 102.258 16.684 101.087 16.4898C99.707 16.331 98.3173 16.4402 96.1623 16.053C94.2644 15.754 92.3516 15.5551 90.4322 15.4573C89.5259 15.3978 85.8804 14.6333 84.39 14.3653C83.0658 14.0575 81.7188 13.855 80.3618 13.7597C79.3548 13.7597 76.8774 13.6505 75.9912 13.6505C75.105 13.6505 73.5139 13.4023 73.2521 13.4023C72.9903 13.4023 73.0003 13.2236 72.5069 13.5314C72.0134 13.8391 72.0034 14.266 71.8221 14.6532C71.6408 15.0404 71.4696 15.646 71.379 15.7849C71.1534 16.0705 70.9672 16.3843 70.8251 16.7181C70.6338 17.2145 70.4525 17.7109 70.4525 17.7109C70.4525 17.7109 69.5764 19.1901 69.1635 20.0042C68.7506 20.8182 69.1232 20.848 68.4787 21.8408C67.8715 22.8328 67.3622 23.88 66.9581 24.968C66.5101 25.9759 66.1168 27.0065 65.7798 28.0555C65.4845 28.9942 65.1037 29.9046 64.6419 30.7757C64.1887 31.7684 63.6348 33.2278 63.3932 33.883C63.1515 34.5382 62.9803 34.5779 62.6479 35.6799C62.3156 36.7819 62.6479 36.4642 62.1948 37.8938C61.9539 38.8762 61.5778 39.8214 61.077 40.7033C60.6404 41.7996 60.3198 42.9374 60.1203 44.0985C60.0196 44.8055 59.7654 45.4827 59.3751 46.0841C58.8608 46.7655 58.544 47.5719 58.4587 48.4171C58.4044 48.8873 58.2859 49.3482 58.1062 49.7871L57.7135 49.7474Z" fill="#FFF4AB"/>
<path d="M88.3779 57.1931L92.8391 58.2752C94.0391 58.666 95.268 58.9647 96.5148 59.1687C97.623 59.2074 98.7237 59.3638 99.7978 59.6353C100.702 59.9806 101.64 60.2302 102.597 60.3798C103.222 60.4593 103.181 61.0351 103.675 60.0919C104.168 59.1488 106.001 55.5054 106.424 54.5126C106.847 53.5198 108.579 49.39 108.579 49.39C108.301 50.5995 107.924 51.7847 107.451 52.9341C106.827 54.2843 106.535 55.6046 105.83 56.9052C105.125 58.2057 104.38 60.4195 104.088 60.8762C103.796 61.3329 103.594 60.9854 102.597 60.8762C101.6 60.767 99.4453 60.1217 97.3708 59.7544C95.2963 59.3871 91.7717 58.5631 91.3286 58.4042C90.8855 58.2454 88.3779 57.1931 88.3779 57.1931Z" fill="#FFF4AB"/>
<path d="M125.477 16.877C125.591 17.0897 125.651 17.3265 125.651 17.567C125.651 17.8074 125.591 18.0442 125.477 18.2569C125.135 19.1802 124.47 20.0737 124.329 20.6396C124.169 21.9778 123.92 23.3043 123.584 24.6106C123.01 26.4174 121.57 30.2594 121.177 31.8975C120.785 33.5356 118.821 38.1519 118.529 39.095C118.237 40.0381 116.827 43.632 116.515 44.4857C116.202 45.3395 113.151 53.3213 112.909 54.0957C112.668 54.87 112.537 56.4684 111.832 57.4115C111.127 58.3546 110.291 61.5414 109.586 62.7724C108.881 64.0035 107.27 67.4881 107.179 67.8057C107.089 68.1234 106.817 68.4212 106.464 68.1234C106.112 67.8256 106.464 67.5575 106.605 66.8626C107.069 65.28 107.651 63.7337 108.348 62.2363C109.052 60.6876 110.603 57.9873 111.157 56.4287C111.711 54.87 112.164 53.6886 112.658 52.1399C113.195 50.557 113.868 49.0225 114.672 47.5534C115.125 46.6996 117.32 41.835 117.572 39.9885C117.958 38.3539 118.557 36.7755 119.355 35.2927C119.647 34.5482 122.376 26.4969 122.597 25.6828C122.936 24.7142 123.185 23.7174 123.342 22.7045C123.69 21.4127 124.117 20.143 124.621 18.9022C124.841 18.2018 125.127 17.5236 125.477 16.877Z" fill="#F0A41D"/>
<path d="M16.6768 87.2837C27.3715 94.521 44.5315 102.066 64.6522 109.75L65.5887 108.38C46.3744 101.51 29.8489 94.3125 18.1269 86.698L16.6768 87.2837Z" fill="#FAC413"/>
<path d="M17.6735 94.372L16.6665 87.2837C30.2112 95.5832 46.9784 102.453 64.3197 109.621L62.799 115.746C44.9643 109.125 28.8618 102.185 17.6735 94.372Z" fill="url(#paint4_linear)"/>
<path d="M65.0146 91.2151L65.79 114.217L72.0932 116.838L71.2071 90.7782L65.0146 91.2151Z" fill="#F0A41D"/>
<path d="M65.5883 108.38L62.7988 110.127L71.973 113.344L71.8723 110.236L65.5883 108.38Z" fill="#FAC413"/>
<path d="M62.7991 110.127L61.3691 117.93L72.1143 123.053L71.9733 113.344L62.7991 110.127Z" fill="#F0B71D"/>
<path d="M63.2322 109.859L64.7226 110.346C65.1779 110.447 65.6133 110.622 66.0117 110.862C66.4279 111.127 66.8995 111.297 67.3913 111.358C68.1365 111.547 67.9754 111.517 68.9925 111.845C69.9693 112.085 70.9203 112.417 71.8324 112.837C71.9163 112.976 71.9647 113.133 71.9733 113.294C71.9733 113.294 71.9733 113.483 71.349 113.294C70.7246 113.105 70.1002 112.837 69.1637 112.559C68.2271 112.281 68.1567 112.232 66.9381 111.934C65.9524 111.707 64.9861 111.405 64.0479 111.031C63.5876 110.879 63.148 110.672 62.7388 110.415L62.7992 110.078L63.2322 109.859Z" fill="#FFF4AB"/>
<path d="M100.412 100.041L101.631 91.9398L77.1797 109.095L79.5563 113.87C87.1208 110.228 94.139 105.575 100.412 100.041Z" fill="#BC731F"/>
<path d="M75.1353 108.38C86.2127 102.542 94.9236 97.0029 100.13 91.9398L101.792 91.7313C96.2126 97.6879 88.1966 103.515 77.1795 109.095L75.1353 108.38Z" fill="#C48802"/>
<path d="M23.6757 55.6146L27.0594 54.9693L32.4974 58.1957L33.0714 61.5414L29.4662 66.803L26.3847 67.4582L20.5035 64.0034L20.4834 60.8166L23.6757 55.6146Z" fill="#24660D"/>
<path d="M23.776 55.7834L27.0489 55.1579L32.3258 58.2851L32.8796 61.5314L29.3852 66.6343L26.3943 67.2696L20.6945 63.924L20.6743 60.8266L23.776 55.7834Z" fill="#6CD642"/>
<path d="M25.9611 58.1064L24.0278 56.1407L27.0788 55.555L25.9611 58.1064Z" fill="#DCFE9C"/>
<path d="M31.9936 58.4638L30.0503 60.5585L32.5071 61.4917L31.9936 58.4638Z" fill="#82E638"/>
<path d="M29.254 66.2471L27.2704 64.4998L26.4648 66.8427L29.254 66.2471Z" fill="#144F0D"/>
<path d="M21.1578 63.7255L23.6449 62.1966L21.1377 60.8365L21.1578 63.7255Z" fill="#3CB120"/>
<path d="M32.5064 61.4917L30.0496 60.5585L27.2705 64.4998L29.2541 66.2471L32.5064 61.4917Z" fill="#44B322"/>
<path d="M27.0791 55.555L31.9928 58.4638L30.0495 60.5585L25.9614 58.1064L27.0791 55.555Z" fill="#CBE98E"/>
<path d="M24.0275 56.1407L25.9608 58.1064L23.6449 62.1966L21.1377 60.8365L24.0275 56.1407Z" fill="#A7DB57"/>
<path d="M21.1577 63.7255L23.6448 62.1966L27.2696 64.4998L26.4641 66.8427L21.1577 63.7255Z" fill="#2A901B"/>
<path d="M23.9775 61.6109L25.6691 57.9873L24.1487 56.2698L25.8907 57.7192L27.0788 55.555L26.2028 57.8681L29.6867 60.3401L25.9611 58.1064L23.9775 61.6109Z" fill="#F5FFF5"/>
<path d="M23.6455 62.1966L30.0494 60.5585L27.2704 64.4998L23.6455 62.1966Z" fill="#ACEC4D"/>
<path d="M29.9085 60.7571L27.6026 64.6388L28.7203 65.7805L27.3509 64.7182L26.6159 66.4158L27.0891 64.6289L24.0181 62.4349L27.3409 64.331L29.9085 60.7571Z" fill="#0D3906"/>
<path d="M30.2915 61.5215L32.5372 61.0946L36.1525 63.2291L36.5352 65.4529L34.1384 68.9474L32.0841 69.3842L28.1868 67.0909L28.1768 64.9763L30.2915 61.5215Z" fill="#24660D"/>
<path d="M30.3522 61.6307L32.5274 61.2138L36.042 63.2886L36.4045 65.4429L34.0883 68.8382L32.0944 69.2651L28.3079 67.0413L28.2979 64.9763L30.3522 61.6307Z" fill="#6CD642"/>
<path d="M31.8123 63.1794L30.5234 61.8591L32.5473 61.4818L31.8123 63.1794Z" fill="#DCFE9C"/>
<path d="M35.8103 63.4177L34.5215 64.7976L36.1627 65.4231L35.8103 63.4177Z" fill="#82E638"/>
<path d="M33.9972 68.5801L32.6782 67.4185L32.1445 68.9772L33.9972 68.5801Z" fill="#144F0D"/>
<path d="M28.6199 66.9023L30.2713 65.8897L28.6099 64.9863L28.6199 66.9023Z" fill="#3CB120"/>
<path d="M36.1626 65.4231L34.5213 64.7976L32.6787 67.4185L33.9978 68.5801L36.1626 65.4231Z" fill="#44B322"/>
<path d="M32.5475 61.4818L35.8099 63.4177L34.5211 64.7976L31.8125 63.1794L32.5475 61.4818Z" fill="#CBE98E"/>
<path d="M30.523 61.8591L31.8118 63.1794L30.2713 65.8897L28.6099 64.9863L30.523 61.8591Z" fill="#A7DB57"/>
<path d="M28.6201 66.9023L30.2714 65.8897L32.6779 67.4185L32.1443 68.9772L28.6201 66.9023Z" fill="#2A901B"/>
<path d="M30.4932 65.5025L31.6108 63.1L30.6039 61.9484L31.7619 62.9114L32.5472 61.4818L31.9632 63.0107L34.2892 64.6586L31.8122 63.1794L30.4932 65.5025Z" fill="#F5FFF5"/>
<path d="M30.2715 65.8897L34.5206 64.7976L32.678 67.4185L30.2715 65.8897Z" fill="#ACEC4D"/>
<path d="M34.43 64.9366L32.8995 67.5079L33.6447 68.2723L32.7384 67.5674L32.2451 68.6893L32.5572 67.5079L30.5132 66.0485L32.7284 67.3093L34.43 64.9366Z" fill="#0D3906"/>
<path d="M50.5029 52.676L53.8865 52.0307L59.3245 55.2572L59.8986 58.6028L56.2934 63.8644L53.2118 64.5197L47.3307 61.0648L47.3105 57.8781L50.5029 52.676Z" fill="#24660D"/>
<path d="M50.6036 52.8448L53.8765 52.2193L59.1534 55.3465L59.7073 58.5929L56.2129 63.6957L53.2219 64.3311L47.5221 60.9854L47.502 57.888L50.6036 52.8448Z" fill="#6CD642"/>
<path d="M52.7887 55.1778L50.8555 53.2022L53.9064 52.6164L52.7887 55.1778Z" fill="#DCFE9C"/>
<path d="M58.8208 55.5252L56.8774 57.62L59.3343 58.5532L58.8208 55.5252Z" fill="#82E638"/>
<path d="M56.0816 63.3085L54.098 61.5612L53.2925 63.9042L56.0816 63.3085Z" fill="#144F0D"/>
<path d="M47.9855 60.7869L50.4725 59.258L47.9653 57.8979L47.9855 60.7869Z" fill="#3CB120"/>
<path d="M59.3341 58.5532L56.8772 57.62L54.0981 61.5612L56.0817 63.3085L59.3341 58.5532Z" fill="#44B322"/>
<path d="M53.9067 52.6164L58.8204 55.5252L56.8771 57.6199L52.7891 55.1778L53.9067 52.6164Z" fill="#CBE98E"/>
<path d="M50.8551 53.2022L52.7884 55.1778L50.4725 59.258L47.9653 57.8979L50.8551 53.2022Z" fill="#A7DB57"/>
<path d="M47.9854 60.7869L50.4724 59.258L54.0973 61.5612L53.2917 63.9042L47.9854 60.7869Z" fill="#2A901B"/>
<path d="M50.8052 58.6723L52.4968 55.0487L50.9763 53.3312L52.7183 54.7806L53.9064 52.6164L53.0304 54.9296L56.5143 57.4115L52.7888 55.1778L50.8052 58.6723Z" fill="#F5FFF5"/>
<path d="M50.4727 59.258L56.8766 57.62L54.0975 61.5612L50.4727 59.258Z" fill="#ACEC4D"/>
<path d="M56.7361 57.8185L54.4303 61.7002L55.5479 62.8419L54.1786 61.7796L53.4334 63.4773L53.9168 61.6903L50.8457 59.4963L54.1685 61.3925L56.7361 57.8185Z" fill="#0D3906"/>
<path d="M58.761 52.4278L63.7761 51.4847L71.8626 56.2698L72.7186 61.2435L67.3612 69.0665L62.7791 70.0394L54.038 64.9168L54.0078 60.1714L58.761 52.4278Z" fill="#24660D"/>
<path d="M58.8917 52.6859L63.7658 51.7627L71.6107 56.3989L72.4364 61.2336L67.2401 68.8183L62.789 69.7615L54.3097 64.7877L54.2896 60.1912L58.8917 52.6859Z" fill="#6CD642"/>
<path d="M62.154 56.1507L59.2642 53.2121L63.8053 52.3583L62.154 56.1507Z" fill="#DCFE9C"/>
<path d="M71.1167 56.6768L68.2168 59.7842L71.8819 61.174L71.1167 56.6768Z" fill="#82E638"/>
<path d="M67.0383 68.2425L64.0981 65.6514L62.8999 69.1261L67.0383 68.2425Z" fill="#144F0D"/>
<path d="M55.0043 64.4899L58.7097 62.2264L54.9741 60.2011L55.0043 64.4899Z" fill="#3CB120"/>
<path d="M71.8826 61.174L68.2169 59.7842L64.0981 65.6514L67.0387 68.2425L71.8826 61.174Z" fill="#44B322"/>
<path d="M63.8063 52.3583L71.1174 56.6768L68.2172 59.7842L62.1548 56.1507L63.8063 52.3583Z" fill="#CBE98E"/>
<path d="M59.2635 53.2121L62.1534 56.1507L58.7097 62.2264L54.9741 60.2012L59.2635 53.2121Z" fill="#A7DB57"/>
<path d="M55.0044 64.4899L58.7103 62.2264L64.098 65.6514L62.8996 69.1261L55.0044 64.4899Z" fill="#2A901B"/>
<path d="M59.2041 61.3527L61.7116 55.972L59.4659 53.4106L62.044 55.5649L63.8063 52.3583L62.4971 55.7833L67.6934 59.4665L62.1547 56.1507L59.2041 61.3527Z" fill="#F5FFF5"/>
<path d="M58.7104 62.2264L68.2169 59.7842L64.0981 65.6514L58.7104 62.2264Z" fill="#ACEC4D"/>
<path d="M68.0157 60.0721L64.5917 65.85L66.2533 67.5476L64.2191 65.9691L63.1114 68.5006L63.8264 65.84L59.2544 62.5738L64.199 65.3933L68.0157 60.0721Z" fill="#0D3906"/>
<path d="M41.5605 51.2067L44.9441 50.5614L50.3822 53.7879L50.9562 57.1335L47.351 62.3951L44.2694 63.0504L38.3883 59.5955L38.3682 56.4088L41.5605 51.2067Z" fill="#24660D"/>
<path d="M41.6613 51.3755L44.9341 50.75L50.211 53.8772L50.7649 57.1236L47.2705 62.2264L44.2796 62.8617L38.5797 59.5161L38.5596 56.4187L41.6613 51.3755Z" fill="#6CD642"/>
<path d="M43.8463 53.6986L41.9131 51.723L44.964 51.1472L43.8463 53.6986Z" fill="#DCFE9C"/>
<path d="M49.8787 54.0559L47.9253 56.1507L50.3922 57.0839L49.8787 54.0559Z" fill="#82E638"/>
<path d="M47.1392 61.8392L45.1556 60.0919L44.3501 62.4349L47.1392 61.8392Z" fill="#144F0D"/>
<path d="M39.0431 59.3077L41.5301 57.7887L39.0229 56.4286L39.0431 59.3077Z" fill="#3CB120"/>
<path d="M50.3917 57.0839L47.9247 56.1507L45.1558 60.0919L47.1394 61.8392L50.3917 57.0839Z" fill="#44B322"/>
<path d="M44.9643 51.1472L49.878 54.056L47.9246 56.1507L43.8467 53.6986L44.9643 51.1472Z" fill="#CBE98E"/>
<path d="M41.9128 51.723L43.846 53.6986L41.5301 57.7887L39.0229 56.4287L41.9128 51.723Z" fill="#A7DB57"/>
<path d="M39.043 59.3077L41.53 57.7887L45.1549 60.0919L44.3494 62.4349L39.043 59.3077Z" fill="#2A901B"/>
<path d="M41.8628 57.203L43.5544 53.5794L42.034 51.8619L43.7759 53.3114L44.9641 51.1472L44.078 53.4603L47.5719 55.9323L43.8464 53.6986L41.8628 57.203Z" fill="#F5FFF5"/>
<path d="M41.5303 57.7887L47.9241 56.1507L45.1551 60.0919L41.5303 57.7887Z" fill="#ACEC4D"/>
<path d="M47.7932 56.3492L45.4874 60.2309L46.6051 61.3726L45.2357 60.3104L44.5006 62.008L44.9739 60.221L41.9028 58.027L45.2256 59.9232L47.7932 56.3492Z" fill="#0D3906"/>
<path d="M32.2959 58.9701L33.6754 57.1434L37.5822 57.0243L39.1932 58.99L39.5255 63.9538L38.2971 65.6713L34.0882 65.8301L32.8094 63.7254L32.2959 58.9701Z" fill="#24660D"/>
<path d="M32.4067 59.0396L33.7459 57.2725L37.542 57.1534L39.0926 59.0595L39.4249 63.8843L38.2266 65.5422L34.1386 65.6911L32.9102 63.656L32.4067 59.0396Z" fill="#6CD642"/>
<path d="M34.3903 59.675L32.6685 59.1687L33.917 57.5306L34.3903 59.675Z" fill="#DCFE9C"/>
<path d="M37.4521 57.4115L37.3413 59.5956L38.902 59.1985L37.4521 57.4115Z" fill="#82E638"/>
<path d="M39.2038 63.6758L37.5625 63.3482L38.0962 65.2245L39.2038 63.6758Z" fill="#144F0D"/>
<path d="M34.2898 65.3635L34.8939 63.3283L33.1318 63.4673L34.2898 65.3635Z" fill="#3CB120"/>
<path d="M38.902 59.1985L37.3413 59.5956L37.5628 63.3482L39.2041 63.6758L38.902 59.1985Z" fill="#44B322"/>
<path d="M33.917 57.5306L37.4512 57.4115L37.3405 59.5956L34.3902 59.675L33.917 57.5306Z" fill="#CBE98E"/>
<path d="M32.6685 59.1687L34.3903 59.675L34.8937 63.3283L33.1316 63.4673L32.6685 59.1687Z" fill="#A7DB57"/>
<path d="M34.2896 65.3635L34.8937 63.3283L37.562 63.3482L38.0957 65.2245L34.2896 65.3635Z" fill="#2A901B"/>
<path d="M34.8233 62.8022L34.199 59.7147L32.7793 59.2084L34.199 59.4466L33.9171 57.5306L34.4105 59.4169L37.0788 59.6055L34.3903 59.675L34.8233 62.8022Z" fill="#F5FFF5"/>
<path d="M34.894 63.3283L37.3408 59.5956L37.5623 63.3482L34.894 63.3283Z" fill="#ACEC4D"/>
<path d="M37.3508 59.7842L37.7737 63.3085L38.7706 63.5964L37.6831 63.4574L37.9952 64.887L37.522 63.507L35.1558 63.3383L37.522 63.2092L37.3508 59.7842Z" fill="#0D3906"/>
<path d="M37.7035 62.8518L40.916 62.6036L46.4446 65.6316L47.2704 68.3716L44.2191 72.3129L41.2886 72.6008L35.3168 69.3544L35.0449 66.7832L37.7035 62.8518Z" fill="#24660D"/>
<path d="M37.8142 62.9908L40.9259 62.7625L46.2834 65.6911L47.089 68.3418L44.1182 72.1739L41.2784 72.4519L35.498 69.3048L35.2261 66.813L37.8142 62.9908Z" fill="#6CD642"/>
<path d="M40.1204 65.0458L38.0864 63.2986L40.9863 63.0802L40.1204 65.0458Z" fill="#DCFE9C"/>
<path d="M45.971 65.8103L44.2593 67.3391L46.7262 68.2822L45.971 65.8103Z" fill="#82E638"/>
<path d="M43.967 71.8562L41.9029 70.2975L41.3188 72.1044L43.967 71.8562Z" fill="#144F0D"/>
<path d="M35.9213 69.1757L38.2171 68.1532L35.6797 66.8527L35.9213 69.1757Z" fill="#3CB120"/>
<path d="M46.7259 68.2822L44.259 67.3391L41.9028 70.2975L43.967 71.8562L46.7259 68.2822Z" fill="#44B322"/>
<path d="M40.9865 63.0802L45.9707 65.8103L44.259 67.3391L40.1206 65.0458L40.9865 63.0802Z" fill="#CBE98E"/>
<path d="M38.0862 63.2986L40.1201 65.0458L38.2171 68.1532L35.6797 66.8526L38.0862 63.2986Z" fill="#A7DB57"/>
<path d="M35.9209 69.1757L38.2166 68.1532L41.9019 70.2975L41.3179 72.1044L35.9209 69.1757Z" fill="#2A901B"/>
<path d="M38.4891 67.7064L39.8283 64.9267L38.2173 63.4177L40.0196 64.7182L40.9863 63.0802L40.3217 64.8671L43.9063 67.1406L40.1203 65.0458L38.4891 67.7064Z" fill="#F5FFF5"/>
<path d="M38.2173 68.1532L44.2587 67.3391L41.9026 70.2975L38.2173 68.1532Z" fill="#ACEC4D"/>
<path d="M44.148 67.488L42.2348 70.4266L43.4129 71.4392L42.0033 70.4762L41.4193 71.7768L41.7415 70.377L38.5898 68.3716L41.963 70.1586L44.148 67.488Z" fill="#0D3906"/>
<path d="M46.0317 58.5532L49.4153 57.9079L54.8534 61.1343L55.4274 64.48L51.8222 69.7416L48.7406 70.3968L42.8595 66.942L42.8394 63.7552L46.0317 58.5532Z" fill="#24660D"/>
<path d="M46.1324 58.7219L49.4053 58.0965L54.6822 61.2237L55.2361 64.47L51.7417 69.5728L48.7508 70.2082L43.0509 66.8626L43.0308 63.7652L46.1324 58.7219Z" fill="#6CD642"/>
<path d="M48.3175 61.045L46.3843 59.0793L49.4352 58.4936L48.3175 61.045Z" fill="#DCFE9C"/>
<path d="M54.3499 61.4024L52.3965 63.4971L54.8634 64.4303L54.3499 61.4024Z" fill="#82E638"/>
<path d="M51.6104 69.1856L49.6268 67.4384L48.8213 69.7813L51.6104 69.1856Z" fill="#144F0D"/>
<path d="M43.5143 66.6541L46.0013 65.1352L43.4941 63.7751L43.5143 66.6541Z" fill="#3CB120"/>
<path d="M54.8629 64.4303L52.3959 63.4971L49.627 67.4384L51.6106 69.1857L54.8629 64.4303Z" fill="#44B322"/>
<path d="M49.4355 58.4936L54.3492 61.4024L52.3958 63.4971L48.3179 61.045L49.4355 58.4936Z" fill="#CBE98E"/>
<path d="M46.384 59.0793L48.3172 61.045L46.0013 65.1352L43.4941 63.7751L46.384 59.0793Z" fill="#A7DB57"/>
<path d="M43.5142 66.6541L46.0012 65.1352L49.6261 67.4384L48.8206 69.7813L43.5142 66.6541Z" fill="#2A901B"/>
<path d="M46.334 64.5494L48.0256 60.9259L46.5052 59.2084L48.2471 60.6578L49.4353 58.4936L48.5592 60.8067L52.0431 63.2787L48.3176 61.045L46.334 64.5494Z" fill="#F5FFF5"/>
<path d="M46.0015 65.1352L52.3953 63.4971L49.6263 67.4384L46.0015 65.1352Z" fill="#ACEC4D"/>
<path d="M52.2644 63.6957L49.9586 67.5774L51.0763 68.7191L49.7069 67.6568L48.9718 69.3544L49.4451 67.5674L46.374 65.3734L49.6968 67.2696L52.2644 63.6957Z" fill="#0D3906"/>
<path d="M85.5278 60.0224L88.9114 59.3772L94.3495 62.6036L94.9235 65.9492L91.3183 71.2109L88.2367 71.8661L82.3556 68.4113L82.3354 65.2245L85.5278 60.0224Z" fill="#24660D"/>
<path d="M85.6285 60.1912L88.9014 59.5658L94.1783 62.693L94.7322 65.9393L91.2378 71.0421L88.2469 71.6775L82.547 68.3319L82.5269 65.2345L85.6285 60.1912Z" fill="#6CD642"/>
<path d="M87.8136 62.5242L85.8804 60.5387L88.9313 59.9629L87.8136 62.5242Z" fill="#DCFE9C"/>
<path d="M93.846 62.8717L91.8926 64.9664L94.3595 65.8996L93.846 62.8717Z" fill="#82E638"/>
<path d="M91.1065 70.6549L89.1229 68.9077L88.3174 71.2506L91.1065 70.6549Z" fill="#144F0D"/>
<path d="M83.0104 68.1333L85.4974 66.6045L82.9902 65.2444L83.0104 68.1333Z" fill="#3CB120"/>
<path d="M94.359 65.8996L91.892 64.9664L89.123 68.9077L91.1067 70.6549L94.359 65.8996Z" fill="#44B322"/>
<path d="M88.9316 59.9629L93.8453 62.8717L91.8919 64.9664L87.814 62.5242L88.9316 59.9629Z" fill="#CBE98E"/>
<path d="M85.88 60.5387L87.8133 62.5242L85.4974 66.6045L82.9902 65.2444L85.88 60.5387Z" fill="#A7DB57"/>
<path d="M83.0103 68.1333L85.4973 66.6045L89.1222 68.9077L88.3166 71.2506L83.0103 68.1333Z" fill="#2A901B"/>
<path d="M85.8301 66.0187L87.5217 62.3952L86.0113 60.6777L87.7432 62.1271L88.9313 59.9629L88.0553 62.276L91.5392 64.748L87.8137 62.5242L85.8301 66.0187Z" fill="#F5FFF5"/>
<path d="M85.4976 66.6045L91.8914 64.9664L89.1224 68.9077L85.4976 66.6045Z" fill="#ACEC4D"/>
<path d="M91.7605 65.1649L89.4547 69.0467L90.5724 70.1883L89.203 69.1261L88.4579 70.8237L88.9412 69.0367L85.8701 66.8427L89.1929 68.7389L91.7605 65.1649Z" fill="#0D3906"/>
<path d="M76.404 57.7987L79.5963 59.0495L82.4362 64.6388L81.0968 67.7759L75.1956 70.2976L72.2349 69.2254L69.1533 63.2092L70.8754 60.499L76.404 57.7987Z" fill="#24660D"/>
<path d="M76.3841 57.9873L79.4858 59.1984L82.2451 64.6289L80.946 67.6667L75.216 70.1188L72.3459 69.0764L69.355 63.239L71.0267 60.6082L76.3841 57.9873Z" fill="#6CD642"/>
<path d="M76.9682 61.1145L76.4043 58.4241L79.2941 59.5559L76.9682 61.1145Z" fill="#DCFE9C"/>
<path d="M81.8621 64.609L79.083 65.3436L80.6538 67.4284L81.8621 64.609Z" fill="#82E638"/>
<path d="M75.3162 69.7218L74.5913 67.2001L72.6479 68.7488L75.3162 69.7218Z" fill="#144F0D"/>
<path d="M69.8584 63.3085L72.7885 63.3482L71.409 60.8663L69.8584 63.3085Z" fill="#3CB120"/>
<path d="M80.6529 67.4285L79.0821 65.3437L74.5913 67.2001L75.3163 69.7217L80.6529 67.4285Z" fill="#44B322"/>
<path d="M79.2942 59.5558L81.8618 64.609L79.0828 65.3437L76.9683 61.1145L79.2942 59.5558Z" fill="#CBE98E"/>
<path d="M76.4034 58.4241L76.9673 61.1145L72.7886 63.3482L71.4092 60.8663L76.4034 58.4241Z" fill="#A7DB57"/>
<path d="M69.8584 63.3085L72.7885 63.3482L74.5909 67.2001L72.6475 68.7488L69.8584 63.3085Z" fill="#2A901B"/>
<path d="M73.3931 63.0206L76.7863 60.8564L76.444 58.6028L77.1186 60.7472L79.2935 59.5559L77.2999 61.0351L78.9008 64.9763L76.9676 61.1145L73.3931 63.0206Z" fill="#F5FFF5"/>
<path d="M72.7891 63.3482L79.0822 65.3437L74.5914 67.2001L72.7891 63.3482Z" fill="#ACEC4D"/>
<path d="M78.8606 65.433L74.8028 67.488L75.125 69.0467L74.541 67.4285L72.9904 68.4709L74.3799 67.22L72.9702 63.7354L74.7424 67.0909L78.8606 65.433Z" fill="#0D3906"/>
<path d="M70.4729 65.2444L73.494 66.8725L75.6289 72.7596L73.917 75.7081L67.7438 77.5149L64.9342 76.0953L62.6079 69.7515L64.6522 67.2696L70.4729 65.2444Z" fill="#24660D"/>
<path d="M70.4324 65.433L73.3629 67.0115L75.4374 72.7199L73.7758 75.579L67.7839 77.3362L65.0649 75.9563L62.8091 69.8012L64.793 67.3987L70.4324 65.433Z" fill="#6CD642"/>
<path d="M70.6339 68.6098L70.4023 65.8698L73.1311 67.3292L70.6339 68.6098Z" fill="#DCFE9C"/>
<path d="M75.0541 72.6504L72.2046 73.0574L73.5136 75.311L75.0541 72.6504Z" fill="#82E638"/>
<path d="M67.9349 76.9491L67.522 74.3679L65.3975 75.6684L67.9349 76.9491Z" fill="#144F0D"/>
<path d="M63.3027 69.9302L66.2127 70.3174L65.1454 67.6965L63.3027 69.9302Z" fill="#3CB120"/>
<path d="M73.5131 75.311L72.2041 73.0574L67.522 74.3679L67.9348 76.9491L73.5131 75.311Z" fill="#44B322"/>
<path d="M73.1309 67.3292L75.0541 72.6504L72.2046 73.0574L70.6338 68.6099L73.1309 67.3292Z" fill="#CBE98E"/>
<path d="M70.4015 65.8698L70.6331 68.6098L66.2128 70.3174L65.1455 67.6965L70.4015 65.8698Z" fill="#A7DB57"/>
<path d="M63.3027 69.9302L66.2127 70.3174L67.5217 74.3679L65.3971 75.6684L63.3027 69.9302Z" fill="#2A901B"/>
<path d="M66.8472 70.0791L70.4821 68.3319L70.4116 66.0485L70.8244 68.2624L73.1303 67.3292L70.9654 68.5602L72.073 72.6603L70.6331 68.6098L66.8472 70.0791Z" fill="#F5FFF5"/>
<path d="M66.2129 70.3174L72.204 73.0574L67.5219 74.3679L66.2129 70.3174Z" fill="#ACEC4D"/>
<path d="M71.9723 73.117L67.6929 74.6756L67.8238 76.2641L67.4513 74.5863L65.7798 75.4301L67.3103 74.348L66.3436 70.7344L67.6929 74.2785L71.9723 73.117Z" fill="#0D3906"/>
<path d="M50.5231 64.9068L53.2521 62.8419L59.5763 63.3283L61.6106 66.0783L60.7647 72.3625L58.3075 74.3182L51.4797 73.8119L50.0195 70.9627L50.5231 64.9068Z" fill="#24660D"/>
<path d="M50.6844 65.0161L53.3329 63.0206L59.4658 63.4872L61.4396 66.1478L60.6239 72.2533L58.2372 74.1395L51.6108 73.6531L50.1909 70.8932L50.6844 65.0161Z" fill="#6CD642"/>
<path d="M53.6949 66.1379L51.0669 65.2245L53.5338 63.3681L53.6949 66.1379Z" fill="#DCFE9C"/>
<path d="M59.254 63.795L58.4585 66.5251L61.0865 66.2769L59.254 63.795Z" fill="#82E638"/>
<path d="M60.3212 71.9654L57.7637 71.2804L58.0959 73.7226L60.3212 71.9654Z" fill="#144F0D"/>
<path d="M51.9328 73.2758L53.4734 70.8138L50.6138 70.7046L51.9328 73.2758Z" fill="#3CB120"/>
<path d="M61.0865 66.2769L58.4584 66.525L57.7637 71.2804L60.3212 71.9654L61.0865 66.2769Z" fill="#44B322"/>
<path d="M53.5342 63.3681L59.2534 63.7949L58.4579 66.525L53.6953 66.1379L53.5342 63.3681Z" fill="#CBE98E"/>
<path d="M51.0669 65.2245L53.6949 66.1379L53.4734 70.8138L50.6138 70.7046L51.0669 65.2245Z" fill="#A7DB57"/>
<path d="M51.9331 73.2758L53.4737 70.8138L57.7631 71.2804L58.0954 73.7226L51.9331 73.2758Z" fill="#2A901B"/>
<path d="M53.5139 70.1387L53.383 66.1577L51.2383 65.2841L53.4535 65.8202L53.534 63.3681L53.7958 65.8103L58.045 66.4953L53.6951 66.1379L53.5139 70.1387Z" fill="#F5FFF5"/>
<path d="M53.4736 70.8138L58.4578 66.5251L57.7631 71.2804L53.4736 70.8138Z" fill="#ACEC4D"/>
<path d="M58.4177 66.7633L58.1257 71.2506L59.6461 71.7867L57.9344 71.4392L58.0351 73.2758L57.6625 71.469L53.9067 70.8634L57.743 71.0918L58.4177 66.7633Z" fill="#0D3906"/>
<path d="M53.6954 71.191L55.9914 70.9627L59.8887 73.1269L60.4425 75.1422L58.2069 78.1007L56.1223 78.3588L51.9028 76.0357L51.7417 74.1395L53.6954 71.191Z" fill="#24660D"/>
<path d="M53.7658 71.2903L55.9914 71.0818L59.7778 73.1765L60.3116 75.1323L58.1464 78.0014L56.1122 78.2396L52.0337 75.996L51.8726 74.1495L53.7658 71.2903Z" fill="#6CD642"/>
<path d="M55.3868 72.7794L53.957 71.5186L56.0313 71.3201L55.3868 72.7794Z" fill="#DCFE9C"/>
<path d="M59.5562 73.2659L58.3076 74.4274L60.0496 75.0926L59.5562 73.2659Z" fill="#82E638"/>
<path d="M58.0356 77.7631L56.5856 76.6413L56.1426 77.9915L58.0356 77.7631Z" fill="#144F0D"/>
<path d="M52.3459 75.8967L53.9871 75.1025L52.1948 74.1792L52.3459 75.8967Z" fill="#3CB120"/>
<path d="M60.0492 75.0926L58.3073 74.4274L56.5854 76.6413L58.0354 77.7631L60.0492 75.0926Z" fill="#44B322"/>
<path d="M56.0316 71.3201L59.5558 73.2659L58.3072 74.4274L55.3872 72.7794L56.0316 71.3201Z" fill="#CBE98E"/>
<path d="M53.9569 71.5186L55.3867 72.7795L53.9871 75.1025L52.1948 74.1792L53.9569 71.5186Z" fill="#A7DB57"/>
<path d="M52.3462 75.8967L53.9874 75.1025L56.5853 76.6413L56.1422 77.9914L52.3462 75.8967Z" fill="#2A901B"/>
<path d="M54.1888 74.7749L55.1756 72.7L54.0479 71.5981L55.3166 72.5412L56.0315 71.3201L55.5381 72.6405L58.0553 74.2785L55.387 72.7794L54.1888 74.7749Z" fill="#F5FFF5"/>
<path d="M53.9873 75.1025L58.3069 74.4274L56.5851 76.6413L53.9873 75.1025Z" fill="#ACEC4D"/>
<path d="M58.2268 74.5367L56.8272 76.7406L57.6528 77.4653L56.656 76.7704L56.223 77.7433L56.4748 76.7108L54.2495 75.2614L56.6258 76.542L58.2268 74.5367Z" fill="#0D3906"/>
<path d="M38.7104 59.6651L40.0094 58.4142L43.3624 58.295L44.6008 59.6154L44.5505 62.971L43.3825 64.1424L39.7576 64.2913L38.8212 62.8816L38.7104 59.6651Z" fill="#24660D"/>
<path d="M38.791 59.7147L40.0597 58.5035L43.3221 58.3844L44.5102 59.665L44.47 62.9213L43.3322 64.0531L39.8181 64.202L38.9018 62.832L38.791 59.7147Z" fill="#6CD642"/>
<path d="M40.4526 60.1217L39.0127 59.7941L40.1908 58.6723L40.4526 60.1217Z" fill="#DCFE9C"/>
<path d="M43.2219 58.5631L42.9702 60.0423L44.3396 59.7544L43.2219 58.5631Z" fill="#82E638"/>
<path d="M44.2894 62.7823L42.8999 62.5739L43.2322 63.8446L44.2894 62.7823Z" fill="#144F0D"/>
<path d="M39.9692 63.9736L40.6236 62.5937L39.1133 62.7029L39.9692 63.9736Z" fill="#3CB120"/>
<path d="M44.3398 59.7544L42.9704 60.0423L42.8999 62.5738L44.2894 62.7823L44.3398 59.7544Z" fill="#44B322"/>
<path d="M40.1909 58.6723L43.2217 58.5631L42.97 60.0423L40.4527 60.1217L40.1909 58.6723Z" fill="#CBE98E"/>
<path d="M39.0127 59.7941L40.4526 60.1217L40.6237 62.5937L39.1134 62.7029L39.0127 59.7941Z" fill="#A7DB57"/>
<path d="M39.9692 63.9737L40.6237 62.5937L42.8993 62.5739L43.2316 63.8446L39.9692 63.9737Z" fill="#2A901B"/>
<path d="M40.6035 62.2363L40.2813 60.1515L39.1133 59.8239L40.3014 59.9629L40.1907 58.6723L40.4827 59.943L42.7583 60.0423L40.4525 60.1217L40.6035 62.2363Z" fill="#F5FFF5"/>
<path d="M40.624 62.5937L42.9701 60.0423L42.8996 62.5738L40.624 62.5937Z" fill="#ACEC4D"/>
<path d="M42.97 60.1614L43.0908 62.5441L43.9265 62.7327L43.0002 62.6533L43.1714 63.6163L42.8592 62.6831L40.8555 62.5937L42.8894 62.4845L42.97 60.1614Z" fill="#0D3906"/>
<path d="M95.9509 63.2092L98.1563 63.1397L102.054 65.2047L102.698 66.9718L100.704 69.3941L98.69 69.4934L94.4806 67.2795L94.2188 65.6316L95.9509 63.2092Z" fill="#24660D"/>
<path d="M96.0213 63.2986L98.1663 63.239L101.943 65.2444L102.577 66.9519L100.634 69.3048L98.6799 69.4041L94.6014 67.2498L94.3496 65.6613L96.0213 63.2986Z" fill="#6CD642"/>
<path d="M97.6726 64.6686L96.2227 63.5071L98.2163 63.4376L97.6726 64.6686Z" fill="#DCFE9C"/>
<path d="M101.741 65.3039L100.593 66.2371L102.325 66.9023L101.741 65.3039Z" fill="#82E638"/>
<path d="M100.513 69.0963L99.0526 68.044L98.7002 69.1857L100.513 69.0963Z" fill="#144F0D"/>
<path d="M94.8932 67.1803L96.4438 66.5846L94.6616 65.701L94.8932 67.1803Z" fill="#3CB120"/>
<path d="M102.325 66.9023L100.593 66.2372L99.0527 68.044L100.513 69.0963L102.325 66.9023Z" fill="#44B322"/>
<path d="M98.2166 63.4376L101.741 65.3039L100.593 66.2371L97.6729 64.6686L98.2166 63.4376Z" fill="#CBE98E"/>
<path d="M96.2223 63.507L97.6723 64.6686L96.4438 66.5846L94.6616 65.7011L96.2223 63.507Z" fill="#A7DB57"/>
<path d="M94.8936 67.1803L96.4442 66.5846L99.0521 68.044L98.6997 69.1857L94.8936 67.1803Z" fill="#2A901B"/>
<path d="M96.6256 66.3166L97.4714 64.5792L96.3135 63.5765L97.5922 64.4601L98.2165 63.4376L97.8138 64.5594L100.341 66.0982L97.6728 64.6686L96.6256 66.3166Z" fill="#F5FFF5"/>
<path d="M96.4443 66.5846L100.593 66.2372L99.0522 68.044L96.4443 66.5846Z" fill="#ACEC4D"/>
<path d="M100.522 66.3265L99.2837 68.1432L100.119 68.8183L99.1226 68.1631L98.7601 68.9772L98.9414 68.0936L96.7061 66.7335L99.0824 67.9646L100.522 66.3265Z" fill="#0D3906"/>
<path d="M80.6337 59.2183L82.6274 58.8411L85.8495 60.7372L86.1918 62.7228L84.0572 65.84L82.2347 66.2272L78.7508 64.1821L78.7407 62.2959L80.6337 59.2183Z" fill="#24660D"/>
<path d="M80.6836 59.3176L82.627 58.9503L85.7484 60.7968L86.0806 62.7228L84.0064 65.7408L82.2343 66.118L78.8611 64.1325L78.8511 62.3058L80.6836 59.3176Z" fill="#6CD642"/>
<path d="M81.9828 60.6975L80.835 59.5261L82.6373 59.1786L81.9828 60.6975Z" fill="#DCFE9C"/>
<path d="M85.5478 60.906L84.3999 62.147L85.8599 62.693L85.5478 60.906Z" fill="#82E638"/>
<path d="M83.9267 65.5124L82.7587 64.4799L82.2754 65.8599L83.9267 65.5124Z" fill="#144F0D"/>
<path d="M79.1331 64.0134L80.6133 63.1199L79.123 62.3058L79.1331 64.0134Z" fill="#3CB120"/>
<path d="M85.8601 62.693L84.4 62.147L82.7588 64.4799L83.9268 65.5124L85.8601 62.693Z" fill="#44B322"/>
<path d="M82.6379 59.1786L85.5478 60.906L84.4 62.147L81.9834 60.6975L82.6379 59.1786Z" fill="#CBE98E"/>
<path d="M80.8348 59.5261L81.9827 60.6975L80.6133 63.1199L79.123 62.3058L80.8348 59.5261Z" fill="#A7DB57"/>
<path d="M79.1333 64.0134L80.6135 63.1199L82.7582 64.48L82.2748 65.8599L79.1333 64.0134Z" fill="#2A901B"/>
<path d="M80.8052 62.7724L81.8121 60.6181L80.9059 59.6055L81.943 60.4593L82.6377 59.1786L82.1242 60.5486L84.1884 62.0179L81.9833 60.6975L80.8052 62.7724Z" fill="#F5FFF5"/>
<path d="M80.6138 63.1199L84.3997 62.147L82.7585 64.4799L80.6138 63.1199Z" fill="#ACEC4D"/>
<path d="M84.3192 62.2562L82.9498 64.5594L83.6143 65.2345L82.8088 64.609L82.3658 65.6117L82.6477 64.5494L80.8252 63.2589L82.7987 64.3807L84.3192 62.2562Z" fill="#0D3906"/>
<path d="M79.3748 63.2589L83.3828 63.9439L88.0353 69.7317L87.2599 73.663L81.0465 78.0014L77.3607 77.4653L72.3154 71.2407L73.6447 67.6965L79.3748 63.2589Z" fill="#24660D"/>
<path d="M79.4153 63.4872L83.2924 64.1424L87.814 69.7614L87.0486 73.5836L81.0366 77.783L77.4515 77.2667L72.5674 71.2208L73.8564 67.7958L79.4153 63.4872Z" fill="#6CD642"/>
<path d="M80.8451 66.9619L79.5361 63.9736L83.1509 64.5892L80.8451 66.9619Z" fill="#DCFE9C"/>
<path d="M87.3604 69.8309L84.3296 71.3399L86.6555 73.385L87.3604 69.8309Z" fill="#82E638"/>
<path d="M81.0462 77.2965L79.5963 74.5664L77.7134 76.8101L81.0462 77.2965Z" fill="#144F0D"/>
<path d="M73.1616 71.191L76.565 70.5358L74.3598 67.9943L73.1616 71.191Z" fill="#3CB120"/>
<path d="M86.6551 73.385L84.3291 71.3399L79.5967 74.5664L81.0466 77.2965L86.6551 73.385Z" fill="#44B322"/>
<path d="M83.151 64.5892L87.3599 69.8309L84.3291 71.3399L80.8452 66.9619L83.151 64.5892Z" fill="#CBE98E"/>
<path d="M79.5354 63.9736L80.8443 66.9619L76.565 70.5358L74.3599 67.9943L79.5354 63.9736Z" fill="#A7DB57"/>
<path d="M73.1616 71.191L76.565 70.5358L79.5957 74.5664L77.7128 76.8101L73.1616 71.191Z" fill="#2A901B"/>
<path d="M77.1797 70.0196L80.573 66.7037L79.6265 64.1722L80.9354 66.4953L83.1506 64.5892L81.2073 66.7832L84.0266 70.9627L80.8448 66.9619L77.1797 70.0196Z" fill="#F5FFF5"/>
<path d="M76.5654 70.5358L84.3297 71.3399L79.5966 74.5664L76.5654 70.5358Z" fill="#ACEC4D"/>
<path d="M84.0968 71.4988L79.898 74.8543L80.6632 76.5718L79.5959 74.8345L78.0553 76.413L79.3442 74.626L76.8672 70.9329L79.7469 74.3977L84.0968 71.4988Z" fill="#0D3906"/>
<path d="M56.7266 69.7118L58.4486 67.5377L63.0508 67.6965L64.8433 70.3174L64.9843 76.6016L63.4536 78.6566L58.4889 78.4978L57.0992 75.7478L56.7266 69.7118Z" fill="#24660D"/>
<path d="M56.8574 69.8111L58.5291 67.6965L62.9903 67.8653L64.7224 70.4067L64.8634 76.4924L63.373 78.4878L58.5593 78.3389L57.2099 75.6684L56.8574 69.8111Z" fill="#6CD642"/>
<path d="M59.1634 70.7741L57.1597 69.9997L58.7103 68.0341L59.1634 70.7741Z" fill="#DCFE9C"/>
<path d="M62.8696 68.183L62.6279 70.923L64.4907 70.5457L62.8696 68.183Z" fill="#82E638"/>
<path d="M64.6214 76.2243L62.6982 75.6684L63.2319 78.0808L64.6214 76.2243Z" fill="#144F0D"/>
<path d="M58.7508 77.9418L59.5664 75.4202L57.4922 75.45L58.7508 77.9418Z" fill="#3CB120"/>
<path d="M64.4907 70.5457L62.6279 70.923L62.6984 75.6684L64.6216 76.2243L64.4907 70.5457Z" fill="#44B322"/>
<path d="M58.7104 68.0341L62.869 68.183L62.6273 70.923L59.1636 70.7741L58.7104 68.0341Z" fill="#CBE98E"/>
<path d="M57.1597 69.9997L59.1634 70.7741L59.5662 75.4202L57.4919 75.45L57.1597 69.9997Z" fill="#A7DB57"/>
<path d="M58.751 77.9418L59.5666 75.4202L62.698 75.6684L63.2317 78.0808L58.751 77.9418Z" fill="#2A901B"/>
<path d="M59.5057 74.7551L58.9318 70.8138L57.2905 70.0494L58.9519 70.4663L58.7103 68.0341L59.1936 70.4465L62.3251 70.9131L59.1634 70.7741L59.5057 74.7551Z" fill="#F5FFF5"/>
<path d="M59.5664 75.4202L62.6274 70.923L62.6979 75.6684L59.5664 75.4202Z" fill="#ACEC4D"/>
<path d="M62.6273 71.1613L62.9495 75.6287L64.1074 76.0754L62.8387 75.8173L63.1307 77.644L62.6474 75.8669L59.8784 75.45L62.6675 75.4897L62.6273 71.1613Z" fill="#0D3906"/>
<path d="M66.1527 73.0971L68.4689 72.6603L72.1849 74.8642L72.5777 77.1476L70.1104 80.7513L68.0057 81.1981L63.9876 78.8353L63.9775 76.6611L66.1527 73.0971Z" fill="#24660D"/>
<path d="M66.223 73.2163L68.4586 72.7894L72.0739 74.9238L72.4465 77.1476L70.0598 80.6322L68.0155 81.069L64.1082 78.7857L64.0981 76.6611L66.223 73.2163Z" fill="#6CD642"/>
<path d="M67.7232 74.8047L66.394 73.4545L68.4783 73.0574L67.7232 74.8047Z" fill="#DCFE9C"/>
<path d="M71.8423 75.0529L70.5132 76.4825L72.1947 77.1178L71.8423 75.0529Z" fill="#82E638"/>
<path d="M69.969 80.3642L68.6096 79.1729L68.0659 80.7712L69.969 80.3642Z" fill="#144F0D"/>
<path d="M64.4305 78.6467L66.1321 77.6043L64.4204 76.6711L64.4305 78.6467Z" fill="#3CB120"/>
<path d="M72.1945 77.1178L70.5129 76.4825L68.6099 79.1728L69.9692 80.3641L72.1945 77.1178Z" fill="#44B322"/>
<path d="M68.4788 73.0574L71.8419 75.0529L70.5128 76.4825L67.7236 74.8047L68.4788 73.0574Z" fill="#CBE98E"/>
<path d="M66.3939 73.4545L67.7231 74.8047L66.1321 77.6043L64.4204 76.6711L66.3939 73.4545Z" fill="#A7DB57"/>
<path d="M64.4307 78.6467L66.1323 77.6043L68.6093 79.1728L68.0656 80.7712L64.4307 78.6467Z" fill="#2A901B"/>
<path d="M66.3638 77.1973L67.5217 74.7253L66.4846 73.5439L67.6727 74.5366L68.4783 73.0574L67.8842 74.6359L70.2706 76.3335L67.7231 74.8047L66.3638 77.1973Z" fill="#F5FFF5"/>
<path d="M66.1323 77.6043L70.5124 76.4825L68.6093 79.1728L66.1323 77.6043Z" fill="#ACEC4D"/>
<path d="M70.4119 76.6115L68.8411 79.2721L69.6064 80.0564L68.67 79.3218L68.1665 80.4833L68.4887 79.2622L66.3843 77.7631L68.6599 79.0636L70.4119 76.6115Z" fill="#0D3906"/>
<path d="M91.2883 64.6785H93.816L95.528 68.0043L94.0476 70.6946L88.8211 74.2587L86.4747 74.3083L84.6016 70.7443L86.3538 68.2524L91.2883 64.6785Z" fill="#24660D"/>
<path d="M91.2578 64.8175L93.7049 64.8274L95.3665 68.044L93.9265 70.6549L88.861 74.1098L86.5851 74.1594L84.7725 70.7046L86.4744 68.2922L91.2578 64.8175Z" fill="#6CD642"/>
<path d="M91.3789 66.9619L91.2178 65.1352H93.5034L91.3789 66.9619Z" fill="#DCFE9C"/>
<path d="M95.0545 68.1432L92.6479 69.4736L93.7153 70.5755L95.0545 68.1432Z" fill="#82E638"/>
<path d="M88.9918 73.7921L88.6796 72.1342L86.8672 73.8318L88.9918 73.7921Z" fill="#144F0D"/>
<path d="M85.1855 70.6152L87.6223 69.8012L86.7664 68.3617L85.1855 70.6152Z" fill="#3CB120"/>
<path d="M93.7147 70.5755L92.6474 69.4735L88.6802 72.1341L88.9923 73.7921L93.7147 70.5755Z" fill="#44B322"/>
<path d="M93.5035 65.1352L95.0541 68.1432L92.6476 69.4735L91.3789 66.9619L93.5035 65.1352Z" fill="#CBE98E"/>
<path d="M91.2171 65.1352L91.3782 66.9619L87.6225 69.8012L86.7666 68.3617L91.2171 65.1352Z" fill="#A7DB57"/>
<path d="M85.1855 70.6152L87.6223 69.8011L88.6795 72.1341L86.8671 73.8318L85.1855 70.6152Z" fill="#2A901B"/>
<path d="M88.1665 69.3941L91.2476 66.8229L91.2275 65.2543L91.5497 66.6442L93.5031 65.1352L91.6605 66.803L92.5365 69.2551L91.3785 66.9619L88.1665 69.3941Z" fill="#F5FFF5"/>
<path d="M87.6226 69.8011L92.647 69.4735L88.6798 72.1341L87.6226 69.8011Z" fill="#ACEC4D"/>
<path d="M92.4457 69.6125L88.8208 72.293L88.9114 73.3453L88.6094 72.3128L87.1997 73.524L88.4986 72.2036L87.7334 70.0394L88.8208 72.015L92.4457 69.6125Z" fill="#0D3906"/>
<path d="M45.9312 71.3995L46.9583 69.0467L51.2584 66.3761L53.5847 66.9023L55.3168 70.6549L54.4306 72.8291L49.7982 75.718L47.8143 74.8742L45.9312 71.3995Z" fill="#24660D"/>
<path d="M46.0723 71.3896L47.0793 69.0963L51.2485 66.5151L53.4942 67.0314L55.186 70.6649L54.3199 72.7795L49.8285 75.579L47.895 74.7551L46.0723 71.3896Z" fill="#6CD642"/>
<path d="M48.4483 70.5954L46.4043 71.3201L47.3306 69.1857L48.4483 70.5954Z" fill="#DCFE9C"/>
<path d="M51.2183 66.7832L51.6915 68.6099L53.3126 67.2597L51.2183 66.7832Z" fill="#82E638"/>
<path d="M54.8833 70.645L52.9702 71.4591L54.0778 72.6107L54.8833 70.645Z" fill="#144F0D"/>
<path d="M49.8986 75.2216L50.0093 73.1964L48.0962 74.4572L49.8986 75.2216Z" fill="#3CB120"/>
<path d="M53.3125 67.2597L51.6914 68.6098L52.9702 71.4591L54.8833 70.645L53.3125 67.2597Z" fill="#44B322"/>
<path d="M47.3311 69.1857L51.2177 66.7832L51.691 68.6099L48.4487 70.5954L47.3311 69.1857Z" fill="#CBE98E"/>
<path d="M46.4043 71.3201L48.4483 70.5954L50.009 73.1964L48.0959 74.4572L46.4043 71.3201Z" fill="#A7DB57"/>
<path d="M49.8989 75.2216L50.0097 73.1964L52.97 71.4591L54.0776 72.6107L49.8989 75.2216Z" fill="#2A901B"/>
<path d="M49.7875 72.8192L48.2469 70.7542L46.5352 71.2705L48.1764 70.5358L47.3306 69.1857L48.3979 70.377L51.4086 68.7786L48.4483 70.5954L49.7875 72.8192Z" fill="#F5FFF5"/>
<path d="M50.0098 73.1964L51.6913 68.6098L52.9701 71.4591L50.0098 73.1964Z" fill="#ACEC4D"/>
<path d="M51.7517 68.7488L53.1916 71.2903L54.3697 70.8634L53.1312 71.469L53.8763 72.4022L52.9701 71.6179L50.3018 73.0177L52.8895 71.3697L51.7517 68.7488Z" fill="#0D3906"/>
<path d="M44.8433 69.4636L46.2933 69.1857L48.6394 70.5656L48.881 72.0051L47.3304 74.2686L46.0013 74.5565L43.4739 73.0674L43.4639 71.6973L44.8433 69.4636Z" fill="#24660D"/>
<path d="M44.8836 69.5331L46.2933 69.2651L48.5588 70.6053L48.8005 72.0051L47.3002 74.1991L46.0113 74.4771L43.5545 73.0376L43.5444 71.7073L44.8836 69.5331Z" fill="#6CD642"/>
<path d="M45.8302 70.5358L44.9844 69.682L46.3034 69.4338L45.8302 70.5358Z" fill="#DCFE9C"/>
<path d="M48.4183 70.6847L47.5825 71.5881L48.6398 71.9853L48.4183 70.6847Z" fill="#82E638"/>
<path d="M47.2402 74.0303L46.3843 73.2858L46.042 74.2885L47.2402 74.0303Z" fill="#144F0D"/>
<path d="M43.7562 72.9482L44.8336 72.293L43.7461 71.7073L43.7562 72.9482Z" fill="#3CB120"/>
<path d="M48.6397 71.9852L47.5825 71.5881L46.3843 73.2858L47.2401 74.0303L48.6397 71.9852Z" fill="#44B322"/>
<path d="M46.3038 69.4338L48.4183 70.6847L47.5826 71.5881L45.8306 70.5358L46.3038 69.4338Z" fill="#CBE98E"/>
<path d="M44.9846 69.682L45.8304 70.5358L44.8336 72.293L43.7461 71.7073L44.9846 69.682Z" fill="#A7DB57"/>
<path d="M43.7559 72.9482L44.8332 72.293L46.3839 73.2858L46.0415 74.2885L43.7559 72.9482Z" fill="#2A901B"/>
<path d="M44.9746 72.0448L45.6996 70.4862L45.0451 69.7416L45.7902 70.367L46.3037 69.4338L45.9211 70.4266L47.4315 71.4988L45.8305 70.5358L44.9746 72.0448Z" fill="#F5FFF5"/>
<path d="M44.8335 72.293L47.5823 71.5881L46.3841 73.2858L44.8335 72.293Z" fill="#ACEC4D"/>
<path d="M47.5218 71.6676L46.5249 73.3453L47.0083 73.8318L46.4243 73.3751L46.102 74.1098L46.3135 73.3354L44.9844 72.3923L46.4142 73.2163L47.5218 71.6676Z" fill="#0D3906"/>
<path d="M74.3593 72.9482L75.93 73.6829L77.1585 76.5917L76.3731 78.1205L73.3121 79.2026L71.8621 78.5573L70.5229 75.4202L71.4795 74.1197L74.3593 72.9482Z" fill="#24660D"/>
<path d="M74.3491 73.0376L75.8695 73.7524L77.0677 76.5817L76.3025 78.0709L73.3321 79.1033L71.9224 78.4878L70.6235 75.4401L71.56 74.1792L74.3491 73.0376Z" fill="#6CD642"/>
<path d="M74.5312 74.6359L74.3398 73.256L75.7596 73.9211L74.5312 74.6359Z" fill="#DCFE9C"/>
<path d="M76.867 76.5619L75.4473 76.8299L76.1622 77.9418L76.867 76.5619Z" fill="#82E638"/>
<path d="M73.393 78.9048L73.1211 77.6142L72.084 78.329L73.393 78.9048Z" fill="#144F0D"/>
<path d="M70.8755 75.4897L72.3456 75.6088L71.7414 74.3182L70.8755 75.4897Z" fill="#3CB120"/>
<path d="M76.1619 77.9418L75.447 76.8299L73.1211 77.6142L73.393 78.9048L76.1619 77.9418Z" fill="#44B322"/>
<path d="M75.7597 73.9211L76.8673 76.5619L75.4475 76.8299L74.5312 74.6359L75.7597 73.9211Z" fill="#CBE98E"/>
<path d="M74.3395 73.256L74.5308 74.6359L72.3458 75.6088L71.7417 74.3182L74.3395 73.256Z" fill="#A7DB57"/>
<path d="M70.8755 75.4897L72.3456 75.6088L73.1209 77.6142L72.0838 78.329L70.8755 75.4897Z" fill="#2A901B"/>
<path d="M72.6582 75.4698L74.4505 74.4969L74.3498 73.3553L74.6217 74.4572L75.7595 73.9211L74.7022 74.6061L75.3668 76.6413L74.531 74.6359L72.6582 75.4698Z" fill="#F5FFF5"/>
<path d="M72.3457 75.6088L75.447 76.8299L73.121 77.6142L72.3457 75.6088Z" fill="#ACEC4D"/>
<path d="M75.3263 76.8696L73.2118 77.773L73.3226 78.5673L73.091 77.7333L72.2754 78.1999L73.0104 77.6142L72.4264 75.8173L73.2018 77.5646L75.3263 76.8696Z" fill="#0D3906"/>
<g opacity="0.5">
<g opacity="0.5">
<path opacity="0.3" d="M24.1983 63.9141L4.72217 41.1798L12.2045 27.1819L31.3282 65.5224L24.1983 63.9141Z" fill="url(#paint5_linear)"/>
</g>
<g opacity="0.5">
<path opacity="0.3" d="M32.8999 61.9981C32.6582 62.0576 19.0732 20.024 19.0732 20.024L38.4386 12.4393L42.5474 67.7759L32.8999 61.9981Z" fill="url(#paint6_linear)"/>
</g>
<g opacity="0.5">
<path opacity="0.3" d="M46.8979 69.7912V12.8463H68.8112L56.3943 73.4247L46.8979 69.7912Z" fill="url(#paint7_linear)"/>
</g>
<g opacity="0.5">
<path opacity="0.3" d="M62.2354 73.8119L79.7377 18.4058L95.8907 23.5384L67.8546 76.0159L62.2354 73.8119Z" fill="url(#paint8_linear)"/>
</g>
<g opacity="0.5">
<path opacity="0.3" d="M80.7041 71.876L111.056 29.4652L126.263 38.1519L90.9759 70.8237L80.7041 71.876Z" fill="url(#paint9_linear)"/>
</g>
<g opacity="0.5">
<path opacity="0.3" d="M34.1689 67.0512L0 11.2976L19.7682 3.42502L38.3179 68.6098L34.1689 67.0512Z" fill="url(#paint10_linear)"/>
</g>
<g opacity="0.5">
<path opacity="0.3" d="M42.7688 69.4636L32.064 0L52.668 0.982835L47.4616 73.9608L42.7688 69.4636Z" fill="url(#paint11_linear)"/>
</g>
<g opacity="0.5">
<path opacity="0.3" d="M54.9038 75.1323L68.811 0L89.7071 9.79857L60.6742 77.4454L54.9038 75.1323Z" fill="url(#paint12_linear)"/>
</g>
<g opacity="0.5">
<path opacity="0.3" d="M67.8945 78.19L82.8692 12.886L109.274 22.218L77.9951 75.7776L67.8945 78.19Z" fill="url(#paint13_linear)"/>
</g>
<g opacity="0.5">
<path opacity="0.3" d="M75.2358 79.699L102.617 11.2976L112.315 26.199L82.6376 75.1819L75.2358 79.699Z" fill="url(#paint14_linear)"/>
</g>
</g>
</g>
<defs>
<linearGradient id="paint0_linear" x1="8.42871" y1="68.7985" x2="108.982" y2="68.7985" gradientUnits="userSpaceOnUse">
<stop offset="0.08" stop-color="#FFE52C"/>
<stop offset="0.14" stop-color="#FFE530"/>
<stop offset="0.2" stop-color="#FFE73C"/>
<stop offset="0.26" stop-color="#FFE950"/>
<stop offset="0.32" stop-color="#FFED6C"/>
<stop offset="0.34" stop-color="#FFEE79"/>
<stop offset="0.37" stop-color="#FFED71"/>
<stop offset="0.43" stop-color="#FFE95B"/>
<stop offset="0.49" stop-color="#FFE338"/>
<stop offset="0.57" stop-color="#FFDA07"/>
<stop offset="0.58" stop-color="#FFD900"/>
<stop offset="0.83" stop-color="#FFD422"/>
<stop offset="1" stop-color="#FFD03B"/>
</linearGradient>
<linearGradient id="paint1_linear" x1="38.64" y1="71.5484" x2="40.7933" y2="105.803" gradientUnits="userSpaceOnUse">
<stop stop-color="#DBAD00"/>
<stop offset="1" stop-color="#DBAD00"/>
</linearGradient>
<linearGradient id="paint2_linear" x1="-620.522" y1="20479.8" x2="4547.66" y2="20575.1" gradientUnits="userSpaceOnUse">
<stop offset="0.08" stop-color="#FFE52C"/>
<stop offset="0.14" stop-color="#FFE530"/>
<stop offset="0.2" stop-color="#FFE73C"/>
<stop offset="0.26" stop-color="#FFE950"/>
<stop offset="0.32" stop-color="#FFED6C"/>
<stop offset="0.34" stop-color="#FFEE79"/>
<stop offset="0.37" stop-color="#FFED71"/>
<stop offset="0.43" stop-color="#FFE95B"/>
<stop offset="0.49" stop-color="#FFE338"/>
<stop offset="0.57" stop-color="#FFDA07"/>
<stop offset="0.58" stop-color="#FFD900"/>
<stop offset="0.83" stop-color="#FFD422"/>
<stop offset="1" stop-color="#FFD03B"/>
</linearGradient>
<linearGradient id="paint3_linear" x1="701.14" y1="3583.69" x2="2837.49" y2="3623.09" gradientUnits="userSpaceOnUse">
<stop stop-color="#DBAD00"/>
<stop offset="1" stop-color="#DBAD00"/>
</linearGradient>
<linearGradient id="paint4_linear" x1="805.803" y1="2997.86" x2="3060.27" y2="2997.86" gradientUnits="userSpaceOnUse">
<stop stop-color="#DBAD00"/>
<stop offset="1" stop-color="#DBAD00"/>
</linearGradient>
<linearGradient id="paint5_linear" x1="30.3312" y1="68.0638" x2="12.4424" y2="39.5486" gradientUnits="userSpaceOnUse">
<stop stop-color="#00FF00"/>
<stop offset="1" stop-color="white"/>
</linearGradient>
<linearGradient id="paint6_linear" x1="904.986" y1="3742.13" x2="-44.6779" y2="1502.71" gradientUnits="userSpaceOnUse">
<stop stop-color="#00FF00"/>
<stop offset="1" stop-color="white"/>
</linearGradient>
<linearGradient id="paint7_linear" x1="1192.3" y1="4511.4" x2="1960.02" y2="1223.43" gradientUnits="userSpaceOnUse">
<stop stop-color="#00FF00"/>
<stop offset="1" stop-color="white"/>
</linearGradient>
<linearGradient id="paint8_linear" x1="2199.68" y1="4338.58" x2="3728.03" y2="2309.39" gradientUnits="userSpaceOnUse">
<stop stop-color="#00FF00"/>
<stop offset="1" stop-color="white"/>
</linearGradient>
<linearGradient id="paint9_linear" x1="4159.1" y1="3167.02" x2="4954.21" y2="1962.65" gradientUnits="userSpaceOnUse">
<stop stop-color="#00FF00"/>
<stop offset="1" stop-color="white"/>
</linearGradient>
<linearGradient id="paint10_linear" x1="1522.37" y1="4568.32" x2="-601.958" y2="1954.61" gradientUnits="userSpaceOnUse">
<stop stop-color="#00FF00"/>
<stop offset="1" stop-color="white"/>
</linearGradient>
<linearGradient id="paint11_linear" x1="978.82" y1="5634.34" x2="72.5501" y2="711.905" gradientUnits="userSpaceOnUse">
<stop stop-color="#00FF00"/>
<stop offset="1" stop-color="white"/>
</linearGradient>
<linearGradient id="paint12_linear" x1="2079.41" y1="6091.08" x2="4561.31" y2="2087.31" gradientUnits="userSpaceOnUse">
<stop stop-color="#00FF00"/>
<stop offset="1" stop-color="white"/>
</linearGradient>
<linearGradient id="paint13_linear" x1="2983.07" y1="5277.69" x2="5076.19" y2="1931.54" gradientUnits="userSpaceOnUse">
<stop stop-color="#00FF00"/>
<stop offset="1" stop-color="white"/>
</linearGradient>
<linearGradient id="paint14_linear" x1="2929.59" y1="5227.59" x2="5359.26" y2="2685.92" gradientUnits="userSpaceOnUse">
<stop stop-color="#00FF00"/>
<stop offset="1" stop-color="white"/>
</linearGradient>
<clipPath id="clip0">
<rect width="148.75" height="123.46" fill="white"/>
</clipPath>
</defs>
</svg>
