<svg width="149" height="124" viewBox="0 0 149 124" fill="none" xmlns="http://www.w3.org/2000/svg">
<g clip-path="url(#clip0)">
<path opacity="0.2" d="M16.7932 94.668L20.9044 95.4719C20.9044 95.4719 41.4206 107.183 48.6475 108.473C53.5261 109.472 58.2248 111.202 62.5838 113.604L73.5338 123.26C73.5338 123.26 80.5019 123.121 81.8956 123.26C83.2892 123.399 98.0716 120.65 98.0716 120.65L104.711 115.837L121.176 97.6652C121.176 97.6652 128.592 95.3528 135.65 92.703C142.708 90.0532 148.74 83.0864 148.74 79.9602C148.74 76.8341 146.162 74.085 145.126 73.4002C144.091 72.7155 137.034 71.4154 131.19 71.4154C125.347 71.4154 105.309 68.4381 105.309 68.4381L21.4419 84.6941L16.0366 91.1846L16.7932 94.668Z" fill="black"/>
<path d="M106.762 65.4012L105.408 95.5811L101.147 98.3202L102.551 67.2174L106.762 65.4012Z" fill="#8E4D13"/>
<path d="M100.451 67.4457L98.918 100.027L100.779 100.672L102.551 67.2174L100.451 67.4457Z" fill="#A8621D"/>
<path d="M108.365 88.6638L105.756 87.731L101.297 90.8968L104.283 91.7999L108.365 88.6638Z" fill="#CC7B2B"/>
<path d="M109.699 97.7148L108.365 88.6638L104.383 91.7999L103.238 103.332L109.699 97.7148Z" fill="#A8621B"/>
<path d="M99.7144 102.191L101.297 90.8968L104.383 91.7999L103.238 103.332L99.7144 102.191Z" fill="#BC731F"/>
<path d="M100.968 91.7999C101.143 90.9852 101.207 90.1506 101.157 89.3189C101.098 87.8401 101.685 83.6322 101.735 82.6299C101.785 81.6275 101.834 80.645 101.934 78.9182C101.914 77.417 101.798 75.9186 101.585 74.4324C101.743 73.6472 101.987 72.8818 102.312 72.1498C102.23 72.7786 102.18 73.4113 102.163 74.0453C102.163 74.8393 102.163 74.4225 102.163 75.8317C102.286 76.7759 102.336 77.7281 102.312 78.68C102.173 79.8511 102.123 82.4016 102.093 83.1658C102.109 83.6597 102.086 84.1542 102.023 84.6445C101.778 86.5544 101.632 88.4757 101.585 90.4006C101.69 90.7206 101.714 91.0616 101.655 91.393C101.416 91.5101 101.186 91.6462 100.968 91.7999Z" fill="#D68732"/>
<path d="M101.536 90.609C102.067 90.6333 102.593 90.7301 103.098 90.8968C103.636 91.1449 103.855 91.3335 104.422 91.1449C104.99 90.9563 105.537 90.083 105.935 89.8349C106.334 89.5868 108.404 88.6638 108.404 88.6638C108.404 88.6638 108.643 90.3013 108.733 90.8968L109.071 93.1596C109.02 92.1878 108.794 91.233 108.404 90.341C107.906 89.696 107.478 89.8548 107.16 90.2716C106.65 90.7594 106.101 91.2042 105.517 91.6014C105.253 91.8048 104.977 91.9937 104.691 92.1671C104.691 92.1671 104.582 94.678 104.402 95.8093C104.219 96.556 104.135 97.3235 104.154 98.0919C104.105 99.434 103.901 100.766 103.546 102.062C103.347 102.429 103.457 103.382 103.258 103.312C103.059 103.243 102.929 103.501 102.929 102.816C102.988 101.848 103.097 100.884 103.258 99.9279C103.397 98.8263 103.487 97.9927 103.566 96.7621C103.646 95.5315 103.656 93.894 103.656 93.3977C103.653 92.938 103.515 92.4893 103.258 92.1076C103.039 91.8396 102.432 91.8198 102.262 91.7801C102.093 91.7404 101.575 91.1648 101.506 91.5022C101.33 92.1177 101.269 92.7603 101.327 93.3977C101.361 94.6402 101.251 95.8824 100.998 97.0995C100.819 97.6156 100.341 98.1813 100.331 98.7172C100.321 99.2531 99.7438 102.171 99.7438 102.171C99.6617 101.261 99.6918 100.344 99.8334 99.4416C100.052 98.6729 100.218 97.8904 100.331 97.0995C100.431 96.514 100.331 95.4918 100.461 94.9955C100.631 94.4781 100.735 93.9412 100.769 93.3977C100.753 92.7488 100.806 92.1001 100.928 91.4625C101.091 91.1518 101.295 90.8646 101.536 90.609Z" fill="#E89449"/>
<path d="M41.0523 64.2004C41.0523 64.2004 50.6584 58.6229 56.1234 57.2534C61.5884 55.8838 69.6814 54.1471 73.1356 55.9037C76.5898 57.6603 102.89 66.8204 102.89 66.8204C102.89 66.8204 74.7184 80.8336 70.8361 80.387C66.9539 79.9404 62.2653 80.3076 58.6319 78.4021C54.9985 76.4966 45.1137 73.8965 42.8043 72.8147C40.4948 71.733 36.2343 68.6068 36.1248 68.7557C36.0153 68.9045 39.9274 64.2996 39.9274 64.2996L41.0523 64.2004Z" fill="#4B0B00"/>
<path d="M100.391 98.2507C94.9959 103.133 86.5147 108.304 76.3611 113.673L74.4697 97.0797V88.0783L103.925 73.4399L100.391 98.2507Z" fill="#8C500A"/>
<path d="M80.8702 111.569C88.0374 107.788 94.3585 103.143 100.988 98.3004V97.8835C94.5824 102.806 87.8327 107.267 80.7905 111.232L80.8702 111.569Z" fill="#4C2613"/>
<path d="M100.859 88.4554L100.929 87.0164C100.929 87.0164 98.3504 88.7532 97.8029 89.0013C97.2554 89.2494 96.4391 89.9937 95.8916 90.1525C95.1197 90.2136 94.3794 90.4848 93.7514 90.9365C92.9949 91.5717 93.1044 92.0778 91.6809 92.703C90.6747 93.1166 89.7057 93.6146 88.7841 94.1917C87.7887 94.7871 87.6891 94.8169 86.4249 95.5116C85.7229 95.9708 84.9717 96.3503 84.1851 96.643C82.5066 97.2567 80.8647 97.9658 79.2676 98.7668C78.3068 99.3585 77.3093 99.8888 76.2812 100.355V102.211C76.2812 102.211 78.531 101.605 79.6757 101.218C80.8205 100.831 81.6666 100.315 82.6621 100.007C83.6575 99.6997 86.4846 98.5981 87.1416 98.2706C87.7986 97.9431 88.6945 96.6529 89.4809 96.2857C90.363 95.8913 91.2236 95.4507 92.0591 94.9658C92.8256 94.4795 94.5179 93.6657 95.2346 93.229C95.9513 92.7924 96.1106 92.3358 96.8174 91.8297C97.5242 91.3236 98.4001 90.7182 98.8083 90.4502C99.2164 90.1823 100.859 88.4554 100.859 88.4554Z" fill="#B77023"/>
<path d="M76.2615 101.159C76.2615 101.159 75.933 101.109 78.6107 100.285C81.2885 99.4615 83.2595 98.3797 85.4495 97.566C87.508 96.8064 89.4694 95.807 91.2928 94.5887C92.2285 93.8344 94.2791 91.7106 95.5035 91.4923C96.7279 91.2739 100.899 87.6813 100.899 87.6813L101.387 77.757L76.0425 91.3037L76.2615 101.159Z" fill="#8C500A"/>
<path d="M76.2613 100.99C76.2495 101.085 76.2495 101.182 76.2613 101.278C76.3111 101.506 76.2613 101.367 77.0179 101.139C77.7744 100.91 78.2622 100.821 79.1681 100.513C80.0739 100.206 80.3228 100.176 81.159 99.8287C81.7367 99.6092 82.2988 99.3505 82.8413 99.0546C83.4355 98.7298 84.0586 98.4607 84.7027 98.2507C85.3996 98.0125 86.3851 97.6453 86.6041 97.5362C86.8231 97.427 88.2266 96.5438 88.595 96.4544C88.9633 96.3651 89.1325 95.7895 90.0682 95.462C91.0502 95.0146 91.973 94.4479 92.8157 93.7749C93.3302 93.4134 93.8653 93.082 94.4183 92.7824C94.8385 92.5655 95.2242 92.288 95.5631 91.9587C96.0784 91.4897 96.6502 91.0863 97.2653 90.7579C97.8086 90.407 98.3244 90.0155 98.8083 89.5868C99.1567 89.3188 100.66 88.2569 100.66 88.1775C100.66 88.0982 100.909 87.86 100.909 87.86L100.958 86.8675C100.77 87.0913 100.6 87.3303 100.451 87.5821C100.41 87.6878 100.348 87.7844 100.27 87.8662C100.191 87.948 100.097 88.0133 99.9928 88.0585C99.7042 88.1974 99.5648 88.5844 99.296 88.7929C98.9875 88.9666 98.6504 89.0842 98.3006 89.1402C98.2409 89.1402 97.992 88.8723 97.992 88.8723L97.8128 89.567C97.7232 89.8746 98.0318 89.7357 97.564 90.1227C97.0961 90.5098 96.4789 90.6586 96.2898 90.9067C96.1006 91.1548 95.7025 91.264 94.8962 91.5915C94.3951 91.7377 93.9372 92.0034 93.5622 92.3656C93.2138 92.713 93.174 92.713 92.8853 93.0008C92.6587 93.2815 92.364 93.5 92.0293 93.6359C91.709 93.7725 91.3754 93.8756 91.0338 93.9436C90.8443 93.9846 90.6649 94.0627 90.506 94.1735C90.3471 94.2842 90.2118 94.4253 90.108 94.5887C89.9326 94.8091 89.7359 95.0119 89.5207 95.194C89.3913 95.2536 88.6348 95.6208 88.366 95.72C88.009 95.7545 87.6487 95.7276 87.3009 95.6406C87.3009 95.6406 87.4402 95.5414 87.3009 95.8987C87.1916 96.1384 87.0154 96.3418 86.7932 96.4842C86.3647 96.8807 85.8821 97.2148 85.3597 97.4766C84.8421 97.6652 84.0856 97.8041 83.5679 98.0126C83.037 98.205 82.5398 98.4796 82.0947 98.8263C81.6467 99.1935 80.9698 99.2332 80.6413 99.4218C80.1523 99.6186 79.65 99.7811 79.1382 99.9081C78.9192 99.9974 77.0677 100.384 77.0079 100.444C76.7888 100.543 76.5625 100.626 76.331 100.692L76.2613 100.99Z" fill="#4C2613"/>
<path d="M76.3309 103.213C77.7046 102.766 79.3869 102.22 80.6611 101.823C81.6865 101.51 82.6851 101.115 83.6474 100.642C85.2899 99.9478 86.3949 99.4516 87.5396 99.005C88.6844 98.5584 88.1966 98.5088 89.4708 97.4866C90.745 96.4644 90.2473 96.4941 91.7603 95.9384C92.826 95.6575 93.8359 95.1977 94.7467 94.5787C95.6021 93.8582 96.5217 93.2171 97.4941 92.6633C98.3104 92.2564 100.968 89.0807 100.988 89.4677C100.953 89.9524 100.88 90.4335 100.769 90.9067C100.769 91.2442 99.7737 91.522 99.5049 92.177C99.3536 92.8474 99.0074 93.4585 98.5095 93.9336C97.8525 94.5093 97.514 94.3405 97.0362 94.9261C96.5584 95.5116 97.0362 96.1071 95.553 96.7621C94.0698 97.4171 94.9458 96.7621 93.1739 97.4965C91.402 98.2309 91.7404 97.953 90.7549 99.0149C90.0946 99.8418 89.1711 100.419 88.1369 100.652C87.0549 100.737 85.9914 100.981 84.9813 101.377C83.9063 101.952 83.5379 102.528 82.7217 102.975C81.9054 103.421 80.9199 103.302 80.2231 103.59C79.3262 103.902 78.4933 104.372 77.7643 104.979C77.1073 105.634 75.873 105.843 75.7734 105.674C75.9036 104.842 76.0899 104.02 76.3309 103.213Z" fill="#96520F"/>
<path d="M75.9824 108.175C76.6479 107.597 77.2548 106.956 77.7941 106.26C77.9852 105.883 78.2789 105.568 78.6417 105.35C79.0044 105.132 79.4214 105.021 79.8448 105.029C81.1878 104.975 82.5219 104.785 83.8266 104.463C85.0609 104.007 84.613 103.6 86.2455 103.114C87.5675 102.806 88.8428 102.326 90.0382 101.685C91.1441 101.076 92.1964 100.376 93.1838 99.5905C94.0126 99.0728 94.8073 98.5026 95.5629 97.8835C96.3493 97.2384 97.7429 95.8987 97.4543 96.6628C97.1656 97.427 96.0208 98.082 95.4634 98.7569C95.014 99.4277 94.427 99.996 93.7412 100.424C92.7469 101.074 91.7203 101.674 90.6653 102.22C89.7694 102.737 88.535 103.431 87.7586 103.957C86.9821 104.483 85.6184 104.86 84.9216 105.307C84.2247 105.754 83.9261 106.299 83.1497 106.369C82.3732 106.438 80.8303 105.883 80.1633 106.488C79.4964 107.093 78.8891 108.701 77.5751 109.316C76.2611 109.932 75.9824 108.175 75.9824 108.175Z" fill="#96520F"/>
<path d="M78.3618 110.666C78.9392 110.19 79.5066 108.512 80.3527 108.185C81.4675 107.895 82.5644 107.541 83.6377 107.123C84.7062 106.659 85.7379 106.115 86.7236 105.495C88.3462 104.503 88.9235 104.503 90.3769 103.61C91.3476 103.044 92.2728 102.403 93.1442 101.694C93.8908 101.039 93.5126 100.871 94.9161 100.057C95.7645 99.6257 96.5268 99.0439 97.1659 98.34C97.6923 97.8269 98.1844 97.2799 98.6391 96.7025C99.097 96.0872 99.4355 94.7177 99.9929 94.3405C100.55 93.9634 100.988 93.7848 100.988 94.1817C100.988 94.5787 101.128 95.8391 100.69 96.1666C99.891 96.8495 99.1301 97.575 98.4102 98.34C97.7831 99.0034 97.0817 99.5928 96.3197 100.097C94.7569 101.327 94.2691 101.794 93.6121 102.27C92.9551 102.746 92.3379 102.875 91.0239 103.779C89.7099 104.682 89.6004 104.771 88.3661 105.763C87.4491 106.541 86.4741 107.248 85.4494 107.877C84.3843 108.443 82.3337 108.87 81.7563 109.177C81.1789 109.485 80.5219 109.723 80.3627 110.071C80.2034 110.418 78.3618 110.666 78.3618 110.666Z" fill="#96520F"/>
<path d="M75.206 93.9634C75.9427 93.3481 77.0675 92.2465 78.2521 91.3037C79.3896 90.3885 80.6897 89.695 82.0846 89.2593C83.9162 88.6043 84.9017 88.5249 87.3206 87.6317C89.7396 86.7385 89.7495 86.8477 91.2228 85.8255C92.5533 84.8919 93.7753 83.8134 94.8661 82.61C95.9512 81.4588 98.5194 80.6251 98.8479 80.387C99.6374 80.0705 100.487 79.9315 101.337 79.9801C101.368 80.5297 101.321 81.081 101.197 81.6176C100.511 82.2718 99.7863 82.8849 99.0271 83.4536C97.7977 84.367 96.4062 85.0404 94.9259 85.4384C93.917 85.683 92.9387 86.0392 92.0092 86.5003C91.1929 86.9469 91.8002 86.7087 90.3468 87.6019C88.8935 88.4951 88.7342 88.9119 87.2908 89.2791C85.8474 89.6463 84.7922 89.7357 83.6873 90.0135C82.6989 90.1952 81.7616 90.588 80.9398 91.1648C80.0738 91.8198 79.8448 91.7999 78.6105 92.7129C77.5316 93.402 76.3714 93.9553 75.1562 94.3604L75.206 93.9634Z" fill="#96520F"/>
<path d="M75.9825 97.8835C77.1729 97.6542 78.33 97.2775 79.4267 96.7621C80.2928 96.1666 82.4828 95.1345 83.1497 94.1818C83.8167 93.229 83.7769 92.7824 85.2999 91.919C86.8229 91.0556 87.2112 91.1449 88.7143 90.3708C89.9761 89.7759 91.146 89.0039 92.1884 88.0783C93.018 87.2983 94.0543 86.7714 95.1747 86.5599C96.6932 86.1992 98.161 85.6525 99.5448 84.9323C100.072 84.4758 101.436 82.8879 101.436 82.8879C101.551 83.4678 101.551 84.0645 101.436 84.6445C101.227 85.1308 100.57 85.1308 98.848 86.153C97.1695 87.0854 95.4452 87.9333 93.6816 88.6936C92.9066 88.8633 92.1791 89.2023 91.5513 89.686C90.6253 90.6064 89.5606 91.3765 88.3957 91.9686C87.2012 92.4251 86.9523 92.0976 86.1361 92.9611C85.2106 93.9471 84.2123 94.8627 83.1497 95.7002C82.4751 96.3552 81.7069 96.9071 80.8701 97.3377C79.9539 97.7722 78.9925 98.105 78.0032 98.3301C77.1372 98.5782 75.7734 99.0248 75.7734 99.0248L75.9825 97.8835Z" fill="#96520F"/>
<path d="M86.7437 93.9634C87.0622 93.755 88.5255 92.971 90.0685 92.2465C91.0284 91.9027 91.8895 91.3304 92.577 90.5792C93.1842 89.9143 92.6566 89.8746 95.1552 88.8921C96.6991 88.2994 98.1936 87.5859 99.6248 86.7584C100.242 86.4011 101.407 85.5972 101.407 85.5972C101.407 85.5972 101.636 86.1133 101.407 86.2324L100.073 87.0164C99.6646 87.2546 98.6791 88.0783 98.0221 88.4852C97.3651 88.8921 96.1009 89.031 94.8267 89.7853C94.0058 90.1444 93.2466 90.63 92.577 91.2243C91.9977 91.9893 91.2435 92.6052 90.377 93.0206C89.2088 93.4808 87.9887 93.7974 86.7437 93.9634Z" fill="#96520F"/>
<path d="M56.4719 58.8611L56.9597 85.2598L20.8747 75.4744L15.3599 63.8828L29.9731 57.6603L56.4719 58.8611Z" fill="#412815"/>
<path d="M56.9596 53.4127L56.4718 58.8611L23.7315 66.999L18.1968 64.4187L18.9633 61.1536L55.7252 52.9561L56.9596 53.4127Z" fill="#8E4D13"/>
<path d="M18.5554 90.8968C29.9632 99.005 47.1746 106.131 65.4411 113.068L69.4229 99.3126L68.2283 86.7782L14.0659 66.0165V77.9257L18.5554 90.8968Z" fill="#9E600F"/>
<path d="M66.9637 99.521C48.522 94.4057 30.7424 87.1616 13.9858 77.9357L18.5151 90.8968C30.4605 98.9752 46.7162 106.24 65.4207 113.068L66.9637 99.521Z" fill="#9E600F"/>
<path d="M14.0659 76.8241L67.9894 99.1935L66.0781 101.159L46.6968 94.2115L22.6666 83.7711L14.0659 79.6823V76.8241Z" fill="#CC9113"/>
<path d="M13.8267 66.5425V77.1715C13.8267 77.1715 15.2302 77.886 15.6185 78.1639C16.0067 78.4418 17.0619 79.0075 17.6094 79.3151C18.2047 79.7031 18.8194 80.0609 19.451 80.387C19.9674 80.6302 20.4995 80.8391 21.0437 81.0122C21.6035 81.2281 22.1072 81.5673 22.5169 82.0046C22.9251 82.3123 26.9765 83.9895 27.2453 84.1086L33.7257 86.7782C33.7257 86.7782 37.8269 88.3264 37.9364 88.386C38.0459 88.4455 40.2658 89.7754 40.2658 89.7754C40.2658 89.7754 42.4956 90.48 42.6051 90.5296L46.0294 92.2961L49.1452 93.2886L52.2908 94.1024L57.0988 95.6307L64.4552 98.608L67.3719 99.7791C67.3393 98.2778 67.4058 96.776 67.571 95.2834C67.8099 93.894 67.8696 86.6889 67.8696 86.6889L13.8267 66.5425Z" fill="#9E600F"/>
<path d="M13.9861 76.8241C13.9861 76.8241 16.614 78.5906 17.6792 79.1663C18.6888 79.7954 19.7474 80.343 20.8447 80.8038C21.5316 80.9626 22.6166 80.3969 22.7659 80.4663C22.9152 80.5358 22.1189 81.2107 22.7659 81.7764C23.9747 82.475 25.2361 83.0789 26.5387 83.5826C27.6834 84.1483 28.4201 84.2376 30.2218 84.972C32.0236 85.7064 31.7847 85.4583 34.4127 86.6095C37.0407 87.7607 37.4687 87.5424 38.5637 88.3859C39.6587 89.2295 40.8831 90.1029 41.6297 89.5372C42.3763 88.9715 41.9781 88.4058 42.6251 89.0608C43.2722 89.7158 43.2622 90.5296 44.3274 91.1846C46.1852 92.1913 48.1756 92.933 50.2403 93.3878C52.3477 93.845 54.428 94.4182 56.4718 95.1047C58.851 95.9284 61.3097 97.2384 63.2708 97.8835C65.2318 98.5286 67.4715 99.5409 67.4715 99.5409L68.8552 99.0347L68.2281 99.9478C67.6007 99.9346 66.9752 99.8749 66.3567 99.7691C65.9585 99.65 62.0961 97.9927 61.2301 97.6156C60.364 97.2384 57.9451 96.4147 56.8003 95.8689C55.2748 95.3375 53.7233 94.8837 52.1516 94.5093C50.7878 94.0726 48.5381 93.5168 47.5526 93.1992C46.1893 92.7256 44.8591 92.1619 43.5708 91.5121C43.0731 91.1846 41.5799 90.3708 41.5799 90.3708C41.5799 90.3708 38.6732 89.0608 37.5981 88.6043C36.523 88.1478 33.0987 86.8874 31.7847 86.3415C30.4707 85.7957 28.5495 85.1506 27.6038 84.6246C26.6581 84.0986 23.9505 83.1558 23.1342 82.6398C22.318 82.1237 22.2284 81.9054 21.2827 81.3695C20.337 80.8335 18.6248 80.4366 18.2964 80.2282C17.9679 80.0197 15.31 78.3922 15.0114 78.2433C14.7127 78.0944 13.7173 77.5982 13.7173 77.5982L13.9861 76.8241Z" fill="#6B2613"/>
<path opacity="0.3" d="M15.6284 82.6299C15.6284 82.6299 16.5343 82.6298 21.7803 84.8033C27.0263 86.9767 29.3258 87.7806 32.2723 89.5372C34.8904 91.0095 37.6356 92.2451 40.4748 93.229C41.2115 93.4771 45.7209 95.5017 45.7209 95.5017C45.7209 95.5017 45.3127 95.6009 47.6122 96.9109C49.9117 98.221 52.7786 98.3797 54.0129 98.9553C55.2473 99.531 64.5448 102.995 65.5701 102.925C66.5954 102.856 68.0587 103.828 67.8696 104.483C67.6805 105.138 67.2823 106.141 66.2271 106.081C64.3365 105.735 62.5102 105.103 60.8119 104.205C58.5223 103.143 56.2228 102.409 53.4356 101.228C50.6483 100.047 45.4023 99.4317 43.9987 98.1217C42.5951 96.8117 39.6586 94.152 37.5283 93.2985C35.398 92.445 31.5556 91.2342 27.9322 89.6066C25.9323 88.6259 23.9882 87.5359 22.1088 86.3415C21.0237 85.8388 19.8573 85.5329 18.6645 85.4384C17.6004 85.1911 16.6587 84.5758 16.0067 83.7017L15.6284 82.6299Z" fill="#8E4A00"/>
<path opacity="0.3" d="M16.9229 86.3415C18.2667 86.2423 18.8341 86.0835 21.2929 87.2248C23.7516 88.3661 25.2747 89.2097 25.4837 89.5868C25.6928 89.9639 25.0656 89.5868 23.4928 89.041C21.9611 88.5911 20.3969 88.2593 18.8142 88.0485C18.3369 88.0183 17.8581 88.0183 17.3808 88.0485L16.9229 86.3415Z" fill="#8E4A00"/>
<path opacity="0.3" d="M63.191 106.389C61.7177 105.575 59.8264 105.734 58.0246 105.247C56.2229 104.761 55.7351 104.255 53.6845 103.124C52.1845 102.119 50.4882 101.443 48.7072 101.139C46.3281 100.652 45.0241 100.732 43.3019 100.325C41.5798 99.918 41.8187 98.7668 41.2314 98.0324C40.2227 96.9793 39.0325 96.1154 37.7175 95.4819C36.5727 94.9757 33.9447 93.497 31.8144 92.5046C29.6842 91.5121 29.4353 91.9289 26.7277 91.5121C24.0201 91.0953 24.1097 90.609 22.4672 89.7158C21.0114 89.1606 19.413 89.0978 17.918 89.5372L18.4754 90.8968C18.4754 90.8968 22.1486 91.5915 22.6364 92.1671C23.4927 92.9078 24.4392 93.538 25.4535 94.0428C26.7774 94.818 28.0569 95.6662 29.286 96.5835C30.6326 97.3997 32.147 97.9019 33.7157 98.0523C35.4954 98.1989 37.1985 98.8383 38.6333 99.8982C39.4759 100.778 40.5426 101.412 41.7192 101.734C43.2422 102.22 44.6159 102.3 47.1643 103.034C49.4524 103.706 51.6747 104.583 53.8039 105.654C55.3328 106.376 56.8008 107.219 58.1938 108.175C59.3386 108.999 65.7095 110.557 65.7095 110.557L66.6353 108.711C65.5343 107.87 64.3842 107.094 63.191 106.389ZM35.0596 96.1666C34.2433 96.4941 32.3619 96.9904 31.3764 96.1666C30.3909 95.3429 28.3901 93.1893 28.3901 93.1893C28.639 93.1893 30.4407 93.9237 31.5059 94.2909C32.571 94.6581 35.8858 95.8391 35.0596 96.1666Z" fill="#8E4A00"/>
<path opacity="0.3" d="M13.8566 75.2362C13.8566 75.2362 17.9977 77.6082 19.5208 78.3426C21.0438 79.077 24.0799 79.4144 24.498 79.7419C24.9161 80.0694 23.8111 80.4664 25.4935 81.6573C27.1758 82.8482 31.287 83.2551 33.0987 83.9895C34.9104 84.7239 35.2289 84.9819 37.2796 85.7064C39.3302 86.4309 41.789 86.0339 43.9989 87.1752C46.2088 88.3165 47.6123 90.4502 47.9807 90.609C48.349 90.7678 47.9807 88.2371 46.587 87.2546C45.1934 86.2721 43.302 86.0339 40.8831 85.2102C38.6118 84.544 36.4034 83.6806 34.2833 82.6299C32.2924 81.5382 30.9186 81.2107 29.0373 80.2282C27.1559 79.2457 26.7378 78.7594 25.0555 77.9357C23.3731 77.1119 20.7053 77.4097 19.5208 76.4669C17.661 75.2749 15.7221 74.2105 13.7173 73.2811L13.8566 75.2362Z" fill="#8E4A00"/>
<path opacity="0.3" d="M68.8554 97.5659C67.422 96.7621 68.4473 95.72 63.032 94.9261C57.6168 94.1321 54.1725 92.9412 52.7789 91.9488C51.3853 90.9564 49.6632 90.351 49.1654 89.2692C48.6677 88.1875 48.4288 86.7981 45.97 85.895C43.5113 84.9918 39.1612 84.178 37.6879 83.2055C36.2146 82.2329 33.8455 81.042 32.5215 79.9801C31.1976 78.9182 25.4937 76.6256 25.4937 76.6256C25.4937 76.6256 30.6003 77.7769 31.8048 78.5113C33.0093 79.2457 33.5867 79.5037 36.782 80.4961C39.9774 81.4886 42.7547 83.0268 45.1538 83.9299C47.5528 84.8331 49.3347 84.0887 50.9772 86.6294C52.6196 89.17 53.5952 90.7083 55.4865 91.532C57.3779 92.3557 59.8267 92.5244 62.8628 93.2489C65.8989 93.9733 68.5269 94.3505 68.5269 94.3505L68.8554 97.5659Z" fill="#8E4A00"/>
<path opacity="0.3" d="M13.9858 70.4626C14.6428 70.6214 21.5313 73.2415 23.582 74.1346C26.493 75.3529 29.4868 76.3644 32.541 77.1616C37.787 78.7197 38.9418 78.7991 42.7145 80.5954C46.4873 82.3917 48.4483 82.3123 50.6781 83.5727C52.9079 84.8331 51.7432 84.7934 55.1079 87.0859C58.4725 89.3784 59.6172 91.5022 62.8126 91.9091C64.635 92.1494 66.4696 92.2852 68.3075 92.316C68.3075 92.316 66.2569 89.8448 66.0976 89.5273C65.9384 89.2097 60.1847 87.9592 57.8155 86.2125C55.4463 84.4659 52.7586 83.3643 48.7768 81.3794C44.795 79.3945 38.5237 77.499 36.483 76.5959C34.4423 75.6928 33.1184 75.2958 27.1258 73.6186C21.1332 71.9414 19.5404 70.5619 19.5404 70.5619L15.1007 69.5695L13.9858 70.4626Z" fill="#8E4A00"/>
<path opacity="0.2" d="M17.749 75.1569L27.9723 79.7915L31.2075 82.7688L33.4473 84.8132L41.2516 87.9791L44.3972 86.9866C44.3972 86.9866 51.7038 89.1998 52.6893 89.7754C53.6748 90.351 63.9279 94.1024 65.9785 94.3902C68.0292 94.678 70.9558 89.299 70.9558 89.299C70.9558 89.299 26.6085 71.6833 25.2647 71.4551C23.9208 71.2268 17.749 70.3436 17.749 70.3436V75.1569Z" fill="black"/>
<path d="M19.9088 91.8297C19.2916 92.048 34.0541 100.325 37.9762 101.754C41.2711 102.965 46.8755 105.912 49.4338 106.994C51.9921 108.076 65.4705 113.048 65.4705 113.048C65.4705 113.048 66.008 112.244 65.57 112.175C65.132 112.105 51.2654 107.54 49.384 106.22C47.5026 104.9 40.7634 102.737 38.1454 101.099C35.7858 99.6833 33.3039 98.481 30.7293 97.5064C27.7553 96.0951 24.8668 94.5111 22.0789 92.7626C21.3422 92.1374 19.8789 91.1151 19.8789 91.1151L19.9088 91.8297Z" fill="#6B2613"/>
<path opacity="0.2" d="M20.2774 75.8118L21.2032 91.9984L19.9091 91.8297C19.9091 91.8297 18.2467 87.5821 18.2467 87.0958C18.2467 86.6095 18.1372 75.1866 18.1372 75.1866L20.2774 75.8118Z" fill="black"/>
<path d="M76.5899 113.693L72.9764 116.64L72.1104 90.5891L76.0424 91.3235L76.5899 113.693Z" fill="#A8621D"/>
<path d="M76.4504 108.185L79.4368 109.555L72.8668 113.147L72.7573 110.041L76.4504 108.185Z" fill="#F0B71D"/>
<path d="M83.1497 116.204L79.4367 109.555L72.8667 113.147L72.9961 122.853L83.1497 116.204Z" fill="#BC731F"/>
<path d="M12.5127 68.6167L14.4837 89.6067L18.1967 92.3259L17.2112 70.7505L12.5127 68.6167Z" fill="#F0A41D"/>
<path d="M18.8539 72.2193L19.8593 91.8297L18.0874 92.4946L17.2114 70.7505L18.8539 72.2193Z" fill="#A8621B"/>
<path d="M11.9653 84.6346L13.9761 84.2574L17.9181 86.2721L15.3598 86.9271L11.9653 84.6346Z" fill="#FAC413"/>
<path d="M19.1824 94.1818L17.9182 86.2721L15.3599 86.9271L17.2114 94.6184L19.1824 94.1818Z" fill="#BC731F"/>
<path d="M11.9653 84.6346L11.5273 91.1846L17.2114 94.6184L15.3598 86.9271L11.9653 84.6346Z" fill="#F0B71D"/>
<path d="M54.7499 52.5989L10.0542 61.7491C24.9063 70.1153 46.189 77.628 71.2345 84.6445L109.5 67.3067L102.94 66.8204C93.9805 71.3558 83.4089 75.4447 71.9413 80.0595C69.9819 80.5357 67.9251 80.4252 66.0283 79.7419C50.5117 75.4619 35.314 70.1063 20.5462 63.7141C19.5508 63.3171 19.7001 62.8308 21.3725 62.2354C28.1216 60.1612 42.8344 56.7373 56.9598 53.4127L54.7499 52.5989Z" fill="url(#paint0_linear)"/>
<path d="M108.733 73.9064L109.45 67.3067L71.2345 84.6445L70.687 94.1818L108.733 73.9064Z" fill="#BC731F"/>
<path d="M9.63574 61.9178V69.758C24.3783 78.2135 46.0692 86.2522 70.4776 94.1818L70.9256 84.6445C46.6466 77.9555 26.5882 70.4627 9.63574 61.9178Z" fill="url(#paint1_linear)"/>
<path d="M45.7109 73.43L43.501 71.3757L37.5781 73.9758L37.9265 84.6346L41.0522 86.2721L43.8196 84.9621L40.5844 83.7612V74.998L45.7109 73.43Z" fill="#5B4C38"/>
<path d="M31.9242 67.5251L43.4913 71.3757L37.5784 73.9759L27.0664 69.887L31.9242 67.5251Z" fill="#CBBEAC"/>
<path d="M37.9267 84.6346L28.2012 80.8832L31.3169 82.7589L41.0524 86.2721L37.9267 84.6346Z" fill="#470800"/>
<path d="M27.0664 69.887L28.2012 80.8832L37.9268 84.6346L37.5784 73.9758L27.0664 69.887Z" fill="#B4A98F"/>
<path d="M31.0678 80.6648L33.218 81.4786V79.2457C34.6913 78.9976 34.9501 77.0028 34.5619 76.2684C33.9347 74.4919 32.3022 73.2911 30.7991 73.9659C29.3756 74.879 29.8932 76.8142 31.1076 78.0349L31.0678 80.6648Z" fill="#5B4C38"/>
<path d="M33.2081 76.9333L31.1575 78.0448L31.0679 80.6648L33.218 79.5434V79.2457C34.6913 79.0869 35.1393 77.628 34.5619 76.2684L33.2081 76.9333Z" fill="#44382A"/>
<path d="M26.7676 66.2646L56.7903 58.8611V59.9528L27.4943 66.5425L26.7676 66.2646Z" fill="black"/>
<path opacity="0.2" d="M66.0479 92.6832L70.7165 94.1917L72.2495 93.4176V95.9285L67.5808 94.1818L66.0479 92.6832Z" fill="black"/>
<path opacity="0.3" d="M72.1304 95.9681L76.0524 93.5764L77.1176 92.4748L100.969 79.4442H102.721L106.115 77.3799L106.244 75.2759L72.22 93.4474L72.1304 95.9681Z" fill="black"/>
<path d="M27.982 58.0771L10.0639 61.7491L9.89472 61.9178C9.89472 61.9178 9.65581 62.0071 10.1535 62.3247C10.7756 62.6458 11.4172 62.9275 12.0748 63.1683C12.901 63.5256 13.2992 63.863 13.9462 64.1111C14.5932 64.3592 19.242 67.2472 20.9143 67.7632C22.5867 68.2793 23.8907 69.3511 24.7269 69.4702C25.524 69.6394 26.3062 69.8717 27.0662 70.1649L27.5042 69.6687C26.9846 69.3824 26.4419 69.1401 25.8816 68.9442C25.0654 68.6564 22.4772 67.2174 21.7406 66.9594C21.0039 66.7013 18.3759 64.9745 17.6393 64.6966C16.9027 64.4187 15.8774 64.0317 15.0511 63.7042C14.2249 63.3767 12.1345 62.9599 11.9752 62.7118C11.6962 62.4137 11.382 62.1504 11.0395 61.9277C11.0395 61.9277 12.7218 61.7987 12.9209 61.7193C13.12 61.6399 14.6828 61.2727 16.1163 60.9452C17.5497 60.6177 27.982 58.0771 27.982 58.0771Z" fill="#FFF4AB"/>
<path d="M41.8087 74.5415L44.5761 75.6233C44.5761 75.6233 44.0485 75.1966 47.7416 76.8142C49.7073 77.6325 51.7343 78.2962 53.8039 78.7991C55.1654 79.3587 56.562 79.8294 57.9848 80.2083C59.1296 80.4465 61.8372 80.5358 62.4145 80.9824C62.9919 81.429 67.2524 82.5802 68.3176 83.1459C69.3553 83.5361 70.4242 83.8382 71.513 84.049C72.0306 84.2773 79.0585 80.7839 79.9643 80.2877C83.0581 78.6521 86.2495 77.207 89.5206 75.9607C92.3338 74.9808 95.0948 73.8579 97.7928 72.5964L103.168 70.155L96.4788 73.7774C94.1022 74.6883 91.7762 75.7252 89.5107 76.8837C87.4037 77.975 85.2331 78.9393 83.0104 79.7717C81.3779 80.5358 78.5309 82.1039 77.6051 82.3222C76.6793 82.5405 72.0804 84.843 71.8614 84.8926C71.6424 84.9422 71.7021 86.0934 71.5926 86.9668C71.3784 88.019 71.2255 89.0827 71.1347 90.1525C71.2044 90.6586 70.9953 94.1222 70.9953 94.1222H70.2786C70.5345 92.3637 70.6675 90.5896 70.6768 88.8127C70.5432 87.6629 70.4734 86.5066 70.4677 85.3491C70.4677 84.9522 70.9555 84.9025 69.4723 84.2575C67.669 83.6407 65.8349 83.1174 63.9774 82.6894C61.887 82.0741 58.4825 81.2901 57.6663 81.0618C56.85 80.8336 53.0175 79.9106 51.4945 79.2556C49.9714 78.6006 45.4322 77.6181 44.8548 77.2707C44.0508 76.9305 43.2808 76.5151 42.5553 76.0302C41.8725 75.6175 41.1444 75.2845 40.3853 75.0378L41.8087 74.5415Z" fill="#FFF4AB"/>
<path d="M72.1902 94.3405C72.0833 94.8646 72.0101 95.395 71.9712 95.9284C71.9115 96.7125 72.1006 96.9209 72.0807 98.211C72.0608 99.5012 72.0807 100.196 72.0807 101.814C72.0334 102.996 72.08 104.181 72.22 105.357C72.4155 106.647 72.4987 107.952 72.4689 109.257C72.3594 109.743 72.4689 110.011 72.4689 109.932C72.4689 109.852 72.4689 110.041 72.5784 110.061C72.6879 110.081 73.4544 109.803 73.4245 109.555C73.4245 109.128 73.5042 107.431 73.315 105.466C73.1259 103.501 73.1259 102.657 72.9567 100.752C72.7875 98.8462 72.5187 97.1789 72.5784 96.5537C72.5954 95.9179 72.5754 95.2817 72.5187 94.6482L72.1902 94.3405Z" fill="#FCBC56"/>
<path d="M72.4785 112.77C72.6477 112.462 72.8667 112.323 72.6975 111.926C72.6297 111.298 72.6498 110.664 72.7572 110.041C72.7572 110.041 72.8966 111.48 72.9962 112.026C73.0392 112.401 72.9949 112.782 72.8667 113.137L72.4785 112.77Z" fill="#FFF4AB"/>
<path d="M72.2397 113.137C72.3617 113.723 72.4415 114.317 72.4787 114.914C72.4787 115.698 72.3891 115.906 72.4787 117.147C72.5682 118.387 72.618 118.913 72.6977 119.628C72.7773 120.342 72.9963 122.704 72.9963 122.704C72.9963 122.704 73.2551 119.409 73.1954 118.735C73.1357 118.06 72.9764 117.266 72.9764 116.611C72.9764 115.956 73.2949 114.427 73.2053 114.13C73.1157 113.832 73.1157 113.137 73.0262 113.028C72.9366 112.919 72.4787 112.879 72.4787 112.879L72.2397 113.137Z" fill="#FFF4AB"/>
<path d="M63.7986 109.932C63.6462 110.15 63.5504 110.402 63.5198 110.666C63.4402 111.162 63.4701 111.658 63.3904 112.145C63.3108 112.631 62.7533 114.209 62.6737 114.646C62.5506 115.097 62.451 115.554 62.3751 116.015C62.3153 116.531 61.9869 117.841 62.3751 117.732C62.7633 117.623 62.8927 117.216 62.8927 116.392C62.9079 115.631 63.0457 114.877 63.3008 114.159C63.5033 113.482 63.6465 112.788 63.7289 112.085C63.8185 111.539 64.1768 110.339 64.2067 110.259C64.2366 110.18 63.7986 109.932 63.7986 109.932Z" fill="#FFF4AB"/>
<path d="M31.9242 67.4854C31.9242 67.4854 27.365 69.4702 27.2157 69.6389C27.1228 69.7882 27.0712 69.9595 27.0664 70.1351C27.0664 70.1351 27.8229 77.1318 27.813 77.0822C27.803 77.0325 27.6537 72.9437 27.6537 72.1796C27.6537 71.4154 27.1958 70.7306 27.7334 70.7405C28.2709 70.7505 28.0917 71.2665 29.3261 71.3658C30.15 71.4318 30.9556 71.6435 31.7052 71.991C32.6077 72.2666 33.492 72.598 34.3531 72.9834C35.0599 73.3407 37.001 73.9759 37.1404 74.0751C37.2797 74.1743 37.867 82.6596 37.867 82.5802C37.867 82.5008 37.5784 74.5614 37.867 74.2339C38.5012 73.8472 39.1672 73.5152 39.8579 73.2415C40.5747 72.8246 43.5311 71.336 43.5311 71.336C43.5311 71.336 38.8724 73.1323 38.3548 73.2415C37.8372 73.3506 37.8969 73.569 36.991 73.2415C36.0852 72.914 31.7152 71.2566 31.2274 71.0581C30.7396 70.8596 29.117 70.3535 28.8483 70.1351C28.5795 69.9168 28.1913 69.8275 28.241 69.6389C28.2908 69.4504 31.9242 67.4854 31.9242 67.4854Z" fill="white"/>
<path d="M33.1783 81.4786C33.1783 81.4786 32.9892 79.2258 33.1783 79.2457C33.5918 79.2175 33.9887 79.073 34.3231 78.8288C34.466 78.6085 34.5893 78.376 34.6914 78.1341C34.7536 77.847 34.787 77.5545 34.7909 77.2608C34.7596 76.8464 34.6481 76.442 34.4624 76.0699C34.2871 75.6929 34.0807 75.331 33.8452 74.9881C33.6959 74.8095 33.2579 74.4621 33.3276 74.4522C33.5735 74.4962 33.7938 74.6309 33.9448 74.8293C34.2299 75.0734 34.4605 75.3742 34.6217 75.7126C34.7915 76.065 34.9121 76.439 34.9801 76.8241C35.02 77.2698 35.02 77.7182 34.9801 78.1639C34.9801 78.5311 34.9801 78.9975 34.6217 79.1563C34.2623 79.3852 33.874 79.5655 33.467 79.6923C33.4072 79.6923 33.467 80.2579 33.3873 80.5457L33.1783 81.4786Z" fill="white"/>
<path d="M48.986 55.2884C48.986 55.2884 46.6268 55.5861 45.0938 55.7548C43.3427 56.0734 41.6111 56.4909 39.9075 57.0053C38.5338 57.3328 36.3637 57.6107 35.0199 58.0771C33.676 58.5435 32.0335 59.0199 30.8887 59.2978C29.744 59.5757 27.1658 60.4391 25.4934 60.8261C23.8211 61.2132 22.3577 61.8186 21.7007 61.9178C21.0444 62.066 20.4204 62.3316 19.8592 62.7018C19.7975 62.7945 19.7646 62.9032 19.7646 63.0144C19.7646 63.1256 19.7975 63.2344 19.8592 63.3271C19.9786 63.5454 20.7849 63.8134 20.7849 63.8134C20.7849 63.8134 20.3071 63.2774 20.4365 63.0293C20.5659 62.7812 20.8447 62.6224 21.8302 62.1858C22.8818 61.8365 23.9519 61.5449 25.0355 61.3124C26.0309 60.9849 28.6092 60.32 29.1567 60.2009C30.1348 60.0419 31.1022 59.8231 32.0534 59.5459C32.7104 59.2978 34.542 58.7321 35.2787 58.5535C36.0153 58.3748 39.8478 57.8488 40.3953 57.6503C40.9428 57.4519 42.4459 57.0251 43.1527 56.8366C43.8594 56.648 45.5617 56.1518 45.8304 56.0426C46.0992 55.9334 48.986 55.2884 48.986 55.2884Z" fill="#F0A41D"/>
<path d="M16.9229 73.6186C17.2256 74.395 17.3481 75.2296 17.2812 76.06C17.0707 76.662 17.0192 77.308 17.1319 77.9357C17.1319 78.6701 17.1319 79.2556 17.2215 79.6724C17.3111 80.0892 17.2215 80.516 17.2812 81.3C17.3409 82.084 17.4405 83.1459 17.5002 83.5826C17.5599 84.0193 17.5002 86.0537 17.5002 86.0537L17.9283 86.2721C17.9283 86.2721 18.1572 86.3614 18.0975 85.7858C17.9723 85.2121 17.9122 84.6262 17.9183 84.0391C18.0349 83.4911 18.0916 82.932 18.0875 82.3718C18.0875 81.7267 17.7292 80.2579 17.6794 79.6625C17.5655 78.7305 17.5057 77.7928 17.5002 76.8539C17.5699 76.4172 17.1916 75.5439 17.4206 75.1866C17.5627 74.8032 17.6071 74.3906 17.55 73.9858L16.9229 73.6186Z" fill="#FAC413"/>
<path opacity="0.2" d="M12.6919 71.3856L17.6194 73.956L19.2121 74.6606V75.3553L17.49 75.1568L12.9507 72.7849L12.6919 71.3856Z" fill="black"/>
<path d="M11.5273 91.1846C11.5273 91.1846 11.5273 89.428 11.5273 89.0807C11.5273 88.7333 11.8061 87.0958 11.826 86.7088C11.8459 86.3217 11.5473 85.7163 11.6767 85.2598C11.8061 84.8033 11.8758 84.585 12.1047 84.4758C12.3337 84.3666 13.9363 84.1483 13.9363 84.1483L13.7572 82.1634C13.7572 82.1634 14.1056 83.93 14.1653 84.049C14.5336 84.4286 14.9926 84.7086 15.4992 84.8628C16.2606 85.2297 16.987 85.6648 17.6693 86.1629C17.6693 86.1629 16.0467 85.3789 15.5987 85.2598C15.1508 85.1407 14.4141 84.704 14.225 84.6445C14.0359 84.585 13.6875 84.6445 13.3391 84.6445C13.0888 84.6344 12.8389 84.6714 12.6024 84.7537C12.6024 84.7537 13.7074 85.5972 14.0359 85.8156C14.3644 86.0339 15.32 86.937 15.32 86.937L16.1064 89.7258C16.2955 90.3808 16.2557 90.7182 16.4349 91.1945C16.6036 91.7959 16.7235 92.4099 16.7933 93.0305C16.7933 92.9611 16.1562 91.1052 15.9471 90.4601C15.7381 89.8151 15.7281 88.3264 15.6286 88.2569C15.4398 87.9664 15.2892 87.6529 15.1806 87.3241C15.1806 87.195 15.8376 87.5821 14.8123 86.9271C13.787 86.2721 13.5382 86.0339 13.0703 85.7064C12.813 85.5036 12.519 85.3519 12.2042 85.2598C12.0848 85.2598 12.0151 85.6469 12.1445 85.9545C12.2326 86.4304 12.2053 86.9204 12.0649 87.3836C11.9277 88.1243 11.8445 88.8739 11.816 89.6265C11.7538 90.1516 11.6573 90.672 11.5273 91.1846Z" fill="#FFF4AB"/>
<path d="M75.4951 95.9284C76.0725 95.5612 77.9539 95.0154 78.5711 94.1818C79.0968 93.2138 79.9154 92.4358 80.9104 91.9587C82.8048 91.3096 84.7587 90.8476 86.7437 90.5792C86.7437 90.5792 82.8316 91.7801 82.2642 92.6931C81.3547 93.7913 80.3075 94.7686 79.1484 95.6009C78.6905 95.8887 76.3512 96.7025 76.2616 96.7422C76.0996 96.7622 75.9358 96.7622 75.7738 96.7422L75.4951 95.9284Z" fill="#96520F"/>
<path d="M73.484 12.058L122.44 18.9058L105.766 64.8554L58.7315 52.2912C58.6319 52.2912 56.9297 49.572 56.9297 49.572C56.9297 49.572 64.7838 29.634 65.1322 27.3713C65.4806 25.1085 73.484 12.058 73.484 12.058Z" fill="#452A15"/>
<path d="M75.4948 25.7834L114.606 33.1572L114.098 34.5962L74.7383 27.2423L75.4948 25.7834Z" fill="#2D1A0E"/>
<path d="M73.4441 37.1666L109.788 44.5999L109.111 45.7015L72.3989 38.5957L73.4441 37.1666Z" fill="#2D1A0E"/>
<path d="M67.87 47.8154L105.727 55.5663L104.761 56.7671L67.6709 48.7979L67.87 47.8154Z" fill="#2D1A0E"/>
<path d="M121.445 54.2364C125.775 43.3197 127.238 30.944 125.078 16.7126C119.935 34.043 113.773 51.0563 106.623 67.664C111.421 72.0406 116.328 69.3809 121.445 54.2364Z" fill="#BC731F"/>
<path d="M123.277 29.9218C123.699 37.5932 122.477 45.2662 119.693 52.4302C116.567 60.1314 113.84 64.0714 111.61 63.2278C116.618 52.5476 120.527 41.3885 123.277 29.9218Z" fill="#2D1A0E"/>
<path d="M123.277 29.9218C122.779 32.0258 122.235 34.1396 121.644 36.2635C121.183 41.2744 120.027 46.1975 118.21 50.8919C116.219 55.854 114.367 59.1886 112.725 60.8162L111.61 63.2675C113.84 64.1111 116.587 60.1711 119.693 52.4699C122.483 45.2936 123.704 37.6064 123.277 29.9218Z" fill="#8E4D13"/>
<path d="M70.7364 8.73338C63.599 22.3396 58.2136 37.2559 53.9531 53.0256L107.299 67.6441C114.45 51.0402 120.613 34.0301 125.755 16.7026C107.449 11.9092 89.1223 8.62422 70.7364 8.73338ZM104.114 60.707L58.7313 49.6216C62.4642 37.7124 68.5365 22.1808 73.2051 13.2291C87.8482 13.2291 104.831 16.7026 119.095 20.1761C116.119 31.9166 109.28 49.3139 104.114 60.707Z" fill="url(#paint2_linear)"/>
<path d="M73.0461 41.8508C76.2216 32.1846 75.6045 18.1814 73.2353 13.1795L68.5666 28.4233L60.603 50.0285L66.9142 51.6065C68.8951 50.1178 71.5032 45.6519 73.0461 41.8508Z" fill="#603F29"/>
<path d="M73.8028 18.0821L73.2354 13.1795C85.7183 13.2787 103.865 15.9285 119.126 20.1265L117.812 24.8108C103.218 20.8411 85.6088 18.1119 73.8028 18.0821Z" fill="url(#paint3_linear)"/>
<path d="M62.2553 50.4255C65.6 39.2011 69.6814 25.8032 73.8026 18.0821L73.2351 13.1795C67.4933 24.9482 62.6451 37.1297 58.7314 49.6216L62.2553 50.4255Z" fill="#BC731F"/>
<path opacity="0.3" d="M62.2554 50.4254C66.3069 36.8291 70.2687 24.4734 73.8026 18.0821C87.1516 18.2409 101.327 20.722 115.9 24.2947C100.54 21.6251 86.1561 19.67 74.8379 19.7593C71.2244 25.6543 67.6905 37.7124 64.2562 50.9217L62.2554 50.4254Z" fill="black"/>
<path d="M58.7316 49.6216C58.7316 49.6216 58.1841 49.7903 58.7316 47.865C59.2791 45.9396 60.9813 40.8187 61.5189 39.1812C62.0564 37.5437 64.5052 32.4724 64.9134 31.3311C65.3215 30.1898 66.5558 27.1827 66.9043 26.3193C67.2527 25.4559 68.4372 21.903 68.8952 21.0296C69.3531 20.1563 70.5874 17.6454 70.9756 16.6629C71.3639 15.6804 72.5584 13.2886 72.7177 13.0108C72.877 12.7329 74.2507 12.5245 74.2507 12.5245C75.1602 13.0338 76.195 13.2779 77.237 13.2291C79.1683 13.1256 81.1046 13.162 83.0305 13.3383C84.1853 13.507 87.4105 14.033 88.8838 14.2712C90.357 14.5093 92.109 14.4895 94.3488 14.817C96.5886 15.1445 99.326 15.6308 99.9333 15.6903C100.54 15.7499 104.672 15.9583 105.428 16.5339C106.185 17.1095 108.235 17.05 109.41 17.3477C110.489 17.7499 111.593 18.0814 112.715 18.3401C114.029 18.5287 115.94 18.8264 116.189 18.9058C116.438 18.9852 119.116 19.8387 119.116 19.8387L118.976 20.1364C118.154 19.7402 117.26 19.5108 116.348 19.4616C114.754 19.4948 113.161 19.3483 111.6 19.0249C110.389 18.5289 109.136 18.1403 107.857 17.8638C106.909 17.7142 105.972 17.5054 105.05 17.2385C103.933 16.8666 102.788 16.5845 101.626 16.395C100.262 16.2262 98.898 16.3354 96.7677 15.9583C94.8883 15.6598 92.9943 15.461 91.0937 15.3628C90.1978 15.3033 86.5942 14.5391 85.121 14.2712C83.812 13.9639 82.4805 13.7615 81.1392 13.6658C80.1437 13.6658 77.6949 13.5566 76.8189 13.5566C75.9429 13.5566 74.3104 13.2886 74.0914 13.2886C73.8724 13.2886 73.8326 13.11 73.3448 13.4177C72.857 13.7253 72.8471 14.1521 72.6679 14.5391C72.4887 14.9262 72.3195 15.5315 72.2399 15.6705C72.0126 15.9549 71.825 16.2687 71.6824 16.6034L71.3141 17.5958C71.3141 17.5958 70.4879 19.0249 70.0797 19.8486C69.6716 20.6723 70.0797 20.6624 69.4227 21.6846C68.8265 22.6784 68.3233 23.7249 67.9196 24.8108C67.4795 25.8182 67.0941 26.8485 66.7649 27.8972C66.4593 28.816 66.0729 29.706 65.6102 30.557C65.1622 31.5494 64.6147 33.0083 64.3858 33.6633C64.1568 34.3183 63.9776 34.358 63.6491 35.4596C63.3206 36.5612 63.6491 36.2436 63.1912 37.6727C62.9655 38.6869 62.5933 39.663 62.0863 40.5706C61.6597 41.6681 61.3429 42.805 61.1406 43.9647C61.0411 44.6714 60.7898 45.3485 60.404 45.9496C59.8955 46.6299 59.5855 47.4369 59.5081 48.2818C59.4526 48.7526 59.332 49.2135 59.1497 49.6513L58.7316 49.6216Z" fill="#FFF4AB"/>
<path d="M89.0728 57.0152L93.4925 58.097C94.6753 58.4877 95.8868 58.7864 97.116 58.9901C98.2118 59.0238 99.3004 59.1802 100.361 59.4566C101.255 59.7993 102.183 60.0488 103.128 60.2009C103.746 60.2803 103.706 60.846 104.194 59.9131C104.681 58.9802 106.493 55.3281 106.911 54.3356C107.329 53.3432 109.041 49.2147 109.041 49.2147C108.767 50.4238 108.394 51.6087 107.927 52.7577C107.319 54.1074 107.031 55.4273 106.334 56.7274C105.637 58.0275 104.9 60.2406 104.612 60.6971C104.323 61.1536 104.114 60.8063 103.128 60.6971C102.143 60.588 100.013 59.9429 97.9621 59.5757C95.9115 59.2085 92.4274 58.3848 91.9894 58.226C91.5514 58.0672 89.0728 57.0152 89.0728 57.0152Z" fill="#FFF4AB"/>
<path d="M125.755 16.7026C125.865 16.916 125.923 17.1525 125.923 17.3924C125.923 17.6323 125.865 17.8687 125.755 18.0821C125.417 19.0051 124.76 19.8983 124.61 20.464C124.451 21.801 124.209 23.1269 123.884 24.4337C123.306 26.2399 121.893 30.0806 121.504 31.7181C121.116 33.3556 119.165 37.9704 118.877 38.9133C118.588 39.8561 117.194 43.4487 116.886 44.3022C116.577 45.1557 113.571 53.1348 113.322 53.9089C113.073 54.683 112.954 56.2808 112.257 57.2236C111.56 58.1664 110.744 61.3521 110.047 62.5828C109.35 63.8134 107.747 67.2968 107.668 67.6144C107.588 67.932 107.299 68.2297 106.961 67.932C106.623 67.6342 106.961 67.3663 107.09 66.6616C107.549 65.0829 108.124 63.5404 108.813 62.0468C109.509 60.4887 111.042 57.7992 111.59 56.2411C112.137 54.683 112.585 53.502 113.073 51.9538C113.612 50.3747 114.278 48.8414 115.064 47.3688C115.512 46.5153 117.692 41.6524 117.931 39.8064C118.317 38.1692 118.912 36.5882 119.703 35.1023C119.981 34.3679 122.689 26.3193 122.898 25.4956C123.244 24.5307 123.491 23.5331 123.635 22.5183C123.977 21.2252 124.402 19.9555 124.909 18.7173C125.122 18.0189 125.405 17.3439 125.755 16.7026Z" fill="#F0A41D"/>
<path d="M18.1968 87.0958C28.7684 94.3306 45.7906 101.873 65.6299 109.555L66.5557 108.185C47.5526 101.317 31.2173 94.1619 19.6501 86.5103L18.1968 87.0958Z" fill="#FAC413"/>
<path d="M19.1825 94.1818L18.187 87.0958C31.6156 95.3925 48.15 102.22 65.3016 109.426L63.7985 115.549C46.1591 108.929 30.2419 101.992 19.1825 94.1818Z" fill="url(#paint4_linear)"/>
<path d="M65.9785 91.0159L66.745 114.02L72.9765 116.64L72.1105 90.5891L65.9785 91.0159Z" fill="#F0A41D"/>
<path d="M66.5557 108.185L63.7983 109.932L72.8669 113.147L72.7574 110.041L66.5557 108.185Z" fill="#FAC413"/>
<path d="M63.7985 109.932L62.375 117.732L72.9964 122.853L72.867 113.147L63.7985 109.932Z" fill="#F0B71D"/>
<path d="M64.2263 109.664L65.6996 110.16C66.1502 110.26 66.5809 110.434 66.9738 110.676C67.386 110.94 67.8518 111.109 68.3376 111.172C69.0841 111.361 68.9149 111.331 69.9303 111.658C70.8922 111.9 71.8288 112.232 72.7275 112.651C72.8164 112.787 72.8678 112.945 72.8768 113.107C72.8768 113.107 72.8768 113.296 72.2497 113.107C71.6225 112.919 71.0253 112.651 70.0896 112.373C69.1538 112.095 69.0941 112.046 67.8996 111.748C66.922 111.521 65.9635 111.219 65.0327 110.845C64.5794 110.697 64.1476 110.49 63.7485 110.229C63.7485 110.15 63.8083 109.892 63.8083 109.892L64.2263 109.664Z" fill="#FFF4AB"/>
<path d="M100.968 99.8486L102.173 91.7503L78.0034 108.9L80.3726 113.663C87.8445 110.028 94.7756 105.379 100.968 99.8486Z" fill="#BC731F"/>
<path d="M75.9824 108.175C86.9324 102.34 95.543 96.8018 100.689 91.7404L102.332 91.522C96.8172 97.4766 88.8934 103.312 78.0032 108.89L75.9824 108.175Z" fill="#C48802"/>
<path d="M35.7666 52.0233C35.6571 52.0927 29.1369 51.2988 29.1369 51.2988L25.3642 52.9661L22.1887 55.9434L20.0684 62.2453L23.3334 65.5005L34.6318 67.9915L37.2498 57.3526L35.7666 52.0233Z" fill="#490A00"/>
<path d="M31.745 54.7524V51.6362L29.2563 51.3186L25.5931 53.0058L22.4674 55.8044L21.6909 58.1168L24.1895 59.5459L26.9369 58.9405L30.0925 56.8564L31.745 54.7524Z" fill="#FF3333"/>
<path d="M35.2889 56.1022L35.7269 52.0134L31.7451 51.6362V54.7525L35.2889 56.1022Z" fill="#FF7E71"/>
<path d="M30.1623 56.8564L33.069 59.3474L28.1216 62.6224L26.937 58.9405L30.1623 56.8564Z" fill="#E31400"/>
<path d="M24.1893 59.5459L23.9803 63.1385L20.3867 61.9575L21.6908 58.1168L24.1893 59.5459Z" fill="#9D0D00"/>
<path d="M33.0688 59.3474L35.2887 56.1021L31.7449 54.7524L30.1621 56.8564L33.0688 59.3474Z" fill="#FF4943"/>
<path d="M28.1215 62.6224L23.9805 63.1385L24.1895 59.5459L26.937 58.9405L28.1215 62.6224Z" fill="#FF0A02"/>
<path d="M33.069 59.3474L34.602 67.535L28.1216 62.6224L33.069 59.3474Z" fill="#C71A00"/>
<path d="M35.2887 56.1022L34.6018 67.535L33.0688 59.3474L35.2887 56.1022Z" fill="#FF281B"/>
<path d="M23.9805 63.1385L34.6019 67.535L28.1215 62.6224L23.9805 63.1385Z" fill="#AA0F00"/>
<path d="M23.5722 65.1333L23.9803 63.1385L20.3867 61.9575L23.5722 65.1333Z" fill="#6C0900"/>
<path d="M37.17 57.1641L35.2886 56.1022L35.7266 52.0133L37.17 57.1641Z" fill="#FF6B67"/>
<path d="M23.9804 63.1385L23.5723 65.1333L34.6018 67.535L23.9804 63.1385Z" fill="#7F0B00"/>
<path d="M35.2889 56.1022L34.6021 67.535L37.1703 57.1641L35.2889 56.1022Z" fill="#FF564B"/>
<path d="M31.745 51.6362L31.5757 54.5242L30.0129 56.6579L26.9469 58.742L24.2194 59.3772L21.6909 58.1168L24.08 59.6253L26.9768 59.0497L30.2617 56.9954L33.0689 59.3474L30.2617 56.7274L31.8445 54.8815L35.2888 56.1022L32.0237 54.5441L31.745 51.6362Z" fill="white"/>
<path d="M32.0835 51.666L35.7268 52.0133L36.8517 56.0426L35.7866 52.6286L35.3983 55.1494L35.4183 52.2317L32.0835 51.666Z" fill="white"/>
<path d="M27.0665 59.3474L28.3009 62.3843L30.899 60.7864L28.4601 62.6026L33.7858 66.9197L28.052 62.8209L25.1055 62.9996L27.7235 62.4438L27.0665 59.3474Z" fill="#430700"/>
<path d="M24.2294 59.8238L24.1398 62.9003L30.4012 65.7982L24.1299 63.337L23.5724 65.1333L23.7616 63.2973L20.5264 61.9972L23.7715 62.8507L24.2294 59.8238Z" fill="#430700"/>
<path d="M102.631 63.337C102.501 63.337 98.649 57.9977 98.649 57.9977L94.8663 56.38L90.5859 56.0426L84.5236 58.7817L84.3345 63.3866L90.1877 73.3109L99.7938 67.9915L102.631 63.337Z" fill="#490A00"/>
<path d="M97.8926 62.2552L100.182 60.1314L98.7188 58.097L94.9859 56.5785L90.805 56.1915L88.5752 57.1839L89.2222 59.9925L91.5416 61.5903L95.2148 62.4736L97.8926 62.2552Z" fill="#FF3333"/>
<path d="M99.3061 65.7684L102.611 63.3072L100.182 60.1314L97.8926 62.2552L99.3061 65.7684Z" fill="#FF7E71"/>
<path d="M95.2646 62.5331L95.404 66.354L89.6304 64.9646L91.5416 61.5903L95.2646 62.5331Z" fill="#E31400"/>
<path d="M89.2222 59.9925L86.4449 62.2751L84.8721 58.8512L88.5751 57.1839L89.2222 59.9925Z" fill="#9D0D00"/>
<path d="M95.404 66.354L99.3062 65.7684L97.8926 62.2552L95.2646 62.5331L95.404 66.354Z" fill="#FF4943"/>
<path d="M89.6303 64.9646L86.4448 62.2751L89.2221 59.9925L91.5415 61.5903L89.6303 64.9646Z" fill="#FF0A02"/>
<path d="M95.404 66.354L90.4267 73.033L89.6304 64.9646L95.404 66.354Z" fill="#C71A00"/>
<path d="M99.3062 65.7684L90.4268 73.033L95.404 66.354L99.3062 65.7684Z" fill="#FF281B"/>
<path d="M86.4448 62.2751L90.4266 73.033L89.6303 64.9646L86.4448 62.2751Z" fill="#AA0F00"/>
<path d="M84.7026 63.337L86.4447 62.2751L84.8719 58.8512L84.7026 63.337Z" fill="#6C0900"/>
<path d="M99.8039 67.8625L99.3062 65.7684L102.611 63.3072L99.8039 67.8625Z" fill="#FF6B67"/>
<path d="M86.4447 62.2751L84.7026 63.337L90.4265 73.033L86.4447 62.2751Z" fill="#7F0B00"/>
<path d="M99.3062 65.7684L90.4268 73.033L99.8039 67.8625L99.3062 65.7684Z" fill="#FF564B"/>
<path d="M100.182 60.1314L97.9424 61.9773L95.3144 62.2949L91.6909 61.4613L89.3716 59.8932L88.5752 57.1839L89.0928 59.9627L91.4919 61.6895L95.2347 62.7018L95.404 66.354L95.4239 62.5133L97.8627 62.4239L99.3061 65.7684L98.241 62.3247L100.182 60.1314Z" fill="white"/>
<path d="M100.391 60.4093L102.611 63.3072L100.411 66.87L102.203 63.7737L100.073 65.1928L102.243 63.2377L100.391 60.4093Z" fill="white"/>
<path d="M91.3326 61.9575L89.9291 64.9249L92.8756 65.7387L89.8793 65.1829L90.3272 72.0307L89.4513 65.044L87.311 63.0095L89.501 64.5477L91.3326 61.9575Z" fill="#430700"/>
<path d="M89.0527 60.2108L86.7234 62.2354L88.8537 68.7755L86.3949 62.5232L84.7026 63.337L86.1759 62.2255L84.9316 58.9802L86.5044 61.9377L89.0527 60.2108Z" fill="#430700"/>
<path d="M56.1733 50.3659C56.0538 50.3659 49.9318 48.0238 49.9318 48.0238L45.8604 48.7185L42.0578 50.7629L38.4443 56.3503L40.8036 60.32L51.1264 65.5005L56.3027 55.8441L56.1733 50.3659Z" fill="#490A00"/>
<path d="M51.6041 52.0133L52.3706 48.9964L50.0412 48.0734L46.0793 48.8078L42.3464 50.753L41.0225 52.7974L43.093 54.7922L45.9101 54.8914L49.4738 53.6509L51.6041 52.0133Z" fill="#FF3333"/>
<path d="M54.7098 54.2066L56.1432 50.346L52.3705 48.9963L51.604 52.0133L54.7098 54.2066Z" fill="#FF7E71"/>
<path d="M49.5535 53.6707L51.7534 56.8068L46.1391 58.752L45.9102 54.8914L49.5535 53.6707Z" fill="#E31400"/>
<path d="M43.0929 54.7921L41.9979 58.226L38.8125 56.1915L41.0224 52.7974L43.0929 54.7921Z" fill="#9D0D00"/>
<path d="M51.7537 56.8068L54.7101 54.2066L51.6043 52.0133L49.5537 53.6707L51.7537 56.8068Z" fill="#FF4943"/>
<path d="M46.1391 58.7519L41.998 58.226L43.093 54.7921L45.9102 54.8914L46.1391 58.7519Z" fill="#FF0A02"/>
<path d="M51.7535 56.8068L51.196 65.1134L46.1392 58.752L51.7535 56.8068Z" fill="#C71A00"/>
<path d="M54.7097 54.2066L51.1958 65.1134L51.7533 56.8068L54.7097 54.2066Z" fill="#FF281B"/>
<path d="M41.998 58.226L51.196 65.1134L46.1391 58.752L41.998 58.226Z" fill="#AA0F00"/>
<path d="M41.112 60.052L41.9979 58.226L38.8125 56.1915L41.112 60.052Z" fill="#6C0900"/>
<path d="M56.2629 55.6953L54.71 54.2066L56.1434 50.3461L56.2629 55.6953Z" fill="#FF6B67"/>
<path d="M41.9983 58.226L41.1123 60.052L51.1962 65.1134L41.9983 58.226Z" fill="#7F0B00"/>
<path d="M54.7097 54.2066L51.1958 65.1134L56.2626 55.6953L54.7097 54.2066Z" fill="#FF564B"/>
<path d="M52.3706 48.9963L51.4946 51.7553L49.4539 53.4424L45.9599 54.7028L43.1627 54.6333L41.0225 52.7974L42.9735 54.8418L45.9201 55.0005L49.6132 53.8196L51.7534 56.8068L49.6729 53.5714L51.6738 52.1721L54.7099 54.2066L51.9326 51.8843L52.3706 48.9963Z" fill="white"/>
<path d="M52.6992 49.1154L56.1435 50.3461L56.2331 54.5341L56.0539 50.9614L55.0385 53.3035L55.7951 50.485L52.6992 49.1154Z" fill="white"/>
<path d="M45.9402 55.3082L46.3682 58.5634L49.2849 57.6603L46.4678 58.8115L50.5591 64.3195L46.0298 58.9207L43.123 58.3649L45.8008 58.4741L45.9402 55.3082Z" fill="#430700"/>
<path d="M43.0632 55.08L42.2072 58.0374L47.5527 62.3843L42.0977 58.4542L41.1122 60.052L41.7492 58.3252L38.9321 56.2709L41.8687 57.8985L43.0632 55.08Z" fill="#430700"/>
<path d="M71.4435 46.287C71.2742 46.287 63.3306 42.3173 63.3306 42.3173L57.7361 42.744L52.3308 44.9572L46.7065 51.9042L49.3544 57.4717L62.5939 65.7288L70.8761 53.5913L71.4435 46.287Z" fill="#490A00"/>
<path d="M65.0527 47.8749L66.4961 43.9746L63.4799 42.4463L58.0248 42.9028L52.729 44.977L50.6685 47.5077L53.1869 50.4453L56.9796 50.9415L61.9569 49.7605L65.0527 47.8749Z" fill="#FF3333"/>
<path d="M68.9449 51.1896L71.4037 46.2572L66.4961 43.9746L65.0527 47.8749L68.9449 51.1896Z" fill="#FF7E71"/>
<path d="M62.0563 49.8002L64.6047 54.2463L56.7705 56.0922L56.9796 50.9415L62.0563 49.8002Z" fill="#E31400"/>
<path d="M53.1869 50.4453L51.2457 54.8418L47.2241 51.7355L50.6684 47.5077L53.1869 50.4453Z" fill="#9D0D00"/>
<path d="M64.6045 54.2463L68.9447 51.1896L65.0525 47.8749L62.0562 49.8002L64.6045 54.2463Z" fill="#FF4943"/>
<path d="M56.7703 56.0922L51.2456 54.8418L53.1867 50.4453L56.9794 50.9415L56.7703 56.0922Z" fill="#FF0A02"/>
<path d="M64.6047 54.2463L62.7333 65.1829L56.7705 56.0922L64.6047 54.2463Z" fill="#C71A00"/>
<path d="M68.945 51.1896L62.7334 65.1829L64.6048 54.2463L68.945 51.1896Z" fill="#FF281B"/>
<path d="M51.2456 54.8418L62.7331 65.1829L56.7703 56.0922L51.2456 54.8418Z" fill="#AA0F00"/>
<path d="M49.8023 57.1541L51.2457 54.8418L47.2241 51.7355L49.8023 57.1541Z" fill="#6C0900"/>
<path d="M70.8362 53.363L68.9448 51.1896L71.4036 46.2572L70.8362 53.363Z" fill="#FF6B67"/>
<path d="M51.2456 54.8418L49.8022 57.1541L62.7331 65.1829L51.2456 54.8418Z" fill="#7F0B00"/>
<path d="M68.945 51.1896L62.7334 65.1829L70.8364 53.3631L68.945 51.1896Z" fill="#FF564B"/>
<path d="M66.4961 43.9746L64.9432 47.5176L61.9569 49.4826L57.0791 50.6934L53.3064 50.2369L50.6685 47.5077L53.0177 50.4949L56.9696 51.0904L62.1261 50.0086L64.6047 54.2463L62.2356 49.6811L65.1224 48.0932L68.9449 51.1896L65.5106 47.7459L66.4961 43.9746Z" fill="white"/>
<path d="M66.9238 44.1731L71.4034 46.2572L70.9654 51.8248L71.1943 47.0611L69.512 50.0384L70.9056 46.4061L66.9238 44.1731Z" fill="white"/>
<path d="M56.9598 51.4973L57.1091 55.8739L61.1606 55.0502L57.2086 56.2014L61.9868 64.0416L56.5915 56.3007L52.749 55.1792L56.3426 55.6754L56.9598 51.4973Z" fill="#430700"/>
<path d="M53.1173 50.8125L51.5544 54.6234L58.1941 61.0941L51.3454 55.1693L49.8024 57.1541L50.8875 54.941L47.3735 51.8446L51.1164 54.3952L53.1173 50.8125Z" fill="#430700"/>
<path d="M42.9538 58.0771C42.8741 58.0771 38.2652 57.561 38.2652 57.561L35.5974 58.742L33.3576 60.8063L31.8545 65.2623L34.1639 67.5647L42.1275 69.3213L43.9791 61.8086L42.9538 58.0771Z" fill="#490A00"/>
<path d="M40.1065 60.0024V57.7992L38.3446 57.5809L35.7564 58.7718L33.5465 60.7467L32.999 62.3743L34.7709 63.3866L36.712 62.9599L38.9419 61.4911L40.1065 60.0024Z" fill="#FF3333"/>
<path d="M42.615 60.9651L42.9236 58.0672L40.1064 57.7992V60.0024L42.615 60.9651Z" fill="#FF7E71"/>
<path d="M38.992 61.4911L41.0526 63.2576L37.5486 65.57L36.7124 62.9599L38.992 61.4911Z" fill="#E31400"/>
<path d="M34.7712 63.3866L34.6219 65.9272L32.0835 65.0936L32.9993 62.3743L34.7712 63.3866Z" fill="#9D0D00"/>
<path d="M41.0523 63.2576L42.6151 60.9651L40.1066 60.0024L38.9917 61.4911L41.0523 63.2576Z" fill="#FF4943"/>
<path d="M37.5482 65.57L34.6216 65.9272L34.7709 63.3866L36.712 62.9599L37.5482 65.57Z" fill="#FF0A02"/>
<path d="M41.0523 63.2576L42.1274 69.0335L37.5483 65.57L41.0523 63.2576Z" fill="#C71A00"/>
<path d="M42.6151 60.9651L42.1273 69.0335L41.0522 63.2576L42.6151 60.9651Z" fill="#FF281B"/>
<path d="M34.6216 65.9272L42.1273 69.0335L37.5482 65.5699L34.6216 65.9272Z" fill="#AA0F00"/>
<path d="M34.3332 67.3365L34.6219 65.9272L32.0835 65.0936L34.3332 67.3365Z" fill="#6C0900"/>
<path d="M43.9392 61.7094L42.6152 60.9651L42.9238 58.0672L43.9392 61.7094Z" fill="#FF6B67"/>
<path d="M34.6217 65.9272L34.333 67.3365L42.1274 69.0335L34.6217 65.9272Z" fill="#7F0B00"/>
<path d="M42.6152 60.9651L42.1274 69.0335L43.9392 61.7094L42.6152 60.9651Z" fill="#FF564B"/>
<path d="M40.1065 57.7992L39.9871 59.8436L38.8921 61.3521L36.712 62.8209L34.7908 63.2675L32.999 62.3743L34.6913 63.4462L36.7419 63.0393L39.0613 61.5903L41.0522 63.2576L39.0613 61.4017L40.1862 60.1017L42.6151 60.9651L40.3056 59.8536L40.1065 57.7992Z" fill="white"/>
<path d="M40.3457 57.829L42.9239 58.0672L43.7203 60.9155L42.9637 58.5038L42.685 60.2902L42.7049 58.226L40.3457 57.829Z" fill="white"/>
<path d="M36.8016 63.2477L37.6776 65.4012L39.5093 64.2699L37.7871 65.5501L41.5499 68.6068L37.4985 65.699L35.418 65.828L37.2695 65.4409L36.8016 63.2477Z" fill="#430700"/>
<path d="M34.8011 63.595L34.7315 65.7684L39.1612 67.8129L34.7315 66.0761L34.3333 67.3365L34.4627 66.0463L32.1831 65.1234L34.4726 65.7287L34.8011 63.595Z" fill="#430700"/>
<path d="M51.4749 56.2113C51.5844 56.2907 58.1146 55.4868 58.1146 55.4868L61.8774 57.1641L65.0628 60.0917L67.1732 66.3837L63.9081 69.6489L52.6097 72.1399L49.9917 61.5308L51.4749 56.2113Z" fill="#490A00"/>
<path d="M55.4961 58.9405L55.506 55.8342L57.9847 55.5166L61.648 57.2038L64.7836 60.0024L65.5601 62.3049L63.0516 63.734L60.3041 63.1385L57.1485 61.0544L55.4961 58.9405Z" fill="#FF3333"/>
<path d="M51.9526 60.3001L51.5146 56.2014L55.5064 55.8342L55.4964 58.9405L51.9526 60.3001Z" fill="#FF7E71"/>
<path d="M57.0791 61.0544L54.1724 63.5454L59.1197 66.8204L60.3043 63.1385L57.0791 61.0544Z" fill="#E31400"/>
<path d="M63.0518 63.734L63.2608 67.3266L66.8544 66.1456L65.5603 62.3049L63.0518 63.734Z" fill="#9D0D00"/>
<path d="M54.1725 63.5454L51.9526 60.3002L55.4964 58.9405L57.0792 61.0544L54.1725 63.5454Z" fill="#FF4943"/>
<path d="M59.1196 66.8204L63.2607 67.3266L63.0517 63.734L60.3042 63.1385L59.1196 66.8204Z" fill="#FF0A02"/>
<path d="M54.1724 63.5454L52.6494 71.733L59.1198 66.8204L54.1724 63.5454Z" fill="#C71A00"/>
<path d="M51.9526 60.3001L52.6495 71.7329L54.1725 63.5454L51.9526 60.3001Z" fill="#FF281B"/>
<path d="M63.2609 67.3266L52.6494 71.733L59.1198 66.8204L63.2609 67.3266Z" fill="#AA0F00"/>
<path d="M63.6689 69.3214L63.2607 67.3266L66.8543 66.1456L63.6689 69.3214Z" fill="#6C0900"/>
<path d="M50.0713 61.362L51.9527 60.3001L51.5147 56.2014L50.0713 61.362Z" fill="#FF6B67"/>
<path d="M63.2609 67.3266L63.669 69.3214L52.6494 71.733L63.2609 67.3266Z" fill="#7F0B00"/>
<path d="M51.9527 60.3001L52.6495 71.7329L50.0713 61.362L51.9527 60.3001Z" fill="#FF564B"/>
<path d="M55.5064 55.8342L55.6657 58.7222L57.2285 60.8559L60.2945 62.94L63.022 63.5653L65.5604 62.3049L63.1614 63.8134L60.2646 63.2477L56.9797 61.1834L54.1725 63.5454L56.9797 60.9254L55.3969 59.0795L51.9526 60.3001L55.2177 58.7321L55.5064 55.8342Z" fill="white"/>
<path d="M55.1579 55.864L51.5145 56.2014L50.3896 60.2406L51.4548 56.8266L51.853 59.3474L51.8231 56.4297L55.1579 55.864Z" fill="white"/>
<path d="M60.1749 63.5355L58.9405 66.5822L56.3424 64.9844L58.7812 66.7906L53.4556 71.1176L59.1894 67.009L62.1359 67.1876L59.5179 66.6418L60.1749 63.5355Z" fill="#430700"/>
<path d="M63.0121 64.0218L63.1117 67.0983L56.8403 69.9863L63.1117 67.535L63.6691 69.3213L63.48 67.4953L66.7152 66.1952L63.47 67.0487L63.0121 64.0218Z" fill="#430700"/>
<path d="M79.8647 50.1774C79.7552 50.2468 73.235 49.4529 73.235 49.4529L69.4623 51.1202L66.2868 54.0975L64.1665 60.3994L67.4316 63.6546L78.7299 66.096L81.348 55.4571L79.8647 50.1774Z" fill="#490A00"/>
<path d="M75.8433 52.9065V49.7903L73.3547 49.4727L69.6914 51.1599L66.5557 53.9585L65.7793 56.2709L68.2878 57.7L71.0353 57.0946L74.1908 55.0105L75.8433 52.9065Z" fill="#FF3333"/>
<path d="M79.3871 54.2562L79.8251 50.1674L75.8433 49.7903V52.9065L79.3871 54.2562Z" fill="#FF7E71"/>
<path d="M74.2604 55.0105L77.1671 57.5015L72.2197 60.7765L71.0352 57.0946L74.2604 55.0105Z" fill="#E31400"/>
<path d="M68.288 57.7L68.0789 61.2926L64.4854 60.1017L65.7794 56.2709L68.288 57.7Z" fill="#9D0D00"/>
<path d="M77.1675 57.5015L79.3873 54.2562L75.8435 52.9065L74.2607 55.0105L77.1675 57.5015Z" fill="#FF4943"/>
<path d="M72.2197 60.7765L68.0786 61.2926L68.2877 57.7L71.0351 57.0946L72.2197 60.7765Z" fill="#FF0A02"/>
<path d="M77.1671 57.5015L78.7001 65.6891L72.2197 60.7765L77.1671 57.5015Z" fill="#C71A00"/>
<path d="M79.3868 54.2562L78.7 65.689L77.167 57.5015L79.3868 54.2562Z" fill="#FF281B"/>
<path d="M68.0786 61.2926L78.7001 65.6891L72.2197 60.7765L68.0786 61.2926Z" fill="#AA0F00"/>
<path d="M67.6708 63.2874L68.0789 61.2926L64.4854 60.1017L67.6708 63.2874Z" fill="#6C0900"/>
<path d="M81.2686 55.3181L79.3872 54.2562L79.8252 50.1674L81.2686 55.3181Z" fill="#FF6B67"/>
<path d="M68.079 61.2926L67.6709 63.2874L78.7005 65.689L68.079 61.2926Z" fill="#7F0B00"/>
<path d="M79.3871 54.2562L78.7002 65.689L81.2685 55.3181L79.3871 54.2562Z" fill="#FF564B"/>
<path d="M75.8433 49.7903L75.6741 52.6783L74.1112 54.812L71.0452 56.8961L68.3177 57.5313L65.7793 56.2709L68.1783 57.7794L71.0751 57.2037L74.3601 55.1395L77.1672 57.5015L74.3601 54.8815L75.9428 53.0355L79.3871 54.2562L76.122 52.6882L75.8433 49.7903Z" fill="white"/>
<path d="M76.1816 49.8201L79.825 50.1674L80.9498 54.1967L79.8847 50.7827L79.4965 53.3035L79.5164 50.3858L76.1816 49.8201Z" fill="white"/>
<path d="M71.1646 57.5015L72.399 60.5383L74.9971 58.9405L72.5583 60.7567L77.8839 65.0738L72.1502 60.975L69.2036 61.1536L71.8217 60.5979L71.1646 57.5015Z" fill="#430700"/>
<path d="M68.3276 57.9778L68.238 61.0544L74.4994 63.9523L68.228 61.4911L67.6706 63.2874L67.8597 61.4514L64.6245 60.1513L67.8697 61.0048L68.3276 57.9778Z" fill="#430700"/>
<path d="M56.1832 59.9826C56.0538 59.9826 50.0611 57.3328 50.0611 57.3328L45.9599 57.8191L42.0577 59.6749L38.1655 65.0737L40.3257 69.1526L50.3797 74.8591L56.0338 65.5005L56.1832 59.9826Z" fill="#490A00"/>
<path d="M51.5343 61.4017L52.4502 58.4244L50.1706 57.3923L46.1689 57.9282L42.3463 59.6749L40.9229 61.6498L42.8839 63.7538L45.701 63.992L49.3244 62.9301L51.5343 61.4017Z" fill="#FF3333"/>
<path d="M54.5205 63.7439L56.1431 59.9627L52.45 58.4245L51.5342 61.4017L54.5205 63.7439Z" fill="#FF7E71"/>
<path d="M49.3943 62.9499L51.435 66.1952L45.731 67.8625L45.7012 63.992L49.3943 62.9499Z" fill="#E31400"/>
<path d="M42.8841 63.7538L41.6199 67.1181L38.5439 64.9348L40.9231 61.6498L42.8841 63.7538Z" fill="#9D0D00"/>
<path d="M51.4347 66.1952L54.5206 63.7439L51.5343 61.4017L49.394 62.9499L51.4347 66.1952Z" fill="#FF4943"/>
<path d="M45.7308 67.8625L41.6196 67.1181L42.8839 63.7538L45.701 63.992L45.7308 67.8625Z" fill="#FF0A02"/>
<path d="M51.4349 66.1952L50.4593 74.4622L45.731 67.8625L51.4349 66.1952Z" fill="#C71A00"/>
<path d="M54.5209 63.7439L50.4595 74.4622L51.435 66.1952L54.5209 63.7439Z" fill="#FF281B"/>
<path d="M41.6196 67.1181L50.4592 74.4621L45.7308 67.8625L41.6196 67.1181Z" fill="#AA0F00"/>
<path d="M40.6443 68.9045L41.6199 67.1181L38.5439 64.9348L40.6443 68.9045Z" fill="#6C0900"/>
<path d="M55.9943 65.3119L54.521 63.7439L56.1436 59.9627L55.9943 65.3119Z" fill="#FF6B67"/>
<path d="M41.6196 67.1181L40.644 68.9045L50.4592 74.4621L41.6196 67.1181Z" fill="#7F0B00"/>
<path d="M54.5209 63.7439L50.4595 74.4622L55.9942 65.3119L54.5209 63.7439Z" fill="#FF564B"/>
<path d="M52.4502 58.4245L51.4348 61.1338L49.3145 62.7217L45.7607 63.8034L42.9635 63.595L40.9229 61.6499L42.7644 63.7935L45.701 64.1012L49.4539 63.1087L51.4348 66.1952L49.5235 62.8606L51.5841 61.5605L54.5207 63.7439L51.8628 61.2827L52.4502 58.4245Z" fill="white"/>
<path d="M52.7686 58.5634L56.1431 59.9627L56.0237 64.1508V60.5681L54.8988 62.8606L55.7848 60.0917L52.7686 58.5634Z" fill="white"/>
<path d="M45.7013 64.4088L45.9701 67.6838L48.9266 66.9197L46.0597 67.9319L49.8722 73.6285L45.6117 68.0213L42.7349 67.3266L45.4027 67.5647L45.7013 64.4088Z" fill="#430700"/>
<path d="M42.844 64.0416L41.8386 66.9494L46.9651 71.5543L41.7092 67.3663L40.644 68.9045L41.3608 67.2174L38.6631 65.0142L41.5101 66.7907L42.844 64.0416Z" fill="#430700"/>
<path d="M59.6475 63.0492C59.757 63.0492 63.3704 58.5832 63.3704 58.5832L66.755 57.3526L70.5377 57.2633L75.6543 59.9528L75.5946 63.9225L70.0001 72.3185L61.8872 67.2174L59.6475 63.0492Z" fill="#490A00"/>
<path d="M63.8284 62.3346L61.937 60.3696L63.3107 58.6626L66.6355 57.5114L70.3087 57.3824L72.2001 58.3649L71.5033 60.7765L69.4029 62.0567L66.1577 62.6522L63.8284 62.3346Z" fill="#FF3333"/>
<path d="M62.4249 65.3318L59.6675 63.0194L61.9371 60.3696L63.8285 62.3346L62.4249 65.3318Z" fill="#FF7E71"/>
<path d="M66.1079 62.7018L65.7993 66.0265L70.896 65.0936L69.4028 62.0567L66.1079 62.7018Z" fill="#E31400"/>
<path d="M71.5029 60.7765L73.8124 62.9003L75.3454 59.9925L72.1997 58.3649L71.5029 60.7765Z" fill="#9D0D00"/>
<path d="M65.7994 66.0265L62.4248 65.3318L63.8284 62.3346L66.108 62.7018L65.7994 66.0265Z" fill="#FF4943"/>
<path d="M70.896 65.0936L73.8127 62.9003L71.5032 60.7765L69.4028 62.0568L70.896 65.0936Z" fill="#FF0A02"/>
<path d="M65.7993 66.0265L69.8209 72.0902L70.896 65.0936L65.7993 66.0265Z" fill="#C71A00"/>
<path d="M62.4248 65.3318L69.821 72.0902L65.7994 66.0265L62.4248 65.3318Z" fill="#FF281B"/>
<path d="M73.8126 62.9003L69.8208 72.0902L70.8959 65.0936L73.8126 62.9003Z" fill="#AA0F00"/>
<path d="M75.2858 63.9126L73.8125 62.9003L75.3455 59.9925L75.2858 63.9126Z" fill="#6C0900"/>
<path d="M61.8873 67.1281L62.4249 65.3318L59.6675 63.0194L61.8873 67.1281Z" fill="#FF6B67"/>
<path d="M73.8126 62.9003L75.2858 63.9126L69.8208 72.0902L73.8126 62.9003Z" fill="#7F0B00"/>
<path d="M62.4248 65.3318L69.8209 72.0902L61.8872 67.1281L62.4248 65.3318Z" fill="#FF564B"/>
<path d="M61.937 60.3696L63.7985 62.0865L66.0781 62.4835L69.2735 61.9376L71.3739 60.6872L72.2001 58.3649L71.6128 60.7567L69.4427 62.1461L66.1279 62.8408L65.7994 66.0265L65.9686 62.682L63.8483 62.4835L62.4248 65.3318L63.5297 62.3743L61.937 60.3696Z" fill="white"/>
<path d="M61.738 60.5979L59.6675 63.0194L61.4095 66.2349L59.996 63.4461L61.7778 64.7859L59.996 62.9797L61.738 60.5979Z" fill="white"/>
<path d="M69.5621 62.3942L70.6471 65.044L68.0391 65.6097L70.677 65.2722L69.9503 71.2169L71.0553 65.173L73.0263 63.4958L71.0354 64.7363L69.5621 62.3942Z" fill="#430700"/>
<path d="M71.6424 60.975L73.5736 62.8507L71.3936 68.4579L73.8424 63.1186L75.2858 63.9126L74.0514 62.8705L75.2957 60.1017L73.7727 62.6026L71.6424 60.975Z" fill="#430700"/>
<path d="M76.6495 57.9282C76.7291 57.9282 80.9 56.5388 80.9 56.5388L83.6077 57.1144L86.1162 58.5535L88.3759 62.3942L86.6836 64.9943L79.6358 68.2198L76.4404 61.6002L76.6495 57.9282Z" fill="#490A00"/>
<path d="M79.6756 59.1688L79.2476 57.1144L80.8403 56.5686L83.4782 57.174L85.9171 58.5733L86.7433 59.9826L85.2999 61.2628L83.4085 61.2529L81.0593 60.32L79.6756 59.1688Z" fill="#FF3333"/>
<path d="M77.5358 60.5483L76.6797 57.9183L79.248 57.1144L79.676 59.1688L77.5358 60.5483Z" fill="#FF7E71"/>
<path d="M81.0096 60.3299L79.4468 62.3644L83.1498 63.8332L83.4087 61.2529L81.0096 60.3299Z" fill="#E31400"/>
<path d="M85.3003 61.2628L85.9374 63.595L88.1274 62.3247L86.7437 59.9826L85.3003 61.2628Z" fill="#9D0D00"/>
<path d="M79.4469 62.3644L77.5356 60.5482L79.6759 59.1688L81.0098 60.3299L79.4469 62.3644Z" fill="#FF4943"/>
<path d="M83.1499 63.8332L85.9372 63.595L85.3001 61.2628L83.4087 61.2529L83.1499 63.8332Z" fill="#FF0A02"/>
<path d="M79.4468 62.3644L79.5762 67.9518L83.1498 63.8332L79.4468 62.3644Z" fill="#C71A00"/>
<path d="M77.5356 60.5482L79.5763 67.9518L79.4469 62.3644L77.5356 60.5482Z" fill="#FF281B"/>
<path d="M85.9371 63.595L79.5762 67.9518L83.1498 63.8332L85.9371 63.595Z" fill="#AA0F00"/>
<path d="M86.4845 64.8455L85.937 63.595L88.127 62.3247L86.4845 64.8455Z" fill="#6C0900"/>
<path d="M76.4507 61.501L77.5357 60.5482L76.6796 57.9183L76.4507 61.501Z" fill="#FF6B67"/>
<path d="M85.9371 63.595L86.4846 64.8455L79.5762 67.9518L85.9371 63.595Z" fill="#7F0B00"/>
<path d="M77.5357 60.5482L79.5764 67.9518L76.4507 61.501L77.5357 60.5482Z" fill="#FF564B"/>
<path d="M79.2478 57.1144L79.7555 58.9901L81.0794 60.1811L83.3789 61.1239L85.2603 61.1636L86.7435 59.9826L85.3897 61.3025L83.4088 61.3323L80.96 60.4292L79.4469 62.3644L80.9301 60.2604L79.6261 59.268L77.5356 60.5483L79.4668 59.0695L79.2478 57.1144Z" fill="white"/>
<path d="M79.0289 57.1938L76.6797 57.9183L76.5005 60.717L76.7294 58.3351L77.3367 59.9329L76.9186 58.0275L79.0289 57.1938Z" fill="white"/>
<path d="M83.389 61.5308L83.0008 63.7042L81.0696 63.0095L82.9311 63.863L80.0244 67.4357L83.2198 63.9523L85.1808 63.6645L83.389 63.6546V61.5308Z" fill="#430700"/>
<path d="M85.31 61.4613L85.8077 63.466L82.0947 66.225L85.8675 63.7538L86.4846 64.8455L86.1064 63.6744L88.0475 62.3743L86.0367 63.3866L85.31 61.4613Z" fill="#430700"/>
<path d="M79.2279 62.4636C79.3175 62.5232 85.0214 61.8285 85.0214 61.8285L88.3163 63.2874L91.0837 65.8478L92.9352 71.3459L90.0783 74.2041L80.2134 76.4172L77.9238 67.1281L79.2279 62.4636Z" fill="#490A00"/>
<path d="M82.7319 64.8455L82.7419 62.1262L84.912 61.8483L88.1074 63.3271L90.8448 65.7784L91.5218 67.7831L89.3417 69.0336L86.9327 68.5076L84.1853 66.6914L82.7319 64.8455Z" fill="#FF3333"/>
<path d="M79.6361 66.0364L79.2578 62.4537L82.7419 62.1262L82.7319 64.8455L79.6361 66.0364Z" fill="#FF7E71"/>
<path d="M84.1155 66.6914L81.5771 68.8648L85.8974 71.733L86.9327 68.5076L84.1155 66.6914Z" fill="#E31400"/>
<path d="M89.3418 69.0335L89.521 72.1696L92.6566 71.1375L91.5218 67.7831L89.3418 69.0335Z" fill="#9D0D00"/>
<path d="M81.5769 68.8648L79.6357 66.0364L82.7316 64.8455L84.1153 66.6914L81.5769 68.8648Z" fill="#FF4943"/>
<path d="M85.8975 71.733L89.5209 72.1696L89.3417 69.0335L86.9327 68.5076L85.8975 71.733Z" fill="#FF0A02"/>
<path d="M81.5771 68.8648L80.2432 76.0203L85.8973 71.733L81.5771 68.8648Z" fill="#C71A00"/>
<path d="M79.6357 66.0364L80.243 76.0203L81.5769 68.8648L79.6357 66.0364Z" fill="#FF281B"/>
<path d="M89.5208 72.1696L80.2432 76.0203L85.8973 71.733L89.5208 72.1696Z" fill="#AA0F00"/>
<path d="M89.8694 73.9163L89.521 72.1696L92.6567 71.1375L89.8694 73.9163Z" fill="#6C0900"/>
<path d="M78.0034 66.9594L79.636 66.0364L79.2577 62.4537L78.0034 66.9594Z" fill="#FF6B67"/>
<path d="M89.5208 72.1696L89.8692 73.9163L80.2432 76.0203L89.5208 72.1696Z" fill="#7F0B00"/>
<path d="M79.636 66.0364L80.2432 76.0203L78.0034 66.9594L79.636 66.0364Z" fill="#FF564B"/>
<path d="M82.7415 62.1262L82.8809 64.647L84.2447 66.5128L86.9324 68.3388L89.3115 68.8847L91.5214 67.7831L89.431 69.103L86.9025 68.6068L84.0257 66.8105L81.5769 68.8648L84.0356 66.5822L82.642 64.9646L79.6357 66.0364L82.4927 64.6669L82.7415 62.1262Z" fill="white"/>
<path d="M82.433 62.156L79.2575 62.4537L78.272 65.9769L79.2077 62.9996L79.5462 65.2028L79.5262 62.6522L82.433 62.156Z" fill="white"/>
<path d="M86.8233 68.8648L85.7483 71.5146L83.4786 70.1252L85.6089 71.7032L80.9502 75.4844L85.9573 71.8918L88.5355 72.0505L86.246 71.5643L86.8233 68.8648Z" fill="#430700"/>
<path d="M89.2919 69.2816L89.3815 71.9711L83.9165 74.4919L89.3915 72.3483L89.8693 73.9163L89.71 72.3185L92.5371 71.1772L89.7001 71.9314L89.2919 69.2816Z" fill="#430700"/>
<path d="M52.9082 76.0699C52.9978 76.0004 54.3018 70.4329 54.3018 70.4329L56.8104 67.8526L60.175 66.1357L65.9884 66.2944L67.6906 69.9466L66.3468 79.9305L56.8104 78.8785L52.9082 76.0699Z" fill="#490A00"/>
<path d="M56.3625 73.6087L53.8042 72.6658L54.282 70.542L56.7806 68.051L60.0258 66.3341L62.156 66.3937L62.5741 68.8648L61.2502 70.939L58.5923 72.8842L56.3625 73.6087Z" fill="#FF3333"/>
<path d="M56.4122 76.9134L52.9082 76.0401L53.8041 72.6658L56.3624 73.6086L56.4122 76.9134Z" fill="#FF7E71"/>
<path d="M58.5723 72.9437L59.7469 76.0798L63.9278 73.0132L61.25 70.939L58.5723 72.9437Z" fill="#E31400"/>
<path d="M62.5739 68.8648L65.5901 69.7779L65.6996 66.4929L62.1558 66.3937L62.5739 68.8648Z" fill="#9D0D00"/>
<path d="M59.7468 76.0798L56.4121 76.9135L56.3623 73.6087L58.5722 72.9437L59.7468 76.0798Z" fill="#FF4943"/>
<path d="M63.9278 73.0132L65.5902 69.7779L62.574 68.8648L61.25 70.939L63.9278 73.0132Z" fill="#FF0A02"/>
<path d="M59.7471 76.0798L66.0184 79.7816L63.928 73.0132L59.7471 76.0798Z" fill="#C71A00"/>
<path d="M56.4121 76.9134L66.0182 79.7816L59.7469 76.0798L56.4121 76.9134Z" fill="#FF281B"/>
<path d="M65.5901 69.7779L66.0182 79.7816L63.9277 73.0132L65.5901 69.7779Z" fill="#AA0F00"/>
<path d="M67.3523 70.0458L65.5903 69.7779L65.6998 66.4929L67.3523 70.0458Z" fill="#6C0900"/>
<path d="M56.7208 78.7693L56.4122 76.9135L52.9082 76.0401L56.7208 78.7693Z" fill="#FF6B67"/>
<path d="M65.5903 69.7779L67.3523 70.0458L66.0184 79.7816L65.5903 69.7779Z" fill="#7F0B00"/>
<path d="M56.4121 76.9135L66.0182 79.7816L56.7207 78.7693L56.4121 76.9135Z" fill="#FF564B"/>
<path d="M53.8042 72.6658L56.2231 73.4002L58.4529 72.7651L61.0909 70.8795L62.4248 68.845L62.156 66.3937L62.6737 68.8053L61.3298 70.9986L58.652 73.0727L59.747 76.0798L58.433 72.9933L56.4421 73.7277L56.4123 76.9135L56.1037 73.7774L53.8042 72.6658Z" fill="white"/>
<path d="M53.7245 72.9636L52.9082 76.0401L55.8945 78.1738L53.4059 76.2783L55.5959 76.715L53.1869 75.8615L53.7245 72.9636Z" fill="white"/>
<path d="M61.5488 71.1673L63.6791 73.0827L61.5886 74.7301L63.8085 73.2812L65.7596 78.938L64.1071 73.0132L65.1424 70.6512L63.8981 72.6361L61.5488 71.1673Z" fill="#430700"/>
<path d="M62.793 68.9938L65.3513 69.8374L65.849 75.8218L65.7196 69.9664L67.3521 70.0458L65.7893 69.6488L65.6997 66.612L65.421 69.5198L62.793 68.9938Z" fill="#430700"/>
<path d="M70.0898 67.4853C70.1595 67.4853 72.5785 64.508 72.5785 64.508L74.8481 63.6843H77.3765L80.8307 65.4806V68.1701L77.048 73.6682L71.6129 70.2542L70.0898 67.4853Z" fill="#490A00"/>
<path d="M72.8868 66.9494L71.6226 65.6394L72.5384 64.4981L74.7682 63.734L77.2269 63.6446L78.4912 64.2996L78.0233 65.9074L76.6197 66.7708L74.4397 67.1678L72.8868 66.9494Z" fill="#FF3333"/>
<path d="M71.9511 68.9542L70.0996 67.4159L71.6226 65.6394L72.8869 66.9494L71.9511 68.9542Z" fill="#FF7E71"/>
<path d="M74.4097 67.1975L74.2007 69.4305L77.6151 68.8053L76.6196 66.7708L74.4097 67.1975Z" fill="#E31400"/>
<path d="M78.0234 65.9074L79.5664 67.3365L80.6017 65.3913L78.4913 64.2997L78.0234 65.9074Z" fill="#9D0D00"/>
<path d="M74.2009 69.4305L71.9512 68.9542L72.8869 66.9494L74.4099 67.1975L74.2009 69.4305Z" fill="#FF4943"/>
<path d="M77.6151 68.8053L79.5662 67.3365L78.0232 65.9074L76.6196 66.7708L77.6151 68.8053Z" fill="#FF0A02"/>
<path d="M74.2007 69.4305L76.8983 73.4896L77.6151 68.8053L74.2007 69.4305Z" fill="#C71A00"/>
<path d="M71.9512 68.9542L76.8986 73.4896L74.2009 69.4305L71.9512 68.9542Z" fill="#FF281B"/>
<path d="M79.5662 67.3365L76.8984 73.4896L77.6152 68.8053L79.5662 67.3365Z" fill="#AA0F00"/>
<path d="M80.5519 68.0113L79.5664 67.3365L80.6017 65.3913L80.5519 68.0113Z" fill="#6C0900"/>
<path d="M71.5928 70.1649L71.9511 68.9541L70.0996 67.4159L71.5928 70.1649Z" fill="#FF6B67"/>
<path d="M79.5662 67.3365L80.5517 68.0113L76.8984 73.4896L79.5662 67.3365Z" fill="#7F0B00"/>
<path d="M71.9511 68.9542L76.8985 73.4896L71.5928 70.1649L71.9511 68.9542Z" fill="#FF564B"/>
<path d="M71.6226 65.6394L72.8669 66.7907L74.3899 67.0586L76.5301 66.6914L77.9337 65.8478L78.4912 64.2997L78.093 65.8975L76.6496 66.8304L74.4198 67.2968L74.2008 69.4305L74.3202 67.1876L72.8967 67.0487L71.9511 68.9542L72.6877 66.9792L71.6226 65.6394Z" fill="white"/>
<path d="M71.4932 65.7982L70.0996 67.4159L71.2643 69.5695L70.3286 67.7037L71.5131 68.5969L70.3186 67.3861L71.4932 65.7982Z" fill="white"/>
<path d="M76.7294 66.9891L77.4461 68.7755L75.7041 69.1526L77.466 68.9244L76.9882 72.904L77.7249 68.8549L79.0389 67.7335L77.7149 68.5572L76.7294 66.9891Z" fill="#430700"/>
<path d="M78.1129 66.0463L79.407 67.3067L77.9536 71.0482L79.5861 67.4853L80.5517 68.0113L79.7255 67.3166L80.5617 65.4608L79.5463 67.138L78.1129 66.0463Z" fill="#430700"/>
<path d="M67.2725 66.7212C67.372 66.7906 73.0759 66.1753 73.0759 66.1753L76.351 67.6838L79.0884 70.2741L80.8603 75.8019L77.9636 78.6105L68.0688 80.645L65.9087 71.3261L67.2725 66.7212Z" fill="#490A00"/>
<path d="M70.7563 69.1626L70.7962 66.4334L72.9662 66.1952L76.1517 67.7136L78.8494 70.1947L79.4964 72.2192L77.2965 73.4399L74.8974 72.8743L72.1699 71.0184L70.7563 69.1626Z" fill="#FF3333"/>
<path d="M67.641 70.3039L67.3125 66.7212L70.7966 66.4334L70.7568 69.1626L67.641 70.3039Z" fill="#FF7E71"/>
<path d="M72.1104 71.0184L69.5322 73.1621L73.8226 76.0798L74.8977 72.8743L72.1104 71.0184Z" fill="#E31400"/>
<path d="M77.2969 73.4399L77.4362 76.576L80.5818 75.5836L79.4968 72.2192L77.2969 73.4399Z" fill="#9D0D00"/>
<path d="M69.532 73.1621L67.6406 70.3039L70.7564 69.1626L72.1102 71.0184L69.532 73.1621Z" fill="#FF4943"/>
<path d="M73.8228 76.0798L77.4362 76.576L77.2969 73.4399L74.8978 72.8743L73.8228 76.0798Z" fill="#FF0A02"/>
<path d="M69.5324 73.162L68.1089 80.2877L73.8228 76.0798L69.5324 73.162Z" fill="#C71A00"/>
<path d="M67.6406 70.3039L68.1085 80.2877L69.532 73.1621L67.6406 70.3039Z" fill="#FF281B"/>
<path d="M77.4362 76.576L68.1089 80.2877L73.8228 76.0798L77.4362 76.576Z" fill="#AA0F00"/>
<path d="M77.7645 78.3227L77.436 76.576L80.5817 75.5836L77.7645 78.3227Z" fill="#6C0900"/>
<path d="M65.9883 71.207L67.6407 70.3039L67.3122 66.7212L65.9883 71.207Z" fill="#FF6B67"/>
<path d="M77.4362 76.576L77.7647 78.3227L68.1089 80.2877L77.4362 76.576Z" fill="#7F0B00"/>
<path d="M67.6407 70.3039L68.1086 80.2877L65.9883 71.207L67.6407 70.3039Z" fill="#FF564B"/>
<path d="M70.7962 66.4334L70.8957 68.9641L72.2396 70.8497L74.8975 72.7055L77.2666 73.2911L79.4964 72.2192L77.3861 73.5094L74.8676 72.9735L72.0206 71.1375L69.532 73.1621L72.0206 70.9092L70.6568 69.2817L67.6406 70.3039L70.5075 68.974L70.7962 66.4334Z" fill="white"/>
<path d="M70.4876 66.4632L67.3121 66.7212L66.2769 70.2344L67.2424 67.2571L67.561 69.4702L67.5709 66.9197L70.4876 66.4632Z" fill="white"/>
<path d="M74.7782 73.2216L73.6732 75.8714L71.4235 74.4423L73.5239 76.05L68.8154 79.7617L73.8823 76.2485L76.4505 76.447L74.171 75.9309L74.7782 73.2216Z" fill="#430700"/>
<path d="M77.257 73.688L77.2968 76.3676L71.792 78.8189L77.2968 76.7547L77.7647 78.3227L77.6253 76.7249L80.4624 75.6233L77.6154 76.3378L77.257 73.688Z" fill="#430700"/>
<path opacity="0.2" d="M23.9204 63.8928L4.66846 41.1661L12.0646 27.1728L30.9682 65.5005L23.9204 63.8928Z" fill="url(#paint5_linear)"/>
<path opacity="0.2" d="M32.5215 61.9774C32.2826 62.0369 18.854 20.0174 18.854 20.0174L37.9965 12.4352L42.0579 67.7533L32.5215 61.9774Z" fill="url(#paint6_linear)"/>
<path opacity="0.2" d="M46.1787 69.768V12.5344H68.0189L55.6554 73.2514L46.1787 69.768Z" fill="url(#paint7_linear)"/>
<path opacity="0.3" d="M61.5186 73.7873L78.8195 18.3997L94.7865 23.5306L67.0732 75.9905L61.5186 73.7873Z" fill="url(#paint8_linear)"/>
<path opacity="0.2" d="M79.7754 71.8521L109.778 29.4554L124.81 38.1392L89.929 70.8001L79.7754 71.8521Z" fill="url(#paint9_linear)"/>
<path opacity="0.2" d="M33.7756 67.0288L0 11.2939L19.5407 3.42389L37.8769 68.587L33.7756 67.0288Z" fill="url(#paint10_linear)"/>
<path opacity="0.2" d="M42.2769 69.4404L31.6953 0L52.0622 0.982507L46.9157 73.9361L42.2769 69.4404Z" fill="url(#paint11_linear)"/>
<path opacity="0.2" d="M54.272 75.1072L68.0191 0L88.6747 9.7953L59.9759 77.4196L54.272 75.1072Z" fill="url(#paint12_linear)"/>
<path opacity="0.2" d="M67.1133 78.1639L81.9156 12.8818L108.016 22.2106L77.0976 75.7523L67.1133 78.1639Z" fill="url(#paint13_linear)"/>
<path opacity="0.2" d="M74.3701 79.6724L101.436 11.2939L111.023 26.1903L81.6867 75.1569L74.3701 79.6724Z" fill="url(#paint14_linear)"/>
</g>
<defs>
<linearGradient id="paint0_linear" x1="10.0542" y1="68.6167" x2="109.45" y2="68.6167" gradientUnits="userSpaceOnUse">
<stop offset="0.08" stop-color="#FFE52C"/>
<stop offset="0.14" stop-color="#FFE530"/>
<stop offset="0.2" stop-color="#FFE73C"/>
<stop offset="0.26" stop-color="#FFE950"/>
<stop offset="0.32" stop-color="#FFED6C"/>
<stop offset="0.34" stop-color="#FFEE79"/>
<stop offset="0.37" stop-color="#FFED71"/>
<stop offset="0.43" stop-color="#FFE95B"/>
<stop offset="0.49" stop-color="#FFE338"/>
<stop offset="0.57" stop-color="#FFDA07"/>
<stop offset="0.58" stop-color="#FFD900"/>
<stop offset="0.83" stop-color="#FFD422"/>
<stop offset="1" stop-color="#FFD03B"/>
</linearGradient>
<linearGradient id="paint1_linear" x1="39.9074" y1="71.3658" x2="42.0841" y2="105.605" gradientUnits="userSpaceOnUse">
<stop stop-color="#DBAD00"/>
<stop offset="1" stop-color="#DBAD00"/>
</linearGradient>
<linearGradient id="paint2_linear" x1="-447.739" y1="20306.9" x2="4662.42" y2="20400.1" gradientUnits="userSpaceOnUse">
<stop offset="0.08" stop-color="#FFE52C"/>
<stop offset="0.14" stop-color="#FFE530"/>
<stop offset="0.2" stop-color="#FFE73C"/>
<stop offset="0.26" stop-color="#FFE950"/>
<stop offset="0.32" stop-color="#FFED6C"/>
<stop offset="0.34" stop-color="#FFEE79"/>
<stop offset="0.37" stop-color="#FFED71"/>
<stop offset="0.43" stop-color="#FFE95B"/>
<stop offset="0.49" stop-color="#FFE338"/>
<stop offset="0.57" stop-color="#FFDA07"/>
<stop offset="0.58" stop-color="#FFD900"/>
<stop offset="0.83" stop-color="#FFD422"/>
<stop offset="1" stop-color="#FFD03B"/>
</linearGradient>
<linearGradient id="paint3_linear" x1="798.327" y1="3534.56" x2="2910.1" y2="3573.07" gradientUnits="userSpaceOnUse">
<stop stop-color="#DBAD00"/>
<stop offset="1" stop-color="#DBAD00"/>
</linearGradient>
<linearGradient id="paint4_linear" x1="879.442" y1="2991.86" x2="3108.91" y2="2991.86" gradientUnits="userSpaceOnUse">
<stop stop-color="#DBAD00"/>
<stop offset="1" stop-color="#DBAD00"/>
</linearGradient>
<linearGradient id="paint5_linear" x1="29.9827" y1="68.0411" x2="12.0131" y2="39.7173" gradientUnits="userSpaceOnUse">
<stop stop-color="#F15A24"/>
<stop offset="1" stop-color="white"/>
</linearGradient>
<linearGradient id="paint6_linear" x1="37.5685" y1="66.8899" x2="29.3349" y2="20.9812" gradientUnits="userSpaceOnUse">
<stop offset="0.01" stop-color="#F15A24"/>
<stop offset="1" stop-color="white"/>
</linearGradient>
<linearGradient id="paint7_linear" x1="1185.58" y1="4511.66" x2="1960.58" y2="1209.87" gradientUnits="userSpaceOnUse">
<stop stop-color="#F15A24"/>
<stop offset="1" stop-color="white"/>
</linearGradient>
<linearGradient id="paint8_linear" x1="2174.36" y1="4337.13" x2="3706.86" y2="2325.18" gradientUnits="userSpaceOnUse">
<stop stop-color="#F15A24"/>
<stop offset="1" stop-color="white"/>
</linearGradient>
<linearGradient id="paint9_linear" x1="4111.23" y1="3165.96" x2="4909.55" y2="1970.24" gradientUnits="userSpaceOnUse">
<stop stop-color="#F15A24"/>
<stop offset="1" stop-color="white"/>
</linearGradient>
<linearGradient id="paint10_linear" x1="1504.85" y1="4566.79" x2="-623.529" y2="1977.39" gradientUnits="userSpaceOnUse">
<stop stop-color="#F15A24"/>
<stop offset="1" stop-color="white"/>
</linearGradient>
<linearGradient id="paint11_linear" x1="967.554" y1="5632.46" x2="52.0261" y2="715.334" gradientUnits="userSpaceOnUse">
<stop stop-color="#F15A24"/>
<stop offset="1" stop-color="white"/>
</linearGradient>
<linearGradient id="paint12_linear" x1="2055.48" y1="6089.05" x2="4548.86" y2="2111.72" gradientUnits="userSpaceOnUse">
<stop stop-color="#F15A24"/>
<stop offset="1" stop-color="white"/>
</linearGradient>
<linearGradient id="paint13_linear" x1="2948.73" y1="5275.93" x2="5051.37" y2="1952.16" gradientUnits="userSpaceOnUse">
<stop stop-color="#F15A24"/>
<stop offset="1" stop-color="white"/>
</linearGradient>
<linearGradient id="paint14_linear" x1="2895.88" y1="5225.84" x2="5325.81" y2="2712.31" gradientUnits="userSpaceOnUse">
<stop stop-color="#F15A24"/>
<stop offset="1" stop-color="white"/>
</linearGradient>
<clipPath id="clip0">
<rect width="148.75" height="123.26" fill="white"/>
</clipPath>
</defs>
</svg>
