<svg width="22" height="22" viewBox="0 0 22 22" fill="none" xmlns="http://www.w3.org/2000/svg">
<path d="M1.83508 11.0018C1.83616 15.5112 5.11529 19.3509 9.56904 20.0575V13.651H7.24341V11.0018H9.57179V8.98517C9.46766 8.02958 9.79409 7.07722 10.4624 6.38636C11.1308 5.69551 12.0718 5.33777 13.0304 5.41017C13.7183 5.42128 14.4046 5.48255 15.0837 5.59351V7.84758H13.925C13.5261 7.79534 13.1251 7.92708 12.8349 8.2057C12.5446 8.48432 12.3967 8.87965 12.4327 9.28029V11.0018H14.9728L14.5667 13.6519H12.4327V20.0575C17.2492 19.2963 20.6268 14.8974 20.1185 10.0476C19.6101 5.19784 15.3937 1.59493 10.524 1.84908C5.65424 2.10323 1.83586 6.12545 1.83508 11.0018Z" fill="#D7D7D7"/>
</svg>
