<svg width="22" height="22" viewBox="0 0 22 22" fill="none" xmlns="http://www.w3.org/2000/svg">
<path d="M11.0238 1.83337C6.53849 1.8328 2.71497 5.0857 1.99684 9.51311C1.27871 13.9406 3.87802 18.2353 8.13356 19.6525C8.59189 19.735 8.75597 19.4535 8.75597 19.2115C8.75597 18.9943 8.74864 18.4186 8.74589 17.6532C6.20214 18.2032 5.66497 16.4267 5.66497 16.4267C5.49751 15.874 5.1375 15.3994 4.65022 15.0893C3.82522 14.5219 4.71347 14.5347 4.71347 14.5347C5.30076 14.6152 5.81765 14.9632 6.11322 15.477C6.36341 15.932 6.78491 16.2681 7.28408 16.4108C7.78325 16.5535 8.31873 16.4909 8.77156 16.237C8.81411 15.7731 9.02046 15.3396 9.35362 15.0141C7.32414 14.784 5.19014 13.9994 5.19014 10.495C5.17888 9.58856 5.51546 8.71232 6.13064 8.04654C5.8523 7.25757 5.88508 6.39219 6.22231 5.62654C6.22231 5.62654 6.98956 5.37996 8.73581 6.56246C10.2335 6.1518 11.8141 6.1518 13.3118 6.56246C15.059 5.37904 15.8253 5.62654 15.8253 5.62654C16.1641 6.39183 16.1969 7.25781 15.917 8.04654C16.5344 8.71225 16.8707 9.59076 16.8556 10.4986C16.8556 14.0122 14.7198 14.784 12.683 15.0105C13.1223 15.4597 13.3477 16.0759 13.3017 16.7026C13.3017 17.9255 13.2907 18.9118 13.2907 19.2115C13.2907 19.4563 13.4539 19.7405 13.9205 19.6506C18.1742 18.2311 20.7708 13.9361 20.0511 9.50981C19.3315 5.08355 15.5082 1.83235 11.0238 1.83337Z" fill="#D7D7D7"/>
</svg>
