<svg width="20" height="20" viewBox="0 0 20 20" fill="none" xmlns="http://www.w3.org/2000/svg">
<path d="M9.99988 19.9999C15.5225 19.9999 19.9994 15.523 19.9994 10.0004C19.9994 4.47779 15.5225 0.000854492 9.99988 0.000854492C4.4773 0.000854492 0.000366211 4.47779 0.000366211 10.0004C0.000366211 15.523 4.4773 19.9999 9.99988 19.9999Z" fill="white"/>
<path d="M19.4284 6.66598C19.4273 6.66282 19.4264 6.66012 19.4253 6.65713C18.1454 3.04864 14.8535 0.393796 10.8981 0.0411987C12.4285 0.880228 12.8755 3.53857 13.2671 6.66598C13.5346 8.80212 13.5364 11.1558 13.2722 13.2947C12.8839 16.439 12.435 19.1161 10.8981 19.9586C14.8606 19.6055 18.1573 16.9414 19.4321 13.3231C19.4354 13.3134 19.4382 13.3039 19.4417 13.2946C19.8018 12.2626 19.9999 11.1547 19.9999 10C19.9998 8.83055 19.7973 7.70903 19.4284 6.66598Z" fill="#EFECEC"/>
<path d="M13.7821 6.66598C13.3905 3.53873 12.4288 0.880439 10.8981 0.0411995C10.6021 0.014997 10.3026 0 9.99981 0C5.64972 0 1.95027 2.77848 0.574682 6.65713C0.573587 6.66012 0.572618 6.66282 0.571523 6.66598C0.202665 7.70886 0.00012207 8.83055 0.00012207 10.0001C0.00012207 11.1547 0.198284 12.2627 0.558295 13.2947C0.561623 13.304 0.564614 13.3135 0.567942 13.3231C1.93814 17.2119 5.64264 20 9.99989 20C10.3027 20 10.6021 19.9852 10.8981 19.9586C12.4351 19.1161 13.3989 16.439 13.7871 13.2947C14.0512 11.1558 14.0495 8.80229 13.7821 6.66598Z" fill="#F3F4F5"/>
<path d="M19.8305 8.17339H13.0225C13.0978 9.32002 13.103 10.4973 13.0354 11.6471H19.8627C19.9521 11.1112 19.9997 10.5614 19.9997 10.0001C19.9999 9.37592 19.9406 8.76564 19.8305 8.17339Z" fill="#BE2126"/>
<path d="M13.9229 8.17338H9.08794V0.0426331C7.85099 0.154436 6.67975 0.491826 5.61425 1.01305V8.17355H0.169554C0.0595201 8.76581 0.00012207 9.37592 0.00012207 10.0002C0.00012207 10.5616 0.047809 11.1113 0.137159 11.6472H5.61433V18.9871C6.67979 19.5083 7.85107 19.8457 9.08802 19.9575V11.6471H13.9358C14.0034 10.4973 13.9982 9.32002 13.9229 8.17338Z" fill="#D32027"/>
</svg>
