<svg width="22" height="22" viewBox="0 0 22 22" fill="none" xmlns="http://www.w3.org/2000/svg">
<path d="M11.9167 19.25H8.25V8.25H11.9167V10.0833C12.6982 9.08898 13.8835 8.49619 15.1479 8.46725C17.4218 8.47987 19.2566 10.3303 19.25 12.6042V19.25H15.5833V13.0625C15.4367 12.0382 14.5583 11.2783 13.5236 11.2805C13.071 11.2948 12.6438 11.493 12.3405 11.8292C12.0373 12.1655 11.8842 12.6109 11.9167 13.0625V19.25ZM6.41667 19.25H2.75V8.25H6.41667V19.25ZM4.58333 6.41667C3.57081 6.41667 2.75 5.59586 2.75 4.58333C2.75 3.57081 3.57081 2.75 4.58333 2.75C5.59586 2.75 6.41667 3.57081 6.41667 4.58333C6.41667 5.06956 6.22352 5.53588 5.87969 5.87969C5.53588 6.22352 5.06956 6.41667 4.58333 6.41667Z" fill="#D7D7D7"/>
</svg>
