<svg width="22" height="22" viewBox="0 0 22 22" fill="none" xmlns="http://www.w3.org/2000/svg">
<path d="M4.697 11.1041L4.69947 11.1159C5.04989 12.7795 6.17113 14.2079 7.75796 14.9292L11 16.4028V14.6667H12.8333C15.3646 14.6667 17.4167 12.6146 17.4167 10.0833V9.16667C17.4167 6.63537 15.3646 4.58333 12.8333 4.58333H9.16667C6.63537 4.58333 4.58333 6.63537 4.58333 9.16667V10.0833C4.58333 10.432 4.62193 10.7695 4.69439 11.0925L4.697 11.1041ZM12.8333 19.25L6.99932 16.5982C4.87471 15.6325 3.3745 13.7204 2.90549 11.4937C2.80371 11.0399 2.75 10.5679 2.75 10.0833V9.16667C2.75 5.62284 5.62284 2.75 9.16667 2.75H12.8333C16.3772 2.75 19.25 5.62284 19.25 9.16667V10.0833C19.25 13.6272 16.3772 16.5 12.8333 16.5V19.25Z" fill="#D7D7D7"/>
</svg>
