<svg width="260" height="260" viewBox="0 0 260 260" fill="none" xmlns="http://www.w3.org/2000/svg">
<path d="M130.442 236.189C191.194 236.189 240.443 210.429 240.443 178.651C240.443 146.874 191.194 121.113 130.442 121.113C69.6904 121.113 20.4414 146.874 20.4414 178.651C20.4414 210.429 69.6904 236.189 130.442 236.189Z" fill="#111323"/>
<path d="M92.7265 188.36L98.8001 191.88C99.4979 192.234 100.269 192.419 101.052 192.419C101.834 192.419 102.606 192.234 103.303 191.88L162.167 157.893C163.41 157.175 163.41 156.01 162.167 155.293L156.109 151.793C155.412 151.439 154.64 151.255 153.858 151.255C153.075 151.255 152.304 151.439 151.606 151.793L92.7421 185.78C91.4837 186.477 91.4837 187.642 92.7265 188.36Z" fill="#111111"/>
<path d="M204.277 200.075C219.139 200.075 231.187 193.48 231.187 185.344C231.187 177.208 219.139 170.612 204.277 170.612C189.415 170.612 177.367 177.208 177.367 185.344C177.367 193.48 189.415 200.075 204.277 200.075Z" fill="#0F0F0F"/>
<path d="M38.3707 199.597C46.8051 203.616 60.4811 203.616 68.9155 199.597C77.3499 195.577 77.3499 189.062 68.9155 185.037C60.4811 181.012 46.8051 181.017 38.3707 185.037C29.9363 189.056 29.9363 195.577 38.3707 199.597Z" fill="#0F0F0F"/>
<path d="M160.591 32.0476C160.445 31.0076 159.608 30.6228 158.599 31.2104L103.23 63.1748C102.644 63.5579 102.157 64.0733 101.807 64.6794C101.458 65.2855 101.256 65.9653 101.217 66.664V188.864C101.217 190.044 101.987 190.585 102.975 190.148C102.375 190.404 101.727 190.526 101.076 190.504C100.425 190.482 99.786 190.318 99.2048 190.024L96.896 188.698C96.3089 188.316 95.8202 187.801 95.4697 187.194C95.1191 186.588 94.9165 185.908 94.8784 185.208V63.0136C94.9153 62.314 95.1173 61.6331 95.468 61.0266C95.8187 60.4201 96.3081 59.9053 96.896 59.5244L152.26 27.56C152.884 27.2422 153.573 27.0766 154.273 27.0766C154.972 27.0766 155.662 27.2422 156.285 27.56L158.599 28.8808C159.138 29.2356 159.595 29.7019 159.939 30.2482C160.282 30.7944 160.505 31.4081 160.591 32.0476Z" fill="#455A64"/>
<path d="M158.6 31.2L103.23 63.1748C102.645 63.5579 102.157 64.0733 101.808 64.6794C101.458 65.2855 101.256 65.9653 101.218 66.664V188.864C101.218 190.143 102.123 190.668 103.23 190.024L158.6 158.038C159.185 157.655 159.672 157.14 160.022 156.534C160.371 155.927 160.573 155.248 160.612 154.549V32.3492C160.612 31.0908 159.707 30.5656 158.6 31.2ZM157.711 143.036C157.711 144.134 156.941 144.83 155.984 145.382L105.643 174.444C104.691 174.996 103.917 174.554 103.917 173.451V78.3328C103.95 77.7333 104.124 77.15 104.423 76.6298C104.723 76.1096 105.141 75.667 105.643 75.3376L156 46.28C156.957 45.7288 157.726 46.176 157.726 47.2732L157.711 143.036Z" fill="#37474F"/>
<path d="M102.96 190.128C102.36 190.383 101.712 190.505 101.061 190.483C100.41 190.462 99.7708 190.298 99.1897 190.003L96.8809 188.677C96.2944 188.294 95.8061 187.779 95.4556 187.173C95.1051 186.567 94.9022 185.887 94.8633 185.188V63.0136C94.8892 62.3103 95.0932 61.625 95.4561 61.022L101.795 64.662C101.433 65.2635 101.229 65.9469 101.202 66.6484V188.848C101.218 190.024 101.987 190.564 102.96 190.128Z" fill="#263238"/>
<path d="M130.915 49.8836C131.659 49.452 132.267 49.8004 132.267 50.6636C132.24 51.1322 132.104 51.588 131.869 51.9944C131.635 52.4008 131.308 52.7465 130.915 53.0036C130.171 53.43 129.563 53.0816 129.563 52.2236C129.589 51.7549 129.725 51.2989 129.96 50.8924C130.195 50.486 130.522 50.1404 130.915 49.8836Z" fill="#263238"/>
<path d="M130 171.08C129.664 171.084 129.334 170.998 129.043 170.83C128.357 170.435 128.003 169.624 128.003 168.548C128.067 167.402 128.4 166.287 128.975 165.293C129.549 164.3 130.349 163.455 131.31 162.828C132.241 162.308 133.135 162.209 133.817 162.604C134.498 162.999 134.857 163.81 134.857 164.887C134.793 166.033 134.461 167.148 133.886 168.142C133.312 169.136 132.511 169.98 131.549 170.607C131.083 170.898 130.549 171.061 130 171.08ZM132.839 162.869C132.382 162.889 131.937 163.027 131.549 163.27C130.664 163.849 129.926 164.629 129.397 165.546C128.868 166.462 128.561 167.491 128.502 168.548C128.502 169.432 128.783 170.082 129.303 170.383C129.823 170.685 130.525 170.602 131.289 170.16C132.176 169.579 132.913 168.799 133.443 167.881C133.972 166.963 134.278 165.934 134.337 164.876C134.337 163.992 134.056 163.342 133.536 163.046C133.315 162.923 133.065 162.864 132.813 162.874L132.839 162.869Z" fill="#E6E6E6"/>
<path d="M125.705 58.0944L136.105 52.078C136.729 51.7192 137.233 51.974 137.233 52.6448C137.206 53.0236 137.089 53.3906 136.893 53.7159C136.697 54.0412 136.427 54.3156 136.105 54.5168L125.705 60.5332C125.081 60.892 124.576 60.6372 124.576 59.9664C124.604 59.5876 124.72 59.2206 124.916 58.8953C125.112 58.57 125.382 58.2956 125.705 58.0944Z" fill="#263238"/>
<path d="M157.711 143.047C157.711 144.144 156.941 144.841 155.984 145.392L105.643 174.455C104.691 175.006 103.917 174.564 103.917 173.462V78.3328C103.95 77.7333 104.123 77.15 104.423 76.6298C104.723 76.1096 105.141 75.667 105.643 75.3376L156 46.28C156.957 45.7288 157.726 46.176 157.726 47.2732L157.711 143.047Z" fill="#E6813C"/>
<path opacity="0.75" d="M157.711 143.047C157.711 144.144 156.941 144.841 155.984 145.392L105.643 174.455C104.691 175.006 103.917 174.564 103.917 173.462V78.3328C103.95 77.7333 104.123 77.15 104.423 76.6298C104.723 76.1096 105.141 75.667 105.643 75.3376L156 46.28C156.957 45.7288 157.726 46.176 157.726 47.2732L157.711 143.047Z" fill="white"/>
<path d="M156 46.28L105.659 75.3376C105.157 75.667 104.739 76.1096 104.439 76.6298C104.139 77.15 103.966 77.7333 103.932 78.3328V84.76L157.726 53.6952V47.2732C157.711 46.176 156.941 45.7288 156 46.28Z" fill="#E6813C"/>
<path d="M103.917 166.447V173.462C103.917 174.564 104.691 175.022 105.643 174.455L156 145.392C156.957 144.841 157.726 144.144 157.726 143.047V135.392L103.917 166.447Z" fill="#E6813C"/>
<path opacity="0.15" d="M108.342 166.556L145.959 144.82C146.827 144.3 147.519 144.726 147.519 145.73C147.49 146.275 147.334 146.806 147.063 147.28C146.792 147.754 146.414 148.158 145.959 148.46L108.342 170.196C107.473 170.716 106.782 170.29 106.782 169.286C106.81 168.741 106.966 168.21 107.237 167.736C107.508 167.262 107.886 166.858 108.342 166.556Z" fill="black"/>
<path d="M150.217 141.773V142.88C150.217 143.13 150.347 143.302 150.503 143.265L152.276 142.854C152.432 142.818 152.432 142.906 152.276 143.052L150.503 144.685C150.326 144.88 150.224 145.133 150.217 145.397V146.505C150.217 146.754 150.342 146.812 150.493 146.635L154.7 141.716C154.845 141.539 154.845 141.393 154.7 141.393L150.493 141.326C150.342 141.326 150.217 141.523 150.217 141.773Z" fill="#455A64"/>
<path d="M115.648 102.258L112.975 100.698C112.922 100.677 112.878 100.638 112.85 100.589L112.361 99.7308L113.921 98.8156L113.875 98.9508L115.648 102.258Z" fill="#E0E0E0"/>
<path d="M113.703 98.9612L115.554 102.164C115.578 102.217 115.617 102.261 115.666 102.29C115.716 102.32 115.774 102.333 115.831 102.327C115.888 102.322 115.943 102.299 115.986 102.262C116.03 102.224 116.061 102.174 116.074 102.118L118.03 96.4704L113.703 98.9612Z" fill="#F0F0F0"/>
<path d="M133.042 75.7588C133.017 75.3097 132.887 74.8728 132.662 74.4833C132.437 74.0939 132.124 73.7631 131.747 73.5176C131.345 73.3101 130.899 73.2018 130.447 73.2018C129.994 73.2018 129.549 73.3101 129.147 73.5176L108.232 85.592C107.856 85.8381 107.543 86.1691 107.318 86.5584C107.093 86.9477 106.963 87.3843 106.938 87.8332V98.4308C106.962 98.8799 107.092 99.3169 107.317 99.7063C107.542 100.096 107.855 100.427 108.232 100.672C108.634 100.88 109.08 100.988 109.532 100.988C109.985 100.988 110.43 100.88 110.832 100.672L131.882 88.5144C133.047 87.854 133.057 87.1884 133.057 86.3616L133.042 75.7588Z" fill="#F0F0F0"/>
<path d="M106.937 98.4308C106.962 98.8798 107.092 99.3168 107.317 99.7062C107.542 100.096 107.855 100.427 108.232 100.672C108.595 100.857 108.994 100.962 109.401 100.981C109.808 101 110.214 100.932 110.593 100.781C109.985 101.015 109.522 100.667 109.522 99.9284V89.3256C109.536 88.8752 109.667 88.4362 109.901 88.0516L107.301 86.5592C107.069 86.9446 106.938 87.3831 106.922 87.8332L106.937 98.4308Z" fill="#E0E0E0"/>
<path d="M132.995 75.4C132.844 74.88 132.345 74.6772 131.747 75.0204L110.817 87.0948C110.433 87.3315 110.12 87.6651 109.907 88.062L107.307 86.5696C107.522 86.1758 107.835 85.8443 108.217 85.6076L129.147 73.5332C129.549 73.3282 129.995 73.2213 130.447 73.2213C130.898 73.2213 131.344 73.3282 131.747 73.5332C132.071 73.7425 132.35 74.0161 132.564 74.3372C132.779 74.6583 132.925 75.02 132.995 75.4Z" fill="#FAFAFA"/>
<path d="M112.996 91.8528L127.951 83.2C128.383 82.9504 128.731 83.0648 128.731 83.4548C128.7 83.6954 128.614 83.9255 128.478 84.1268C128.343 84.3281 128.162 84.4951 127.951 84.6144L112.996 93.2672C112.564 93.5168 112.216 93.4024 112.216 93.0124C112.247 92.7718 112.333 92.5417 112.469 92.3404C112.604 92.1391 112.785 91.9721 112.996 91.8528Z" fill="#455A64"/>
<path d="M112.996 94.9208L123.396 88.8784C123.833 88.6288 124.181 88.7432 124.181 89.1332C124.15 89.3743 124.062 89.6047 123.926 89.806C123.79 90.0074 123.608 90.1741 123.396 90.2928L112.996 96.3352C112.564 96.5848 112.216 96.4704 112.216 96.0804C112.247 95.8398 112.333 95.6097 112.469 95.4084C112.604 95.2071 112.785 95.0401 112.996 94.9208Z" fill="#455A64"/>
<path d="M112.996 88.7952L127.951 80.1216C128.383 79.872 128.731 79.9864 128.731 80.3764C128.7 80.617 128.614 80.8471 128.478 81.0484C128.343 81.2497 128.162 81.4167 127.951 81.536L112.996 90.2096C112.564 90.4592 112.216 90.3448 112.216 89.9548C112.247 89.7142 112.333 89.4841 112.469 89.2828C112.604 89.0815 112.785 88.9145 112.996 88.7952Z" fill="#455A64"/>
<path d="M112.809 103.386L111.171 102.45C110.89 102.322 110.58 102.271 110.273 102.302C109.966 102.333 109.673 102.445 109.423 102.627C108.743 103.05 108.175 103.629 107.765 104.317C107.263 105.094 106.977 105.992 106.938 106.917C106.906 107.225 106.957 107.536 107.085 107.819C107.213 108.101 107.413 108.344 107.666 108.524L109.304 109.465C109.588 109.609 109.907 109.672 110.225 109.645C110.543 109.619 110.847 109.504 111.103 109.314C111.826 108.843 112.428 108.208 112.86 107.461C113.292 106.714 113.541 105.875 113.589 105.014C113.622 104.697 113.567 104.377 113.429 104.089C113.291 103.802 113.077 103.559 112.809 103.386Z" fill="#455A64"/>
<path d="M111.171 102.44C110.89 102.312 110.58 102.261 110.273 102.292C109.966 102.323 109.673 102.435 109.424 102.617C108.745 103.041 108.176 103.62 107.765 104.307C107.263 105.084 106.977 105.982 106.938 106.907C106.905 107.215 106.956 107.527 107.083 107.809C107.211 108.092 107.413 108.335 107.666 108.514L109.288 109.444C109.056 109.26 108.874 109.021 108.757 108.749C108.64 108.477 108.592 108.18 108.618 107.884C108.666 107.022 108.916 106.183 109.347 105.435C109.779 104.688 110.38 104.052 111.103 103.579C111.345 103.408 111.625 103.299 111.919 103.262C112.213 103.225 112.511 103.261 112.788 103.366L111.171 102.44Z" fill="#37474F"/>
<path d="M110.999 104.343C111.456 104.078 111.825 104.291 111.825 104.816C111.81 105.104 111.727 105.384 111.584 105.633C111.44 105.882 111.24 106.094 110.999 106.252C110.541 106.512 110.172 106.298 110.172 105.773C110.186 105.486 110.269 105.207 110.413 104.958C110.556 104.71 110.757 104.499 110.999 104.343Z" fill="white"/>
<path d="M111.108 108.867C111.75 108.461 112.274 107.892 112.627 107.219V107.151C112.627 106.283 112.018 105.934 111.269 106.366L110.801 106.636C110.424 106.884 110.107 107.212 109.874 107.599C109.641 107.985 109.498 108.418 109.455 108.867C109.491 108.908 109.531 108.944 109.574 108.976C109.814 109.105 110.085 109.163 110.357 109.144C110.628 109.124 110.889 109.028 111.108 108.867Z" fill="white"/>
<path d="M115.648 140.728L112.975 139.168C112.923 139.145 112.88 139.107 112.85 139.058L112.361 138.2L113.921 137.28L113.875 137.42L115.648 140.728Z" fill="#E0E0E0"/>
<path d="M113.703 137.431L115.554 140.634C115.578 140.687 115.617 140.731 115.666 140.76C115.716 140.789 115.774 140.802 115.831 140.797C115.888 140.792 115.943 140.769 115.986 140.731C116.03 140.694 116.061 140.643 116.074 140.587L118.03 134.94L113.703 137.431Z" fill="#F0F0F0"/>
<path d="M133.041 114.228C133.017 113.779 132.887 113.342 132.662 112.953C132.437 112.564 132.124 112.233 131.747 111.987C131.344 111.782 130.899 111.675 130.447 111.675C129.995 111.675 129.549 111.782 129.147 111.987L108.217 124.062C107.84 124.307 107.526 124.638 107.301 125.027C107.076 125.417 106.946 125.854 106.922 126.303V136.9C106.947 137.349 107.077 137.786 107.302 138.175C107.527 138.565 107.84 138.896 108.217 139.142C108.619 139.349 109.064 139.457 109.517 139.457C109.969 139.457 110.415 139.349 110.817 139.142L131.866 126.984C133.031 126.318 133.041 125.653 133.041 124.831V114.228Z" fill="#F0F0F0"/>
<path d="M106.937 136.9C106.963 137.349 107.093 137.786 107.318 138.175C107.543 138.564 107.856 138.896 108.232 139.142C108.595 139.326 108.994 139.432 109.401 139.45C109.808 139.469 110.214 139.401 110.593 139.251C109.985 139.48 109.522 139.136 109.522 138.398V127.79C109.538 127.34 109.669 126.901 109.901 126.516L107.301 125.029C107.068 125.414 106.937 125.853 106.922 126.303L106.937 136.9Z" fill="#E0E0E0"/>
<path d="M132.995 113.88C132.844 113.329 132.345 113.157 131.747 113.5L110.817 125.575C110.432 125.81 110.118 126.144 109.907 126.542L107.307 125.05C107.522 124.656 107.835 124.324 108.217 124.088L129.147 112.008C129.55 111.805 129.995 111.7 130.447 111.7C130.898 111.7 131.343 111.805 131.747 112.008C132.071 112.218 132.35 112.493 132.564 112.815C132.779 113.137 132.925 113.499 132.995 113.88Z" fill="#FAFAFA"/>
<path d="M112.996 130.322L127.951 121.644C128.383 121.394 128.731 121.508 128.731 121.904C128.699 122.143 128.612 122.372 128.477 122.573C128.342 122.773 128.162 122.939 127.951 123.058L112.996 131.732C112.564 131.986 112.216 131.872 112.216 131.477C112.247 131.237 112.334 131.008 112.47 130.808C112.605 130.607 112.785 130.441 112.996 130.322Z" fill="#455A64"/>
<path d="M112.996 133.385L123.396 127.348C123.833 127.098 124.181 127.213 124.181 127.603C124.15 127.844 124.062 128.074 123.926 128.276C123.79 128.477 123.608 128.644 123.396 128.762L112.996 134.8C112.564 135.049 112.216 134.935 112.216 134.545C112.247 134.304 112.333 134.074 112.469 133.873C112.604 133.671 112.785 133.505 112.996 133.385Z" fill="#455A64"/>
<path d="M112.996 127.265L127.951 118.591C128.383 118.336 128.731 118.451 128.731 118.846C128.7 119.087 128.614 119.317 128.478 119.518C128.343 119.719 128.162 119.886 127.951 120.006L112.996 128.679C112.564 128.929 112.216 128.814 112.216 128.424C112.247 128.184 112.333 127.954 112.469 127.752C112.604 127.551 112.785 127.384 112.996 127.265Z" fill="#455A64"/>
<path d="M112.809 141.856L111.171 140.92C110.89 140.792 110.581 140.741 110.274 140.772C109.967 140.803 109.673 140.915 109.424 141.097C108.744 141.52 108.175 142.099 107.765 142.787C107.263 143.564 106.978 144.462 106.938 145.387C106.907 145.695 106.958 146.006 107.085 146.288C107.213 146.571 107.414 146.814 107.666 146.994L109.304 147.93C109.588 148.076 109.907 148.14 110.225 148.114C110.543 148.089 110.847 147.974 111.104 147.784C111.827 147.312 112.43 146.677 112.861 145.929C113.293 145.18 113.543 144.341 113.589 143.478C113.622 143.162 113.567 142.843 113.429 142.557C113.291 142.27 113.077 142.028 112.809 141.856Z" fill="#455A64"/>
<path d="M111.171 140.92C110.89 140.792 110.58 140.741 110.273 140.772C109.966 140.803 109.673 140.915 109.424 141.097C108.745 141.521 108.176 142.1 107.765 142.787C107.263 143.564 106.977 144.462 106.938 145.387C106.905 145.695 106.956 146.007 107.083 146.289C107.211 146.572 107.413 146.815 107.666 146.994L109.288 147.919C109.055 147.736 108.872 147.497 108.755 147.224C108.638 146.952 108.59 146.655 108.618 146.359C108.653 145.434 108.939 144.535 109.444 143.759C109.854 143.07 110.423 142.489 111.103 142.064C111.345 141.893 111.625 141.785 111.919 141.747C112.213 141.71 112.511 141.746 112.788 141.851L111.171 140.92Z" fill="#37474F"/>
<path d="M110.999 142.808C111.456 142.548 111.825 142.761 111.825 143.286C111.81 143.573 111.727 143.852 111.584 144.1C111.44 144.349 111.24 144.56 110.999 144.716C110.541 144.981 110.172 144.768 110.172 144.243C110.187 143.955 110.27 143.676 110.414 143.426C110.557 143.177 110.758 142.965 110.999 142.808Z" fill="white"/>
<path d="M111.108 147.337C111.751 146.928 112.274 146.358 112.627 145.683V145.6C112.627 144.732 112.018 144.383 111.269 144.815L110.801 145.085C110.424 145.331 110.107 145.659 109.874 146.044C109.641 146.43 109.498 146.863 109.455 147.311C109.489 147.354 109.529 147.393 109.574 147.425C109.812 147.557 110.082 147.618 110.354 147.603C110.625 147.587 110.887 147.495 111.108 147.337Z" fill="white"/>
<path d="M146.926 104.38L144.253 102.82C144.2 102.798 144.157 102.76 144.128 102.71L143.634 101.852L145.225 100.937L145.173 101.078L146.926 104.38Z" fill="#E6813C"/>
<g opacity="0.1">
<path opacity="0.1" d="M146.926 104.38L144.253 102.82C144.2 102.798 144.157 102.76 144.128 102.71L143.634 101.852L145.225 100.937L145.173 101.078L146.926 104.38Z" fill="black"/>
</g>
<path d="M144.981 101.083L146.832 104.286C146.855 104.339 146.895 104.383 146.944 104.412C146.994 104.441 147.052 104.454 147.109 104.449C147.166 104.444 147.221 104.421 147.264 104.383C147.308 104.346 147.339 104.295 147.352 104.239L149.307 98.5972L144.981 101.083Z" fill="#E6813C"/>
<path d="M155.111 83.226C155.086 82.7775 154.957 82.341 154.733 81.9516C154.509 81.5623 154.196 81.2311 153.821 80.9848C153.418 80.7798 152.973 80.6729 152.521 80.6729C152.069 80.6729 151.624 80.7798 151.221 80.9848L130.307 93.08C129.929 93.324 129.616 93.6538 129.391 94.0425C129.166 94.4311 129.036 94.8675 129.012 95.316V105.919C129.036 106.367 129.166 106.804 129.391 107.192C129.616 107.581 129.929 107.911 130.307 108.155C130.709 108.36 131.155 108.467 131.607 108.467C132.058 108.467 132.504 108.36 132.907 108.155L153.92 95.9764C155.079 95.316 155.09 94.6504 155.09 93.8236L155.111 83.226Z" fill="#E6813C"/>
<path d="M135.969 98.8L150.919 90.1264C151.351 89.8768 151.704 89.9912 151.704 90.3812C151.673 90.6223 151.586 90.8527 151.449 91.0541C151.313 91.2554 151.131 91.4221 150.919 91.5408L135.969 100.214C135.538 100.464 135.184 100.35 135.184 99.9596C135.216 99.7185 135.303 99.4881 135.439 99.2867C135.576 99.0854 135.757 98.9187 135.969 98.8Z" fill="#455A64"/>
<path d="M140.499 99.2004L150.899 93.158C151.33 92.9084 151.684 93.0228 151.684 93.4128C151.652 93.6539 151.565 93.8843 151.429 94.0857C151.292 94.287 151.111 94.4537 150.899 94.5724L140.499 100.615C140.067 100.864 139.713 100.75 139.713 100.36C139.745 100.119 139.832 99.8885 139.969 99.6871C140.105 99.4858 140.286 99.3191 140.499 99.2004Z" fill="#455A64"/>
<path d="M135.969 95.7424L150.919 87.0688C151.351 86.8192 151.704 86.9336 151.704 87.3236C151.673 87.5647 151.586 87.7951 151.449 87.9965C151.313 88.1978 151.131 88.3645 150.919 88.4832L135.969 97.1568C135.538 97.4064 135.184 97.292 135.184 96.902C135.216 96.6609 135.303 96.4305 135.439 96.2291C135.576 96.0278 135.757 95.8611 135.969 95.7424Z" fill="#455A64"/>
<path opacity="0.1" d="M129.012 105.903C129.036 106.352 129.166 106.788 129.391 107.177C129.616 107.565 129.93 107.895 130.307 108.139C130.672 108.322 131.071 108.425 131.478 108.444C131.886 108.463 132.293 108.396 132.673 108.248C132.064 108.477 131.601 108.129 131.601 107.39V96.7928C131.617 96.3426 131.748 95.904 131.981 95.5188L129.381 94.0264C129.148 94.4119 129.018 94.8504 129.001 95.3004L129.012 105.903Z" fill="black"/>
<path opacity="0.3" d="M155.069 82.8568C154.918 82.3108 154.419 82.134 153.821 82.4772L132.885 94.5516C132.504 94.7898 132.19 95.123 131.975 95.5188L129.375 94.0316C129.59 93.6358 129.904 93.3026 130.285 93.0644L151.21 80.99C151.613 80.7858 152.059 80.6794 152.51 80.6794C152.962 80.6794 153.407 80.7858 153.81 80.99C154.136 81.1991 154.416 81.4726 154.632 81.7936C154.848 82.1146 154.997 82.4764 155.069 82.8568Z" fill="white"/>
<path d="M154.325 100.36L152.692 99.424C152.411 99.2961 152.102 99.2451 151.795 99.2761C151.488 99.3072 151.195 99.4192 150.945 99.6008C150.264 100.022 149.695 100.602 149.286 101.291C148.783 102.068 148.497 102.966 148.459 103.891C148.427 104.199 148.476 104.51 148.603 104.792C148.73 105.074 148.93 105.318 149.182 105.498L150.825 106.439C151.11 106.583 151.429 106.646 151.747 106.619C152.064 106.593 152.368 106.478 152.625 106.288C153.348 105.816 153.951 105.181 154.383 104.433C154.815 103.684 155.064 102.845 155.11 101.982C155.143 101.666 155.087 101.346 154.949 101.059C154.81 100.773 154.594 100.531 154.325 100.36Z" fill="#455A64"/>
<path d="M152.692 99.429C152.411 99.3011 152.102 99.2501 151.795 99.2812C151.488 99.3122 151.195 99.4243 150.945 99.6058C150.264 100.027 149.695 100.607 149.286 101.296C148.783 102.073 148.497 102.971 148.459 103.896C148.427 104.204 148.476 104.515 148.603 104.797C148.73 105.079 148.93 105.323 149.182 105.503L150.805 106.433C150.574 106.248 150.393 106.009 150.277 105.737C150.161 105.465 150.114 105.168 150.139 104.873C150.176 103.948 150.461 103.05 150.966 102.273C151.374 101.583 151.943 101.002 152.625 100.578C152.867 100.408 153.147 100.299 153.441 100.262C153.734 100.225 154.033 100.26 154.309 100.365L152.692 99.429Z" fill="#37474F"/>
<path d="M152.485 101.4C152.937 101.135 153.311 101.353 153.311 101.878C153.295 102.165 153.212 102.444 153.068 102.692C152.925 102.94 152.725 103.152 152.485 103.308C152.027 103.574 151.658 103.36 151.658 102.83C151.673 102.543 151.756 102.265 151.9 102.016C152.044 101.768 152.244 101.557 152.485 101.4Z" fill="#E6813C"/>
<path d="M152.589 105.934C153.234 105.527 153.759 104.957 154.112 104.281V104.218C154.112 103.35 153.504 103.002 152.755 103.433L152.287 103.704C151.91 103.95 151.593 104.278 151.359 104.663C151.125 105.048 150.98 105.481 150.935 105.929C150.974 105.97 151.016 106.008 151.06 106.044C151.299 106.172 151.569 106.23 151.84 106.211C152.111 106.192 152.37 106.096 152.589 105.934Z" fill="#E6813C"/>
<path d="M146.161 133.879L144.658 133.011C144.643 133.006 144.63 132.997 144.618 132.987C144.606 132.976 144.597 132.963 144.591 132.948L144.31 132.465L145.204 131.945L145.178 132.028L146.161 133.879Z" fill="#E6813C"/>
<g opacity="0.1">
<path opacity="0.1" d="M146.161 133.879L144.658 133.011C144.643 133.006 144.63 132.997 144.618 132.987C144.606 132.976 144.597 132.963 144.591 132.948L144.31 132.465L145.204 131.945L145.178 132.028L146.161 133.879Z" fill="black"/>
</g>
<path d="M145.08 132.028L146.12 133.827C146.135 133.853 146.157 133.873 146.183 133.887C146.209 133.9 146.239 133.906 146.268 133.903C146.298 133.9 146.326 133.889 146.349 133.871C146.372 133.853 146.39 133.829 146.4 133.801L147.498 130.629L145.08 132.028Z" fill="#E6813C"/>
<path d="M153.217 123.068C153.192 122.62 153.062 122.184 152.837 121.796C152.612 121.407 152.299 121.077 151.923 120.832C151.52 120.627 151.075 120.521 150.623 120.521C150.171 120.521 149.725 120.627 149.323 120.832L141.913 125.107C141.537 125.352 141.225 125.682 141.001 126.071C140.777 126.459 140.647 126.895 140.623 127.343V130.172C140.646 130.62 140.775 131.057 141 131.447C141.224 131.836 141.536 132.167 141.913 132.413C142.315 132.62 142.76 132.729 143.213 132.729C143.665 132.729 144.111 132.62 144.513 132.413L152.042 128.055C153.207 127.395 153.217 126.729 153.217 125.908V123.068Z" fill="#E6813C"/>
<path opacity="0.1" d="M140.639 130.172C140.662 130.62 140.791 131.057 141.015 131.447C141.239 131.836 141.552 132.167 141.928 132.413C142.292 132.598 142.692 132.703 143.1 132.722C143.507 132.741 143.915 132.673 144.294 132.522C143.686 132.756 143.223 132.408 143.223 131.669V128.84C143.239 128.39 143.37 127.952 143.603 127.566L141.003 126.074C140.77 126.459 140.639 126.898 140.623 127.348L140.639 130.172Z" fill="black"/>
<path opacity="0.3" d="M153.171 122.72C153.02 122.169 152.521 121.997 151.923 122.34L144.513 126.615C144.13 126.849 143.816 127.181 143.603 127.577L141.003 126.09C141.22 125.696 141.533 125.363 141.913 125.122L149.323 120.848C149.726 120.645 150.172 120.54 150.623 120.54C151.074 120.54 151.52 120.645 151.923 120.848C152.248 121.058 152.526 121.333 152.741 121.655C152.955 121.977 153.102 122.339 153.171 122.72Z" fill="white"/>
<path d="M146.083 128.04C145.877 128.174 145.705 128.355 145.582 128.568C145.459 128.782 145.389 129.021 145.376 129.267C145.376 129.714 145.688 129.901 146.083 129.672C146.289 129.539 146.46 129.358 146.583 129.146C146.706 128.934 146.777 128.695 146.79 128.45C146.79 127.998 146.473 127.816 146.083 128.04Z" fill="#455A64"/>
<path d="M148.32 126.745C148.113 126.879 147.942 127.06 147.819 127.274C147.696 127.487 147.625 127.726 147.612 127.972C147.612 128.419 147.93 128.606 148.32 128.378C148.525 128.244 148.696 128.064 148.819 127.851C148.942 127.639 149.013 127.401 149.027 127.156C149.027 126.703 148.72 126.521 148.32 126.745Z" fill="#455A64"/>
<path d="M150.561 125.45C150.355 125.584 150.184 125.764 150.061 125.976C149.938 126.189 149.867 126.427 149.854 126.672C149.854 127.124 150.171 127.306 150.561 127.083C150.769 126.947 150.942 126.763 151.065 126.547C151.188 126.331 151.258 126.089 151.268 125.84C151.268 125.408 150.951 125.226 150.561 125.45Z" fill="#455A64"/>
<path d="M154.325 130.38L152.692 129.444C152.411 129.316 152.102 129.265 151.795 129.296C151.488 129.327 151.195 129.439 150.945 129.62C150.264 130.042 149.695 130.622 149.286 131.31C148.783 132.087 148.497 132.985 148.459 133.91C148.427 134.218 148.476 134.529 148.603 134.812C148.73 135.094 148.93 135.337 149.182 135.517L150.825 136.458C151.11 136.603 151.429 136.665 151.747 136.639C152.064 136.612 152.368 136.497 152.625 136.308C153.348 135.837 153.95 135.202 154.382 134.454C154.813 133.707 155.063 132.869 155.11 132.007C155.144 131.69 155.088 131.369 154.949 131.082C154.811 130.794 154.594 130.551 154.325 130.38Z" fill="#455A64"/>
<path d="M152.692 129.444C152.411 129.316 152.102 129.265 151.795 129.296C151.488 129.327 151.195 129.439 150.945 129.62C150.264 130.042 149.695 130.622 149.286 131.31C148.783 132.087 148.497 132.985 148.459 133.91C148.427 134.218 148.476 134.529 148.603 134.812C148.73 135.094 148.93 135.337 149.182 135.517L150.805 136.448C150.574 136.262 150.393 136.023 150.277 135.751C150.161 135.479 150.114 135.183 150.139 134.888C150.176 133.963 150.461 133.065 150.966 132.288C151.376 131.599 151.944 131.018 152.625 130.593C152.867 130.422 153.147 130.313 153.441 130.276C153.734 130.239 154.033 130.275 154.309 130.38L152.692 129.444Z" fill="#37474F"/>
<path d="M152.485 131.42C152.937 131.16 153.311 131.373 153.311 131.898C153.295 132.184 153.212 132.463 153.068 132.712C152.925 132.96 152.725 133.171 152.485 133.328C152.027 133.593 151.658 133.38 151.658 132.85C151.673 132.563 151.756 132.284 151.9 132.036C152.044 131.787 152.244 131.576 152.485 131.42Z" fill="#E6813C"/>
<path d="M152.589 135.949C153.234 135.542 153.759 134.971 154.112 134.295V134.233C154.112 133.364 153.504 133.016 152.755 133.448L152.287 133.718C151.91 133.965 151.593 134.293 151.359 134.678C151.125 135.063 150.98 135.495 150.935 135.944C150.974 135.984 151.016 136.023 151.06 136.058C151.299 136.187 151.569 136.245 151.84 136.226C152.111 136.206 152.37 136.11 152.589 135.949Z" fill="#E6813C"/>
<path d="M199.467 111.332L196.794 109.772C196.742 109.747 196.699 109.707 196.669 109.658L196.181 108.8L197.767 107.884L197.715 108.025L199.467 111.332Z" fill="#E0E0E0"/>
<path d="M197.522 108.035L199.374 111.238C199.397 111.291 199.436 111.335 199.486 111.364C199.535 111.394 199.593 111.407 199.65 111.401C199.708 111.396 199.762 111.373 199.806 111.336C199.849 111.298 199.88 111.248 199.894 111.192L201.828 105.56L197.522 108.035Z" fill="#F0F0F0"/>
<path d="M216.84 84.8328C216.815 84.3839 216.685 83.9473 216.46 83.558C216.235 83.1687 215.922 82.8377 215.546 82.5916C215.144 82.3841 214.698 82.2758 214.246 82.2758C213.793 82.2758 213.347 82.3841 212.946 82.5916L192.016 94.6608C191.639 94.9069 191.326 95.2379 191.101 95.6272C190.876 96.0165 190.746 96.4531 190.721 96.902V107.5C190.745 107.949 190.875 108.386 191.1 108.775C191.325 109.164 191.639 109.495 192.016 109.741C192.418 109.946 192.864 110.053 193.316 110.053C193.767 110.053 194.213 109.946 194.616 109.741L215.665 97.578C216.825 96.9176 216.84 96.252 216.84 95.4252V84.8328Z" fill="#F0F0F0"/>
<path d="M190.757 107.505C190.782 107.954 190.912 108.391 191.137 108.78C191.362 109.17 191.675 109.501 192.052 109.746C192.416 109.929 192.815 110.032 193.221 110.05C193.628 110.068 194.034 110 194.413 109.85C193.805 110.084 193.342 109.736 193.342 108.997V98.3996C193.357 97.9494 193.488 97.5108 193.721 97.1256L191.121 95.6332C190.888 96.0187 190.758 96.4572 190.742 96.9072L190.757 107.505Z" fill="#E0E0E0"/>
<path d="M216.84 84.4636C216.69 83.9176 216.19 83.7408 215.592 84.084L194.636 96.1584C194.253 96.3951 193.939 96.7287 193.726 97.1256L191.126 95.6384C191.341 95.2427 191.655 94.9094 192.036 94.6712L212.961 82.5968C213.364 82.3926 213.81 82.2862 214.261 82.2862C214.713 82.2862 215.158 82.3926 215.561 82.5968C215.891 82.8039 216.174 83.0764 216.395 83.3975C216.615 83.7186 216.766 84.0815 216.84 84.4636Z" fill="#F5F5F5"/>
<path d="M196.815 100.927L211.765 92.2532C212.202 92.0036 212.55 92.118 212.55 92.508C212.519 92.7491 212.432 92.9795 212.295 93.1809C212.159 93.3822 211.977 93.5489 211.765 93.6676L196.815 102.341C196.384 102.591 196.035 102.476 196.035 102.086C196.066 101.846 196.153 101.616 196.288 101.414C196.423 101.213 196.604 101.046 196.815 100.927Z" fill="#455A64"/>
<path d="M196.815 104L207.215 97.9576C207.647 97.708 208 97.8224 208 98.2124C207.969 98.4535 207.882 98.6839 207.745 98.8853C207.609 99.0866 207.427 99.2533 207.215 99.372L196.815 105.414C196.384 105.664 196.035 105.55 196.035 105.16C196.066 104.919 196.153 104.689 196.288 104.488C196.423 104.286 196.604 104.119 196.815 104Z" fill="#455A64"/>
<path d="M196.815 97.8692L211.765 89.1956C212.202 88.946 212.55 89.0604 212.55 89.4504C212.519 89.6915 212.432 89.9219 212.295 90.1233C212.159 90.3246 211.977 90.4913 211.765 90.61L196.815 99.2836C196.384 99.5332 196.035 99.4188 196.035 99.0288C196.066 98.7882 196.153 98.5581 196.288 98.3568C196.423 98.1555 196.604 97.9885 196.815 97.8692Z" fill="#455A64"/>
<path d="M52.8682 70.642L55.541 69.082C55.5939 69.0585 55.6378 69.0183 55.6658 68.9676L56.1858 68.1096L54.5946 67.1944L54.6466 67.3348L52.8682 70.642Z" fill="#E6813C"/>
<g opacity="0.1">
<path opacity="0.1" d="M52.8682 70.642L55.541 69.082C55.5939 69.0585 55.6378 69.0183 55.6658 68.9676L56.1858 68.1096L54.5946 67.1944L54.6466 67.3348L52.8682 70.642Z" fill="black"/>
</g>
<path d="M54.8132 67.34L52.962 70.5432C52.9387 70.5959 52.8995 70.64 52.8498 70.6692C52.8002 70.6985 52.7426 70.7114 52.6852 70.7063C52.6278 70.7011 52.5735 70.6781 52.5299 70.6404C52.4863 70.6028 52.4555 70.5524 52.442 70.4964L50.4868 64.8544L54.8132 67.34Z" fill="#E6813C"/>
<path d="M44.6836 49.4832C44.7076 49.0347 44.8374 48.5983 45.0624 48.2097C45.2875 47.8211 45.6014 47.4912 45.9784 47.2472C46.3811 47.0422 46.8265 46.9353 47.2784 46.9353C47.7303 46.9353 48.1757 47.0422 48.5784 47.2472L69.5136 59.3216C69.8891 59.5668 70.2015 59.897 70.4255 60.2855C70.6496 60.674 70.779 61.1098 70.8032 61.5576V72.1604C70.779 72.6082 70.6496 73.044 70.4255 73.4325C70.2015 73.8209 69.8891 74.1512 69.5136 74.3964C69.1109 74.6014 68.6654 74.7083 68.2136 74.7083C67.7617 74.7083 67.3163 74.6014 66.9136 74.3964L45.8536 62.2336C44.694 61.5732 44.6836 60.9076 44.6836 60.086V49.4832Z" fill="#E6813C"/>
<path d="M63.8249 65.0572L48.8801 56.3836C48.4485 56.134 48.1001 56.2484 48.1001 56.6384C48.131 56.879 48.2176 57.1091 48.353 57.3104C48.4884 57.5117 48.6689 57.6787 48.8801 57.798L63.8301 66.4716C64.2669 66.7212 64.6153 66.6068 64.6153 66.2168C64.5833 65.9752 64.4951 65.7445 64.3579 65.5431C64.2206 65.3417 64.0381 65.1753 63.8249 65.0572Z" fill="#455A64"/>
<path d="M59.2801 65.4576L48.8801 59.4152C48.4485 59.1656 48.1001 59.28 48.1001 59.67C48.1294 59.9125 48.2153 60.1446 48.3508 60.3479C48.4863 60.5511 48.6676 60.7196 48.8801 60.84L59.2801 66.8824C59.7117 67.132 60.0653 67.0176 60.0653 66.6276C60.0354 66.3846 59.9487 66.1521 59.8123 65.9489C59.6759 65.7456 59.4936 65.5773 59.2801 65.4576Z" fill="#455A64"/>
<path d="M63.8249 61.9996L48.8801 53.326C48.4485 53.0764 48.1001 53.1908 48.1001 53.5808C48.131 53.8214 48.2176 54.0515 48.353 54.2528C48.4884 54.4541 48.6689 54.6211 48.8801 54.7404L63.8249 63.44C64.2617 63.6896 64.6101 63.5752 64.6101 63.1852C64.5825 62.9395 64.497 62.7038 64.3604 62.4977C64.2239 62.2916 64.0404 62.1208 63.8249 61.9996Z" fill="#455A64"/>
<path opacity="0.1" d="M70.7825 72.1604C70.7583 72.6082 70.6289 73.044 70.4049 73.4325C70.1808 73.821 69.8684 74.1512 69.493 74.3964C69.1288 74.5813 68.7296 74.6866 68.3217 74.7054C67.9138 74.7242 67.5065 74.6561 67.127 74.5056C67.7354 74.7344 68.1982 74.386 68.1982 73.6528V63.05C68.1821 62.6 68.0514 62.1615 67.8186 61.776L70.4186 60.2888C70.6525 60.6719 70.7833 61.109 70.7981 61.5576L70.7825 72.1604Z" fill="black"/>
<path opacity="0.3" d="M44.7202 49.1192C44.871 48.568 45.3702 48.3964 45.9682 48.7396L66.9086 60.84C67.2916 61.0747 67.6056 61.4066 67.8186 61.802L70.4186 60.3148C70.2011 59.9212 69.8882 59.5887 69.5086 59.3476L48.563 47.2472C48.1601 47.043 47.7147 46.9366 47.263 46.9366C46.8113 46.9366 46.3659 47.043 45.963 47.2472C45.6396 47.4585 45.3626 47.7334 45.1489 48.0553C44.9353 48.3771 44.7894 48.7391 44.7202 49.1192Z" fill="white"/>
<path d="M176.675 76.5388L173.794 74.8748C173.737 74.8512 173.69 74.8091 173.659 74.7552L173.139 73.8296L174.85 72.8416L174.798 72.9924L176.675 76.5388Z" fill="#263238"/>
<path d="M174.58 72.982L176.571 76.4348C176.602 76.4779 176.644 76.512 176.692 76.5338C176.74 76.5556 176.794 76.5643 176.846 76.559C176.899 76.5538 176.949 76.5347 176.992 76.5038C177.035 76.4728 177.069 76.4311 177.091 76.3828L179.171 70.2988L174.58 72.982Z" fill="#37474F"/>
<path d="M198.229 31.8864C198.203 31.4029 198.064 30.9323 197.821 30.513C197.579 30.0937 197.241 29.7376 196.835 29.4736L195.702 28.8184C195.27 28.5979 194.793 28.483 194.308 28.483C193.824 28.483 193.346 28.5979 192.915 28.8184L166.129 44.2884C165.724 44.5524 165.386 44.9085 165.143 45.3278C164.901 45.7471 164.762 46.2177 164.736 46.7012V72.5348C164.762 73.0183 164.901 73.4889 165.143 73.9082C165.386 74.3275 165.724 74.6837 166.129 74.9476L167.263 75.6028C167.695 75.8233 168.172 75.9382 168.657 75.9382C169.141 75.9382 169.619 75.8233 170.05 75.6028L196.965 60.0392C198.219 59.3268 198.229 58.6092 198.229 57.72V31.8864Z" fill="#37474F"/>
<path d="M164.736 72.5348C164.762 73.0184 164.901 73.4889 165.143 73.9082C165.386 74.3275 165.724 74.6837 166.129 74.9476L167.263 75.6028C167.655 75.8011 168.085 75.9143 168.524 75.9349C168.963 75.9555 169.402 75.8831 169.811 75.7224C169.156 75.9668 168.657 75.5924 168.657 74.802V48.9632C168.673 48.4779 168.815 48.0052 169.067 47.5904L165.147 45.3284C164.894 45.7429 164.752 46.2158 164.736 46.7012V72.5348Z" fill="#263238"/>
<path d="M198.182 31.4912C198.021 30.8984 197.48 30.7112 196.835 31.0804L170.04 46.5504C169.627 46.8058 169.289 47.1643 169.057 47.5904L165.136 45.3284C165.369 44.9034 165.708 44.5453 166.119 44.2884L192.92 28.8184C193.353 28.6023 193.83 28.4899 194.313 28.4899C194.797 28.4899 195.274 28.6023 195.707 28.8184L196.846 29.4736C197.193 29.7022 197.491 29.9988 197.721 30.3456C197.95 30.6923 198.107 31.0821 198.182 31.4912Z" fill="#455A64"/>
<path d="M171.418 50.6948C171.427 50.5445 171.471 50.3985 171.547 50.2684C171.623 50.1384 171.728 50.0279 171.855 49.946L193.96 37.1696C194.095 37.1031 194.244 37.0685 194.394 37.0685C194.545 37.0685 194.693 37.1031 194.828 37.1696L195.317 37.4504C195.442 37.5335 195.546 37.6443 195.621 37.7742C195.696 37.9041 195.739 38.0496 195.749 38.1992V55.1616C195.739 55.3119 195.696 55.4581 195.621 55.5889C195.546 55.7196 195.442 55.8314 195.317 55.9156L173.207 68.692C173.072 68.7585 172.923 68.7931 172.773 68.7931C172.622 68.7931 172.473 68.7585 172.338 68.692L171.855 68.4112C171.728 68.3281 171.623 68.2168 171.547 68.0859C171.471 67.955 171.427 67.8082 171.418 67.6572V50.6948Z" fill="#E6813C"/>
<path opacity="0.4" d="M171.418 50.6948C171.427 50.5445 171.471 50.3985 171.547 50.2684C171.623 50.1384 171.728 50.0279 171.855 49.946L193.96 37.1696C194.095 37.1031 194.244 37.0685 194.394 37.0685C194.545 37.0685 194.693 37.1031 194.828 37.1696L195.317 37.4504C195.442 37.5335 195.546 37.6443 195.621 37.7742C195.696 37.9041 195.739 38.0496 195.749 38.1992V55.1616C195.739 55.3119 195.696 55.4581 195.621 55.5889C195.546 55.7196 195.442 55.8314 195.317 55.9156L173.207 68.692C173.072 68.7585 172.923 68.7931 172.773 68.7931C172.622 68.7931 172.473 68.7585 172.338 68.692L171.855 68.4112C171.728 68.3281 171.623 68.2168 171.547 68.0859C171.471 67.955 171.427 67.8082 171.418 67.6572V50.6948Z" fill="white"/>
<path d="M173.446 51.3708L171.548 50.2684C171.47 50.3974 171.425 50.544 171.418 50.6948V67.6572C171.427 67.8082 171.471 67.955 171.547 68.0859C171.623 68.2168 171.728 68.3282 171.855 68.4112L172.338 68.692C172.473 68.7585 172.622 68.7931 172.773 68.7931C172.923 68.7931 173.072 68.7585 173.207 68.692L173.446 68.5516V51.3708Z" fill="#E6813C"/>
<path opacity="0.3" d="M173.446 51.3708L171.548 50.2684C171.47 50.3974 171.425 50.544 171.418 50.6948V67.6572C171.427 67.8082 171.471 67.955 171.547 68.0859C171.623 68.2168 171.728 68.3282 171.855 68.4112L172.338 68.692C172.473 68.7585 172.622 68.7931 172.773 68.7931C172.923 68.7931 173.072 68.7585 173.207 68.692L173.446 68.5516V51.3708Z" fill="black"/>
<path d="M195.77 38.1992V55.1668C195.761 55.3076 195.721 55.4448 195.654 55.5688C195.587 55.6928 195.493 55.8005 195.38 55.8844H195.354L173.207 68.692C173.164 68.7215 173.114 68.7398 173.063 68.7453C173.011 68.7507 172.958 68.7432 172.91 68.7232C172.864 68.6925 172.827 68.6494 172.804 68.5989C172.781 68.5483 172.773 68.4923 172.78 68.4372V51.48C172.776 51.4194 172.786 51.3585 172.81 51.3027C172.835 51.247 172.873 51.1982 172.921 51.1606C172.968 51.1231 173.025 51.0979 173.085 51.0874C173.145 51.0769 173.206 51.0814 173.264 51.1004L182.572 53.3104L183.789 53.6016C183.933 53.6281 184.082 53.615 184.219 53.5637C184.356 53.5124 184.477 53.4249 184.569 53.3104L185.978 51.3448L195.484 38.1108C195.64 37.882 195.77 37.9236 195.77 38.1992Z" fill="#E6813C"/>
<path d="M195.338 55.9156H195.364C195.468 55.8414 195.555 55.7456 195.619 55.6348C195.699 55.5046 195.746 55.3562 195.754 55.2032L185.957 51.3708L192.514 57.564L195.338 55.9156Z" fill="#E6813C"/>
<path opacity="0.2" d="M195.338 55.9156H195.364C195.468 55.8414 195.555 55.7456 195.619 55.6348C195.699 55.5046 195.746 55.3562 195.754 55.2032L185.957 51.3708L192.514 57.564L195.338 55.9156Z" fill="black"/>
<path d="M172.775 68.4372C172.768 68.4923 172.776 68.5483 172.799 68.5989C172.822 68.6494 172.859 68.6925 172.905 68.7232C172.953 68.7432 173.006 68.7507 173.057 68.7453C173.109 68.7398 173.159 68.7215 173.202 68.692L180.82 64.2928L182.562 53.3052L172.77 68.1564L172.775 68.4372Z" fill="#E6813C"/>
<path opacity="0.2" d="M172.775 68.4372C172.768 68.4923 172.776 68.5483 172.799 68.5989C172.822 68.6494 172.859 68.6925 172.905 68.7232C172.953 68.7432 173.006 68.7507 173.057 68.7453C173.109 68.7398 173.159 68.7215 173.202 68.692L180.82 64.2928L182.562 53.3052L172.77 68.1564L172.775 68.4372Z" fill="black"/>
<path d="M195.635 55.6036C195.571 55.7144 195.484 55.8102 195.38 55.8844L173.207 68.692C173.164 68.7215 173.115 68.7398 173.063 68.7453C173.011 68.7507 172.959 68.7432 172.911 68.7232L183.508 51.8076C183.721 51.4699 184.048 51.2196 184.43 51.1023C184.811 50.9849 185.222 51.0082 185.588 51.168L195.635 55.6036Z" fill="#E6813C"/>
<path opacity="0.3" d="M172.952 51.0692L183.04 55.5152C183.405 55.6811 183.817 55.7081 184.2 55.5913C184.583 55.4745 184.91 55.2218 185.12 54.8808L195.655 37.96L172.952 51.0692Z" fill="black"/>
<path d="M172.952 51.0692L183.092 54.86C183.443 54.9904 183.827 54.9976 184.183 54.8804C184.538 54.7632 184.843 54.5286 185.047 54.2152L195.655 37.96L172.952 51.0692Z" fill="#E6813C"/>
<path d="M204.079 25.48L201.76 24.102C200.959 23.6496 199.857 23.7172 198.64 24.4192C196.191 25.8336 194.205 29.276 194.205 32.11C194.205 33.5192 194.699 34.5124 195.499 34.9804L197.678 36.2284L198.068 35.5732C198.517 35.4655 198.946 35.2901 199.342 35.0532C201.797 33.6336 203.783 30.1912 203.783 27.3624C203.782 26.9803 203.735 26.5996 203.643 26.2288L204.079 25.48Z" fill="#F28F8F"/>
<path d="M200.845 25.7088C198.396 27.1232 196.409 30.5656 196.409 33.3944C196.409 36.2232 198.396 37.3776 200.845 35.958C203.294 34.5384 205.286 31.1012 205.286 28.2724C205.286 25.4436 203.32 24.2944 200.845 25.7088Z" fill="#FFA8A7"/>
<path d="M199.259 30.9556C199.23 30.913 199.219 30.8608 199.228 30.81C199.238 30.7454 199.261 30.6835 199.295 30.628L200.585 28.548L200.704 28.3712C200.746 28.3081 200.801 28.2549 200.866 28.2152L201.594 27.7888C201.611 27.7772 201.632 27.771 201.653 27.771C201.675 27.771 201.695 27.7772 201.713 27.7888C201.73 27.8049 201.743 27.8244 201.751 27.846C201.759 27.8675 201.762 27.8906 201.76 27.9136V33.1136C201.759 33.1754 201.743 33.236 201.713 33.2904C201.686 33.3439 201.645 33.3888 201.594 33.4204L200.808 33.878C200.792 33.8907 200.772 33.8975 200.751 33.8975C200.731 33.8975 200.71 33.8907 200.694 33.878C200.678 33.862 200.665 33.8424 200.657 33.8209C200.649 33.7993 200.645 33.7762 200.647 33.7532V30.238L199.93 31.3768C199.904 31.426 199.861 31.4646 199.81 31.486C199.794 31.4982 199.775 31.5049 199.755 31.5049C199.736 31.5049 199.716 31.4982 199.701 31.486L199.259 30.9556Z" fill="white"/>
<path d="M209.747 161.299C208.483 159.832 207.464 157.752 207.012 157.321C205.696 156.068 204.36 138.32 204.36 138.32C207.433 138.216 209.081 139.36 209.612 141.721C210.142 144.082 212.248 155.501 212.248 155.501" fill="#FFA8A7"/>
<path d="M191.022 162.62C189.493 165.708 185.718 175.006 184.22 181.438C182.816 187.46 182.27 191.63 184.22 193.086C186.17 194.542 191.75 193.658 195.286 186.134C196.393 183.778 200.558 176.509 200.558 176.509C200.558 176.509 203.637 175.401 204.718 174.569C204.718 174.569 214.994 174.866 219.986 173.846C224.978 172.827 230.287 166.722 228.243 166.124C224.567 165.043 217.401 164.258 209.107 163.722L191.022 162.62Z" fill="#37474F"/>
<path d="M215.066 172.557C212.82 173.077 209.492 172.38 207.609 171.834C207.725 171.173 207.704 170.495 207.547 169.842C207.443 170.722 207.16 171.572 206.715 172.338C206.408 172.515 206.143 172.661 205.956 172.754C204.708 173.394 201.276 175.146 200.641 174.595C199.683 173.358 198.321 172.496 196.793 172.156C197.87 172.879 200.985 175.11 199.877 177.7L200.558 176.509C200.558 176.509 203.637 175.401 204.718 174.569C204.718 174.569 210.438 174.736 215.451 174.392L221.369 170.295C221.369 170.295 218.514 170.128 215.066 172.557Z" fill="#263238"/>
<path d="M209.31 179.748C208.234 180.721 206.591 181.501 205.436 181.262C204.282 181.022 202.628 180.908 201.983 183.212C201.25 185.812 198.863 187.418 197.553 188.854C196.243 190.289 196.653 192.442 197.34 193.929C198.494 196.435 200.179 194.922 201.115 193.331C202.051 191.74 204.797 188.822 206.123 187.611C207.592 186.15 209.156 184.786 210.803 183.529L209.31 179.748Z" fill="#FFA8A7"/>
<path d="M224.786 165.932C231.218 165.277 231.348 169.203 229.694 171.86C227.911 174.72 221.104 178.251 217.771 179.946C214.438 181.641 209.784 184.304 209.784 184.304C208.789 183.241 208.163 181.886 208 180.44C211.64 177.882 215.223 171.309 221.333 170.295L224.786 165.932Z" fill="#37474F"/>
<path d="M205.863 181.303C205.72 181.3 205.577 181.286 205.436 181.262C204.282 181.017 202.628 180.908 201.983 183.212C201.25 185.812 198.863 187.418 197.553 188.854C196.243 190.289 196.653 192.442 197.34 193.929C198.494 196.435 200.179 194.922 201.115 193.331C201.625 192.532 202.197 191.774 202.826 191.064C202.537 191.408 202.127 191.629 201.681 191.682C201.235 191.735 200.785 191.616 200.423 191.35C199.95 190.939 200.299 189.493 201.177 188.521C202.056 187.548 205.254 181.225 205.863 181.303Z" fill="#263238"/>
<path d="M206.663 180.544C207.838 180.248 209.565 179.826 210.277 178.89C210.989 177.954 212.466 177.044 214.468 178.37C216.735 179.863 219.575 179.509 221.509 179.722C223.443 179.936 224.541 181.844 224.998 183.414C225.773 186.066 223.547 185.162 221.8 184.574C220.053 183.986 215.992 183.435 214.271 183.664C212.549 183.893 208.233 184.985 208.233 184.985L206.663 180.544Z" fill="#FFA8A7"/>
<path d="M220.969 184.319C221.276 184.397 221.562 184.475 221.801 184.558C223.548 185.146 225.774 186.051 224.999 183.399C224.541 181.839 223.439 179.925 221.51 179.707C219.58 179.488 216.736 179.847 214.469 178.355C212.467 177.044 210.99 177.949 210.278 178.875C210.194 178.979 210.102 179.077 210.002 179.166C210.002 179.166 212.306 179.878 214.843 180.612C217.381 181.345 221.676 182.614 221.837 183.269C221.957 183.758 222.04 184.35 220.969 184.319Z" fill="#263238"/>
<path d="M183.165 191.36C183.539 193.648 186.103 194.75 191.599 193.648C197.095 192.546 208.936 185.032 208.936 185.032C208.936 185.032 209.664 181.158 206.658 180.31C206.658 180.31 203.923 180.83 199.461 181.776C197.447 182.22 195.458 182.77 193.502 183.425C190.486 187.47 187.345 185.838 186.222 187.262C184.335 189.649 183.165 191.36 183.165 191.36Z" fill="#37474F"/>
<path d="M197.303 182.302C195.028 182.783 192.852 183.652 190.871 184.87C190.871 184.87 193.684 181.574 198.031 180.981L197.303 182.302Z" fill="#263238"/>
<path d="M208.265 152.755C208.514 155.095 209.092 163.722 209.092 163.722C207.277 169.842 193.185 168.61 190.46 163.81C191.331 161.817 192.039 159.756 192.576 157.648L191.079 151.102C191.079 151.102 194.662 147.836 191.079 141.17L195.816 139.75L204.36 138.32C205.8 138.398 208.244 141.7 209.185 144.113C209.783 145.657 210.267 148.793 208.265 152.755Z" fill="#E6813C"/>
<path opacity="0.15" d="M200.876 167.872C194.963 167.622 192.238 163.987 192.301 163.03C192.515 161.629 192.807 160.24 193.174 158.87L195.39 159.739L193.564 157.076L192.301 151.403C193.637 149.443 192.977 145.896 192.977 145.896L192.608 145.678C193.039 149.318 191.079 151.102 191.079 151.102L192.576 157.648C192.038 159.753 191.33 161.81 190.46 163.8C191.906 166.358 196.56 167.903 200.876 167.872Z" fill="black"/>
<path d="M200.808 136.048L197.688 136.131C196.659 136.159 195.635 135.984 194.673 135.617C193.711 135.249 192.832 134.695 192.084 133.987C191.336 133.279 190.736 132.431 190.316 131.491C189.897 130.55 189.666 129.537 189.639 128.508C189.605 127.275 189.814 126.047 190.255 124.895C190.695 123.743 191.358 122.689 192.206 121.793C193.054 120.897 194.07 120.178 195.197 119.675C196.323 119.171 197.537 118.895 198.77 118.862C200.003 118.828 201.231 119.037 202.383 119.477C203.535 119.918 204.589 120.581 205.484 121.429C206.38 122.277 207.1 123.293 207.603 124.419C208.106 125.546 208.382 126.76 208.416 127.993C208.473 130.069 207.705 132.084 206.278 133.594C204.852 135.104 202.885 135.986 200.808 136.048Z" fill="#263238"/>
<path d="M191.183 123.942L188.848 123.126C188.893 122.968 188.97 122.821 189.075 122.694C189.179 122.567 189.309 122.463 189.455 122.388C189.601 122.313 189.761 122.27 189.925 122.26C190.089 122.25 190.254 122.274 190.408 122.33C190.719 122.448 190.973 122.682 191.117 122.982C191.261 123.281 191.285 123.625 191.183 123.942Z" fill="#263238"/>
<path d="M191.157 123.339L190.439 120.978C190.592 120.921 190.756 120.895 190.919 120.903C191.082 120.912 191.242 120.954 191.388 121.026C191.534 121.099 191.664 121.201 191.769 121.326C191.874 121.451 191.953 121.596 191.999 121.753C192.093 122.075 192.057 122.42 191.9 122.717C191.742 123.013 191.476 123.236 191.157 123.339Z" fill="#263238"/>
<path d="M204.687 122.907C205.696 123.469 206.991 125.928 207.012 131.165C207.012 135.6 205.623 136.734 204.932 137.067C204.24 137.4 202.82 137.249 201.463 137.067L201.489 138.902C201.489 138.902 203.928 141.57 203.84 142.792C203.751 144.014 200.72 144.648 198.941 143.504C197.652 142.566 196.529 141.418 195.618 140.109L195.483 133.962C195.483 133.962 194.708 134.758 193.325 133.614C192.186 132.668 191.765 131.014 192.613 130.13C192.831 129.91 193.099 129.746 193.394 129.651C193.688 129.556 194.002 129.533 194.307 129.584C194.613 129.635 194.901 129.759 195.149 129.944C195.398 130.129 195.598 130.371 195.733 130.65C195.733 130.65 197.891 130.65 200.72 129.012C201.813 128.376 202.742 127.493 203.431 126.432C204.12 125.372 204.551 124.164 204.687 122.907Z" fill="#FFA8A7"/>
<path d="M202.03 130.182C202.041 130.257 202.035 130.334 202.015 130.407C201.995 130.48 201.959 130.548 201.912 130.607C201.864 130.666 201.805 130.715 201.737 130.75C201.67 130.786 201.596 130.807 201.521 130.812C201.445 130.818 201.369 130.808 201.297 130.783C201.225 130.759 201.159 130.719 201.103 130.668C201.047 130.617 201.002 130.555 200.971 130.485C200.94 130.416 200.924 130.341 200.923 130.265C200.912 130.19 200.918 130.113 200.938 130.04C200.958 129.967 200.993 129.899 201.041 129.84C201.089 129.781 201.148 129.732 201.215 129.697C201.283 129.662 201.356 129.641 201.432 129.635C201.508 129.629 201.584 129.639 201.656 129.664C201.728 129.689 201.793 129.728 201.849 129.779C201.905 129.83 201.95 129.893 201.981 129.962C202.013 130.031 202.029 130.106 202.03 130.182Z" fill="#263238"/>
<path d="M202.28 133.936L203.585 134.316C203.564 134.403 203.525 134.486 203.472 134.558C203.418 134.63 203.35 134.69 203.272 134.736C203.195 134.781 203.108 134.81 203.019 134.821C202.93 134.832 202.839 134.825 202.753 134.8C202.577 134.745 202.43 134.625 202.341 134.464C202.253 134.303 202.231 134.114 202.28 133.936Z" fill="#F28F8F"/>
<path d="M206.554 128.346L205.4 127.598C205.446 127.52 205.507 127.453 205.579 127.4C205.651 127.347 205.734 127.309 205.821 127.289C205.909 127.268 205.999 127.266 206.088 127.281C206.176 127.297 206.261 127.33 206.336 127.379C206.49 127.481 206.598 127.639 206.639 127.819C206.68 127.999 206.649 128.188 206.554 128.346Z" fill="#263238"/>
<path d="M206.331 129.662C206.339 129.737 206.331 129.813 206.309 129.885C206.287 129.957 206.251 130.024 206.202 130.082C206.154 130.14 206.094 130.187 206.027 130.221C205.96 130.255 205.886 130.276 205.811 130.281C205.662 130.291 205.515 130.242 205.402 130.145C205.29 130.047 205.22 129.909 205.208 129.761C205.202 129.688 205.211 129.614 205.234 129.545C205.257 129.475 205.293 129.411 205.341 129.355C205.389 129.3 205.447 129.254 205.513 129.221C205.578 129.188 205.649 129.168 205.722 129.163C205.795 129.157 205.869 129.166 205.938 129.189C206.008 129.212 206.072 129.249 206.128 129.296C206.184 129.344 206.229 129.402 206.262 129.468C206.295 129.533 206.315 129.605 206.32 129.678L206.331 129.662Z" fill="#263238"/>
<path d="M203.809 129.137L203.871 132.766L205.623 132.174L203.809 129.137Z" fill="#F28F8F"/>
<path d="M201.443 137.062C200.013 136.911 197.054 136.146 196.565 134.982C196.767 135.562 197.141 136.068 197.636 136.432C198.531 137.16 201.469 137.925 201.469 137.925L201.443 137.062Z" fill="#F28F8F"/>
<path d="M192.046 178.578V179C192.043 179.209 192.096 179.416 192.199 179.599C192.302 179.782 192.452 179.934 192.634 180.04L203.907 186.524C204.087 186.63 204.292 186.685 204.5 186.685C204.708 186.685 204.913 186.63 205.093 186.524L225.773 174.564C225.956 174.46 226.108 174.308 226.212 174.125C226.316 173.942 226.369 173.735 226.366 173.524V173.238L204.5 185.858L192.046 178.578Z" fill="#EBEBEB"/>
<path d="M226.366 173.259L214.104 166.176C213.997 166.115 213.875 166.082 213.751 166.082C213.627 166.082 213.505 166.115 213.397 166.176L192.124 178.464C192.1 178.478 192.081 178.497 192.067 178.521C192.053 178.545 192.046 178.572 192.046 178.599C192.046 178.627 192.053 178.654 192.067 178.677C192.081 178.701 192.1 178.721 192.124 178.734L204.5 185.884L226.366 173.259Z" fill="#FAFAFA"/>
<path d="M212.238 155.48C213.886 157.877 217.625 163.088 219.305 166.072C220.272 167.794 219.055 169.463 216.413 168.756C214.671 168.293 212.17 164.117 209.747 161.288" fill="#FFA8A7"/>
<path d="M204.391 184.839L197.777 181.028L217.116 169.858L223.766 173.654L204.391 184.839Z" fill="#E0E0E0"/>
<path d="M201.136 174.226L201.261 174.299L204.5 176.171L210.267 172.843L210.387 172.775L207.022 170.83L201.136 174.226Z" fill="#E0E0E0"/>
<path d="M201.261 174.299L204.5 176.171L210.267 172.843L207.022 170.971L201.261 174.299Z" fill="#E6E6E6"/>
<path d="M204.5 185.879V186.68C204.709 186.681 204.913 186.625 205.093 186.519L225.773 174.559C225.956 174.454 226.108 174.303 226.212 174.12C226.316 173.937 226.369 173.729 226.366 173.519V173.233L204.5 185.879Z" fill="#EBEBEB"/>
<g opacity="0.5">
<path opacity="0.5" d="M204.5 185.879V186.68C204.709 186.681 204.913 186.625 205.093 186.519L225.773 174.559C225.956 174.454 226.108 174.303 226.212 174.12C226.316 173.937 226.369 173.729 226.366 173.519V173.233L204.5 185.879Z" fill="#E0E0E0"/>
</g>
<path d="M204.833 186.056C205.028 186.131 205.238 186.162 205.447 186.146C205.656 186.13 205.858 186.067 206.039 185.962L226.631 174.075C226.811 173.973 226.966 173.831 227.084 173.661C227.202 173.491 227.28 173.297 227.313 173.092L229.569 159.64C229.575 159.564 229.575 159.487 229.569 159.411C229.57 159.226 229.534 159.042 229.463 158.871C229.393 158.7 229.289 158.544 229.159 158.413L207.761 170.773C207.626 170.848 207.509 170.951 207.419 171.076C207.329 171.201 207.268 171.345 207.241 171.496L204.833 186.056Z" fill="#E6813C"/>
<g opacity="0.7">
<path opacity="0.7" d="M204.833 186.056C205.028 186.131 205.238 186.162 205.447 186.146C205.656 186.13 205.858 186.067 206.039 185.962L226.631 174.075C226.811 173.973 226.966 173.831 227.084 173.661C227.202 173.491 227.28 173.297 227.313 173.092L229.569 159.64C229.575 159.564 229.575 159.487 229.569 159.411C229.57 159.226 229.534 159.042 229.463 158.871C229.393 158.7 229.289 158.544 229.159 158.413L207.761 170.773C207.626 170.848 207.509 170.951 207.419 171.076C207.329 171.201 207.268 171.345 207.241 171.496L204.833 186.056Z" fill="white"/>
</g>
<path d="M204.5 185.884L204.64 185.962C204.702 185.998 204.767 186.029 204.833 186.056L207.272 171.496C207.299 171.345 207.36 171.201 207.45 171.076C207.54 170.951 207.657 170.848 207.792 170.773L229.19 158.413C229.102 158.332 229.006 158.26 228.904 158.2L207.459 170.576C207.323 170.651 207.206 170.755 207.117 170.881C207.027 171.007 206.966 171.151 206.939 171.304L204.5 185.884Z" fill="#FAFAFA"/>
<path d="M216.434 173.644C216.756 172.519 217.502 171.563 218.514 170.976C219.507 170.399 220.194 170.664 220.043 171.564C219.717 172.688 218.973 173.645 217.963 174.236C216.964 174.808 216.283 174.543 216.434 173.644Z" fill="#E6813C"/>
<path d="M193.804 176.145C192.67 175.365 185.447 170.108 182.561 167.872C179.556 165.542 179.738 164.793 180.102 163.114C180.819 159.796 185.375 149.349 186.628 146.25C188.032 142.792 188.354 142.355 191.079 141.17C192.961 142.657 194.012 146.302 191.479 151.325L186.321 163.462C186.321 163.462 189.758 167.102 191.791 169.026C193.825 170.95 195.619 173.108 197.137 173.274C198.343 173.404 200.481 173.488 200.938 173.909C202.057 175.037 203.099 176.24 204.058 177.507C204.49 178.214 205.514 179.655 204.058 180.107C202.732 180.523 201.651 179.956 200.569 179.218C200.063 178.853 199.582 178.455 199.129 178.027C198.05 178.148 196.96 177.932 196.009 177.408C195.177 176.951 193.804 176.145 193.804 176.145Z" fill="#FFA8A7"/>
<path d="M189.977 145.896H190.127C190.86 145.896 191.584 145.749 192.259 145.464C192.933 145.18 193.544 144.763 194.055 144.239C194.567 143.714 194.968 143.093 195.235 142.412C195.503 141.73 195.631 141.002 195.613 140.27L195.473 134.42C194.751 134.419 194.037 134.561 193.37 134.836C192.703 135.112 192.097 135.517 191.587 136.026C191.076 136.536 190.671 137.142 190.395 137.809C190.119 138.475 189.977 139.19 189.977 139.911V145.896Z" fill="#263238"/>
<path d="M44.0077 126.469C43.4877 127.587 41.8133 129.21 39.8737 127.119C37.0397 124.056 32.3701 113.183 32.3701 113.183L35.4381 111.764L41.6781 120.302L45.0113 124.004" fill="#FFA8A7"/>
<path d="M44.8342 105.591C43.3626 110.526 40.4038 121.519 40.4038 121.519L44.0074 126.469C44.6511 125.201 45.2003 123.887 45.6506 122.538C46.2798 120.822 48.3598 113.974 48.3598 113.974C48.3598 113.974 47.9178 104.094 49.4622 102.773C50.2953 102.035 51.258 101.459 52.3014 101.072C49.8418 101.27 46.1758 101.072 44.8342 105.591Z" fill="#FFA8A7"/>
<path d="M37.9184 106.304C37.102 104.785 36.8784 104.718 36.4156 104.385C35.9528 104.052 32.9576 103.61 31.7356 103.506C30.2796 103.381 29.7648 103.652 30.1756 104.9C31.0388 107.572 33.6596 113.246 34.2472 114.031C34.632 114.551 34.71 115.019 36.3272 115.18C37.8508 115.326 39.7644 115.409 40.326 115.445C40.8876 115.482 41.6676 115.617 41.1632 113.963C40.5201 112.089 39.7772 110.251 38.9376 108.456C38.3084 107.12 37.9184 106.304 37.9184 106.304Z" fill="#263238"/>
<path d="M32.3702 113.183C31.7618 110.5 29.9782 108.025 30.987 107.12L31.507 108.306C31.507 108.306 34.8454 109.106 36.4574 108.982C38.0694 108.857 39.385 108.462 39.827 108.784C40.763 109.444 41.0334 112.252 38.3502 113.277C36.0934 114.14 32.3702 113.183 32.3702 113.183Z" fill="#FFA8A7"/>
<path d="M52.5199 100.194C49.5663 100.225 46.3163 101.301 45.1983 103.615C44.0803 105.929 42.0107 114.4 42.0107 114.4C42.8682 115.184 43.8803 115.779 44.9819 116.148C46.0835 116.517 47.2501 116.652 48.4067 116.542L52.5199 100.194Z" fill="#E6813C"/>
<path opacity="0.1" d="M52.5199 100.194C49.5663 100.225 46.3163 101.301 45.1983 103.615C44.0803 105.929 42.0107 114.4 42.0107 114.4C42.8682 115.184 43.8803 115.779 44.9819 116.148C46.0835 116.517 47.2501 116.652 48.4067 116.542L52.5199 100.194Z" fill="black"/>
<path d="M65.3538 185.474H61.2666V191.422H65.3538V185.474Z" fill="#FFA8A7"/>
<path d="M50.9866 178.11L46.9019 178.251L47.1064 184.196L51.1911 184.056L50.9866 178.11Z" fill="#FFA8A7"/>
<path d="M65.0834 127.4C65.0834 131.305 65.6034 156.52 65.6034 156.52C65.697 157.638 66.7474 159.708 66.5238 164.018C66.2118 169.879 65.7074 186.144 65.7074 186.144C65.7074 186.144 63.7886 188.048 61.0846 186.144C61.0846 186.144 57.3874 164.039 56.6542 158.236C56.0146 153.171 54.933 139.412 54.933 139.412L52.853 155.927C52.853 155.927 53.5186 159.739 53.6642 162.422C53.8098 165.105 51.267 180.315 51.267 180.315C50.6054 180.73 49.8465 180.964 49.0662 180.993C48.2859 181.022 47.5116 180.846 46.821 180.482C46.821 180.482 45.261 158.122 44.8242 155.698C44.3874 153.275 45.9734 127.4 45.9734 127.4H65.0834Z" fill="#37474F"/>
<path d="M58.9315 100.36C59.4099 100.474 63.3463 101.4 65.0831 101.988V127.4C62.2179 130.52 52.2287 131.971 45.9731 127.4V107.484C45.9731 104.302 47.7411 100.48 52.6239 100.204L58.9315 100.36Z" fill="#EBEBEB"/>
<path d="M60.3199 84.0944C60.6482 84.0568 60.9809 84.0943 61.2926 84.2042C61.6043 84.3141 61.8869 84.4935 62.119 84.7288C62.8938 85.5192 62.7326 86.9856 62.119 90.35L59.7271 90.6256L60.3199 84.0944Z" fill="#263238"/>
<path d="M46.3683 83.122C45.8538 83.1243 45.3442 83.0217 44.8707 82.8204C44.1375 82.3992 43.9451 83.2312 44.3507 83.954C44.616 84.4732 45.0102 84.9156 45.4955 85.2388C45.9808 85.5621 46.5409 85.7553 47.1223 85.8C47.1223 85.696 47.8087 83.928 47.8087 83.928L46.3683 83.122Z" fill="#263238"/>
<path d="M59.1863 90.6256C59.5399 90.8388 60.0495 90.1576 60.4863 89.7C60.9231 89.2424 62.3531 88.6132 63.0863 90.116C63.8195 91.6188 62.4571 93.6676 61.3287 94.0212C59.3943 94.6296 59.1031 93.3868 59.1031 93.3868L58.9315 100.36C58.5056 101.295 57.8557 102.11 57.0393 102.733C56.2229 103.356 55.2653 103.768 54.2515 103.932C50.8143 104.4 51.5215 101.561 52.6499 100.173V98.046C51.7904 98.1825 50.9189 98.2278 50.0499 98.1812C48.6199 97.9628 47.7255 96.8344 47.2939 95.29C46.5971 92.8148 46.3319 90.8128 46.9247 85.93C47.5695 80.5844 53.7835 80.5324 57.1427 82.6436C60.5019 84.7548 59.1863 90.6256 59.1863 90.6256Z" fill="#FFA8A7"/>
<path d="M59.1868 91.2236C59.3636 91.2236 60.0448 90.1004 60.4868 89.7C61.1004 89.1384 60.31 84.0944 60.31 84.0944C60.31 84.0944 60.9288 82.1808 59.7172 80.912C58.5056 79.6432 56.1604 79.872 54.4496 79.7992C52.3435 79.8087 50.2575 79.3894 48.3188 78.5668C45.8852 77.5268 45.7188 77.3864 45.4016 78.4524C45.0844 79.5184 44.9856 81.9728 46.4416 83.6108L47.6532 84.058C47.6532 84.058 48.3032 84.6352 50.5756 84.9108C52.6719 85.0694 54.7784 85.0311 56.8676 84.7964C57.528 84.7028 57.6684 85.3424 58.022 87.0844C58.3288 88.6184 58.5888 91.2132 59.1868 91.2236Z" fill="#263238"/>
<path d="M60.3201 84.4896L62.4677 83.3352C62.3973 83.192 62.2988 83.0645 62.178 82.9604C62.0571 82.8562 61.9165 82.7775 61.7646 82.7289C61.6126 82.6804 61.4524 82.663 61.2935 82.6778C61.1347 82.6926 60.9805 82.7394 60.8401 82.8152C60.5556 82.9747 60.343 83.2372 60.2463 83.5487C60.1495 83.8602 60.176 84.197 60.3201 84.4896Z" fill="#263238"/>
<path d="M52.6289 98.0668C52.6289 98.0668 55.8113 97.4272 56.9241 96.8344C57.5862 96.496 58.1302 95.9647 58.4841 95.3108C58.3165 95.963 58.0194 96.5749 57.6105 97.11C56.7993 98.15 52.6497 98.9144 52.6497 98.9144L52.6289 98.0668Z" fill="#F28F8F"/>
<path d="M53.3937 89.83C53.3988 89.9553 53.4406 90.0763 53.5139 90.178C53.5873 90.2797 53.6888 90.3576 53.8061 90.4021C53.9233 90.4465 54.051 90.4555 54.1733 90.428C54.2956 90.4005 54.4071 90.3376 54.494 90.2472C54.5809 90.1568 54.6393 90.0429 54.6619 89.9196C54.6845 89.7962 54.6705 89.669 54.6214 89.5536C54.5723 89.4383 54.4904 89.3399 54.3858 89.2707C54.2813 89.2015 54.1587 89.1645 54.0333 89.1644C53.9475 89.1658 53.8628 89.1841 53.7842 89.2184C53.7055 89.2526 53.6343 89.3021 53.5749 89.364C53.5154 89.4259 53.4688 89.4989 53.4377 89.5789C53.4066 89.6589 53.3917 89.7442 53.3937 89.83Z" fill="#263238"/>
<path d="M54.0801 87.4224L55.4477 88.1764C55.5443 87.9892 55.5652 87.7719 55.5061 87.5697C55.4471 87.3674 55.3126 87.1955 55.1305 87.0896C55.0403 87.0397 54.9408 87.0087 54.8382 86.9985C54.7356 86.9883 54.632 86.9991 54.5337 87.0302C54.4355 87.0614 54.3445 87.1122 54.2665 87.1796C54.1886 87.2471 54.1251 87.3297 54.0801 87.4224Z" fill="#263238"/>
<path d="M52.9204 94.2344L51.48 94.7804C51.5109 94.8785 51.5615 94.9693 51.6286 95.0473C51.6956 95.1253 51.7779 95.1888 51.8703 95.2341C51.9627 95.2793 52.0633 95.3053 52.1661 95.3104C52.2688 95.3156 52.3715 95.2998 52.468 95.264C52.661 95.1831 52.8155 95.0311 52.8997 94.8395C52.9839 94.6479 52.9913 94.4313 52.9204 94.2344Z" fill="#F28F8F"/>
<path d="M47.7047 87.9528L48.9527 86.996C48.8944 86.9119 48.8195 86.8405 48.7327 86.7862C48.6458 86.7319 48.5489 86.6959 48.4477 86.6803C48.3465 86.6648 48.2431 86.67 48.144 86.6956C48.0449 86.7213 47.952 86.7669 47.8711 86.8296C47.7052 86.9602 47.5955 87.1493 47.5646 87.3581C47.5337 87.567 47.5838 87.7797 47.7047 87.9528Z" fill="#263238"/>
<path d="M48.0895 89.648C48.0946 89.7733 48.1364 89.8943 48.2097 89.996C48.2831 90.0977 48.3846 90.1756 48.5019 90.2201C48.6191 90.2645 48.7468 90.2735 48.8691 90.246C48.9914 90.2184 49.1029 90.1556 49.1898 90.0652C49.2767 89.9748 49.335 89.8608 49.3577 89.7375C49.3803 89.6142 49.3662 89.487 49.3172 89.3716C49.2681 89.2562 49.1862 89.1578 49.0816 89.0886C48.9771 89.0194 48.8545 88.9825 48.7291 88.9824C48.6433 88.9837 48.5586 89.0021 48.48 89.0363C48.4013 89.0706 48.3301 89.1201 48.2707 89.1819C48.2112 89.2438 48.1646 89.3169 48.1335 89.3969C48.1024 89.4768 48.0875 89.5622 48.0895 89.648Z" fill="#263238"/>
<path d="M51.3399 89.0448L51.1319 92.8772L49.1299 92.196L51.3399 89.0448Z" fill="#F28F8F"/>
<path d="M61.2665 189.405V188.822C60.8765 188.989 59.9665 192.462 58.3441 193.934C57.0545 195.109 55.2969 196.466 54.8497 197.777C54.4025 199.087 57.2989 199.893 58.4897 199.68C59.8885 199.43 62.3117 198.448 62.9201 197.532C63.5285 196.617 63.8145 195.276 64.3085 194.605C64.8025 193.934 65.9413 193.19 66.2117 192.416C66.3573 191.989 66.1805 191.058 65.9777 190.268C65.7749 189.478 65.5825 188.755 65.3329 188.822V189.28C64.7525 189.737 64.0331 189.981 63.2945 189.972C62.7121 189.977 61.2613 189.862 61.2665 189.405Z" fill="#263238"/>
<path d="M47.0598 182.936C46.8466 182.936 46.675 183.243 46.207 183.747C45.5086 184.455 44.6966 185.04 43.8046 185.479C42.2758 186.243 39.3014 187.424 37.9546 188.027C37.1122 188.406 37.1538 189.42 38.0222 189.998C38.8906 190.575 40.9914 190.996 43.5082 190.429C44.881 190.122 46.6698 188.869 47.7982 188.926C48.9266 188.984 51.0482 188.978 51.8802 188.406C52.7122 187.834 52.4002 186.602 52.1454 185.546C51.8906 184.392 51.5214 182.629 51.1418 182.707V183.071C50.653 183.815 48.1518 184.111 47.0702 183.591L47.0598 182.936Z" fill="#263238"/>
<path d="M72.5921 124.54C72.8469 123.313 70.0961 111.129 69.0197 107.276L64.2513 112.84L67.1841 124.862C66.6377 128.225 65.8381 131.542 64.7921 134.784C64.6008 135.287 64.2305 135.702 63.7521 135.949C62.4781 136.63 61.9373 137.379 60.9545 138.278C60.1849 138.98 59.5609 139.126 59.6389 139.376C59.7595 139.648 59.9785 139.866 60.2522 139.984C60.5259 140.103 60.8342 140.114 61.1157 140.015C61.7464 139.815 62.3519 139.543 62.9201 139.204C62.4214 140.277 61.7543 141.264 60.9441 142.126C59.0929 144.102 58.9317 145.387 62.3793 145.647C64.5373 145.813 66.3521 144.607 68.3021 139.927C68.8637 138.59 69.5709 136.64 70.1013 134.878C71.3493 130.723 72.0045 127.4 72.5921 124.54Z" fill="#FFA8A7"/>
<path d="M62.6287 109.346C61.3287 106.361 61.9787 102.866 63.4191 101.509C67.0591 102.138 68.0107 103.87 69.0195 107.276C70.5795 112.528 71.3543 115.939 71.3543 115.939C70.4391 117.156 66.7939 118.57 65.0831 118.05L62.6287 109.346Z" fill="#E6813C"/>
<path opacity="0.1" d="M62.6287 109.346C61.3287 106.361 61.9787 102.866 63.4191 101.509C67.0591 102.138 68.0107 103.87 69.0195 107.276C70.5795 112.528 71.3543 115.939 71.3543 115.939C70.4391 117.156 66.7939 118.57 65.0831 118.05L62.6287 109.346Z" fill="black"/>
<path opacity="0.1" d="M65.083 118.05L63.4189 112.148L65.083 123.25V118.05Z" fill="black"/>
<path d="M54.9173 139.428C52.8058 138.769 50.864 137.656 49.2285 136.167C49.2285 136.167 50.3257 138.221 53.5913 140.135L53.4145 151.367L54.9173 139.428Z" fill="#263238"/>
</svg>
