<svg width="18" height="14" viewBox="0 0 18 14" fill="none" xmlns="http://www.w3.org/2000/svg">
<path d="M9.10364 8.07842L9.00626 8.07495L8.90904 8.07842C8.90904 8.07842 8.41885 8.11702 8.47841 8.40757C8.53797 8.69812 8.72689 8.72018 8.64638 8.86971C8.57295 9.00632 8.42578 9.08951 8.6604 9.23747C8.83152 9.34508 8.97979 9.42355 9.00626 9.41252C9.03289 9.42355 9.18101 9.34508 9.35292 9.23747C9.58785 9.08951 9.44037 9.00632 9.36678 8.86971C9.28626 8.72018 9.47535 8.69812 9.53491 8.40757C9.59447 8.11702 9.10364 8.07842 9.10364 8.07842Z" fill="#331311"/>
<path d="M17.7512 6.55172V5.86081L17.5621 5.86191L17.6296 4.9972C17.6296 4.9972 17.3108 5.02021 16.886 5.0544L16.7178 3.87661C16.7178 3.87661 16.2715 0.719196 15.7374 0.879438C13.9168 1.42571 10.5693 1.21568 10.5693 1.21568L10.4994 0.865415L9.04789 0.462052L9.00062 0.448975L8.95335 0.462052L7.50187 0.865415L7.43176 1.21568C7.43176 1.21568 4.08448 1.42571 2.26368 0.879438C1.72969 0.719196 1.28332 3.87661 1.28332 3.87661L1.11457 5.05534C0.683631 5.02052 0.358262 4.9972 0.358262 4.9972L0.4257 5.86207L0.232212 5.86081V6.55172L0.0852051 6.54243L0.106161 7.26611H0.917928C1.107 8.06118 1.95217 12.7359 2.22334 13.1064C2.51042 13.4985 3.15943 13.8208 3.66363 13.8767L9.04883 13.9397L14.2659 13.8627C14.7701 13.8067 15.3956 13.4985 15.6827 13.1064C15.9541 12.7359 16.7989 8.06118 16.9883 7.26611H17.877L17.8981 6.54243L17.7512 6.55172ZM17.2508 5.4127L17.2133 5.86412L15.0977 5.87704L15.1079 5.57136L17.2508 5.4127ZM15.6528 1.59383C15.903 1.99893 16.275 4.392 16.3804 5.09631C16.1945 5.11206 16.0045 5.1294 15.8231 5.14673L15.6247 3.965C14.8404 3.35823 15.5594 3.32088 15.5594 3.32088L15.41 2.4338C15.2318 2.46059 11.2418 2.37661 10.8799 2.36904C10.8169 2.05518 10.7088 1.69152 10.7088 1.69152C11.9693 1.98585 15.6528 1.59383 15.6528 1.59383ZM7.83764 1.18763C8.04752 0.988787 8.68454 0.972873 8.94405 0.975079V0.977443C8.94405 0.977443 8.96453 0.976655 9.00014 0.975867C9.03575 0.975079 9.05608 0.977443 9.05608 0.977443V0.975079C9.31574 0.972873 9.95262 0.988787 10.1625 1.18763C10.4286 1.43973 10.466 2.77902 10.466 2.77902C10.0178 3.414 9.00062 3.65208 9.00062 3.65208C9.00062 3.65208 7.98276 3.414 7.53528 2.77902C7.53417 2.7795 7.57152 1.43973 7.83764 1.18763ZM8.98628 4.01148V4.01637L9.0003 4.01401L9.01433 4.01637V4.01148C10.476 3.75434 10.8736 2.98055 10.9193 2.76988C10.9248 2.73933 10.9266 2.70822 10.9245 2.67724L15.2417 2.76059L15.3071 3.15276C14.4761 3.41416 15.3725 4.09578 15.3725 4.09578L15.5244 5.17635C15.1253 5.2181 14.8164 5.25954 14.7717 5.2909L14.7364 5.87893L10.104 5.90713C9.78891 5.1212 9.26611 5.1368 8.99179 5.11648C8.71984 5.15792 8.19389 5.1212 7.87955 5.90713L3.25081 5.87893L3.21568 5.2909C3.17392 5.26175 2.90354 5.22378 2.5443 5.18502L2.69745 4.09578C2.69745 4.09578 3.59383 3.41416 2.76268 3.15276L2.82886 2.7609L7.07677 2.67881C7.07476 2.70937 7.0765 2.74006 7.08197 2.7702C7.12782 2.98086 7.52425 3.75466 8.98628 4.01148ZM7.54347 8.69427L7.26332 9.77279L8.95934 10.9033L8.98785 10.9224L9.02646 10.8967L10.7228 9.76602L10.4426 8.68765L10.7135 7.26611H15.2786C15.1053 8.01627 14.5453 11.3763 14.1874 11.8459C13.9634 12.14 13.8304 12.189 13.2841 12.224C12.7999 12.2555 9.33638 12.3597 8.98518 12.3702C8.63412 12.3597 5.17057 12.255 4.68637 12.224C4.1401 12.189 4.00712 12.14 3.78306 11.8459C3.42067 11.3699 2.8432 7.94758 2.67807 7.26611H7.27215L7.54347 8.69427ZM8.27882 7.2658C8.27882 7.2658 8.1983 6.45687 8.44694 5.92115C8.52147 5.76044 8.63602 5.6815 8.74143 5.64164L8.74726 6.27614C8.69512 6.32396 8.65368 6.38225 8.62566 6.4472C8.59763 6.51216 8.58366 6.5823 8.58465 6.65304C8.58411 6.7524 8.61205 6.84984 8.66516 6.93381L8.66753 7.50104L9.01039 7.46953L9.35324 7.50104L9.35561 6.91932C9.40259 6.83876 9.42713 6.74708 9.42667 6.65382C9.42759 6.58373 9.41385 6.51423 9.38634 6.44976C9.35882 6.38529 9.31814 6.32728 9.2669 6.27945L9.27257 5.6555C9.36884 5.69883 9.46858 5.7773 9.53696 5.92194C9.80198 6.48224 9.70508 7.26659 9.70508 7.26659H9.70713L9.70036 7.49758L10.1346 7.53964C10.1346 7.53964 10.1141 8.73161 10.0412 8.87011C9.85887 9.21675 9.46291 9.52731 8.98376 9.70693C8.51296 9.5262 8.12488 9.21848 7.94494 8.8772C7.87215 8.73855 7.85167 7.54658 7.85167 7.54658L8.28575 7.50467L8.27882 7.2658ZM2.34734 1.59352C2.34734 1.59352 6.03086 1.98553 7.29137 1.69152C7.29137 1.69152 7.18328 2.05628 7.1201 2.37046C6.47677 2.38401 2.83043 2.45933 2.66105 2.43349L2.51152 3.32057C2.51152 3.32057 3.23049 3.35791 2.44629 3.96469L2.24587 5.15461C2.04451 5.13491 1.82975 5.11553 1.61987 5.09741C1.72481 4.39452 2.09698 1.99924 2.34734 1.59383V1.59352ZM2.87959 5.57136L2.88983 5.87704L0.774388 5.86412L0.73673 5.44058L2.87959 5.57136ZM0.610679 6.61475V6.25771H7.77462L7.29137 6.61475H0.610679ZM15.1503 12.7073C14.767 13.1484 14.2749 13.2044 14.2749 13.2044L9.02977 13.3147L3.6307 13.2044C3.6307 13.2044 3.13863 13.1486 2.75528 12.7073C2.32859 12.2158 1.61341 7.92205 1.50611 7.26611H2.23012C2.32922 7.71596 3.19693 11.6508 3.35528 12.126C3.5234 12.6302 4.65785 12.6442 4.65785 12.6442L8.9847 12.7889L13.3117 12.6442C13.3117 12.6442 14.4466 12.6302 14.6146 12.126C14.7731 11.6508 15.6408 7.71596 15.7399 7.26611H16.4001C16.2928 7.92205 15.5776 12.2158 15.1503 12.7073ZM17.3048 6.61475H10.7228L10.2046 6.25771H17.3055L17.3048 6.61475Z" fill="#4D1711"/>
</svg>
