<svg width="20" height="20" viewBox="0 0 20 20" fill="none" xmlns="http://www.w3.org/2000/svg">
<path d="M18.6875 6.4375C18.6875 6.4375 18.6875 6.375 18.6875 6.4375C18.1875 5.25 17.5 4.25 16.6875 3.375C15.8125 2.5 14.8125 1.8125 13.6875 1.375C12.5 0.875 11.25 0.625 10 0.625C8.75 0.625 7.5 0.875 6.4375 1.3125C5.25 1.8125 4.25 2.5 3.375 3.375C2.5 4.25 1.8125 5.25 1.375 6.375C0.875 7.5625 0.625 8.75 0.625 10C0.625 11.25 0.875 12.4375 1.3125 13.5625C1.8125 14.6875 2.5 15.6875 3.3125 16.5625C4.1875 17.4375 5.1875 18.125 6.3125 18.5625C7.5 19.125 8.75 19.375 10 19.375C11.25 19.375 12.5 19.125 13.5625 18.6875C14.6875 18.1875 15.6875 17.5 16.5625 16.6875C17.4375 15.8125 18.125 14.8125 18.5625 13.6875C19.125 12.4375 19.375 11.25 19.375 10C19.375 8.75 19.125 7.5625 18.6875 6.4375ZM17.25 6.3125L15.5 7C15.3125 6.625 15.0625 6.3125 14.8125 6L16.125 4.6875C16.5625 5.1875 16.9375 5.75 17.25 6.3125ZM13.6875 2.75C14.25 3.0625 14.8125 3.375 15.3125 3.8125L14 5.125C13.6875 4.875 13.375 4.625 13 4.4375L13.6875 2.75ZM10.625 1.9375C11.3125 2 11.9375 2.125 12.5 2.3125L11.75 4.0625C11.375 3.9375 11 3.875 10.5625 3.8125V1.9375H10.625ZM9.375 1.9375V3.8125C9 3.875 8.5625 3.9375 8.1875 4.0625L7.5 2.25C8.0625 2.0625 8.6875 1.9375 9.375 1.9375ZM6.3125 2.75L7 4.5C6.625 4.6875 6.3125 4.9375 6 5.1875L4.75 3.8125C5.1875 3.4375 5.75 3.0625 6.3125 2.75ZM3.8125 4.75L5.125 6.0625C4.875 6.375 4.625 6.6875 4.4375 7.0625L2.6875 6.375C3.0625 5.75 3.4375 5.1875 3.8125 4.75ZM2.25 7.5L4 8.25C3.875 8.625 3.8125 9 3.75 9.4375H1.875C1.9375 8.6875 2.0625 8.0625 2.25 7.5ZM1.9375 10.625H3.8125C3.875 11 3.9375 11.4375 4.0625 11.8125L2.25 12.5C2.0625 11.9375 1.9375 11.3125 1.9375 10.625ZM2.75 13.6875L4.5 13C4.6875 13.375 4.9375 13.6875 5.1875 14L3.875 15.3125C3.4375 14.8125 3.0625 14.25 2.75 13.6875ZM6.3125 17.25C5.75 16.9375 5.1875 16.625 4.6875 16.1875L6 14.875C6.3125 15.125 6.625 15.375 7 15.5625L6.3125 17.25ZM9.375 18.0625C8.6875 18 8.0625 17.875 7.5 17.6875L8.25 15.9375C8.625 16.0625 9 16.125 9.4375 16.1875V18.0625H9.375ZM8.75 13.125C8.75 12.6875 9 12.25 9.375 12.0625V11.0625C9.1875 10.9375 9.0625 10.8125 8.9375 10.625H7.9375C7.75 11 7.3125 11.25 6.875 11.25C6.1875 11.25 5.625 10.6875 5.625 10C5.625 9.3125 6.1875 8.75 6.875 8.75C7.3125 8.75 7.75 9 7.9375 9.375H8.9375C9.0625 9.1875 9.1875 9.0625 9.375 8.9375V7.9375C9 7.75 8.75 7.3125 8.75 6.875C8.75 6.1875 9.3125 5.625 10 5.625C10.6875 5.625 11.25 6.1875 11.25 6.875C11.25 7.3125 11 7.75 10.625 7.9375V8.9375C10.8125 9.0625 10.9375 9.1875 11.0625 9.375H12.0625C12.25 9 12.6875 8.75 13.125 8.75C13.8125 8.75 14.375 9.3125 14.375 10C14.375 10.6875 13.8125 11.25 13.125 11.25C12.6875 11.25 12.25 11 12.0625 10.625H11.0625C10.9375 10.8125 10.8125 10.9375 10.625 11.0625V12.0625C11 12.25 11.25 12.6875 11.25 13.125C11.25 13.8125 10.6875 14.375 10 14.375C9.3125 14.375 8.75 13.8125 8.75 13.125ZM10.625 18.0625V16.1875C11 16.125 11.4375 16.0625 11.8125 15.9375L12.5625 17.6875C11.9375 17.9375 11.3125 18.0625 10.625 18.0625ZM13.6875 17.25L13 15.5C13.375 15.3125 13.6875 15.0625 14 14.8125L15.3125 16.125C14.8125 16.5625 14.25 16.9375 13.6875 17.25ZM16.1875 15.25L14.875 13.9375C15.125 13.625 15.375 13.3125 15.5625 12.9375L17.3125 13.625C16.9375 14.25 16.5625 14.8125 16.1875 15.25ZM17.75 12.5L16 11.75C16.125 11.375 16.1875 11 16.25 10.5625H18.125C18.0625 11.3125 17.9375 11.9375 17.75 12.5ZM16.1875 9.375C16.125 9 16.0625 8.5625 15.9375 8.1875L17.6875 7.4375C17.875 8.0625 18 8.6875 18.0625 9.3125H16.1875V9.375Z" fill="#E6813C"/>
</svg>
