<svg width="22" height="22" viewBox="0 0 22 22" fill="none" xmlns="http://www.w3.org/2000/svg">
<path d="M18.3287 6.13062C19.1504 5.63937 19.7653 4.86584 20.0585 3.95445C19.2864 4.4126 18.4415 4.73534 17.5606 4.9087C16.3392 3.61669 14.404 3.30226 12.8364 4.14113C11.2689 4.98 10.4569 6.76448 10.8542 8.49745C7.6914 8.33866 4.74464 6.84462 2.74726 4.38712C1.70487 6.18509 2.23755 8.4835 3.9646 9.63963C3.34008 9.61955 2.72941 9.45043 2.18351 9.14645C2.18351 9.16295 2.18351 9.17946 2.18351 9.19596C2.18387 11.0688 3.50385 12.6821 5.3396 13.0533C4.76032 13.2109 4.1527 13.2341 3.5631 13.1211C4.07936 14.7228 5.55552 15.8201 7.23801 15.8528C5.84453 16.9465 4.12361 17.5396 2.35218 17.5367C2.0382 17.5372 1.72446 17.5191 1.4126 17.4826C3.21146 18.6385 5.3051 19.2521 7.44335 19.25C10.4182 19.2704 13.277 18.0976 15.3805 15.994C17.4839 13.8903 18.6565 11.0313 18.6358 8.05654C18.6358 7.88604 18.6319 7.71645 18.6239 7.54779C19.3944 6.991 20.0592 6.30126 20.5874 5.51095C19.8697 5.82909 19.1084 6.03796 18.3287 6.13062Z" fill="#D7D7D7"/>
</svg>
