<svg width="20" height="20" viewBox="0 0 20 20" fill="none" xmlns="http://www.w3.org/2000/svg">
<path d="M9.16667 5.83333C9.16667 7.67428 7.67428 9.16667 5.83333 9.16667C3.99238 9.16667 2.5 7.67428 2.5 5.83333C2.5 3.99238 3.99238 2.5 5.83333 2.5C7.67428 2.5 9.16667 3.99238 9.16667 5.83333ZM7.5 5.83333C7.5 4.91286 6.75381 4.16667 5.83333 4.16667C4.91286 4.16667 4.16667 4.91286 4.16667 5.83333C4.16667 6.75381 4.91286 7.5 5.83333 7.5C6.75381 7.5 7.5 6.75381 7.5 5.83333Z" fill="#E6813C"/>
<path d="M17.5 9.58332C17.5 11.1942 16.1942 12.5 14.5834 12.5C12.9725 12.5 11.6667 11.1942 11.6667 9.58332C11.6667 7.97249 12.9725 6.66666 14.5834 6.66666C16.1942 6.66666 17.5 7.97249 17.5 9.58332ZM15.8334 9.58332C15.8334 8.89299 15.2737 8.33332 14.5834 8.33332C13.893 8.33332 13.3334 8.89299 13.3334 9.58332C13.3334 10.2737 13.893 10.8333 14.5834 10.8333C15.2737 10.8333 15.8334 10.2737 15.8334 9.58332Z" fill="#E6813C"/>
<path d="M8.33335 17.5V14.1667C8.33335 12.7859 7.21406 11.6667 5.83335 11.6667C4.45264 11.6667 3.33335 12.7859 3.33335 14.1667V17.5H1.66669V14.1667C1.66669 11.8655 3.53217 10 5.83335 10C8.13454 10 10 11.8655 10 14.1667V17.5H8.33335Z" fill="#E6813C"/>
<path d="M16.6666 17.0833V17.5H18.3333V17.0833C18.3333 15.0123 16.6544 13.3333 14.5833 13.3333C12.5122 13.3333 10.8333 15.0123 10.8333 17.0833V17.5H12.5V17.0833C12.5 15.9328 13.4327 15 14.5833 15C15.7339 15 16.6666 15.9328 16.6666 17.0833Z" fill="#E6813C"/>
</svg>
