<svg width="26" height="26" viewBox="0 0 26 26" fill="none" xmlns="http://www.w3.org/2000/svg">
<path d="M23.0381 22.7478H2.96062C2.57359 22.7478 2.21597 22.5413 2.02246 22.2061C1.82894 21.871 1.82894 21.458 2.02246 21.1228L12.0606 3.78946C12.2543 3.45483 12.6116 3.24878 12.9983 3.24878C13.3849 3.24878 13.7422 3.45483 13.9359 3.78946L23.9741 21.1228C24.1674 21.4578 24.1675 21.8705 23.9743 22.2056C23.7811 22.5408 23.4238 22.7474 23.037 22.7478H23.0381ZM12.9999 6.49779L4.84129 20.5811H21.1606L12.9999 6.49779ZM14.0778 16.2489H11.9111V10.8311H14.0778V16.2489Z" fill="#EDC330"/>
<path d="M11.9165 17.3333H14.0832V19.5H11.9165V17.3333Z" fill="#EDC330"/>
</svg>
