<svg width="22" height="22" viewBox="0 0 22 22" fill="none" xmlns="http://www.w3.org/2000/svg">
<path d="M11.0055 17.4277H10.9872C10.9304 17.4277 5.24429 17.4167 3.80971 17.0271C3.02085 16.8146 2.40478 16.1982 2.19271 15.4092C1.93474 13.9539 1.81018 12.478 1.82054 11C1.81388 9.51962 1.94183 8.04169 2.20279 6.58446C2.42069 5.79476 3.03405 5.17549 3.82163 4.95004C5.21679 4.58337 10.7461 4.58337 10.9808 4.58337H11C11.0578 4.58337 16.7585 4.59437 18.1785 4.98396C18.9657 5.19755 19.5805 5.81272 19.7936 6.60004C20.0598 8.06079 20.1848 9.54373 20.1667 11.0285C20.1731 12.507 20.0449 13.9831 19.7835 15.4385C19.5688 16.2265 18.9523 16.8416 18.1638 17.0546C16.7705 17.424 11.2402 17.4277 11.0055 17.4277ZM9.17221 8.25462L9.16763 13.7546L13.9453 11.0046L9.17221 8.25462Z" fill="#D7D7D7"/>
</svg>
